<?xml version="1.0" standalone="no"?>
<!DOCTYPE svg PUBLIC "-//W3C//DTD SVG 1.1//EN" "http://www.w3.org/Graphics/SVG/1.1/DTD/svg11.dtd" >
<svg xmlns="http://www.w3.org/2000/svg">
<metadata></metadata>
<defs>
<font id="midnight_neuebold" horiz-adv-x="611" >
<font-face units-per-em="1000" ascent="800" descent="-200" />
<missing-glyph horiz-adv-x="278" />
<glyph unicode="fi" d="M85 422h-85v95h85v40q0 71 44.5 114t128.5 43q14 0 41 -2t34 -2v-106q-26 3 -52 3q-29 0 -41.5 -13.5t-12.5 -45.5v-31h98v-95h-98v-422h-142v422zM411 517h142v-517h-142v517zM553 597h-142v117h142v-117z" />
<glyph unicode="fl" d="M85 422h-85v95h85v40q0 71 44.5 114t128.5 43q14 0 41 -2t34 -2v-106q-26 3 -52 3q-29 0 -41.5 -13.5t-12.5 -45.5v-31h98v-95h-98v-422h-142v422zM411 714h142v-714h-142v714z" />
<glyph horiz-adv-x="0" />
<glyph unicode="&#x9;" horiz-adv-x="278" />
<glyph unicode="&#xa;" horiz-adv-x="0" />
<glyph unicode="&#xd;" horiz-adv-x="278" />
<glyph horiz-adv-x="0" />
<glyph unicode=" "  horiz-adv-x="278" />
<glyph unicode="&#x09;" horiz-adv-x="278" />
<glyph unicode="&#xa0;" horiz-adv-x="278" />
<glyph unicode="!" horiz-adv-x="278" d="M61 154h157v-154h-157v154zM213 522l-39 -308h-71l-38 308v192h148v-192z" />
<glyph unicode="&#x22;" horiz-adv-x="463" d="M85 714h107v-321h-107v321zM271 714h107v-321h-107v321z" />
<glyph unicode="#" horiz-adv-x="556" d="M243 412l-18 -124h97l17 124h-96zM116 198h-83v90h95l18 124h-83v90h95l28 198h97l-28 -198h97l27 198h97l-27 -198h74v-90h-87l-17 -124h74v-90h-87l-27 -198h-97l27 198h-96l-28 -198h-97z" />
<glyph unicode="$" horiz-adv-x="556" d="M141 232q-1 -55 29 -88.5t78 -43.5v209q-8 4 -32 9q-35 9 -59.5 18t-53 25.5t-46 36t-29.5 50.5t-12 69q0 97 67 152t165 62v77h59v-77q97 -11 158 -63t67 -150h-142q-1 40 -25 68t-58 28v-177q32 -8 51 -13q47 -13 82.5 -30.5t56.5 -39t34 -40.5t18 -44.5t6.5 -40 t1.5 -37.5q0 -26 -12 -56.5t-37.5 -64t-78 -58t-122.5 -29.5v-85h-59v85q-229 17 -248 248h141zM307 100q43 4 75.5 29t32.5 69q0 38 -23.5 58t-84.5 36v-192zM248 614q-37 0 -63.5 -21.5t-26.5 -61.5q0 -33 20.5 -51t69.5 -29v163z" />
<glyph unicode="%" horiz-adv-x="1000" d="M693 182q0 -19 0.5 -30t4 -30.5t9.5 -31t19 -20.5t31 -9q66 0 66 120t-62 120q-68 0 -68 -119zM591 183q0 86 43 139.5t127 53.5q164 0 164 -197q0 -86 -42.5 -139t-126.5 -53q-165 0 -165 196zM668 722h85l-412 -743h-87zM177 514q0 -18 0.5 -29t4 -29.5t9.5 -29t19 -19 t31 -8.5q66 0 66 114q0 126 -62 126q-68 0 -68 -125zM75 516q0 87 43 142.5t127 55.5q87 0 125.5 -55.5t38.5 -146.5q0 -86 -42.5 -137t-126.5 -51q-165 0 -165 192z" />
<glyph unicode="&#x26;" horiz-adv-x="685" d="M464 71q-86 -84 -201 -84q-100 0 -165.5 57t-65.5 156q0 130 160 207q-34 41 -51 75t-17 77q0 72 55.5 117.5t130.5 45.5q85 0 140.5 -45t55.5 -126q0 -109 -127 -178l92 -113q19 34 26 85h123q-11 -102 -69 -176l145 -169h-174zM267 315q-43 -18 -71.5 -48t-28.5 -70 q0 -38 31 -66t71 -28q64 0 120 63zM382 559q0 28 -19.5 48t-45.5 20q-27 0 -45.5 -18t-18.5 -45q0 -9 1.5 -18t5.5 -17.5t6.5 -14.5t9.5 -15.5t10 -13.5t12 -14.5t11 -13.5q36 23 54.5 45t18.5 57z" />
<glyph unicode="'" horiz-adv-x="278" d="M86 714h107v-321h-107v321z" />
<glyph unicode="(" horiz-adv-x="296" d="M303 731q-109 -202 -109 -453q0 -253 108 -459h-118q-132 215 -132 449q0 117 34.5 244t97.5 219h119z" />
<glyph unicode=")" horiz-adv-x="296" d="M-6 -181q108 209 108 451q0 248 -107 461h117q132 -215 132 -451q0 -119 -34 -245t-98 -216h-118z" />
<glyph unicode="*" horiz-adv-x="407" d="M242 589l116 44l27 -77l-118 -39l74 -98l-66 -49l-74 103l-70 -103l-67 49l74 98l-116 39l27 77l113 -44v125h80v-125z" />
<glyph unicode="+" horiz-adv-x="600" d="M354 306h199v-107h-199v-199h-107v199h-199v107h199v199h107v-199z" />
<glyph unicode="," horiz-adv-x="278" d="M61 154h157v-154q0 -66 -44.5 -110.5t-111.5 -54.5v72q31 6 52 33.5t19 59.5h-72v154z" />
<glyph unicode="-" horiz-adv-x="407" d="M53 334h301v-122h-301v122z" />
<glyph unicode="." horiz-adv-x="278" d="M60 154h157v-154h-157v154z" />
<glyph unicode="/" horiz-adv-x="371" d="M268 731h114l-279 -747h-113z" />
<glyph unicode="0" horiz-adv-x="556" d="M163 353q0 -35 0.5 -57.5t6.5 -63.5t17 -65.5t34.5 -44t55.5 -19.5q33 0 56.5 19.5t34.5 44t17 65.5t7 63.5t1 57.5q0 23 -0.5 37t-2.5 42.5t-6 47.5t-12.5 43t-20.5 38.5t-31 25t-43 10.5q-27 0 -48 -12t-33 -36t-19 -45.5t-10 -55.5t-3.5 -50.5t-0.5 -44.5zM21 353 q0 192 70.5 276.5t185.5 84.5q55 0 100 -18.5t81.5 -59t56.5 -112.5t20 -171q0 -101 -20 -174.5t-57 -114t-81.5 -59t-99.5 -18.5q-116 0 -186 85t-70 281z" />
<glyph unicode="1" horiz-adv-x="556" d="M392 0h-142v454h-176v107q82 -2 138 31t67 108h113v-700z" />
<glyph unicode="2" horiz-adv-x="556" d="M37 431q-4 124 63.5 203.5t190.5 79.5q100 0 170 -60t70 -159q0 -50 -17.5 -91t-44.5 -67.5t-63.5 -53.5t-71 -48t-71 -51t-59.5 -62h331v-122h-514q0 40 7 73.5t24.5 62.5t32.5 49.5t47 46.5t50.5 39.5t59.5 41.5q6 4 37 25t42.5 30.5t31.5 29.5t28 40.5t8 45.5 q0 50 -29 79t-76 29q-58 0 -84.5 -47.5t-26.5 -113.5h-136z" />
<glyph unicode="3" horiz-adv-x="556" d="M228 417q26 -2 49.5 0.5t47 11t38 28t14.5 47.5q0 43 -29 68t-70 25q-52 0 -80.5 -34.5t-27.5 -90.5h-135q4 109 69 175.5t173 66.5q91 0 163 -53t72 -141q0 -52 -25 -90.5t-73 -52.5v-2q57 -13 90.5 -56t33.5 -103q0 -106 -76 -167.5t-184 -61.5q-120 0 -191 67.5 t-69 186.5h135q2 -61 33 -99.5t90 -38.5q49 0 81.5 30t32.5 80q0 26 -6.5 44.5t-21 29.5t-26.5 17.5t-36 9t-35.5 3t-36.5 0.5v100z" />
<glyph unicode="4" horiz-adv-x="556" d="M312 522h-3l-181 -243h184v243zM312 162h-296v130l304 408h127v-421h93v-117h-93v-162h-135v162z" />
<glyph unicode="5" horiz-adv-x="556" d="M500 583h-289l-28 -159l2 -2q54 54 137 54q100 0 158 -68t58 -170q0 -108 -77 -180.5t-183 -70.5q-109 0 -183.5 57.5t-76.5 163.5h142q5 -48 36 -76.5t79 -28.5q54 0 87.5 40.5t33.5 94.5q0 56 -32.5 93.5t-88.5 37.5q-37 0 -61 -13t-46 -43h-128l69 387h391v-117z" />
<glyph unicode="6" horiz-adv-x="556" d="M286 363q-54 0 -83.5 -37.5t-29.5 -92.5q0 -52 31 -91t82 -39q49 0 78 38.5t29 89.5q0 54 -27.5 93t-79.5 39zM388 520q-7 37 -32.5 62t-61.5 25q-47 0 -78.5 -39t-42.5 -83.5t-13 -90.5l2 -2q54 78 158 78q45 0 88 -19.5t73 -52.5q54 -63 54 -156q0 -110 -68 -182.5 t-177 -72.5q-61 0 -109 21t-77.5 54.5t-48.5 81.5t-26.5 97.5t-7.5 106.5q0 68 15.5 130.5t47 116.5t86.5 86.5t126 32.5q92 0 153.5 -51t73.5 -143h-135z" />
<glyph unicode="7" horiz-adv-x="556" d="M517 578q-104 -90 -165.5 -257.5t-63.5 -320.5h-152q24 312 235 568h-332v132h478v-122z" />
<glyph unicode="8" horiz-adv-x="556" d="M172 510q0 -43 31 -67.5t76 -24.5q47 0 76 24t29 68q0 37 -23.5 67t-81.5 30q-45 0 -76 -26t-31 -71zM43 523q0 89 71.5 140t164.5 51q62 0 109.5 -19.5t73.5 -49.5t38.5 -60.5t12.5 -58.5q0 -112 -102 -147v-2q63 -14 97 -59.5t34 -111.5q0 -71 -39 -122t-97 -74 t-126 -23q-111 0 -188.5 55.5t-77.5 162.5q0 67 34.5 112t97.5 60v2q-50 14 -76.5 52.5t-26.5 91.5zM156 212q0 -53 36 -86t88 -33t86 33t34 85q0 49 -34.5 80.5t-85.5 31.5q-54 0 -89 -29.5t-35 -81.5z" />
<glyph unicode="9" horiz-adv-x="556" d="M270 337q54 0 83.5 37.5t29.5 92.5q0 52 -31 91t-82 39q-49 0 -78 -38.5t-29 -89.5q0 -54 27.5 -93t79.5 -39zM168 180q7 -37 32.5 -62t61.5 -25q37 0 64 21.5t41 57t20.5 67.5t8.5 67l-2 2q-54 -78 -158 -78q-45 0 -88 19.5t-73 52.5q-54 63 -54 156q0 109 68.5 182.5 t176.5 73.5q76 0 131 -31t83.5 -84.5t41.5 -114t13 -132.5q0 -68 -15.5 -130.5t-47 -116.5t-86.5 -86t-126 -32q-92 0 -153.5 51t-73.5 142h135z" />
<glyph unicode=":" horiz-adv-x="278" d="M218 354h-157v154h157v-154zM61 154h157v-154h-157v154z" />
<glyph unicode=";" horiz-adv-x="278" d="M218 354h-157v154h157v-154zM61 154h157v-154q0 -66 -44.5 -110.5t-111.5 -54.5v72q31 6 52 33.5t19 59.5h-72v154z" />
<glyph unicode="&#x3c;" horiz-adv-x="600" d="M554 399l-367 -146l367 -146v-114l-508 201v118l508 202v-115z" />
<glyph unicode="=" horiz-adv-x="600" d="M553 92h-505v107h505v-107zM553 306h-505v107h505v-107z" />
<glyph unicode="&#x3e;" horiz-adv-x="600" d="M46 107l367 146l-367 146v115l508 -202v-118l-508 -201v114z" />
<glyph unicode="?" horiz-adv-x="556" d="M193 154h157v-154h-157v154zM32 484q2 109 68 178t175 69q67 0 117.5 -19t78 -49.5t40.5 -62t13 -62.5q0 -53 -17 -90.5t-42.5 -58.5t-51.5 -38.5t-46.5 -41.5t-24.5 -57v-38h-135v45q3 48 21.5 83t41.5 55t45.5 37t37.5 39t14 51q0 90 -85 90q-51 0 -77 -36.5t-26 -93.5 h-147z" />
<glyph unicode="@" horiz-adv-x="800" d="M559 287q-8 -26 -8 -43q0 -23 17 -23q45 0 81.5 53t36.5 131q0 116 -76.5 181t-194.5 65q-127 0 -205 -83.5t-78 -212.5q0 -130 82.5 -211t212.5 -81q133 0 215 82h84q-51 -77 -131 -119t-174 -42q-161 0 -273 107t-112 266q0 157 111.5 265.5t268.5 108.5 q141 0 244.5 -85.5t103.5 -219.5q0 -72 -27.5 -131t-66.5 -91.5t-76.5 -50t-64.5 -17.5q-32 0 -51.5 16t-21.5 41h-2q-35 -58 -108 -58q-64 0 -110.5 50.5t-46.5 120.5q0 100 61.5 177.5t156.5 77.5q36 0 68.5 -17t48.5 -53l16 54h82zM291 319q0 -40 21.5 -64.5t56.5 -24.5 q51 0 87 48t36 103q0 36 -22.5 60.5t-54.5 24.5q-52 0 -88 -46.5t-36 -100.5z" />
<glyph unicode="A" horiz-adv-x="685" d="M249 276h185l-90 262h-2zM264 714h161l267 -714h-163l-54 159h-267l-56 -159h-158z" />
<glyph unicode="B" horiz-adv-x="704" d="M226 425h159q96 0 96 85q0 82 -108 82h-147v-167zM69 714h336q228 0 228 -177q0 -102 -97 -149q65 -18 98 -65.5t33 -115.5q0 -102 -73 -154.5t-179 -52.5h-346v714zM226 122h168q116 0 116 94q0 102 -113 102h-171v-196z" />
<glyph unicode="C" horiz-adv-x="741" d="M545 474q-8 53 -53 89t-103 36q-67 0 -112 -36t-63.5 -89.5t-18.5 -119.5q0 -100 48 -169.5t146 -69.5q70 0 111.5 43t50.5 117h152q-12 -135 -97 -213t-217 -78q-161 0 -256 105t-95 265q0 163 95 270t256 107q121 0 207.5 -68.5t100.5 -188.5h-152z" />
<glyph unicode="D" horiz-adv-x="741" d="M226 132h140q76 0 127 52t51 162q0 115 -47.5 175.5t-158.5 60.5h-112v-450zM69 714h308q145 0 234.5 -91t89.5 -262q0 -162 -83 -261.5t-241 -99.5h-308v714z" />
<glyph unicode="E" horiz-adv-x="648" d="M69 714h534v-132h-377v-153h346v-122h-346v-175h385v-132h-542v714z" />
<glyph unicode="F" horiz-adv-x="593" d="M69 714h502v-132h-345v-165h299v-122h-299v-295h-157v714z" />
<glyph unicode="G" horiz-adv-x="759" d="M585 81q-75 -97 -196 -97q-161 0 -256 105t-95 265q0 163 95 270t256 107q116 0 202.5 -67.5t98.5 -184.5h-150q-14 59 -53.5 89.5t-97.5 30.5q-67 0 -112 -36t-63.5 -89.5t-18.5 -119.5q0 -100 48 -169.5t146 -69.5q156 0 170 154h-158v117h300v-386h-100z" />
<glyph unicode="H" horiz-adv-x="741" d="M69 714h157v-274h289v274h157v-714h-157v308h-289v-308h-157v714z" />
<glyph unicode="I" horiz-adv-x="295" d="M69 714h157v-714h-157v714z" />
<glyph unicode="J" horiz-adv-x="556" d="M487 225q0 -241 -238 -241q-98 0 -166.5 55t-68.5 165v62h142v-32q0 -58 19.5 -88.5t71.5 -30.5q29 0 47.5 10t25.5 30.5t8.5 35.5t1.5 41v482h157v-489z" />
<glyph unicode="K" horiz-adv-x="722" d="M69 714h157v-296l279 296h196l-279 -282l306 -432h-197l-215 321l-90 -91v-230h-157v714z" />
<glyph unicode="L" horiz-adv-x="593" d="M69 714h157v-582h348v-132h-505v714z" />
<glyph unicode="M" horiz-adv-x="907" d="M69 714h221l167 -491h2l158 491h221v-714h-147v506h-2l-175 -506h-121l-175 501h-2v-501h-147v714z" />
<glyph unicode="N" horiz-adv-x="741" d="M69 714h156l298 -479h2v479h147v-714h-157l-297 478h-2v-478h-147v714z" />
<glyph unicode="O" horiz-adv-x="778" d="M195 354q0 -100 48 -169.5t146 -69.5t146 69.5t48 169.5q0 66 -18.5 119.5t-63.5 89.5t-112 36t-112 -36t-63.5 -89.5t-18.5 -119.5zM38 354q0 163 95 270t256 107t256 -107t95 -270q0 -160 -95 -265t-256 -105t-256 105t-95 265z" />
<glyph unicode="P" horiz-adv-x="667" d="M226 378h122q64 0 101 22.5t37 84.5t-37 84.5t-101 22.5h-122v-214zM69 714h322q125 0 186 -66t61 -163t-61 -163t-186 -66h-165v-256h-157v714z" />
<glyph unicode="Q" horiz-adv-x="778" d="M458 264l81 -74q44 59 44 164q0 66 -18.5 119.5t-63.5 89.5t-112 36t-112 -36t-63.5 -89.5t-18.5 -119.5q0 -100 48 -169.5t146 -69.5q53 0 63 10l-67 61zM663 -66l-101 91q-71 -41 -173 -41q-161 0 -256 105t-95 265q0 163 95 270t256 107t256 -107t95 -270 q0 -158 -93 -263l89 -81z" />
<glyph unicode="R" horiz-adv-x="722" d="M226 391h172q55 0 81.5 24.5t26.5 77.5q0 99 -108 99h-172v-201zM69 714h385q94 0 151.5 -57t57.5 -140q0 -134 -113 -179v-2q94 -26 104 -167q0 -6 1.5 -30t2.5 -38.5t4 -36t8.5 -37.5t13.5 -27h-157q-8 20 -12 48.5t-7 66.5t-6 56q-8 58 -34.5 83t-84.5 25h-157v-279 h-157v714z" />
<glyph unicode="S" horiz-adv-x="649" d="M176 237q0 -67 44.5 -99.5t113.5 -32.5q33 0 61.5 6.5t53 27.5t24.5 55q0 19 -9.5 34t-21.5 24.5t-37 19t-42 14t-51 13t-51 13.5q-45 11 -78.5 24.5t-66.5 36.5t-50.5 59t-17.5 83q0 103 80 159.5t187 56.5q79 0 141 -22t103.5 -75.5t41.5 -132.5h-152q-6 108 -141 108 q-43 0 -75.5 -20t-32.5 -61q0 -40 34.5 -55.5t178.5 -52.5q212 -44 212 -208q0 -102 -77.5 -165t-219.5 -63q-61 0 -115 15t-97 44.5t-68 79.5t-24 114h152z" />
<glyph unicode="T" d="M227 582h-214v132h585v-132h-214v-582h-157v582z" />
<glyph unicode="U" horiz-adv-x="741" d="M675 270q0 -142 -79.5 -214t-225.5 -72q-147 0 -225.5 71t-78.5 215v444h157v-444q0 -70 30.5 -112.5t116.5 -42.5q82 0 115 36.5t33 118.5v444h157v-444z" />
<glyph unicode="V" horiz-adv-x="630" d="M401 0h-177l-231 714h161l159 -502h2l161 502h162z" />
<glyph unicode="W" horiz-adv-x="944" d="M749 0h-156l-121 486h-2l-119 -486h-159l-189 714h157l113 -486h2l124 486h147l122 -492h2l117 492h154z" />
<glyph unicode="X" horiz-adv-x="667" d="M244 374l-230 340h182l140 -228l145 228h172l-229 -341l249 -373h-187l-156 247l-159 -247h-176z" />
<glyph unicode="Y" horiz-adv-x="667" d="M254 278l-262 436h176l167 -282l166 282h175l-265 -440v-274h-157v278z" />
<glyph unicode="Z" horiz-adv-x="648" d="M23 124l383 458h-353v132h562v-124l-383 -458h393v-132h-602v124z" />
<glyph unicode="[" horiz-adv-x="333" d="M68 731h264v-112h-122v-688h122v-112h-264v912z" />
<glyph unicode="\" horiz-adv-x="371" d="M382 -16h-114l-278 747h113z" />
<glyph unicode="]" horiz-adv-x="333" d="M265 -181h-264v112h122v688h-122v112h264v-912z" />
<glyph unicode="^" horiz-adv-x="600" d="M233 700h134l172 -385h-117l-122 275l-122 -275h-117z" />
<glyph unicode="_" horiz-adv-x="500" d="M0 -74h500v-50h-500v50z" />
<glyph unicode="`" horiz-adv-x="259" d="M109 723h-156l153 -142h99z" />
<glyph unicode="a" horiz-adv-x="574" d="M48 358q6 91 75 132t168 41q227 0 227 -147v-269q0 -86 18 -115h-144q-9 28 -10 50q-60 -63 -174 -63q-79 0 -127.5 38.5t-48.5 115.5q0 55 26.5 90t65 47t83.5 20t83 10.5t62.5 16.5t23.5 41q0 41 -24 55.5t-68 14.5q-87 0 -94 -78h-142zM376 253q-8 -7 -23 -12.5 t-27.5 -7.5t-34.5 -5t-33 -5q-40 -7 -62 -23.5t-22 -52.5q0 -66 87 -66q115 0 115 119v53z" />
<glyph unicode="b" d="M433 258q0 71 -30.5 118.5t-90.5 47.5t-90.5 -47.5t-30.5 -118.5q0 -70 31 -117.5t90 -47.5t90 47.5t31 117.5zM54 714h142v-260h2q51 77 163 77q86 0 150 -70t64 -202t-64 -202t-150 -70q-127 0 -170 79h-2v-66h-135v714z" />
<glyph unicode="c" horiz-adv-x="574" d="M406 335q-14 89 -105 89q-62 0 -91.5 -50.5t-29.5 -117.5q0 -66 28.5 -114.5t89.5 -48.5q98 0 113 105h137q-14 -102 -79.5 -156.5t-169.5 -54.5q-117 0 -189 73.5t-72 190.5q0 124 70.5 202t193.5 78q98 0 167.5 -51t75.5 -145h-139z" />
<glyph unicode="d" d="M421 260q0 71 -29 117.5t-93 46.5q-65 0 -95 -47t-30 -118q0 -68 31.5 -117t93.5 -49q65 0 93.5 47.5t28.5 119.5zM423 66h-2q-47 -79 -157 -79q-111 0 -171.5 80t-60.5 196q0 112 60.5 190t168.5 78q47 0 88.5 -20t64.5 -57h2v260h142v-714h-135v66z" />
<glyph unicode="e" horiz-adv-x="574" d="M402 314q-10 56 -36.5 83t-76.5 27q-61 0 -88 -34.5t-30 -75.5h231zM171 224q3 -68 34.5 -99.5t92.5 -31.5q41 0 73 20.5t39 46.5h125q-56 -173 -242 -173q-121 0 -192.5 74.5t-71.5 196.5q0 118 73.5 195.5t190.5 77.5q126 0 193 -90t58 -217h-373z" />
<glyph unicode="f" horiz-adv-x="333" d="M85 422h-85v95h85v40q0 71 44.5 114t128.5 43q14 0 41 -2t34 -2v-106q-26 3 -52 3q-29 0 -41.5 -13.5t-12.5 -45.5v-31h98v-95h-98v-422h-142v422z" />
<glyph unicode="g" d="M295 122q58 0 89.5 41.5t31.5 101.5q0 70 -28.5 114.5t-92.5 44.5q-57 0 -86 -42t-29 -105q0 -41 10 -74t37 -57t68 -24zM551 33q0 -30 -5 -56.5t-21.5 -59.5t-44.5 -56.5t-78.5 -39.5t-118.5 -16q-86 0 -154 42.5t-74 123.5h141q17 -71 106 -71q58 0 86.5 34.5 t27.5 92.5v68h-2q-22 -40 -63.5 -60t-91.5 -20q-111 0 -166 72.5t-55 187.5q0 106 59.5 181t162.5 75q106 0 154 -83h2v69h135v-484z" />
<glyph unicode="h" horiz-adv-x="593" d="M54 714h142v-269h3q26 43 67 64.5t84 21.5q107 0 148 -54t41 -159v-318h-142v292q0 66 -20.5 96.5t-70.5 30.5q-58 0 -84 -35t-26 -113v-271h-142v714z" />
<glyph unicode="i" horiz-adv-x="258" d="M200 597h-142v117h142v-117zM58 517h142v-517h-142v517z" />
<glyph unicode="j" horiz-adv-x="278" d="M209 597h-142v117h142v-117zM-18 -60q9 -4 30 -4q55 0 55 46v535h142v-542q0 -83 -39 -119.5t-143 -36.5q-28 0 -45 4v117z" />
<glyph unicode="k" horiz-adv-x="574" d="M67 714h142v-383l179 186h168l-195 -190l217 -327h-172l-142 231l-55 -53v-178h-142v714z" />
<glyph unicode="l" horiz-adv-x="258" d="M58 714h142v-714h-142v714z" />
<glyph unicode="m" horiz-adv-x="906" d="M58 517h134v-70h2q59 84 158 84q113 0 151 -86q59 86 156 86q88 0 138.5 -44.5t50.5 -140.5v-346h-142v293q0 24 -1 40t-6 34t-14 28t-25.5 17t-40.5 7q-95 0 -95 -131v-288h-142v290v7q0 24 -0.5 36t-5 31.5t-13 29t-25.5 17.5t-42 8q-13 0 -27 -5t-31 -16.5t-27.5 -37 t-10.5 -60.5v-300h-142v517z" />
<glyph unicode="n" horiz-adv-x="593" d="M54 517h135v-72h3q52 86 158 86q107 0 148 -54t41 -159v-318h-142v292q0 66 -20.5 96.5t-70.5 30.5q-58 0 -84 -35t-26 -113v-271h-142v517z" />
<glyph unicode="o" horiz-adv-x="591" d="M170 258q0 -71 29.5 -118t95.5 -47q67 0 96.5 47t29.5 118t-29.5 118.5t-96.5 47.5q-66 0 -95.5 -47.5t-29.5 -118.5zM28 258q0 124 73 198.5t194 74.5q122 0 195 -74.5t73 -198.5t-73 -197.5t-195 -73.5t-194.5 73.5t-72.5 197.5z" />
<glyph unicode="p" d="M315 93q65 0 94 46.5t29 117.5q0 70 -30.5 118.5t-93.5 48.5q-65 0 -94 -48t-29 -119q0 -70 30 -117t94 -47zM54 517h135v-66h2q50 80 154 80q115 0 175 -79.5t60 -198.5q0 -112 -59.5 -189t-167.5 -77q-102 0 -155 77h-2v-245h-142v698z" />
<glyph unicode="q" d="M174 258q0 -71 29 -118t94 -47q64 0 94 46t30 117q0 69 -29.5 118.5t-91.5 49.5q-65 0 -95.5 -47.5t-30.5 -118.5zM558 -181h-142v246h-2q-46 -78 -163 -78q-38 0 -74.5 14t-70 44t-54 84t-20.5 126q0 115 60.5 195.5t171.5 80.5q112 0 157 -80h2v66h135v-698z" />
<glyph unicode="r" horiz-adv-x="389" d="M54 517h135v-96h2q20 49 66 79.5t99 30.5q13 0 31 -5v-132q-22 5 -51 5q-140 0 -140 -166v-233h-142v517z" />
<glyph unicode="s" horiz-adv-x="537" d="M164 168q0 -43 32 -65t77 -22q36 0 64.5 16t28.5 50q0 30 -37 46t-124 34q-37 8 -61.5 17t-50.5 24.5t-39 39.5t-13 57q0 47 19 81t52.5 52t71 25.5t82.5 7.5q95 0 157.5 -38.5t70.5 -126.5h-135q-5 70 -97 70q-79 0 -79 -48q0 -11 4.5 -19.5t14 -15t19.5 -11t26.5 -9 t29 -7.5t33.5 -7.5t34 -7.5q77 -18 120.5 -49t43.5 -96q0 -49 -20 -85.5t-54.5 -56t-74.5 -28.5t-87 -9q-65 0 -116 15.5t-88 58t-39 107.5h135z" />
<glyph unicode="t" horiz-adv-x="352" d="M234 517h104v-95h-104v-256q0 -36 12 -48t48 -12q27 0 44 4v-110q-30 -5 -83 -5q-77 0 -120 25.5t-43 96.5v305h-86v95h86v155h142v-155z" />
<glyph unicode="u" horiz-adv-x="593" d="M539 0h-135v72h-3q-51 -85 -158 -85t-148 53.5t-41 158.5v318h142v-292q0 -66 20.5 -96.5t70.5 -30.5q58 0 84 35t26 113v271h142v-517z" />
<glyph unicode="v" horiz-adv-x="520" d="M340 0h-158l-177 517h149l109 -353h2l109 353h141z" />
<glyph unicode="w" horiz-adv-x="814" d="M645 0h-146l-92 347h-2l-88 -347h-147l-164 517h150l95 -351h2l86 351h138l88 -350h2l95 350h146z" />
<glyph unicode="x" horiz-adv-x="537" d="M186 272l-170 245h162l91 -135l90 135h157l-170 -242l191 -275h-162l-108 163l-108 -163h-159z" />
<glyph unicode="y" horiz-adv-x="519" d="M309 -64q-23 -63 -64 -90t-114 -27q-39 0 -87 5v117q54 -6 83 -5q26 3 40.5 21t14.5 43q0 17 -6 32l-181 485h151l117 -354h2l113 354h147z" />
<glyph unicode="z" horiz-adv-x="519" d="M22 107l269 303h-249v107h436v-107l-269 -303h288v-107h-475v107z" />
<glyph unicode="{" horiz-adv-x="333" d="M333 619h-54q-54 0 -54 -73v-152q0 -34 -11 -58.5t-28.5 -36.5t-31.5 -17t-28 -6v-3q33 -3 66 -29t33 -81v-160q0 -72 54 -72h54v-112h-127q-41 0 -82 36.5t-41 98.5v194q0 41 -30.5 62t-60.5 21v87q30 0 60.5 22.5t30.5 67.5v188q0 62 41 98.5t82 36.5h127v-112z" />
<glyph unicode="|" horiz-adv-x="223" d="M58 786h107v-999h-107v999z" />
<glyph unicode="}" horiz-adv-x="333" d="M0 -69h54q54 0 54 72v160q0 55 33 81t66 29v3q-14 1 -28 6t-31.5 17t-28.5 36.5t-11 58.5v152q0 73 -54 73h-54v112h127q41 0 82 -36.5t41 -98.5v-188q0 -45 30 -67.5t62 -22.5v-87q-31 0 -61.5 -21t-30.5 -62v-194q0 -62 -41 -98.5t-82 -36.5h-127v112z" />
<glyph unicode="~" horiz-adv-x="600" d="M533 251q-27 -41 -55 -63.5t-70 -22.5q-45 0 -102 33q-59 35 -115 35q-51 0 -84 -72l-40 93q42 86 125 86q38 0 111 -32q7 -3 21.5 -9.5t23 -10t20 -8t20.5 -6.5t17 -2q19 0 37 13t25.5 23t25.5 36z" />
<glyph unicode="&#xa1;" horiz-adv-x="278" d="M65 9l39 308h71l38 -308v-191h-148v191zM218 377h-157v154h157v-154z" />
<glyph unicode="&#xa2;" horiz-adv-x="556" d="M260 -13q-106 6 -172.5 81t-66.5 182q0 117 63 194t176 87v85h59v-85q86 0 153 -55t71 -142h-139q-3 36 -27 61.5t-58 28.5v-331q36 6 61.5 38.5t25.5 71.5h139q-8 -94 -69.5 -151t-156.5 -65v-101h-59v101zM260 423q-50 -13 -73.5 -57t-23.5 -102q0 -140 97 -171v330z " />
<glyph unicode="&#xa3;" horiz-adv-x="556" d="M26 76q48 30 80.5 73t32.5 93q0 27 -19 67h-99v85h64q-45 56 -45 138q0 85 67.5 142t188.5 57q116 0 179.5 -64.5t63.5 -185.5h-135q-1 19 -2.5 29.5t-8 33t-17 35.5t-31.5 24t-50 11q-45 0 -71.5 -25t-26.5 -67q0 -19 1.5 -31.5t11 -37.5t28.5 -59h133v-85h-105 q8 -23 8 -62q0 -75 -82 -140l2 -2q37 23 68 23q20 0 79 -11q46 -12 78 -12q48 0 88 43l60 -101q-64 -63 -156 -63q-56 0 -109 17q-53 20 -99 20q-65 0 -115 -37z" />
<glyph unicode="&#xa4;" horiz-adv-x="556" d="M280 491q-60 0 -93.5 -41.5t-33.5 -100.5q0 -58 33.5 -99t92.5 -41t90.5 41.5t31.5 100.5q0 57 -32 98.5t-89 41.5zM77 207q-48 55 -48 142q0 96 48 144l-57 58l57 57l57 -56q54 46 146 46q85 0 137 -45l58 57l61 -61l-56 -55q45 -50 45 -143q0 -91 -46 -146l55 -56 l-55 -55l-57 58q-52 -50 -143 -50q-93 0 -147 49l-56 -58l-56 56z" />
<glyph unicode="&#xa5;" horiz-adv-x="556" d="M207 0v138h-157v95h157v46l-14 29h-143v95h95l-153 311h162l132 -311l129 311h162l-155 -311h95v-95h-143l-15 -29v-46h158v-95h-158v-138h-152z" />
<glyph unicode="&#xa6;" horiz-adv-x="223" d="M165 411h-107v250h107v-250zM58 161h107v-249h-107v249z" />
<glyph unicode="&#xa7;" horiz-adv-x="556" d="M370 538q0 38 -23 62t-62 24q-29 0 -52.5 -18t-23.5 -46q1 -30 36 -56t84.5 -48t98.5 -47t83.5 -66t34.5 -93q0 -51 -28 -90t-76 -56q55 -41 55 -117q0 -79 -65 -123.5t-148 -44.5q-101 0 -163 48.5t-62 144.5h124q5 -86 98 -86q32 0 53 17t21 49q1 31 -33.5 57.5 t-85.5 48.5t-102 48t-87.5 68t-36.5 97q0 108 107 146q-43 48 -43 101q0 80 63.5 126.5t145.5 46.5q91 0 151 -51.5t60 -141.5h-124zM212 380q-21 11 -27 10q-21 -2 -36 -23t-15 -44q0 -32 32 -49l180 -98q16 -7 30 -7q19 0 32.5 18.5t13.5 36.5q0 39 -45 63z" />
<glyph unicode="&#xa8;" horiz-adv-x="259" d="M94 714h-134v-117h134v117zM300 714h-135v-117h135v117z" />
<glyph unicode="&#xa9;" horiz-adv-x="800" d="M596 295q-12 -73 -62.5 -115.5t-119.5 -42.5q-96 0 -155.5 63.5t-59.5 158.5q0 98 57.5 161t155.5 63q71 0 121.5 -40.5t59.5 -114.5h-78q-8 35 -36 55t-67 20q-56 0 -86.5 -38.5t-30.5 -103.5q0 -60 33 -102t86 -42q42 0 69 21t32 57h81zM118 357q0 -127 81.5 -210.5 t200.5 -83.5q118 0 200 83.5t82 210.5t-82 210.5t-200 83.5q-119 0 -200.5 -83.5t-81.5 -210.5zM16 357q0 110 54 197t141 132t189 45t189 -45t141 -132t54 -197t-54 -196.5t-141 -131.5t-189 -45t-189 45t-141 131.5t-54 196.5z" />
<glyph unicode="&#xaa;" horiz-adv-x="344" d="M20 605q16 109 156 109q150 0 150 -89v-166q0 -53 12 -75h-101q-6 23 -7 31q-37 -40 -108 -40q-50 0 -81 24.5t-31 75.5q0 27 9 45.5t27.5 28.5t35.5 14.5t42 8.5q11 2 33 4t31.5 3.5t21.5 5t16.5 9.5t4.5 16q0 24 -15.5 31.5t-44.5 7.5q-19 0 -33 -11t-16 -33h-102z M230 535q-7 -6 -17.5 -9t-28.5 -5.5t-21 -3.5q-25 -6 -38 -14.5t-13 -25.5q0 -37 45 -37q73 0 73 75v20z" />
<glyph unicode="&#xab;" horiz-adv-x="444" d="M42 205v135l157 123v-120l-90 -71l90 -72v-120zM245 205v135l157 123v-120l-90 -71l90 -72v-120z" />
<glyph unicode="&#xac;" horiz-adv-x="600" d="M552 99h-107v200h-397v107h504v-307z" />
<glyph unicode="&#xad;" horiz-adv-x="407" d="M53 334v-122h301v122h-301z" />
<glyph unicode="&#xae;" horiz-adv-x="800" d="M334 393h74q41 0 61.5 11.5t20.5 46.5q0 52 -86 52h-70v-110zM251 568h158q82 0 123 -29t41 -95q0 -103 -110 -112l112 -183h-87l-102 179h-52v-179h-83v419zM118 358q0 -127 81.5 -211t200.5 -84q118 0 200 84t82 211q0 126 -82 209.5t-200 83.5q-119 0 -200.5 -83.5 t-81.5 -209.5zM16 358q0 165 113 269t271 104t271 -104t113 -269q0 -166 -113 -270t-271 -104t-271 104t-113 270z" />
<glyph unicode="&#xaf;" horiz-adv-x="259" d="M316 691h-372v-75h372v75z" />
<glyph unicode="&#xb0;" horiz-adv-x="400" d="M117 566q0 -36 25 -62t58 -26t58 26t25 62t-25 62t-58 26t-58 -26t-25 -62zM52 566q0 62 43 105t105 43t105 -43t43 -105t-43 -105t-105 -43t-105 43t-43 105z" />
<glyph unicode="&#xb1;" horiz-adv-x="600" d="M48 107h505v-107h-505v107zM354 375h199v-107h-199v-131h-107v131h-199v107h199v131h107v-131z" />
<glyph unicode="&#xb2;" horiz-adv-x="392" d="M28 540q-1 80 45 127t136 47q67 0 111.5 -35.5t44.5 -99.5q0 -44 -24.5 -76.5t-55.5 -50t-71 -44.5t-62 -55h209v-80h-334q0 38 10 67.5t32.5 53.5t42 38t55.5 37q5 3 24 15t27.5 18.5t21 18t18 24t5.5 27.5q0 27 -17 44.5t-44 17.5q-38 0 -56.5 -29.5t-15.5 -64.5h-102z " />
<glyph unicode="&#xb3;" horiz-adv-x="392" d="M164 534q21 0 31.5 1t28.5 4.5t26.5 14t8.5 27.5q0 24 -18.5 38.5t-43.5 14.5q-31 0 -49.5 -20.5t-17.5 -51.5h-96q2 70 45 111t117 41q65 0 112 -32t47 -91q0 -31 -17 -54.5t-49 -31.5v-2q38 -7 59.5 -32.5t21.5 -61.5q0 -69 -49.5 -107t-123.5 -38q-83 0 -130 41.5 t-45 118.5h96q2 -35 21.5 -57.5t55.5 -22.5q31 0 52 18t21 45q0 20 -9 32.5t-27.5 17.5t-31.5 6t-36 1v70z" />
<glyph unicode="&#xb4;" horiz-adv-x="259" d="M54 581h99l154 142h-157z" />
<glyph unicode="&#xb5;" horiz-adv-x="593" d="M539 0h-135v72h-3q-25 -41 -63.5 -63t-66.5 -22q-54 0 -75 23v-191h-142v698h142v-292q0 -66 20.5 -96.5t70.5 -30.5q58 0 84 35t26 113v271h142v-517z" />
<glyph unicode="&#xb6;" horiz-adv-x="620" d="M221 357q-105 0 -162 46.5t-57 128.5q0 182 240 182h293v-879h-102v799h-110v-799h-102v522z" />
<glyph unicode="&#xb7;" horiz-adv-x="278" d="M55 287q0 35 25.5 60t59.5 25t59 -25t25 -60q0 -33 -25 -58.5t-58 -25.5q-35 0 -60.5 25t-25.5 59z" />
<glyph unicode="&#xb8;" horiz-adv-x="259" d="M33 -147q42 -18 84 -18q40 0 40 34q0 32 -40 32q-23 0 -40 -7l-21 24l59 84h49l-39 -54h2q13 5 34 5q37 0 64.5 -18t27.5 -52q0 -100 -117 -100q-64 0 -124 22z" />
<glyph unicode="&#xb9;" horiz-adv-x="392" d="M289 273h-102v274h-110v75q51 -2 86.5 18t41.5 65h84v-432z" />
<glyph unicode="&#xba;" horiz-adv-x="367" d="M119 544q0 -37 16.5 -65.5t47.5 -28.5q32 0 48.5 28.5t16.5 65.5q0 38 -16.5 66.5t-48.5 28.5q-31 0 -47.5 -28.5t-16.5 -66.5zM12 544q0 78 46.5 124t124.5 46t125 -46t47 -124t-46.5 -123.5t-125.5 -45.5q-78 0 -124.5 45.5t-46.5 123.5z" />
<glyph unicode="&#xbb;" horiz-adv-x="444" d="M199 340v-135l-157 -125v120l90 72l-90 71v120zM402 340v-135l-157 -125v120l90 72l-90 71v120z" />
<glyph unicode="&#xbc;" horiz-adv-x="892" d="M689 313h-2l-114 -144h116v144zM689 89h-192v93l188 238h100v-251h57v-80h-57v-89h-96v89zM236 273h-102v274h-110v75q51 -2 86.5 18t41.5 65h84v-432zM566 722h85l-412 -743h-87z" />
<glyph unicode="&#xbd;" horiz-adv-x="889" d="M509 267q-1 80 45 127t136 47q67 0 111.5 -35.5t44.5 -99.5q0 -44 -24.5 -76.5t-55.5 -50t-71 -44.5t-62 -55h209v-80h-334q0 38 10 67.5t32.5 53.5t42 38t55.5 37q5 3 24 15t27.5 18.5t21 18t18 24t5.5 27.5q0 27 -17 44.5t-44 17.5q-38 0 -56.5 -29.5t-15.5 -64.5h-102 zM236 273h-102v274h-110v75q51 -2 86.5 18t41.5 65h84v-432zM566 722h85l-412 -743h-87z" />
<glyph unicode="&#xbe;" horiz-adv-x="889" d="M709 313h-2l-114 -144h116v144zM709 89h-192v93l188 238h100v-251h57v-80h-57v-89h-96v89zM181 534q21 0 31.5 1t28.5 4.5t26.5 14t8.5 27.5q0 24 -18.5 38.5t-43.5 14.5q-31 0 -49.5 -20.5t-17.5 -51.5h-96q2 70 45 111t117 41q65 0 112 -32t47 -91q0 -31 -17 -54.5 t-49 -31.5v-2q38 -7 59.5 -32.5t21.5 -61.5q0 -69 -49.5 -107t-123.5 -38q-83 0 -130 41.5t-45 118.5h96q2 -35 21.5 -57.5t55.5 -22.5q31 0 52 18t21 45q0 20 -9 32.5t-27.5 17.5t-31.5 6t-36 1v70zM653 722h85l-412 -743h-87z" />
<glyph unicode="&#xbf;" horiz-adv-x="556" d="M363 377h-157v154h157v-154zM522 51q-2 -107 -68.5 -176.5t-172.5 -69.5q-67 0 -117.5 19t-78 49.5t-40.5 62t-13 62.5q0 52 17 89.5t42.5 58.5t51.5 38t46.5 41.5t24.5 57.5v38h135v-45q-3 -48 -21.5 -83t-41.5 -55t-45.5 -37t-37.5 -39t-14 -51q0 -89 85 -89 q49 0 75 37t26 92h147z" />
<glyph unicode="&#xc0;" horiz-adv-x="685" d="M165 920h157l96 -142h-99zM249 276h185l-90 262h-2zM264 714h161l267 -714h-163l-54 159h-267l-56 -159h-158z" />
<glyph unicode="&#xc1;" horiz-adv-x="685" d="M366 778h-99l96 142h157zM249 276h185l-90 262h-2zM264 714h161l267 -714h-163l-54 159h-267l-56 -159h-158z" />
<glyph unicode="&#xc2;" horiz-adv-x="685" d="M278 920h130l110 -142h-117l-62 81l-64 -81h-108zM249 276h185l-90 262h-2zM264 714h161l267 -714h-163l-54 159h-267l-56 -159h-158z" />
<glyph unicode="&#xc3;" horiz-adv-x="685" d="M526 911q-6 -20 -9 -29.5t-12.5 -29t-20 -29t-29 -18t-41.5 -8.5q-29 0 -82 17q-47 17 -70 17q-19 0 -27.5 -10t-14.5 -32h-61q12 55 39.5 88.5t86.5 33.5q19 0 64 -17q42 -18 66 -18q22 0 32.5 10t9.5 25h69zM249 276h185l-90 262h-2zM264 714h161l267 -714h-163 l-54 159h-267l-56 -159h-158z" />
<glyph unicode="&#xc4;" horiz-adv-x="685" d="M172 911h135v-117h-135v117zM378 911h135v-117h-135v117zM249 276h185l-90 262h-2zM264 714h161l267 -714h-163l-54 159h-267l-56 -159h-158z" />
<glyph unicode="&#xc5;" horiz-adv-x="685" d="M220 853q0 51 35.5 86.5t86.5 35.5t87 -35.5t36 -86.5t-36 -86.5t-87 -35.5t-86.5 35.5t-35.5 86.5zM279 853q0 -30 17 -50t46 -20t46.5 20t17.5 50t-17.5 50t-46.5 20t-46 -20t-17 -50zM249 276h185l-90 262h-2zM264 714h161l267 -714h-163l-54 159h-267l-56 -159h-158z " />
<glyph unicode="&#xc6;" horiz-adv-x="981" d="M330 714h606v-132h-332v-153h312v-122h-312v-175h340v-132h-492v159h-224l-72 -159h-166zM280 276h172v306h-34z" />
<glyph unicode="&#xc7;" horiz-adv-x="741" d="M545 474q-8 53 -53 89t-103 36q-67 0 -112 -36t-63.5 -89.5t-18.5 -119.5q0 -100 48 -169.5t146 -69.5q70 0 111.5 43t50.5 117h152q-12 -133 -96 -211t-215 -80l-26 -36h2q13 5 34 5q37 0 64.5 -18t27.5 -52q0 -100 -117 -100q-64 0 -124 22l21 48q42 -18 84 -18 q40 0 40 34q0 32 -40 32q-23 0 -40 -7l-21 24l48 69q-143 14 -225 117t-82 250q0 163 95 270t256 107q121 0 207.5 -68.5t100.5 -188.5h-152z" />
<glyph unicode="&#xc8;" horiz-adv-x="648" d="M147 920h157l96 -142h-99zM69 714h534v-132h-377v-153h346v-122h-346v-175h385v-132h-542v714z" />
<glyph unicode="&#xc9;" horiz-adv-x="648" d="M348 778h-99l96 142h157zM69 714h534v-132h-377v-153h346v-122h-346v-175h385v-132h-542v714z" />
<glyph unicode="&#xca;" horiz-adv-x="648" d="M260 920h130l110 -142h-117l-62 81l-64 -81h-108zM69 714h534v-132h-377v-153h346v-122h-346v-175h385v-132h-542v714z" />
<glyph unicode="&#xcb;" horiz-adv-x="648" d="M154 911h135v-117h-135v117zM360 911h135v-117h-135v117zM69 714h534v-132h-377v-153h346v-122h-346v-175h385v-132h-542v714z" />
<glyph unicode="&#xcc;" horiz-adv-x="295" d="M-29 920h156l96 -142h-99zM69 714h157v-714h-157v714z" />
<glyph unicode="&#xcd;" horiz-adv-x="295" d="M171 778h-99l96 142h157zM69 714h157v-714h-157v714z" />
<glyph unicode="&#xce;" horiz-adv-x="295" d="M83 920h130l110 -142h-117l-62 81l-64 -81h-107zM69 714h157v-714h-157v714z" />
<glyph unicode="&#xcf;" horiz-adv-x="295" d="M-22 911h134v-117h-134v117zM183 911h135v-117h-135v117zM69 714h157v-714h-157v714z" />
<glyph unicode="&#xd0;" horiz-adv-x="741" d="M226 427h160v-117h-160v-178h140q76 0 127 52t51 162q0 115 -47.5 175.5t-158.5 60.5h-112v-155zM69 311h-66v116h66v287h308q145 0 234.5 -91t89.5 -262q0 -162 -83 -261.5t-241 -99.5h-308v311z" />
<glyph unicode="&#xd1;" horiz-adv-x="741" d="M554 911q-6 -20 -9 -29.5t-12.5 -29t-20 -29t-29 -18t-41.5 -8.5q-29 0 -82 17q-47 17 -70 17q-19 0 -27.5 -10t-14.5 -32h-61q12 55 39.5 88.5t86.5 33.5q19 0 64 -17q42 -18 66 -18q22 0 32.5 10t9.5 25h69zM69 714h156l298 -479h2v479h147v-714h-157l-297 478h-2v-478 h-147v714z" />
<glyph unicode="&#xd2;" horiz-adv-x="778" d="M212 920h157l96 -142h-99zM195 354q0 -100 48 -169.5t146 -69.5t146 69.5t48 169.5q0 66 -18.5 119.5t-63.5 89.5t-112 36t-112 -36t-63.5 -89.5t-18.5 -119.5zM38 354q0 163 95 270t256 107t256 -107t95 -270q0 -160 -95 -265t-256 -105t-256 105t-95 265z" />
<glyph unicode="&#xd3;" horiz-adv-x="778" d="M413 778h-99l96 142h157zM195 354q0 -100 48 -169.5t146 -69.5t146 69.5t48 169.5q0 66 -18.5 119.5t-63.5 89.5t-112 36t-112 -36t-63.5 -89.5t-18.5 -119.5zM38 354q0 163 95 270t256 107t256 -107t95 -270q0 -160 -95 -265t-256 -105t-256 105t-95 265z" />
<glyph unicode="&#xd4;" horiz-adv-x="778" d="M325 920h130l110 -142h-117l-62 81l-64 -81h-108zM195 354q0 -100 48 -169.5t146 -69.5t146 69.5t48 169.5q0 66 -18.5 119.5t-63.5 89.5t-112 36t-112 -36t-63.5 -89.5t-18.5 -119.5zM38 354q0 163 95 270t256 107t256 -107t95 -270q0 -160 -95 -265t-256 -105t-256 105 t-95 265z" />
<glyph unicode="&#xd5;" horiz-adv-x="778" d="M573 911q-6 -20 -9 -29.5t-12.5 -29t-20 -29t-29 -18t-41.5 -8.5q-29 0 -82 17q-47 17 -70 17q-19 0 -27.5 -10t-14.5 -32h-61q12 55 39.5 88.5t86.5 33.5q19 0 64 -17q42 -18 66 -18q22 0 32.5 10t9.5 25h69zM195 354q0 -100 48 -169.5t146 -69.5t146 69.5t48 169.5 q0 66 -18.5 119.5t-63.5 89.5t-112 36t-112 -36t-63.5 -89.5t-18.5 -119.5zM38 354q0 163 95 270t256 107t256 -107t95 -270q0 -160 -95 -265t-256 -105t-256 105t-95 265z" />
<glyph unicode="&#xd6;" horiz-adv-x="778" d="M219 911h135v-117h-135v117zM425 911h135v-117h-135v117zM195 354q0 -100 48 -169.5t146 -69.5t146 69.5t48 169.5q0 66 -18.5 119.5t-63.5 89.5t-112 36t-112 -36t-63.5 -89.5t-18.5 -119.5zM38 354q0 163 95 270t256 107t256 -107t95 -270q0 -160 -95 -265t-256 -105 t-256 105t-95 265z" />
<glyph unicode="&#xd7;" horiz-adv-x="600" d="M64 93l161 160l-159 160l76 76l159 -160l160 160l76 -76l-161 -160l161 -160l-76 -76l-160 161l-161 -161z" />
<glyph unicode="&#xd8;" horiz-adv-x="778" d="M261 164q49 -49 128 -49q98 0 146 69.5t48 169.5q0 78 -27 136zM519 548q-51 51 -130 51q-67 0 -112 -36t-63.5 -89.5t-18.5 -119.5q0 -78 28 -135zM120 105q-82 100 -82 249q0 163 95 270t256 107q135 0 225 -77l80 89l50 -44l-84 -93q80 -105 80 -252q0 -160 -95 -265 t-256 -105q-134 0 -223 75l-83 -91l-49 42z" />
<glyph unicode="&#xd9;" horiz-adv-x="741" d="M193 920h157l96 -142h-99zM675 270q0 -142 -79.5 -214t-225.5 -72q-147 0 -225.5 71t-78.5 215v444h157v-444q0 -70 30.5 -112.5t116.5 -42.5q82 0 115 36.5t33 118.5v444h157v-444z" />
<glyph unicode="&#xda;" horiz-adv-x="741" d="M394 778h-99l96 142h157zM675 270q0 -142 -79.5 -214t-225.5 -72q-147 0 -225.5 71t-78.5 215v444h157v-444q0 -70 30.5 -112.5t116.5 -42.5q82 0 115 36.5t33 118.5v444h157v-444z" />
<glyph unicode="&#xdb;" horiz-adv-x="741" d="M306 920h130l110 -142h-117l-62 81l-64 -81h-108zM675 270q0 -142 -79.5 -214t-225.5 -72q-147 0 -225.5 71t-78.5 215v444h157v-444q0 -70 30.5 -112.5t116.5 -42.5q82 0 115 36.5t33 118.5v444h157v-444z" />
<glyph unicode="&#xdc;" horiz-adv-x="741" d="M200 911h135v-117h-135v117zM406 911h135v-117h-135v117zM675 270q0 -142 -79.5 -214t-225.5 -72q-147 0 -225.5 71t-78.5 215v444h157v-444q0 -70 30.5 -112.5t116.5 -42.5q82 0 115 36.5t33 118.5v444h157v-444z" />
<glyph unicode="&#xdd;" horiz-adv-x="667" d="M357 778h-99l96 142h157zM254 278l-262 436h176l167 -282l166 282h175l-265 -440v-274h-157v278z" />
<glyph unicode="&#xde;" horiz-adv-x="667" d="M226 281h122q64 0 101 22.5t37 84.5t-37 84.5t-101 22.5h-122v-214zM69 714h157v-97h165q125 0 186 -66t61 -163t-61 -163t-186 -66h-165v-159h-157v714z" />
<glyph unicode="&#xdf;" d="M56 491q0 240 235 240q97 0 162 -49t65 -143q0 -48 -25.5 -87t-67.5 -52v-2q63 -13 96.5 -62.5t33.5 -116.5q0 -96 -61.5 -164t-155.5 -68q-42 0 -82 6v115q16 -5 41 -5q50 0 83 35t33 86q0 56 -30.5 89t-91.5 33q-11 0 -35 -2v94q16 -2 22 -2q44 0 74.5 22.5t30.5 66.5 q0 89 -96 89q-42 0 -65.5 -26t-23.5 -72v-516h-142v491z" />
<glyph unicode="&#xe0;" horiz-adv-x="574" d="M110 723h157l96 -142h-99zM48 358q6 91 75 132t168 41q227 0 227 -147v-269q0 -86 18 -115h-144q-9 28 -10 50q-60 -63 -174 -63q-79 0 -127.5 38.5t-48.5 115.5q0 55 26.5 90t65 47t83.5 20t83 10.5t62.5 16.5t23.5 41q0 41 -24 55.5t-68 14.5q-87 0 -94 -78h-142z M376 253q-8 -7 -23 -12.5t-27.5 -7.5t-34.5 -5t-33 -5q-40 -7 -62 -23.5t-22 -52.5q0 -66 87 -66q115 0 115 119v53z" />
<glyph unicode="&#xe1;" horiz-adv-x="574" d="M311 581h-99l96 142h157zM48 358q6 91 75 132t168 41q227 0 227 -147v-269q0 -86 18 -115h-144q-9 28 -10 50q-60 -63 -174 -63q-79 0 -127.5 38.5t-48.5 115.5q0 55 26.5 90t65 47t83.5 20t83 10.5t62.5 16.5t23.5 41q0 41 -24 55.5t-68 14.5q-87 0 -94 -78h-142z M376 253q-8 -7 -23 -12.5t-27.5 -7.5t-34.5 -5t-33 -5q-40 -7 -62 -23.5t-22 -52.5q0 -66 87 -66q115 0 115 119v53z" />
<glyph unicode="&#xe2;" horiz-adv-x="574" d="M223 723h130l110 -142h-117l-62 81l-64 -81h-108zM48 358q6 91 75 132t168 41q227 0 227 -147v-269q0 -86 18 -115h-144q-9 28 -10 50q-60 -63 -174 -63q-79 0 -127.5 38.5t-48.5 115.5q0 55 26.5 90t65 47t83.5 20t83 10.5t62.5 16.5t23.5 41q0 41 -24 55.5t-68 14.5 q-87 0 -94 -78h-142zM376 253q-8 -7 -23 -12.5t-27.5 -7.5t-34.5 -5t-33 -5q-40 -7 -62 -23.5t-22 -52.5q0 -66 87 -66q115 0 115 119v53z" />
<glyph unicode="&#xe3;" horiz-adv-x="574" d="M471 714q-6 -20 -9 -29.5t-12.5 -29t-20 -29t-29 -18t-41.5 -8.5q-29 0 -82 17q-47 17 -70 17q-19 0 -27.5 -10t-14.5 -32h-61q12 55 39.5 88.5t86.5 33.5q19 0 64 -17q42 -18 66 -18q22 0 32.5 10t9.5 25h69zM48 358q6 91 75 132t168 41q227 0 227 -147v-269 q0 -86 18 -115h-144q-9 28 -10 50q-60 -63 -174 -63q-79 0 -127.5 38.5t-48.5 115.5q0 55 26.5 90t65 47t83.5 20t83 10.5t62.5 16.5t23.5 41q0 41 -24 55.5t-68 14.5q-87 0 -94 -78h-142zM376 253q-8 -7 -23 -12.5t-27.5 -7.5t-34.5 -5t-33 -5q-40 -7 -62 -23.5t-22 -52.5 q0 -66 87 -66q115 0 115 119v53z" />
<glyph unicode="&#xe4;" horiz-adv-x="574" d="M117 714h135v-117h-135v117zM323 714h135v-117h-135v117zM48 358q6 91 75 132t168 41q227 0 227 -147v-269q0 -86 18 -115h-144q-9 28 -10 50q-60 -63 -174 -63q-79 0 -127.5 38.5t-48.5 115.5q0 55 26.5 90t65 47t83.5 20t83 10.5t62.5 16.5t23.5 41q0 41 -24 55.5 t-68 14.5q-87 0 -94 -78h-142zM376 253q-8 -7 -23 -12.5t-27.5 -7.5t-34.5 -5t-33 -5q-40 -7 -62 -23.5t-22 -52.5q0 -66 87 -66q115 0 115 119v53z" />
<glyph unicode="&#xe5;" horiz-adv-x="574" d="M165 656q0 51 35.5 86.5t86.5 35.5t87 -35.5t36 -86.5t-36 -86.5t-87 -35.5t-86.5 35.5t-35.5 86.5zM224 656q0 -30 17 -50t46 -20t46.5 20t17.5 50t-17.5 50t-46.5 20t-46 -20t-17 -50zM48 358q6 91 75 132t168 41q227 0 227 -147v-269q0 -86 18 -115h-144q-9 28 -10 50 q-60 -63 -174 -63q-79 0 -127.5 38.5t-48.5 115.5q0 55 26.5 90t65 47t83.5 20t83 10.5t62.5 16.5t23.5 41q0 41 -24 55.5t-68 14.5q-87 0 -94 -78h-142zM376 253q-8 -7 -23 -12.5t-27.5 -7.5t-34.5 -5t-33 -5q-40 -7 -62 -23.5t-22 -52.5q0 -66 87 -66q115 0 115 119v53z " />
<glyph unicode="&#xe6;" horiz-adv-x="907" d="M736 314q0 51 -29.5 86.5t-81.5 35.5t-84 -36t-32 -86h227zM509 224q-2 -54 32.5 -98.5t90.5 -44.5q89 0 103 81h138q-21 -82 -86.5 -128.5t-151.5 -46.5q-132 0 -193 87q-65 -87 -211 -87q-83 0 -138 36t-55 117q0 42 14 72t41.5 47t54 25t63.5 14q117 18 132 23 q41 16 42 49q0 66 -92 66q-95 0 -99 -80h-142q2 62 39 103t88.5 56.5t116.5 15.5q122 0 171 -70q60 70 173 70q82 0 137.5 -44.5t78 -111t22.5 -151.5h-369zM385 252q-16 -14 -53.5 -21t-69 -10t-57 -21t-25.5 -52q0 -67 88 -67q45 0 81 27.5t36 79.5v64z" />
<glyph unicode="&#xe7;" horiz-adv-x="574" d="M406 335q-14 89 -105 89q-62 0 -91.5 -50.5t-29.5 -117.5q0 -66 28.5 -114.5t89.5 -48.5q98 0 113 105h137q-13 -99 -75 -153t-162 -57l-28 -40h2q13 5 34 5q37 0 64.5 -18t27.5 -52q0 -100 -117 -100q-64 0 -124 22l21 48q42 -18 84 -18q40 0 40 34q0 32 -40 32 q-23 0 -40 -7l-21 24l50 72q-102 10 -164 81.5t-62 179.5q0 124 70.5 202t193.5 78q98 0 167.5 -51t75.5 -145h-139z" />
<glyph unicode="&#xe8;" horiz-adv-x="574" d="M110 723h157l96 -142h-99zM402 314q-10 56 -36.5 83t-76.5 27q-61 0 -88 -34.5t-30 -75.5h231zM171 224q3 -68 34.5 -99.5t92.5 -31.5q41 0 73 20.5t39 46.5h125q-56 -173 -242 -173q-121 0 -192.5 74.5t-71.5 196.5q0 118 73.5 195.5t190.5 77.5q126 0 193 -90t58 -217 h-373z" />
<glyph unicode="&#xe9;" horiz-adv-x="574" d="M311 581h-99l96 142h157zM402 314q-10 56 -36.5 83t-76.5 27q-61 0 -88 -34.5t-30 -75.5h231zM171 224q3 -68 34.5 -99.5t92.5 -31.5q41 0 73 20.5t39 46.5h125q-56 -173 -242 -173q-121 0 -192.5 74.5t-71.5 196.5q0 118 73.5 195.5t190.5 77.5q126 0 193 -90t58 -217 h-373z" />
<glyph unicode="&#xea;" horiz-adv-x="574" d="M223 723h130l110 -142h-117l-62 81l-64 -81h-108zM402 314q-10 56 -36.5 83t-76.5 27q-61 0 -88 -34.5t-30 -75.5h231zM171 224q3 -68 34.5 -99.5t92.5 -31.5q41 0 73 20.5t39 46.5h125q-56 -173 -242 -173q-121 0 -192.5 74.5t-71.5 196.5q0 118 73.5 195.5t190.5 77.5 q126 0 193 -90t58 -217h-373z" />
<glyph unicode="&#xeb;" horiz-adv-x="574" d="M117 714h135v-117h-135v117zM323 714h135v-117h-135v117zM402 314q-10 56 -36.5 83t-76.5 27q-61 0 -88 -34.5t-30 -75.5h231zM171 224q3 -68 34.5 -99.5t92.5 -31.5q41 0 73 20.5t39 46.5h125q-56 -173 -242 -173q-121 0 -192.5 74.5t-71.5 196.5q0 118 73.5 195.5 t190.5 77.5q126 0 193 -90t58 -217h-373z" />
<glyph unicode="&#xec;" horiz-adv-x="258" d="M-47 723h156l96 -142h-99zM58 517h142v-517h-142v517z" />
<glyph unicode="&#xed;" horiz-adv-x="258" d="M153 581h-99l96 142h157zM58 517h142v-517h-142v517z" />
<glyph unicode="&#xee;" horiz-adv-x="258" d="M65 723h130l110 -142h-117l-62 81l-64 -81h-107zM58 517h142v-517h-142v517z" />
<glyph unicode="&#xef;" horiz-adv-x="258" d="M-40 714h134v-117h-134v117zM165 714h135v-117h-135v117zM58 517h142v-517h-142v517z" />
<glyph unicode="&#xf0;" d="M240 647q-39 29 -84 50l92 69q54 -30 99 -66l123 62l52 -59l-114 -57q84 -81 125.5 -170.5t39.5 -202.5q0 -125 -73.5 -205.5t-194.5 -80.5t-194 72t-73 188q0 66 23 122.5t77 96.5t130 40t135 -40h2q-26 60 -102 127l-112 -56l-58 56zM305 93q67 0 96.5 47t29.5 118 q0 63 -31.5 108t-95.5 45t-94 -45t-30 -108q0 -71 29.5 -118t95.5 -47z" />
<glyph unicode="&#xf1;" horiz-adv-x="593" d="M480 714q-6 -20 -9 -29.5t-12.5 -29t-20 -29t-29 -18t-41.5 -8.5q-29 0 -82 17q-47 17 -70 17q-19 0 -27.5 -10t-14.5 -32h-61q12 55 39.5 88.5t86.5 33.5q19 0 64 -17q42 -18 66 -18q22 0 32.5 10t9.5 25h69zM54 517h135v-72h3q52 86 158 86q107 0 148 -54t41 -159v-318 h-142v292q0 66 -20.5 96.5t-70.5 30.5q-58 0 -84 -35t-26 -113v-271h-142v517z" />
<glyph unicode="&#xf2;" d="M128 723h157l96 -142h-99zM180 258q0 -71 29.5 -118t95.5 -47q67 0 96.5 47t29.5 118t-29.5 118.5t-96.5 47.5q-66 0 -95.5 -47.5t-29.5 -118.5zM38 258q0 124 73 198.5t194 74.5q122 0 195 -74.5t73 -198.5t-73 -197.5t-195 -73.5t-194.5 73.5t-72.5 197.5z" />
<glyph unicode="&#xf3;" d="M329 581h-99l96 142h157zM180 258q0 -71 29.5 -118t95.5 -47q67 0 96.5 47t29.5 118t-29.5 118.5t-96.5 47.5q-66 0 -95.5 -47.5t-29.5 -118.5zM38 258q0 124 73 198.5t194 74.5q122 0 195 -74.5t73 -198.5t-73 -197.5t-195 -73.5t-194.5 73.5t-72.5 197.5z" />
<glyph unicode="&#xf4;" d="M241 723h130l110 -142h-117l-62 81l-64 -81h-108zM180 258q0 -71 29.5 -118t95.5 -47q67 0 96.5 47t29.5 118t-29.5 118.5t-96.5 47.5q-66 0 -95.5 -47.5t-29.5 -118.5zM38 258q0 124 73 198.5t194 74.5q122 0 195 -74.5t73 -198.5t-73 -197.5t-195 -73.5t-194.5 73.5 t-72.5 197.5z" />
<glyph unicode="&#xf5;" d="M489 714q-6 -20 -9 -29.5t-12.5 -29t-20 -29t-29 -18t-41.5 -8.5q-29 0 -82 17q-47 17 -70 17q-19 0 -27.5 -10t-14.5 -32h-61q12 55 39.5 88.5t86.5 33.5q19 0 64 -17q42 -18 66 -18q22 0 32.5 10t9.5 25h69zM180 258q0 -71 29.5 -118t95.5 -47q67 0 96.5 47t29.5 118 t-29.5 118.5t-96.5 47.5q-66 0 -95.5 -47.5t-29.5 -118.5zM38 258q0 124 73 198.5t194 74.5q122 0 195 -74.5t73 -198.5t-73 -197.5t-195 -73.5t-194.5 73.5t-72.5 197.5z" />
<glyph unicode="&#xf6;" d="M135 714h135v-117h-135v117zM341 714h135v-117h-135v117zM180 258q0 -71 29.5 -118t95.5 -47q67 0 96.5 47t29.5 118t-29.5 118.5t-96.5 47.5q-66 0 -95.5 -47.5t-29.5 -118.5zM38 258q0 124 73 198.5t194 74.5q122 0 195 -74.5t73 -198.5t-73 -197.5t-195 -73.5 t-194.5 73.5t-72.5 197.5z" />
<glyph unicode="&#xf7;" horiz-adv-x="600" d="M216 45q0 35 25.5 59.5t59.5 24.5t59 -24.5t25 -59.5q0 -31 -25.5 -57.5t-57.5 -26.5q-35 0 -60.5 25.5t-25.5 58.5zM216 460q0 35 25.5 60t59.5 25t59 -25t25 -60q0 -33 -25 -58.5t-58 -25.5q-35 0 -60.5 25t-25.5 59zM48 306h505v-107h-505v107z" />
<glyph unicode="&#xf8;" d="M104 69q-66 72 -66 189q0 124 73 198.5t194 74.5q95 0 163 -48l53 61l37 -32l-54 -61q69 -74 69 -193q0 -124 -73 -197.5t-195 -73.5q-98 0 -165 49l-59 -66l-37 31zM220 127q31 -34 85 -34q67 0 96.5 47t29.5 118q0 52 -16 91zM388 392q-30 32 -83 32q-66 0 -95.5 -47.5 t-29.5 -118.5q0 -52 15 -86z" />
<glyph unicode="&#xf9;" horiz-adv-x="593" d="M119 723h157l96 -142h-99zM539 0h-135v72h-3q-51 -85 -158 -85t-148 53.5t-41 158.5v318h142v-292q0 -66 20.5 -96.5t70.5 -30.5q58 0 84 35t26 113v271h142v-517z" />
<glyph unicode="&#xfa;" horiz-adv-x="593" d="M320 581h-99l96 142h157zM539 0h-135v72h-3q-51 -85 -158 -85t-148 53.5t-41 158.5v318h142v-292q0 -66 20.5 -96.5t70.5 -30.5q58 0 84 35t26 113v271h142v-517z" />
<glyph unicode="&#xfb;" horiz-adv-x="593" d="M232 723h130l110 -142h-117l-62 81l-64 -81h-108zM539 0h-135v72h-3q-51 -85 -158 -85t-148 53.5t-41 158.5v318h142v-292q0 -66 20.5 -96.5t70.5 -30.5q58 0 84 35t26 113v271h142v-517z" />
<glyph unicode="&#xfc;" horiz-adv-x="593" d="M126 714h135v-117h-135v117zM332 714h135v-117h-135v117zM539 0h-135v72h-3q-51 -85 -158 -85t-148 53.5t-41 158.5v318h142v-292q0 -66 20.5 -96.5t70.5 -30.5q58 0 84 35t26 113v271h142v-517z" />
<glyph unicode="&#xfd;" horiz-adv-x="519" d="M283 581h-99l96 142h157zM309 -64q-23 -63 -64 -90t-114 -27q-39 0 -87 5v117q54 -6 83 -5q26 3 40.5 21t14.5 43q0 17 -6 32l-181 485h151l117 -354h2l113 354h147z" />
<glyph unicode="&#xfe;" d="M438 257q0 70 -30.5 118.5t-93.5 48.5q-65 0 -94 -48t-29 -119q0 -70 30 -117t94 -47q65 0 94 46.5t29 117.5zM54 714h142v-263h2q50 80 147 80q115 0 175 -79.5t60 -198.5q0 -112 -59.5 -189t-167.5 -77q-102 0 -155 77h-2v-245h-142v895z" />
<glyph unicode="&#xff;" horiz-adv-x="519" d="M89 714h135v-117h-135v117zM295 714h135v-117h-135v117zM309 -64q-23 -63 -64 -90t-114 -27q-39 0 -87 5v117q54 -6 83 -5q26 3 40.5 21t14.5 43q0 17 -6 32l-181 485h151l117 -354h2l113 354h147z" />
<glyph unicode="&#x100;" horiz-adv-x="685" d="M264 714l-271 -714h159l56 159h267l54 -159h163l-267 714h-161zM434 276h-185l93 262h2zM167 884v-75h353v75h-353z" />
<glyph unicode="&#x101;" horiz-adv-x="574" d="M48 358h142q7 78 94 78q44 0 68 -14.5t24 -55.5q0 -32 -27.5 -42.5t-104.5 -20.5q-37 -4 -60.5 -8t-55.5 -15.5t-50.5 -27.5t-32 -44.5t-13.5 -66.5q0 -76 49 -115.5t127 -39.5q113 0 174 64q1 -22 10 -50h144q-18 29 -18 115v269q0 147 -227 147q-99 0 -168 -41 t-75 -132zM376 253v-53q0 -119 -115 -119q-87 0 -87 66q0 23 9 38.5t28 23.5t35 11.5t44 7.5q70 9 86 25zM118 694v-75h353v75h-353z" />
<glyph unicode="&#x102;" horiz-adv-x="685" d="M264 714l-271 -714h159l56 159h267l54 -159h163l-267 714h-161zM434 276h-185l93 262h2zM242 921h-65q6 -69 46.5 -105.5t112.5 -36.5q160 0 178 142h-63q-17 -67 -110 -67q-35 0 -64.5 16.5t-34.5 50.5z" />
<glyph unicode="&#x103;" horiz-adv-x="574" d="M48 358h142q7 78 94 78q44 0 68 -14.5t24 -55.5q0 -32 -27.5 -42.5t-104.5 -20.5q-37 -4 -60.5 -8t-55.5 -15.5t-50.5 -27.5t-32 -44.5t-13.5 -66.5q0 -76 49 -115.5t127 -39.5q113 0 174 64q1 -22 10 -50h144q-18 29 -18 115v269q0 147 -227 147q-99 0 -168 -41 t-75 -132zM376 253v-53q0 -119 -115 -119q-87 0 -87 66q0 23 9 38.5t28 23.5t35 11.5t44 7.5q70 9 86 25zM193 731h-65q6 -69 46.5 -105.5t112.5 -36.5q160 0 178 142h-63q-17 -67 -110 -67q-35 0 -64.5 16.5t-34.5 50.5z" />
<glyph unicode="&#x104;" horiz-adv-x="685" d="M558 -217q81 0 134 68l-48 22q-23 -30 -58 -30q-16 0 -27.5 9.5t-11.5 24.5q0 26 17 55q17 27 62 68h66l-267 714h-161l-270 -714h158l56 159h267l54 -159h30q-39 -23 -59 -42q-49 -45 -49 -85q0 -30 12.5 -49.5t32.5 -27.5t34 -10.5t28 -2.5zM434 276h-185l93 262h2z " />
<glyph unicode="&#x105;" horiz-adv-x="574" d="M402 -217q81 0 134 68l-48 22q-23 -30 -58 -30q-16 0 -27.5 9.5t-11.5 24.5q0 26 17 55q17 27 62 68h66q-18 29 -18 115v269q0 147 -227 147q-99 0 -168 -41t-75 -132h142q7 78 94 78q44 0 68 -14.5t24 -55.5q1 -27 -23.5 -41t-62.5 -16.5t-83 -10.5t-83.5 -20t-65 -47 t-26.5 -90q0 -77 48.5 -115.5t127.5 -38.5q114 0 174 63q1 -22 10 -50h11q-39 -23 -59 -42q-49 -45 -49 -85q0 -30 12.5 -49.5t32.5 -27.5t34 -10.5t28 -2.5zM261 81q-87 0 -87 66q0 36 22 52.5t62 23.5q11 2 33 5t34.5 5t27.5 7.5t23 12.5v-53q0 -119 -115 -119z" />
<glyph unicode="&#x106;" horiz-adv-x="741" d="M545 474h152q-14 120 -100.5 188.5t-207.5 68.5q-161 0 -256 -107t-95 -270q0 -160 95 -265t256 -105q132 0 217 78t97 213h-152q-9 -74 -50.5 -117t-111.5 -43q-98 0 -146 69.5t-48 169.5q0 66 18.5 119.5t63.5 89.5t112 36q58 0 103 -36t53 -89zM304 778h99l154 142 h-157z" />
<glyph unicode="&#x107;" horiz-adv-x="574" d="M406 335h139q-6 94 -75.5 145t-167.5 51q-123 0 -193.5 -78t-70.5 -202q0 -117 72 -190.5t189 -73.5q104 0 169.5 54.5t79.5 156.5h-137q-15 -105 -113 -105q-61 0 -89.5 48.5t-28.5 114.5q0 67 29.5 117.5t91.5 50.5q91 0 105 -89zM220 581h99l154 142h-157z" />
<glyph unicode="&#x108;" horiz-adv-x="741" d="M38 354q0 -159 95 -265t256 -106q132 0 217 79t97 213h-152q-9 -74 -50.5 -117t-111.5 -43q-98 0 -146 69.5t-48 169.5q0 66 18.5 119.5t63.5 89.5t112 36q58 0 103 -36t53 -89h152q-14 120 -100.5 188.5t-207.5 68.5q-161 0 -256 -107t-95 -270zM321 921l-111 -142h110 l64 81l62 -81h115l-110 142h-130z" />
<glyph unicode="&#x109;" horiz-adv-x="574" d="M406 335h139q-6 94 -75.5 145t-167.5 51q-123 0 -193.5 -78t-70.5 -202q0 -117 72.5 -191t188.5 -74q104 0 169.5 55t79.5 157h-137q-15 -105 -113 -105q-61 0 -89.5 48.5t-28.5 114.5q0 67 29.5 117.5t91.5 50.5q91 0 105 -89zM241 731l-111 -142h110l64 81l62 -81h115 l-110 142h-130z" />
<glyph unicode="&#x10a;" horiz-adv-x="741" d="M38 354q0 -159 95 -265t256 -106q132 0 217 79t97 213h-152q-9 -74 -50.5 -117t-111.5 -43q-98 0 -146 69.5t-48 169.5q0 66 18.5 119.5t63.5 89.5t112 36q58 0 103 -36t53 -89h152q-14 120 -100.5 188.5t-207.5 68.5q-161 0 -256 -107t-95 -270zM316 905v-117h135v117 h-135z" />
<glyph unicode="&#x10b;" horiz-adv-x="574" d="M406 335h139q-6 94 -75.5 145t-167.5 51q-123 0 -193.5 -78t-70.5 -202q0 -117 72.5 -191t188.5 -74q104 0 169.5 55t79.5 157h-137q-15 -105 -113 -105q-61 0 -89.5 48.5t-28.5 114.5q0 67 29.5 117.5t91.5 50.5q91 0 105 -89zM237 715v-117h135v117h-135z" />
<glyph unicode="&#x10c;" horiz-adv-x="741" d="M38 354q0 -159 95 -265t256 -106q132 0 217 79t97 213h-152q-9 -74 -50.5 -117t-111.5 -43q-98 0 -146 69.5t-48 169.5q0 66 18.5 119.5t63.5 89.5t112 36q58 0 103 -36t53 -89h152q-14 120 -100.5 188.5t-207.5 68.5q-161 0 -256 -107t-95 -270zM448 779l111 142h-110 l-64 -81l-62 81h-115l110 -142h130z" />
<glyph unicode="&#x10d;" horiz-adv-x="574" d="M406 335h139q-6 94 -75.5 145t-167.5 51q-123 0 -193.5 -78t-70.5 -202q0 -117 72.5 -191t188.5 -74q104 0 169.5 55t79.5 157h-137q-15 -105 -113 -105q-61 0 -89.5 48.5t-28.5 114.5q0 67 29.5 117.5t91.5 50.5q91 0 105 -89zM370 589l111 142h-110l-64 -81l-62 81 h-115l110 -142h130z" />
<glyph unicode="&#x10e;" horiz-adv-x="741" d="M69 714v-714h308q158 0 241 99.5t83 261.5q0 171 -89.5 262t-234.5 91h-308zM366 132h-140v450h112q111 0 158.5 -60.5t47.5 -175.5q0 -110 -51 -162t-127 -52zM397 779l111 142h-110l-64 -81l-62 81h-115l110 -142h130z" />
<glyph unicode="&#x10f;" d="M423 66v-66h135v714h-142v-260h-2q-23 37 -64.5 57t-88.5 20q-108 0 -168.5 -78t-60.5 -190q0 -116 60.5 -196.5t171.5 -80.5q110 0 157 80h2zM421 260q0 -72 -28.5 -119.5t-93.5 -47.5q-62 0 -93.5 49t-31.5 117q0 71 30 118t95 47q64 0 93 -46.5t29 -117.5zM703 572 l81 142h-148l-31 -142h98z" />
<glyph unicode="&#x110;" horiz-adv-x="741" d="M69 320v-320h308q158 0 241 99.5t83 261.5q0 171 -89.5 262t-234.5 91h-308v-296h-73v-98h73zM226 418v164h112q111 0 158.5 -60.5t47.5 -175.5q0 -110 -51 -162t-127 -52h-140v187h160v99h-160z" />
<glyph unicode="&#x111;" horiz-adv-x="621" d="M258 644v-76h158v-114h-2q-23 37 -64.5 57t-88.5 20q-108 0 -168.5 -78t-60.5 -190q0 -116 60.5 -196.5t171.5 -80.5q110 0 157 80h2v-66h135v568h81v76h-81v70h-142v-70h-158zM421 260q0 -72 -28.5 -119.5t-93.5 -47.5q-62 0 -93.5 49t-31.5 117q0 71 30 118t95 47 q64 0 93 -46.5t29 -117.5z" />
<glyph unicode="&#x112;" horiz-adv-x="648" d="M69 714v-714h542v132h-385v175h346v122h-346v153h377v132h-534zM155 884v-75h353v75h-353z" />
<glyph unicode="&#x113;" horiz-adv-x="574" d="M171 224h373q9 127 -58 217t-193 90q-117 0 -190.5 -77.5t-73.5 -195.5q0 -121 71.5 -196.5t192.5 -75.5q186 0 242 174h-125q-7 -26 -39 -46.5t-73 -20.5q-61 0 -92.5 31.5t-34.5 99.5zM402 314h-231q3 41 30 75.5t88 34.5q50 0 76.5 -27t36.5 -83zM117 694v-75h353v75 h-353z" />
<glyph unicode="&#x114;" horiz-adv-x="648" d="M69 714v-714h542v132h-385v175h346v122h-346v153h377v132h-534zM230 921h-65q6 -69 46.5 -105.5t112.5 -36.5q160 0 178 142h-63q-17 -67 -110 -67q-35 0 -64.5 16.5t-34.5 50.5z" />
<glyph unicode="&#x115;" horiz-adv-x="574" d="M171 224h373q9 127 -58 217t-193 90q-117 0 -190.5 -77.5t-73.5 -195.5q0 -121 71.5 -196.5t192.5 -75.5q186 0 242 174h-125q-7 -26 -39 -46.5t-73 -20.5q-61 0 -92.5 31.5t-34.5 99.5zM402 314h-231q3 41 30 75.5t88 34.5q50 0 76.5 -27t36.5 -83zM192 731h-65 q6 -69 46.5 -105.5t112.5 -36.5q160 0 178 142h-63q-17 -67 -110 -67q-35 0 -64.5 16.5t-34.5 50.5z" />
<glyph unicode="&#x116;" horiz-adv-x="648" d="M69 714v-714h542v132h-385v175h346v122h-346v153h377v132h-534zM263 905v-117h135v117h-135z" />
<glyph unicode="&#x117;" horiz-adv-x="574" d="M171 224h373q9 127 -58 217t-193 90q-117 0 -190.5 -77.5t-73.5 -195.5q0 -121 71.5 -196.5t192.5 -75.5q186 0 242 174h-125q-7 -26 -39 -46.5t-73 -20.5q-61 0 -92.5 31.5t-34.5 99.5zM402 314h-231q3 41 30 75.5t88 34.5q50 0 76.5 -27t36.5 -83zM225 715v-117h135 v117h-135z" />
<glyph unicode="&#x118;" horiz-adv-x="648" d="M477 -217q81 0 134 68l-48 22q-23 -30 -58 -30q-16 0 -27.5 9.5t-11.5 24.5q0 26 17 55q17 27 62 68h66v132h-385v175h346v122h-346v153h377v132h-534v-714h409q-39 -23 -59 -42q-49 -45 -49 -85q0 -30 12.5 -49.5t32.5 -27.5t34 -10.5t28 -2.5z" />
<glyph unicode="&#x119;" horiz-adv-x="574" d="M277 -217q81 0 134 68l-48 22q-23 -30 -58 -30q-16 0 -27.5 9.5t-11.5 24.5q0 26 17 55q14 23 51 58q64 8 109 37q62 41 92 133h-125q-7 -26 -39 -46.5t-73 -20.5q-61 0 -92.5 31.5t-34.5 99.5h373q9 127 -58 217t-193 90q-117 0 -190.5 -77.5t-73.5 -195.5 q0 -90 40.5 -156.5t113.5 -95.5q31 -12 76 -17q-24 -17 -40 -31q-49 -45 -49 -85q0 -30 12.5 -49.5t32.5 -27.5t34 -10.5t28 -2.5zM402 314h-231q3 41 30 75.5t88 34.5q50 0 76.5 -27t36.5 -83z" />
<glyph unicode="&#x11a;" horiz-adv-x="648" d="M69 714v-714h542v132h-385v175h346v122h-346v153h377v132h-534zM397 779l111 142h-110l-64 -81l-62 81h-115l110 -142h130z" />
<glyph unicode="&#x11b;" horiz-adv-x="574" d="M171 224h373q9 127 -58 217t-193 90q-117 0 -190.5 -77.5t-73.5 -195.5q0 -121 71.5 -196.5t192.5 -75.5q186 0 242 174h-125q-7 -26 -39 -46.5t-73 -20.5q-61 0 -92.5 31.5t-34.5 99.5zM402 314h-231q3 41 30 75.5t88 34.5q50 0 76.5 -27t36.5 -83zM359 589l111 142 h-110l-64 -81l-62 81h-115l110 -142h130z" />
<glyph unicode="&#x11c;" horiz-adv-x="759" d="M38 354q0 -159 95 -265t256 -106q120 0 196 98l16 -81h100v386h-300v-117h158q-14 -154 -170 -154q-98 0 -146 69.5t-48 169.5q0 66 18.5 119.5t63.5 89.5t112 36q58 0 97.5 -30.5t53.5 -89.5h150q-12 117 -98.5 184.5t-202.5 67.5q-161 0 -256 -107t-95 -270zM321 921 l-111 -142h110l64 81l62 -81h115l-110 142h-130z" />
<glyph unicode="&#x11d;" d="M551 33v484h-135v-69h-2q-48 83 -154 83q-103 0 -162.5 -75t-59.5 -181q0 -115 55 -187.5t166 -72.5q50 0 91.5 20t63.5 60h2v-68q1 -59 -27.5 -93.5t-86.5 -34.5q-89 0 -106 71h-141q6 -81 74 -123.5t154 -42.5q68 0 118.5 16t78.5 40t44.5 57t21.5 59.5t5 56.5z M295 122q-41 0 -68 24t-37 57t-10 74q0 63 29 105t86 42q64 0 92.5 -44.5t28.5 -114.5q0 -60 -31.5 -101.5t-89.5 -41.5zM246 731l-111 -142h110l64 81l62 -81h115l-110 142h-130z" />
<glyph unicode="&#x11e;" horiz-adv-x="759" d="M38 354q0 -159 95 -265t256 -106q120 0 196 98l16 -81h100v386h-300v-117h158q-14 -154 -170 -154q-98 0 -146 69.5t-48 169.5q0 66 18.5 119.5t63.5 89.5t112 36q58 0 97.5 -30.5t53.5 -89.5h150q-12 117 -98.5 184.5t-202.5 67.5q-161 0 -256 -107t-95 -270zM283 921 h-65q6 -69 46.5 -105.5t112.5 -36.5q160 0 178 142h-63q-17 -67 -110 -67q-35 0 -64.5 16.5t-34.5 50.5z" />
<glyph unicode="&#x11f;" d="M551 33v484h-135v-69h-2q-48 83 -154 83q-103 0 -162.5 -75t-59.5 -181q0 -115 55 -187.5t166 -72.5q50 0 91.5 20t63.5 60h2v-68q1 -59 -27.5 -93.5t-86.5 -34.5q-89 0 -106 71h-141q6 -81 74 -123.5t154 -42.5q68 0 118.5 16t78.5 40t44.5 57t21.5 59.5t5 56.5z M295 122q-41 0 -68 24t-37 57t-10 74q0 63 29 105t86 42q64 0 92.5 -44.5t28.5 -114.5q0 -60 -31.5 -101.5t-89.5 -41.5zM208 731h-65q6 -69 46.5 -105.5t112.5 -36.5q160 0 178 142h-63q-17 -67 -110 -67q-35 0 -64.5 16.5t-34.5 50.5z" />
<glyph unicode="&#x120;" horiz-adv-x="759" d="M38 354q0 -159 95 -265t256 -106q120 0 196 98l16 -81h100v386h-300v-117h158q-14 -154 -170 -154q-98 0 -146 69.5t-48 169.5q0 66 18.5 119.5t63.5 89.5t112 36q58 0 97.5 -30.5t53.5 -89.5h150q-12 117 -98.5 184.5t-202.5 67.5q-161 0 -256 -107t-95 -270zM316 905 v-117h135v117h-135z" />
<glyph unicode="&#x121;" d="M551 33v484h-135v-69h-2q-48 83 -154 83q-103 0 -162.5 -75t-59.5 -181q0 -115 55 -187.5t166 -72.5q50 0 91.5 20t63.5 60h2v-68q1 -59 -27.5 -93.5t-86.5 -34.5q-89 0 -106 71h-141q6 -81 74 -123.5t154 -42.5q68 0 118.5 16t78.5 40t44.5 57t21.5 59.5t5 56.5z M295 122q-41 0 -68 24t-37 57t-10 74q0 63 29 105t86 42q64 0 92.5 -44.5t28.5 -114.5q0 -60 -31.5 -101.5t-89.5 -41.5zM241 715v-117h135v117h-135z" />
<glyph unicode="&#x122;" horiz-adv-x="759" d="M38 354q0 -159 95 -265t256 -106q120 0 196 98l16 -81h100v386h-300v-117h158q-14 -154 -170 -154q-98 0 -146 69.5t-48 169.5q0 66 18.5 119.5t63.5 89.5t112 36q58 0 97.5 -30.5t53.5 -89.5h150q-12 117 -98.5 184.5t-202.5 67.5q-161 0 -256 -107t-95 -270zM307 -50 v-93h67q-9 -33 -57 -37v-37q67 0 101 18t34 76v73h-145z" />
<glyph unicode="&#x123;" d="M551 33v484h-135v-69h-2q-48 83 -154 83q-103 0 -162.5 -75t-59.5 -181q0 -115 55 -187.5t166 -72.5q50 0 91.5 20t63.5 60h2v-68q1 -59 -27.5 -93.5t-86.5 -34.5q-89 0 -106 71h-141q6 -81 74 -123.5t154 -42.5q68 0 118.5 16t78.5 40t44.5 57t21.5 59.5t5 56.5z M295 122q-41 0 -68 24t-37 57t-10 74q0 63 29 105t86 42q64 0 92.5 -44.5t28.5 -114.5q0 -60 -31.5 -101.5t-89.5 -41.5zM380 621v93h-67q9 33 57 37v37q-67 0 -101 -18t-34 -76v-73h145z" />
<glyph unicode="&#x124;" horiz-adv-x="741" d="M69 714v-714h157v308h289v-308h157v714h-157v-274h-289v274h-157zM306 921l-111 -142h110l64 81l62 -81h115l-110 142h-130z" />
<glyph unicode="&#x125;" horiz-adv-x="593" d="M54 714v-714h142v271q0 78 26 113t84 35q50 0 70.5 -30.5t20.5 -96.5v-292h142v318q0 105 -41 159t-148 54q-43 0 -84 -21.5t-67 -64.5h-3v269h-142zM221 921l-111 -142h110l64 81l62 -81h115l-110 142h-130z" />
<glyph unicode="&#x126;" horiz-adv-x="741" d="M69 714v-714h157v281h289v-281h157v714h-157v-109h-289v109h-157zM515 403h-289v113h289v-113z" />
<glyph unicode="&#x127;" horiz-adv-x="603" d="M64 568v-568h142v271q0 78 26 113t84 35q50 0 70.5 -30.5t20.5 -96.5v-292h142v318q0 105 -41 159t-148 54q-43 0 -84 -21.5t-67 -64.5h-3v123h158v76h-158v70h-142v-70h-81v-76h81z" />
<glyph unicode="&#x128;" horiz-adv-x="295" d="M69 714v-714h157v714h-157zM219 797q51 0 76 30.5t36 83.5h-64q-10 -35 -43 -35q-20 0 -67 17.5t-76 17.5q-49 0 -79.5 -36.5t-37.5 -85.5h63q12 42 45 42q20 0 67 -17t80 -17z" />
<glyph unicode="&#x129;" horiz-adv-x="258" d="M58 517v-517h142v517h-142zM201 607q51 0 76 30.5t36 83.5h-64q-10 -35 -43 -35q-19 0 -66.5 17.5t-76.5 17.5q-49 0 -79.5 -36.5t-37.5 -85.5h63q12 42 45 42q20 0 67 -17t80 -17z" />
<glyph unicode="&#x12a;" horiz-adv-x="295" d="M69 714v-714h157v714h-157zM-30 884v-75h353v75h-353z" />
<glyph unicode="&#x12b;" horiz-adv-x="258" d="M58 517v-517h142v517h-142zM-47 694v-75h353v75h-353z" />
<glyph unicode="&#x12c;" horiz-adv-x="295" d="M69 714v-714h157v714h-157zM45 921h-65q6 -69 46.5 -105.5t112.5 -36.5q160 0 178 142h-63q-17 -67 -110 -67q-35 0 -64.5 16.5t-34.5 50.5z" />
<glyph unicode="&#x12d;" horiz-adv-x="258" d="M58 517v-517h142v517h-142zM28 731h-65q6 -69 46.5 -105.5t112.5 -36.5q160 0 178 142h-63q-17 -67 -110 -67q-35 0 -64.5 16.5t-34.5 50.5z" />
<glyph unicode="&#x12e;" horiz-adv-x="295" d="M69 714v-714h89q-110 -65 -110 -134q0 -38 27 -60.5t75 -22.5q36 0 60.5 14.5t48.5 47.5l-41 26q-21 -28 -46 -28q-32 0 -32 36q0 25 16.5 51t69.5 70v714h-157z" />
<glyph unicode="&#x12f;" horiz-adv-x="258" d="M200 597v117h-142v-117h142zM58 517v-517h80q-107 -67 -107 -134q0 -38 27 -60.5t75 -22.5q36 0 60.5 14.5t48.5 47.5l-41 26q-21 -28 -46 -28q-32 0 -32 36q0 24 15.5 50.5t61.5 70.5v517h-142z" />
<glyph unicode="&#x130;" horiz-adv-x="295" d="M69 714v-714h157v714h-157zM80 905v-117h135v117h-135z" />
<glyph unicode="&#x131;" horiz-adv-x="258" d="M58 517h142v-517h-142v517z" />
<glyph unicode="&#x132;" horiz-adv-x="845" d="M69 714v-714h157v714h-157zM303 266v-62q0 -110 68.5 -165.5t166.5 -55.5q238 0 238 242v489h-157v-482q0 -26 -1.5 -41t-8.5 -35.5t-25.5 -30.5t-47.5 -10q-52 0 -71.5 30.5t-19.5 88.5v32h-142z" />
<glyph unicode="&#x133;" horiz-adv-x="524" d="M200 597v117h-142v-117h142zM58 517v-517h142v517h-142zM455 597v117h-142v-117h142zM227 -61v-117q20 -4 46 -4q104 0 143 36.5t39 119.5v543h-142v-536q0 -46 -55 -46q-22 0 -31 4z" />
<glyph unicode="&#x134;" horiz-adv-x="556" d="M14 266v-62q0 -110 68.5 -165.5t166.5 -55.5q238 0 238 242v489h-157v-482q0 -26 -1.5 -41t-8.5 -35.5t-25.5 -30.5t-47.5 -10q-52 0 -71.5 30.5t-19.5 88.5v32h-142zM339 921l-111 -142h110l64 81l62 -81h115l-110 142h-130z" />
<glyph unicode="&#x135;" horiz-adv-x="278" d="M-19 -61v-117q20 -4 46 -4q104 0 143 36.5t39 119.5v543h-142v-536q0 -46 -55 -46q-22 0 -31 4zM71 731l-111 -142h110l64 81l62 -81h115l-110 142h-130z" />
<glyph unicode="&#x136;" horiz-adv-x="722" d="M69 714v-714h157v230l90 91l215 -321h197l-306 432l279 282h-196l-279 -296v296h-157zM298 -50v-93h67q-9 -33 -57 -37v-37q67 0 101 18t34 76v73h-145z" />
<glyph unicode="&#x137;" horiz-adv-x="574" d="M67 714v-714h142v178l55 53l142 -231h172l-217 327l195 190h-168l-179 -186v383h-142zM235 -50v-93h67q-9 -33 -57 -37v-37q67 0 101 18t34 76v73h-145z" />
<glyph unicode="&#x138;" horiz-adv-x="565" d="M54 517v-517h142v160l58 56l140 -216h172l-217 315l194 202h-168l-179 -204v204h-142z" />
<glyph unicode="&#x139;" horiz-adv-x="593" d="M69 714v-714h505v132h-348v582h-157zM194 779l154 142h-157l-96 -142h99z" />
<glyph unicode="&#x13a;" horiz-adv-x="258" d="M58 714v-714h142v714h-142zM159 779l154 142h-157l-96 -142h99z" />
<glyph unicode="&#x13b;" horiz-adv-x="593" d="M69 714v-714h505v132h-348v582h-157zM246 -50v-93h67q-9 -33 -57 -37v-37q67 0 101 18t34 76v73h-145z" />
<glyph unicode="&#x13c;" horiz-adv-x="258" d="M58 714v-714h142v714h-142zM56 -50v-93h67q-9 -33 -57 -37v-37q67 0 101 18t34 76v73h-145z" />
<glyph unicode="&#x13d;" horiz-adv-x="593" d="M69 714v-714h505v132h-348v582h-157zM402 572l81 142h-148l-31 -142h98z" />
<glyph unicode="&#x13e;" horiz-adv-x="388" d="M58 714v-714h142v714h-142zM384 402v312h-109v-312h109z" />
<glyph unicode="&#x13f;" horiz-adv-x="593" d="M69 714v-714h505v132h-348v582h-157zM340 450v-117h135v117h-135z" />
<glyph unicode="&#x140;" horiz-adv-x="410" d="M58 714v-714h142v714h-142zM261 450v-117h135v117h-135z" />
<glyph unicode="&#x141;" horiz-adv-x="593" d="M69 214l-79 -56v112l79 56v388h157v-278l211 148v-112l-211 -148v-192h348v-132h-505v214z" />
<glyph unicode="&#x142;" horiz-adv-x="258" d="M58 286l-66 -53v102l66 53v326h142v-214l67 53v-102l-67 -53v-398h-142v286z" />
<glyph unicode="&#x143;" horiz-adv-x="741" d="M225 714h-156v-714h147v478h2l297 -478h157v714h-147v-479h-2zM304 778h99l154 142h-157z" />
<glyph unicode="&#x144;" horiz-adv-x="593" d="M189 517h-135v-517h142v271q0 78 26 113t84 35q50 0 70.5 -30.5t20.5 -96.5v-292h142v318q0 105 -41 159t-148 54q-106 0 -158 -86h-3v72zM210 581h99l154 142h-157z" />
<glyph unicode="&#x145;" horiz-adv-x="741" d="M69 714v-714h147v478h2l297 -478h157v714h-147v-479h-2l-298 479h-156zM300 -50v-93h67q-9 -33 -57 -37v-37q67 0 101 18t34 76v73h-145z" />
<glyph unicode="&#x146;" horiz-adv-x="593" d="M54 517v-517h142v271q0 78 26 113t84 35q50 0 70.5 -30.5t20.5 -96.5v-292h142v318q0 105 -41 159t-148 54q-106 0 -158 -86h-3v72h-135zM221 -50v-93h67q-9 -33 -57 -37v-37q67 0 101 18t34 76v73h-145z" />
<glyph unicode="&#x147;" horiz-adv-x="741" d="M69 714v-714h147v478h2l297 -478h157v714h-147v-479h-2l-298 479h-156zM431 779l111 142h-110l-64 -81l-62 81h-115l110 -142h130z" />
<glyph unicode="&#x148;" horiz-adv-x="593" d="M54 517v-517h142v271q0 78 26 113t84 35q50 0 70.5 -30.5t20.5 -96.5v-292h142v318q0 105 -41 159t-148 54q-106 0 -158 -86h-3v72h-135zM361 589l111 142h-110l-64 -81l-62 81h-115l110 -142h130z" />
<glyph unicode="&#x149;" horiz-adv-x="737" d="M198 517v-517h142v271q0 78 26 113t84 35q50 0 70.5 -30.5t20.5 -96.5v-292h142v318q0 105 -41 159t-148 54q-106 0 -158 -86h-3v72h-135zM20 714v-154h66q0 -79 -66 -101v-66q63 8 103.5 55.5t38.5 112.5v153h-142z" />
<glyph unicode="&#x14a;" horiz-adv-x="741" d="M69 714v-714h147v478h2l309 -478q-1 -31 -20.5 -46t-51.5 -15q-22 0 -58 6v-121q43 -6 76 -6q109 0 154 44t45 137v715h-147v-471h-2l-298 471h-156z" />
<glyph unicode="&#x14b;" horiz-adv-x="593" d="M289 -61v-117q31 -4 58 -4q107 0 149.5 43t42.5 133v324q0 105 -41 159t-148 54q-106 0 -158 -86h-3v72h-135v-517h142v271q0 78 26 113t84 35q50 0 70.5 -30.5t20.5 -96.5v-293q0 -32 -17.5 -48t-45.5 -16q-25 0 -45 4z" />
<glyph unicode="&#x14c;" horiz-adv-x="778" d="M38 354q0 -159 95 -265t256 -106t256 106t95 265q0 163 -95 270t-256 107t-256 -107t-95 -270zM195 354q0 66 18.5 119.5t63.5 89.5t112 36t112 -36t63.5 -89.5t18.5 -119.5q0 -100 -48 -169.5t-146 -69.5t-146 69.5t-48 169.5zM213 884v-75h353v75h-353z" />
<glyph unicode="&#x14d;" d="M38 258q0 -123 73 -197.5t194 -74.5q122 0 195 74.5t73 197.5q0 124 -73 198.5t-195 74.5q-121 0 -194 -74.5t-73 -198.5zM180 258q0 71 29.5 118.5t95.5 47.5q67 0 96.5 -47.5t29.5 -118.5t-29.5 -118t-96.5 -47q-66 0 -95.5 47t-29.5 118zM130 694v-75h353v75h-353z " />
<glyph unicode="&#x14e;" horiz-adv-x="778" d="M38 354q0 -159 95 -265t256 -106t256 106t95 265q0 163 -95 270t-256 107t-256 -107t-95 -270zM195 354q0 66 18.5 119.5t63.5 89.5t112 36t112 -36t63.5 -89.5t18.5 -119.5q0 -100 -48 -169.5t-146 -69.5t-146 69.5t-48 169.5zM288 921h-65q6 -69 46.5 -105.5 t112.5 -36.5q160 0 178 142h-63q-17 -67 -110 -67q-35 0 -64.5 16.5t-34.5 50.5z" />
<glyph unicode="&#x14f;" d="M38 258q0 -123 73 -197.5t194 -74.5q122 0 195 74.5t73 197.5q0 124 -73 198.5t-195 74.5q-121 0 -194 -74.5t-73 -198.5zM180 258q0 71 29.5 118.5t95.5 47.5q67 0 96.5 -47.5t29.5 -118.5t-29.5 -118t-96.5 -47q-66 0 -95.5 47t-29.5 118zM205 731h-65 q6 -69 46.5 -105.5t112.5 -36.5q160 0 178 142h-63q-17 -67 -110 -67q-35 0 -64.5 16.5t-34.5 50.5z" />
<glyph unicode="&#x150;" horiz-adv-x="778" d="M38 354q0 -159 95 -265t256 -106t256 106t95 265q0 163 -95 270t-256 107t-256 -107t-95 -270zM195 354q0 66 18.5 119.5t63.5 89.5t112 36t112 -36t63.5 -89.5t18.5 -119.5q0 -100 -48 -169.5t-146 -69.5t-146 69.5t-48 169.5zM530 779l149 142h-157l-91 -142h99z M323 779l149 142h-157l-91 -142h99z" />
<glyph unicode="&#x151;" d="M38 258q0 -123 73 -197.5t194 -74.5q122 0 195 74.5t73 197.5q0 124 -73 198.5t-195 74.5q-121 0 -194 -74.5t-73 -198.5zM180 258q0 71 29.5 118.5t95.5 47.5q67 0 96.5 -47.5t29.5 -118.5t-29.5 -118t-96.5 -47q-66 0 -95.5 47t-29.5 118zM447 589l149 142h-157 l-91 -142h99zM240 589l149 142h-157l-91 -142h99z" />
<glyph unicode="&#x152;" horiz-adv-x="1093" d="M538 448q0 67 -43.5 109t-110.5 42q-50 0 -88 -21t-59 -56.5t-31.5 -77.5t-10.5 -89q0 -99 46.5 -169.5t139.5 -70.5q72 0 114.5 45t42.5 118v170zM544 54h-2q-64 -70 -172 -70q-153 0 -242.5 107t-89.5 262q0 101 38.5 186t116.5 138.5t180 53.5q116 0 169 -68h2v51h500 v-132h-354v-153h324v-122h-324v-175h361v-132h-507v54z" />
<glyph unicode="&#x153;" horiz-adv-x="926" d="M528 224q0 -59 31.5 -95t91.5 -36q75 0 104 71h138q-25 -84 -89 -130.5t-153 -46.5q-133 0 -187 87q-26 -45 -76 -66t-107 -21q-115 0 -179 78.5t-64 195.5q0 116 70 193t184 77q125 0 178 -82q24 37 74.5 59.5t98.5 22.5q129 0 191.5 -86.5t62.5 -220.5h-369zM290 93 q114 0 114 167q0 164 -111 164q-60 0 -86.5 -49t-26.5 -119q0 -64 26 -113.5t84 -49.5zM755 314q-5 110 -115 110q-52 0 -81 -31t-31 -79h227z" />
<glyph unicode="&#x154;" horiz-adv-x="722" d="M69 714v-714h157v279h157q58 0 84.5 -25t34.5 -83q3 -18 6 -56t7 -66.5t12 -48.5h157q-8 11 -13.5 27t-8.5 37.5t-4 36t-2.5 38.5t-1.5 30q-10 141 -104 167v2q113 45 113 179q0 83 -57.5 140t-151.5 57h-385zM226 391v201h172q108 0 108 -99q0 -53 -26.5 -77.5 t-81.5 -24.5h-172zM378 779l154 142h-157l-96 -142h99z" />
<glyph unicode="&#x155;" horiz-adv-x="389" d="M54 517v-517h142v233q0 166 140 166q29 0 51 -5v132q-18 5 -31 5q-53 0 -99 -30.5t-66 -79.5h-2v96h-135zM256 589l154 142h-157l-96 -142h99z" />
<glyph unicode="&#x156;" horiz-adv-x="722" d="M69 714v-714h157v279h157q58 0 84.5 -25t34.5 -83q3 -18 6 -56t7 -66.5t12 -48.5h157q-8 11 -13.5 27t-8.5 37.5t-4 36t-2.5 38.5t-1.5 30q-10 141 -104 167v2q113 45 113 179q0 83 -57.5 140t-151.5 57h-385zM226 391v201h172q108 0 108 -99q0 -53 -26.5 -77.5 t-81.5 -24.5h-172zM295 -50v-93h67q-9 -33 -57 -37v-37q67 0 101 18t34 76v73h-145z" />
<glyph unicode="&#x157;" horiz-adv-x="389" d="M54 517v-517h142v233q0 166 140 166q29 0 51 -5v132q-18 5 -31 5q-53 0 -99 -30.5t-66 -79.5h-2v96h-135zM53 -50v-93h67q-9 -33 -57 -37v-37q67 0 101 18t34 76v73h-145z" />
<glyph unicode="&#x158;" horiz-adv-x="722" d="M69 714v-714h157v279h157q58 0 84.5 -25t34.5 -83q3 -18 6 -56t7 -66.5t12 -48.5h157q-8 11 -13.5 27t-8.5 37.5t-4 36t-2.5 38.5t-1.5 30q-10 141 -104 167v2q113 45 113 179q0 83 -57.5 140t-151.5 57h-385zM226 391v201h172q108 0 108 -99q0 -53 -26.5 -77.5 t-81.5 -24.5h-172zM403 779l111 142h-110l-64 -81l-62 81h-115l110 -142h130z" />
<glyph unicode="&#x159;" horiz-adv-x="389" d="M54 517v-517h142v233q0 166 140 166q29 0 51 -5v132q-18 5 -31 5q-53 0 -99 -30.5t-66 -79.5h-2v96h-135zM285 589l111 142h-110l-64 -81l-62 81h-115l110 -142h130z" />
<glyph unicode="&#x15a;" horiz-adv-x="649" d="M176 237h-152q-1 -64 24 -114t68 -79.5t97 -44.5t115 -15q142 0 219.5 63t77.5 165q0 164 -212 208q-144 37 -178.5 52.5t-34.5 55.5q0 41 32.5 61t75.5 20q135 0 141 -108h152q0 79 -41.5 132.5t-103.5 75.5t-141 22q-107 0 -187 -56.5t-80 -159.5q0 -47 17.5 -83 t50.5 -59t66.5 -36.5t78.5 -24.5q17 -5 51 -13.5t51 -13t42 -14t37 -19t21.5 -24.5t9.5 -34q0 -34 -24.5 -55t-53 -27.5t-61.5 -6.5q-69 0 -113.5 32.5t-44.5 99.5zM248 778h99l154 142h-157z" />
<glyph unicode="&#x15b;" horiz-adv-x="537" d="M164 168h-135q2 -65 39 -107.5t88 -58t116 -15.5q47 0 87 9t74.5 28.5t54.5 56t20 85.5q0 65 -43.5 96t-120.5 49q-13 3 -34 7.5t-33.5 7.5t-29 7.5t-26.5 9t-19.5 11t-14 15t-4.5 19.5q0 48 79 48q92 0 97 -70h135q-8 88 -70.5 126.5t-157.5 38.5q-45 0 -82.5 -7.5 t-71 -25.5t-52.5 -52t-19 -81q0 -33 13 -57t39 -39.5t50.5 -24.5t61.5 -17q87 -18 124 -34t37 -46q0 -34 -28.5 -50t-64.5 -16q-45 0 -77 22t-32 65zM202 581h99l154 142h-157z" />
<glyph unicode="&#x15c;" horiz-adv-x="649" d="M176 237h-152q-2 -124 86.5 -189t217.5 -65q142 0 219.5 63.5t77.5 165.5q0 33 -10 62t-22 48t-35.5 36t-38 25.5t-42.5 18t-35 11t-29 7.5q-144 37 -178.5 52.5t-34.5 55.5q0 41 32.5 61t75.5 20q135 0 141 -108h152q0 79 -41.5 132.5t-103.5 75.5t-141 22 q-107 0 -187 -56.5t-80 -159.5q0 -48 17.5 -83.5t50.5 -58.5t66 -36.5t79 -24.5q17 -5 51 -13.5t51 -13t42 -14t37 -19t21.5 -24.5t9.5 -34q0 -34 -24.5 -55t-53 -27.5t-61.5 -6.5q-69 0 -113.5 32.5t-44.5 99.5zM264 921l-111 -142h110l64 81l62 -81h115l-110 142h-130z " />
<glyph unicode="&#x15d;" horiz-adv-x="537" d="M164 168h-135q2 -65 39 -107.5t88 -58.5t116 -16q100 0 168 43t68 137q0 65 -43.5 96t-120.5 49q-13 3 -34 7.5t-33.5 7.5t-29 7.5t-26.5 9t-19.5 11t-14 15t-4.5 19.5q0 48 79 48q92 0 97 -70h135q-8 88 -70.5 126.5t-157.5 38.5q-45 0 -82.5 -7.5t-71 -25.5t-52.5 -52 t-19 -81q0 -33 13 -57t39 -39.5t50.5 -24.5t61.5 -17q87 -18 124 -34t37 -46q0 -34 -28.5 -50t-64.5 -16q-45 0 -77 22t-32 65zM207 731l-111 -142h110l64 81l62 -81h115l-110 142h-130z" />
<glyph unicode="&#x15e;" horiz-adv-x="649" d="M215 -147l-21 -48q57 -22 116 -22q60 0 92.5 24.5t32.5 68.5q0 36 -23.5 56.5t-62.5 20.5q-23 0 -40 -7l-2 2l26 35q140 2 216 65t76 164q0 33 -10 62t-22 48t-35.5 36t-38 25.5t-42.5 18t-35 11t-29 7.5q-144 37 -178.5 52.5t-34.5 55.5q0 41 32.5 61t75.5 20 q135 0 141 -108h152q0 79 -41.5 132.5t-103.5 75.5t-141 22q-107 0 -187 -56.5t-80 -159.5q0 -48 17.5 -83.5t50.5 -58.5t66 -36.5t79 -24.5q17 -5 51 -13.5t51 -13t42 -14t37 -19t21.5 -24.5t9.5 -34q0 -34 -24.5 -55t-53 -27.5t-61.5 -6.5q-69 0 -113.5 32.5t-44.5 99.5 h-152q-2 -114 72.5 -177.5t189.5 -74.5l-48 -67l21 -24q21 8 38 8q19 0 30.5 -9t11.5 -24q0 -34 -45 -34q-37 0 -79 18z" />
<glyph unicode="&#x15f;" horiz-adv-x="537" d="M159 -147l-21 -48q57 -22 116 -22q60 0 92.5 24.5t32.5 68.5q0 36 -23.5 56.5t-62.5 20.5q-23 0 -40 -7l-2 2l28 38q98 3 163.5 45.5t65.5 134.5q0 65 -43.5 96t-120.5 49q-13 3 -34 7.5t-33.5 7.5t-29 7.5t-26.5 9t-19.5 11t-14 15t-4.5 19.5q0 48 79 48q92 0 97 -70 h135q-8 88 -70.5 126.5t-157.5 38.5q-45 0 -82.5 -7.5t-71 -25.5t-52.5 -52t-19 -81q0 -33 13 -57t39 -39.5t50.5 -24.5t61.5 -17q87 -18 124 -34t37 -46q0 -34 -28.5 -50t-64.5 -16q-45 0 -77 22t-32 65h-135q2 -85 59 -129t144 -51l-50 -70l21 -24q21 8 38 8q19 0 30.5 -9 t11.5 -24q0 -34 -45 -34q-37 0 -79 18z" />
<glyph unicode="&#x160;" horiz-adv-x="649" d="M390 778h-130l-111 142h112l64 -81l65 81h110zM176 237q0 -67 44.5 -99.5t113.5 -32.5q33 0 61.5 6.5t53 27.5t24.5 55q0 19 -9.5 34t-21.5 24.5t-37 19t-42 14t-51 13t-51 13.5q-45 11 -78.5 24.5t-66.5 36.5t-50.5 59t-17.5 83q0 103 80 159.5t187 56.5q79 0 141 -22 t103.5 -75.5t41.5 -132.5h-152q-6 108 -141 108q-43 0 -75.5 -20t-32.5 -61q0 -40 34.5 -55.5t178.5 -52.5q212 -44 212 -208q0 -102 -77.5 -165t-219.5 -63q-61 0 -115 15t-97 44.5t-68 79.5t-24 114h152z" />
<glyph unicode="&#x161;" horiz-adv-x="537" d="M334 581h-130l-111 142h112l64 -81l65 81h110zM164 168q0 -43 32 -65t77 -22q36 0 64.5 16t28.5 50q0 30 -37 46t-124 34q-37 8 -61.5 17t-50.5 24.5t-39 39.5t-13 57q0 47 19 81t52.5 52t71 25.5t82.5 7.5q95 0 157.5 -38.5t70.5 -126.5h-135q-5 70 -97 70 q-79 0 -79 -48q0 -11 4.5 -19.5t14 -15t19.5 -11t26.5 -9t29 -7.5t33.5 -7.5t34 -7.5q77 -18 120.5 -49t43.5 -96q0 -49 -20 -85.5t-54.5 -56t-74.5 -28.5t-87 -9q-65 0 -116 15.5t-88 58t-39 107.5h135z" />
<glyph unicode="&#x162;" d="M227 582v-582h157v582h214v132h-585v-132h214zM233 -50v-93h67q-9 -33 -57 -37v-37q67 0 101 18t34 76v73h-145z" />
<glyph unicode="&#x163;" horiz-adv-x="352" d="M234 517v155h-142v-155h-86v-95h86v-305q0 -38 12.5 -63t36.5 -37.5t51 -17.5t63 -5q53 0 83 5v111q-17 -4 -44 -4q-36 0 -48 12t-12 48v256h104v95h-104zM125 -147l-21 -48q60 -22 124 -22q117 0 117 100q0 34 -27.5 52t-64.5 18q-21 0 -34 -5h-2l39 54h-49l-59 -84 l21 -24q17 7 40 7q40 0 40 -32q0 -34 -40 -34q-42 0 -84 18z" />
<glyph unicode="&#x164;" d="M227 582v-582h157v582h214v132h-585v-132h214zM370 779l111 142h-110l-64 -81l-62 81h-115l110 -142h130z" />
<glyph unicode="&#x165;" horiz-adv-x="352" d="M385 572l81 142h-148l-31 -142h98zM234 517v155h-142v-155h-86v-95h86v-305q0 -38 12.5 -63t36.5 -37.5t51 -17.5t63 -5q53 0 83 5v111q-17 -4 -44 -4q-36 0 -48 12t-12 48v256h104v95h-104z" />
<glyph unicode="&#x166;" d="M80 462v-96h147v-366h157v366h147v96h-147v120h214v132h-585v-132h214v-120h-147z" />
<glyph unicode="&#x167;" horiz-adv-x="352" d="M234 517v155h-142v-155h-86v-95h86v-81h-78v-76h78v-148q0 -38 12.5 -63t36.5 -37.5t51 -17.5t63 -5q53 0 83 5v111q-17 -4 -44 -4q-36 0 -48 12t-12 48v99h92v76h-92v81h104v95h-104z" />
<glyph unicode="&#x168;" horiz-adv-x="741" d="M675 270v444h-157v-444q0 -82 -33 -118.5t-115 -36.5q-86 0 -116.5 42t-30.5 113v444h-157v-444q0 -144 78.5 -215.5t225.5 -71.5q146 0 225.5 72.5t79.5 214.5zM442 797q51 0 76 30.5t36 83.5h-64q-10 -35 -43 -35q-19 0 -67 17.5t-76 17.5q-49 0 -79.5 -36.5 t-37.5 -85.5h63q12 42 45 42q20 0 67 -17t80 -17z" />
<glyph unicode="&#x169;" horiz-adv-x="593" d="M539 0v517h-142v-271q0 -78 -26 -113t-84 -35q-50 0 -70.5 30.5t-20.5 96.5v292h-142v-318q0 -105 41 -159t148 -54q106 0 158 86h3v-72h135zM370 607q51 0 76 30.5t36 83.5h-64q-10 -35 -43 -35q-19 0 -67 17.5t-76 17.5q-49 0 -79.5 -36.5t-37.5 -85.5h63q12 42 45 42 q20 0 67 -17t80 -17z" />
<glyph unicode="&#x16a;" horiz-adv-x="741" d="M675 270v444h-157v-444q0 -82 -33 -118.5t-115 -36.5q-86 0 -116.5 42t-30.5 113v444h-157v-444q0 -144 78.5 -215.5t225.5 -71.5q146 0 225.5 72.5t79.5 214.5zM194 884v-75h353v75h-353z" />
<glyph unicode="&#x16b;" horiz-adv-x="593" d="M539 0v517h-142v-271q0 -78 -26 -113t-84 -35q-50 0 -70.5 30.5t-20.5 96.5v292h-142v-318q0 -105 41 -159t148 -54q106 0 158 86h3v-72h135zM123 694v-75h353v75h-353z" />
<glyph unicode="&#x16c;" horiz-adv-x="741" d="M675 270v444h-157v-444q0 -82 -33 -118.5t-115 -36.5q-86 0 -116.5 42t-30.5 113v444h-157v-444q0 -144 78.5 -215.5t225.5 -71.5q146 0 225.5 72.5t79.5 214.5zM269 921h-65q6 -69 46.5 -105.5t112.5 -36.5q160 0 178 142h-63q-17 -67 -110 -67q-35 0 -64.5 16.5 t-34.5 50.5z" />
<glyph unicode="&#x16d;" horiz-adv-x="593" d="M539 0v517h-142v-271q0 -78 -26 -113t-84 -35q-50 0 -70.5 30.5t-20.5 96.5v292h-142v-318q0 -105 41 -159t148 -54q106 0 158 86h3v-72h135zM197 731h-65q6 -69 46.5 -105.5t112.5 -36.5q160 0 178 142h-63q-17 -67 -110 -67q-35 0 -64.5 16.5t-34.5 50.5z" />
<glyph unicode="&#x16e;" horiz-adv-x="741" d="M675 270v444h-157v-444q0 -82 -33 -118.5t-115 -36.5q-86 0 -116.5 42t-30.5 113v444h-157v-444q0 -144 78.5 -215.5t225.5 -71.5q146 0 225.5 72.5t79.5 214.5zM487 859q0 48 -33.5 81t-83.5 33q-49 0 -83 -33t-34 -81t33.5 -81t83.5 -33q49 0 83 33t34 81zM309 859 q0 28 16.5 45.5t44.5 17.5q27 0 44 -18t17 -45q0 -28 -16.5 -45.5t-44.5 -17.5q-27 0 -44 18t-17 45z" />
<glyph unicode="&#x16f;" horiz-adv-x="593" d="M539 0v517h-142v-271q0 -78 -26 -113t-84 -35q-50 0 -70.5 30.5t-20.5 96.5v292h-142v-318q0 -105 41 -159t148 -54q106 0 158 86h3v-72h135zM176 684q0 -52 34.5 -86t87.5 -34q52 0 87.5 34.5t35.5 85.5q0 52 -34.5 86t-87.5 34q-52 0 -87.5 -34.5t-35.5 -85.5zM362 684 q0 -30 -17.5 -48.5t-46.5 -18.5t-46 18.5t-17 48.5t17.5 48.5t46.5 18.5t46 -18.5t17 -48.5z" />
<glyph unicode="&#x170;" horiz-adv-x="741" d="M675 270v444h-157v-444q0 -82 -33 -118.5t-115 -36.5q-86 0 -116.5 42t-30.5 113v444h-157v-444q0 -144 78.5 -215.5t225.5 -71.5q146 0 225.5 72.5t79.5 214.5zM511 779l149 142h-157l-91 -142h99zM304 779l149 142h-157l-91 -142h99z" />
<glyph unicode="&#x171;" horiz-adv-x="593" d="M539 0v517h-142v-271q0 -78 -26 -113t-84 -35q-50 0 -70.5 30.5t-20.5 96.5v292h-142v-318q0 -105 41 -159t148 -54q106 0 158 86h3v-72h135zM439 589l149 142h-157l-91 -142h99zM232 589l149 142h-157l-91 -142h99z" />
<glyph unicode="&#x172;" horiz-adv-x="741" d="M487 -151l-45 26q-27 -32 -55 -32q-16 0 -26.5 10.5t-10.5 27.5q0 43 58 103q128 9 197.5 81t69.5 205v444h-157v-444q0 -82 -33 -118.5t-115 -36.5q-86 0 -116.5 42t-30.5 113v444h-157v-444q0 -269 270 -286q-82 -58 -82 -118q0 -38 29.5 -60.5t79.5 -22.5q81 0 124 66 z" />
<glyph unicode="&#x173;" horiz-adv-x="593" d="M539 0v517h-142v-271q0 -78 -26 -113t-84 -35q-50 0 -70.5 30.5t-20.5 96.5v292h-142v-318q0 -105 41 -159t148 -54q106 0 158 86h3v-72q-47 -37 -69 -67.5t-22 -65.5q0 -38 29.5 -61t79.5 -23q81 0 124 66l-45 26q-27 -32 -55 -32q-16 0 -27 10.5t-11 28.5q0 52 66 118 h65z" />
<glyph unicode="&#x174;" horiz-adv-x="944" d="M749 0l192 714h-154l-117 -492h-2l-122 492h-147l-124 -486h-2l-113 486h-157l189 -714h159l119 486h2l121 -486h156zM410 921l-111 -142h110l64 81l62 -81h115l-110 142h-130z" />
<glyph unicode="&#x175;" horiz-adv-x="814" d="M645 0l163 517h-146l-95 -350h-2l-88 350h-138l-86 -351h-2l-95 351h-150l164 -517h147l88 347h2l92 -347h146zM345 731l-111 -142h110l64 81l62 -81h115l-110 142h-130z" />
<glyph unicode="&#x176;" horiz-adv-x="667" d="M254 278v-278h157v274l265 440h-175l-166 -282l-167 282h-177zM273 921l-111 -142h110l64 81l62 -81h115l-110 142h-130z" />
<glyph unicode="&#x177;" horiz-adv-x="519" d="M309 -65l216 582h-147l-113 -354h-2l-117 354h-152l182 -485q6 -15 6 -32q0 -29 -17 -47t-45 -18q-38 0 -76 5v-117q48 -5 87 -5q73 0 114 27t64 90zM202 731l-111 -142h110l64 81l62 -81h115l-110 142h-130z" />
<glyph unicode="&#x178;" horiz-adv-x="667" d="M163 911h135v-117h-135v117zM369 911h135v-117h-135v117zM254 278l-262 436h176l167 -282l166 282h175l-265 -440v-274h-157v278z" />
<glyph unicode="&#x179;" horiz-adv-x="648" d="M406 582l-383 -458v-124h602v132h-393l383 458v124h-562v-132h353zM247 778h99l154 142h-157z" />
<glyph unicode="&#x17a;" horiz-adv-x="519" d="M291 410l-269 -303v-107h475v107h-288l269 303v107h-436v-107h249zM183 581h99l154 142h-157z" />
<glyph unicode="&#x17b;" horiz-adv-x="648" d="M406 582l-383 -458v-124h602v132h-393l383 458v124h-562v-132h353zM391 911h-135v-117h135v117z" />
<glyph unicode="&#x17c;" horiz-adv-x="519" d="M291 410l-269 -303v-107h475v107h-288l269 303v107h-436v-107h249zM327 714h-135v-117h135v117z" />
<glyph unicode="&#x17d;" horiz-adv-x="648" d="M390 778h-130l-111 142h112l64 -81l65 81h110zM23 124l383 458h-353v132h562v-124l-383 -458h393v-132h-602v124z" />
<glyph unicode="&#x17e;" horiz-adv-x="519" d="M325 581h-130l-111 142h112l64 -81l65 81h110zM22 107l269 303h-249v107h436v-107l-269 -303h288v-107h-475v107z" />
<glyph unicode="&#x17f;" horiz-adv-x="333" d="M227 429v143q0 42 48 41q7 0 16 -0.5t14.5 -1t8.5 -0.5v113q-24 3 -53 3q-115 0 -146 -48q-29 -32 -29 -117v-35h-76v-98h78v-429h139v429z" />
<glyph unicode="&#x180;" d="M234 465v123h144v75h-144v56h-141v-56h-62v-75h62v-588h135v74q30 -48 68 -69.5t95 -21.5q93 0 156 75q64 76 64 194q0 137 -63 215q-62 78 -167 78q-96 0 -147 -80zM230 258q0 98 49 140q31 25 71 25q58 0 88 -44t30 -116q0 -76 -29.5 -119t-87.5 -43t-89.5 42.5 t-31.5 114.5z" />
<glyph unicode="&#x182;" horiz-adv-x="667" d="M382 461h-153v133h375v128h-528l4 -4v-718h313q111 0 174 57t63 171q0 123 -62.5 178t-185.5 55zM369 125h-140v212h140q112 0 112 -108q0 -104 -112 -104z" />
<glyph unicode="&#x183;" d="M56 722l4 -4v-718h136v67q28 -39 52 -55q41 -26 106 -26q104 0 163 81q59 83 59 206q0 119 -59 195q-58 76 -164 76q-59 0 -96 -24q-33 -21 -58 -57v135l4 -4h293v128h-440zM430 258q0 -72 -30 -114.5t-83 -42.5q-60 0 -91.5 43t-31.5 115q0 57 15 95q29 68 104 68 t103 -70q14 -39 14 -94z" />
<glyph unicode="&#x186;" horiz-adv-x="722" d="M583 68q102 102 102 291q0 173 -89 274q-88 100 -244 100q-125 0 -207 -74q-79 -73 -99 -191h149q14 53 38 83q40 52 121 52q80 0 128.5 -62.5t48.5 -179.5q0 -120 -47.5 -186.5t-129.5 -66.5q-81 0 -122 47q-24 27 -37 78h-151q5 -68 50 -134q84 -120 266 -120 q136 0 223 89z" />
<glyph unicode="&#x189;" horiz-adv-x="722" d="M326 125h-104v196h152v125h-152v149h111q85 0 126 -29q73 -51 73 -199q0 -42 -10 -92q-11 -52 -36 -89q-29 -41 -72 -53q-29 -8 -88 -8zM637 152q48 94 48 225q0 143 -64 232q-42 58 -100.5 84t-143.5 26h-301v-273h-67v-125h67v-321h300q183 0 261 152z" />
<glyph unicode="&#x18b;" horiz-adv-x="667" d="M324 461q-123 0 -185.5 -55t-62.5 -178q0 -114 63 -171t174 -57h313v718l4 4h-527v-128h374v-133h-153zM337 125q-112 0 -112 104q0 108 112 108h140v-212h-140z" />
<glyph unicode="&#x18c;" d="M572 718l4 4h-440v-128h293l5 4v-135q-27 37 -59 57q-37 24 -95 24q-105 0 -165 -76q-59 -76 -59 -195q0 -124 58 -206q58 -81 164 -81q65 0 106 26q24 16 52 55v-67h136v718zM202 258q0 56 15 94q28 70 102 70q75 0 104 -68q15 -37 15 -95q0 -72 -31.5 -115t-91.5 -43 q-53 0 -83 42.5t-30 114.5z" />
<glyph unicode="&#x18d;" horiz-adv-x="577" d="M327 193q96 20 151 90q57 71 57 168q0 119 -69 191q-67 73 -187 73q-109 0 -176 -70q-68 -71 -68 -182q0 -90 58 -172q55 -78 127 -137q67 -55 79 -57h-220v-112h421v100zM279 293q-50 0 -80 48q-30 49 -30 115q0 65 28 109q28 46 82 46q55 0 86 -43.5t31 -110.5 q0 -65 -32 -115q-31 -49 -85 -49z" />
<glyph unicode="&#x18e;" horiz-adv-x="667" d="M98 720v-128h381v-153h-350v-125h350v-185h-399v-129h545v720h-527z" />
<glyph unicode="&#x18f;" horiz-adv-x="748" d="M376 -16q148 0 241 103.5t93 270.5q0 161 -95 267t-255 106q-123 0 -209 -68t-100 -173h149q14 53 58 82t105 29q76 0 127.5 -54t62.5 -147h-513q-2 -18 -2 -46q0 -164 86.5 -267t251.5 -103zM375 114q-75 0 -119 45t-54 119h346q-35 -164 -173 -164z" />
<glyph unicode="&#x190;" horiz-adv-x="568" d="M26 231q0 -121 72 -189q69 -66 193 -66q107 0 172 69q65 68 65 175h-126q0 -131 -123 -131q-59 0 -92 42q-29 38 -29 99q0 46 38 78q32 26 64 26h76v105h-68q-32 0 -60 25q-35 30 -35 78q0 45 26 72t71 27q56 0 85 -35q24 -28 24 -67h120q-1 8 -1.5 23.5t-0.5 23.5 q-4 34 -21 61q-60 93 -202 93q-101 0 -160 -44q-66 -50 -66 -147q0 -48 24.5 -88.5t67.5 -61.5q-53 -9 -84 -64q-30 -48 -30 -104z" />
<glyph unicode="&#x191;" d="M9 -102v-111q9 0 21 -0.5t18.5 -1t10.5 -0.5q101 0 133 39q32 38 32 119v57h2v302h316v125h-316v165h360v127h-510v-774q0 -27 -10 -38t-31 -11q-2 0 -5 0.5t-8.5 1t-12.5 0.5z" />
<glyph unicode="&#x192;" horiz-adv-x="556" d="M14 -59q19 -3 40 -3q36 -1 50.5 16t21.5 54l63 329h-92l18 95h91l24 127q18 95 63.5 133.5t142.5 38.5q46 0 75 -7l-18 -107q-15 7 -40 7q-38 0 -54 -14t-22 -48l-25 -130h98l-16 -95h-100l-56 -310q-19 -107 -61.5 -151.5t-147.5 -44.5q-46 0 -73 3z" />
<glyph unicode="&#x196;" horiz-adv-x="278" d="M250 -22v111q-7 0 -12.5 -0.5t-8.5 -1t-5 -0.5q-21 0 -31 10.5t-10 38.5v585h-140v-587q0 -80 32 -120q32 -38 125 -38z" />
<glyph unicode="&#x197;" horiz-adv-x="390" d="M21 490v-74h101v-416h139v416h107v74h-107v230h-139v-230h-101z" />
<glyph unicode="&#x19a;" horiz-adv-x="390" d="M21 490v-74h101v-416h139v416h107v74h-107v230h-139v-230h-101z" />
<glyph unicode="&#x19b;" horiz-adv-x="549" d="M44 558v-74l148 36l11 -30l-179 -490h155l97 322h2l100 -322h154l-204 554l112 28v74l-137 -34l-31 84h-148l43 -118z" />
<glyph unicode="&#x19d;" horiz-adv-x="722" d="M6 -102v-111q9 0 21 -0.5t18.5 -1t10.5 -0.5q92 0 124 39q32 38 32 119v57h2v511l294 -511h150v720h-140v-503l-287 503h-157v-190h-1v-585q0 -27 -10 -38t-31 -11q-2 0 -5 0.5t-8.5 1t-12.5 0.5z" />
<glyph unicode="&#x19e;" d="M547 358q0 99 -53 143t-134 44q-65 0 -109 -32q-23 -17 -51 -59v77h-134v-531h139v288q0 51 13 81q27 60 97 60q58 0 79 -41q11 -24 11 -64v-535h142v569z" />
<glyph unicode="&#x19f;" horiz-adv-x="778" d="M630 64q109 103 109 297q0 198 -109 297q-81 84 -235 84q-155 0 -236 -84q-110 -99 -110 -297q0 -193 110 -297q81 -84 236 -84q154 0 235 84zM252 173q-42 53 -51 137h385q-9 -84 -50 -137q-52 -66 -141 -66q-91 0 -143 66zM536 548q39 -48 50 -132h-384q9 82 50 132 q52 66 143 66q89 0 141 -66z" />
<glyph unicode="&#x1a0;" horiz-adv-x="946" d="M630 64q109 103 109 297q0 94 -26 169q17 1 37 6q37 11 65 27l109 63l-75 131l-126 -73l42 -73q-43 -22 -78 -19l-3 1q-23 37 -54 65q-81 84 -235 84q-155 0 -236 -84q-110 -99 -110 -297q0 -193 110 -297q81 -84 236 -84q154 0 235 84zM589 361q0 -121 -52 -187.5 t-142 -66.5q-91 0 -143.5 66.5t-52.5 187.5q0 120 52.5 186.5t143.5 66.5q90 0 142 -66.5t52 -186.5z" />
<glyph unicode="&#x1a1;" horiz-adv-x="795" d="M304 -19q136 0 204 83q68 85 68 201q0 56 -17 109q21 0 40 6q37 11 65 27l108 63l-75 131l-126 -73l43 -73q-44 -22 -78 -19q-5 0 -7 1q-11 16 -20 28q-67 84 -205 84t-205 -85q-67 -83 -67 -199q0 -118 67 -201q68 -83 205 -83zM430 265q0 -80 -32.5 -123.5t-93.5 -43.5 t-94 43.5t-33 123.5t33 123.5t94 43.5t93.5 -43.5t32.5 -123.5z" />
<glyph unicode="&#x1a2;" horiz-adv-x="922" d="M696 582v-763h157v895h-349q-56 17 -115 17q-161 0 -256 -107t-95 -270q0 -160 95 -265t256 -105q126 0 217 69v529h90zM389 115q-98 0 -146 69.5t-48 169.5q0 66 18.5 119.5t63.5 89.5t112 36q30 0 60 -8v-468q-30 -8 -60 -8z" />
<glyph unicode="&#x1a3;" horiz-adv-x="764" d="M568 410v-591h142v698h-311q-45 14 -94 14q-121 0 -194 -74.5t-73 -198.5t72.5 -197.5t194.5 -73.5q121 0 195 74v349h68zM305 93q-66 0 -95.5 47t-29.5 118t29.5 118.5t95.5 47.5q26 0 53 -10v-311q-24 -10 -53 -10z" />
<glyph unicode="&#x1a6;" horiz-adv-x="650" d="M29 720v-720h147v185h155q65 0 90 -23q24 -22 26 -92l1 -67q0 -32 6 -62q4 -19 10 -39h165v18q-21 13 -27 41q-4 16 -4 67v49q0 74 -20 111.5t-71 57.5q60 22 85 70q26 50 26 101q0 79 -51 136q-29 35 -71 51.5t-114 17.5h-206v98h-147zM176 497h175q48 0 73 -13 q43 -22 43 -88q0 -60 -45 -81q-27 -11 -76 -11h-170v193z" />
<glyph unicode="&#x1a7;" horiz-adv-x="667" d="M632 222h-143q-7 -48 -27 -74q-38 -44 -126 -44q-53 0 -86 12q-63 22 -63 83q0 36 31 55q30 19 98 34l77 17q109 25 155 55q73 49 73 156q0 96 -71 161q-70 64 -206 64q-115 0 -195 -61q-80 -60 -84 -175h145q4 65 57 93q35 18 87 18q58 0 92.5 -23.5t34.5 -65.5 q0 -39 -34 -58q-23 -12 -93 -30l-125 -29q-80 -19 -123 -53q-64 -49 -64 -147t75 -164q77 -65 214 -65q141 0 220 64q81 65 81 177z" />
<glyph unicode="&#x1a8;" horiz-adv-x="556" d="M519 170h-142q-4 -37 -19 -53q-25 -28 -95 -28q-90 0 -90 49q0 24 20 36t145 42q91 23 127 56q37 33 37 96q0 74 -58 126q-58 53 -162 53q-105 0 -165.5 -41.5t-69.5 -135.5h140q1 26 15 43q22 28 78 28q42 0 63 -13.5t21 -33.5q0 -24 -21 -35q-19 -10 -145 -39 q-85 -20 -124 -59q-41 -41 -41 -100q0 -82 60.5 -130.5t179.5 -48.5q122 0 184 51.5t62 136.5z" />
<glyph unicode="&#x1a9;" horiz-adv-x="595" d="M457 358l-227 227h332v130h-532v-110l245 -248l-245 -247v-110h532v130h-332z" />
<glyph unicode="&#x1ae;" d="M166 -102v-111q48 -2 49 -2q91 0 130 37.5t39 120.5v649h215v128h-583v-128h216v-647q0 -27 -10 -38t-31 -11q-2 0 -5 0.5t-8.5 1t-11.5 0.5z" />
<glyph unicode="&#x1af;" horiz-adv-x="918" d="M76 720v-443q0 -113 36 -178q67 -118 254 -118t253 118q36 64 36 178v256q31 -7 66 3q37 11 65 27l109 63l-76 131l-126 -73l43 -73q-44 -22 -78 -19h-3v128h-153v-443q0 -73 -18 -108q-27 -61 -118 -61q-92 0 -119 61q-18 35 -18 108v443h-153z" />
<glyph unicode="&#x1b0;" horiz-adv-x="805" d="M204 532h-143v-321q0 -90 23 -138q40 -85 159 -85q42 0 72.5 11t62.5 40q7 5 13 13.5t10 15t5 7.5v-75h136v401q33 -6 67 3q32 9 64 28l109 63l-75 130l-126 -73l43 -73q-44 -22 -79 -19q-2 0 -3 1v71h-142v-289q0 -53 -13 -83q-27 -57 -98 -57q-56 0 -75 40 q-10 21 -10 68v321z" />
<glyph unicode="&#x1b1;" horiz-adv-x="775" d="M384 135q-79 0 -120 59q-39 60 -39 146q0 88 24 146t81 99v130h-286v-120h150q-67 -53 -96 -113.5t-29 -146.5q0 -140 89 -238q88 -97 232 -97q149 0 231 97q84 97 84 238q0 161 -125 260h149v120h-285v-130q57 -41 81 -99.5t24 -145.5q0 -85 -42 -145t-123 -60z" />
<glyph unicode="&#x1b5;" horiz-adv-x="648" d="M23 124v-124h602v132h-403l150 175h196v122h-91l138 161v124h-562v-132h363l-132 -153h-193v-122h89z" />
<glyph unicode="&#x1b6;" horiz-adv-x="519" d="M22 107v-107h475v107h-298l105 114h142v91h-58l90 98v107h-436v-107h259l-90 -98h-135v-91h51z" />
<glyph unicode="&#x1b7;" horiz-adv-x="600" d="M370 590l-227 -232l182 -1l1 1q57 -7 80 -30q14 -39 14 -99q0 -57 -43 -89t-113 -32q-46 0 -67.5 24.5t-27.5 70.5h-142q4 -63 46 -120q66 -92 194 -92t213 56q85 57 85 179q0 136 -66 174q-30 35 -76 56l147 154v110h-532v-130h332z" />
<glyph unicode="&#x1b8;" horiz-adv-x="600" d="M457 358l-228 232h333v130h-533v-110l148 -154q-46 -21 -76 -56q-67 -37 -67 -174q0 -122 85 -179q86 -56 214 -56t193 92q42 57 46 120h-142q-8 -95 -94 -95q-70 0 -113 32t-43 89q0 63 13 99q22 22 80 30l1 -1z" />
<glyph unicode="&#x1b9;" horiz-adv-x="551" d="M408 168l-179 232h284v130h-484v-110l148 -154q-46 -21 -76 -56q-67 -43 -67 -181q0 -121 69.5 -182.5t199.5 -61.5q129 0 175 91q41 57 45 121h-142q-5 -45 -17 -68q-14 -27 -62 -27q-122 0 -122 130q0 64 13 106q22 22 80 30l1 -1z" />
<glyph unicode="&#x1bb;" horiz-adv-x="612" d="M71 139q-31 -64 -32 -139h484v123h-309q12 20 33 38q25 21 71 54l56 39q67 47 101 91q47 62 47 139q0 104 -67 165q-67 62 -178 62q-143 0 -198 -106q-29 -56 -33 -146h136q2 60 15 87q23 48 87 48q45 0 70.5 -29.5t25.5 -75.5q0 -54 -44 -101q-30 -31 -124 -99 q-111 -79 -141 -150zM584 391h-522v-99h522v99z" />
<glyph unicode="&#x1c0;" horiz-adv-x="280" d="M209 727h-128v-727h128v727z" />
<glyph unicode="&#x1c1;" horiz-adv-x="529" d="M209 727h-128v-727h128v727zM453 727h-128v-727h128v727z" />
<glyph unicode="&#x1c2;" horiz-adv-x="572" d="M542 521h-211v206h-128v-206h-190v-128h190v-100h-190v-128h190v-165h128v165h211v128h-211v100h211v128z" />
<glyph unicode="&#x1c3;" horiz-adv-x="333" d="M110 717v-182l40 -336h73l40 336v182h-153zM113 141v-141h146v141h-146z" />
<glyph unicode="&#x1c4;" horiz-adv-x="1230" d="M181 595h139q101 0 136 -59t35 -169q0 -77 -23 -137q-42 -105 -148 -105h-139v470zM457 704q-43 14 -112 16h-310v-720h310q163 0 241 134q58 100 58 243q0 144 -65 236q-46 65 -122 91zM652 127v-127h560v127h-377l376 472v121h-549v-128h362zM864 751h125l114 146h-113 l-64 -82l-64 82h-113z" />
<glyph unicode="&#x1c5;" horiz-adv-x="1132" d="M189 595h139q101 0 136 -59t35 -169q0 -77 -23 -137q-42 -105 -148 -105h-139v470zM464 704q-42 14 -111 16h-310v-720h310q163 0 241 134q58 100 58 243q0 144 -65 236q-46 65 -123 91zM672 419h254l-273 -311v-108h460v114h-280l271 303v115h-432v-113zM811 575h125 l114 146h-113l-63 -83l-64 83h-114z" />
<glyph unicode="&#x1c6;" horiz-adv-x="1060" d="M408 465q-51 80 -147 80q-105 0 -168 -78q-62 -79 -62 -215q0 -118 63 -194q64 -75 157 -75q57 0 95 21.5t68 69.5v-74h135v719h-141v-254zM412 258q0 -72 -31 -114.5t-89 -42.5q-59 0 -88.5 43t-29.5 119q0 72 30 116t88 44q42 0 71 -25q49 -42 49 -140zM602 419h254 l-273 -311v-108h459v114h-279l270 303v115h-431v-113zM745 577h125l114 146h-113l-63 -83l-64 83h-114z" />
<glyph unicode="&#x1c7;" horiz-adv-x="1058" d="M53 720v-720h507v129h-356v591h-151zM708 283h-142v-16q0 -127 48 -201q48 -73 188 -73t194 90q31 53 31 146v501h-150v-503q0 -54 -10 -75q-16 -37 -71 -37q-51 0 -68.5 32t-19.5 120v16z" />
<glyph unicode="&#x1c8;" horiz-adv-x="835" d="M53 720v-720h507v129h-356v591h-151zM793 596v128h-139v-128h139zM587 -102v-111q48 -2 50 -2q93 0 124 39q32 38 32 119v587h-139v-585q0 -27 -10 -38t-32 -11q-2 0 -9.5 0.5t-15.5 1.5z" />
<glyph unicode="&#x1c9;" horiz-adv-x="521" d="M207 0v720h-139v-720h139zM488 596v128h-139v-128h139zM282 -102v-111l50 -2q92 0 124 39q32 38 32 119v587h-139v-585q0 -27 -10 -38t-31 -11q-2 0 -5 0.5t-8.5 1t-12.5 0.5z" />
<glyph unicode="&#x1ca;" horiz-adv-x="1158" d="M48 720v-720h140v511l294 -511h151v720h-140v-503l-287 503h-158zM804 278h-142v-17q0 -127 47 -201q48 -73 188 -73q142 0 194 91q32 55 32 146v501h-150v-504q0 -50 -11 -74q-16 -37 -70 -37t-70 34t-18 117v17z" />
<glyph unicode="&#x1cb;" horiz-adv-x="906" d="M51 720v-720h140v511l294 -511h150v720h-140v-503l-287 503h-157zM861 598v129h-139v-129h139zM655 -100v-111q14 0 30.5 -0.5t19.5 -0.5q93 0 124 39q32 38 32 118v587h-139v-584q0 -28 -10 -38.5t-32 -10.5q-9 0 -25 1z" />
<glyph unicode="&#x1cc;" horiz-adv-x="800" d="M527 358q0 96 -50 141.5t-138 45.5q-65 0 -109 -32q-23 -18 -50 -59v77h-135v-531h139v288q0 48 14 81q26 60 97 60q58 0 78 -41q11 -24 11 -64v-324h143v358zM747 596v128h-140v-128h140zM541 -102v-111q48 -2 49 -2q94 0 125 39q32 38 32 119v587h-140v-585 q0 -27 -10 -38t-31 -11q-2 0 -5 0.5t-8.5 1t-11.5 0.5z" />
<glyph unicode="&#x1cd;" horiz-adv-x="722" d="M273 272l93 283l90 -283h-183zM282 720l-257 -720h158l49 148h266l46 -148h163l-255 720h-170zM304 789h125l114 146h-113l-63 -83l-64 83h-114z" />
<glyph unicode="&#x1ce;" horiz-adv-x="556" d="M358 259v-52q-1 -70 -39 -97q-38 -26 -83 -26q-30 0 -49 17t-19 51q0 40 33 59q22 12 63 19l31 6q39 6 63 23zM274 324l-47 -6q-82 -11 -123 -34q-75 -44 -75 -142q0 -74 46 -116.5t120 -42.5q56 0 102 26q39 24 66 53q5 -41 13 -62h151v21q-15 7 -21 17t-7 36 q-1 24 -1 61v244q0 96 -68 131t-156 35q-134 0 -189 -70q-35 -45 -39 -115h134q4 30 20 49q20 24 70 24q45 0 67 -13t22 -45q0 -25 -30 -39q-16 -7 -55 -12zM213 615h125l115 146h-114l-63 -82l-64 82h-113z" />
<glyph unicode="&#x1cf;" horiz-adv-x="278" d="M214 0v720h-150v-720h150zM79 798h125l114 146h-113l-64 -83l-64 83h-113z" />
<glyph unicode="&#x1d0;" horiz-adv-x="278" d="M67 532v-532h141v532h-141zM79 607h125l114 146h-113l-64 -82l-64 82h-113z" />
<glyph unicode="&#x1d1;" horiz-adv-x="778" d="M589 361q0 -121 -52 -187.5t-142 -66.5q-91 0 -143.5 66.5t-52.5 187.5q0 120 52.5 186.5t143.5 66.5q90 0 142 -66.5t52 -186.5zM630 64q109 103 109 297q0 198 -109 297q-81 84 -235 84q-155 0 -236 -84q-110 -99 -110 -297q0 -193 110 -297q81 -84 236 -84 q154 0 235 84zM334 819h125l115 146h-114l-63 -83l-64 83h-113z" />
<glyph unicode="&#x1d2;" d="M430 265q0 -80 -32.5 -123.5t-93.5 -43.5t-94 43.5t-33 123.5t33 123.5t94 43.5t93.5 -43.5t32.5 -123.5zM304 -19q136 0 204 83q68 85 68 201q0 114 -68 199q-67 85 -204 85q-138 0 -205 -85q-67 -83 -67 -199q0 -118 67 -201q68 -83 205 -83zM245 625h125l114 146h-113 l-63 -83l-64 83h-114z" />
<glyph unicode="&#x1d3;" horiz-adv-x="722" d="M76 720v-443q0 -113 36 -178q67 -118 254 -118t253 118q36 64 36 178v443h-153v-443q0 -73 -18 -108q-27 -61 -118 -61q-92 0 -119 61q-18 35 -18 108v443h-153zM298 797h125l114 146h-113l-64 -82l-64 82h-113z" />
<glyph unicode="&#x1d4;" d="M204 532h-143v-321q0 -90 23 -138q40 -85 159 -85q42 0 72.5 11t62.5 40q7 5 13 13.5t10 15t5 7.5v-75h136v532h-142v-289q0 -53 -13 -83q-27 -57 -98 -57q-56 0 -75 40q-10 21 -10 68v321zM239 599h125l115 146h-114l-63 -83l-64 83h-113z" />
<glyph unicode="&#x1d5;" horiz-adv-x="722" d="M76 720v-443q0 -113 36 -178q67 -118 254 -118t253 118q36 64 36 178v443h-153v-443q0 -73 -18 -108q-27 -61 -118 -61q-92 0 -119 61q-18 35 -18 108v443h-153zM410 919v-116h127v116h-127zM214 919v-116h128v116h-128zM192 1076v-74h347v74h-347z" />
<glyph unicode="&#x1d6;" d="M204 532h-143v-321q0 -90 23 -138q40 -85 159 -85q42 0 72.5 11t62.5 40q7 5 13 13.5t10 15t5 7.5v-75h136v532h-142v-289q0 -53 -13 -83q-27 -57 -98 -57q-56 0 -75 40q-10 21 -10 68v321zM340 723v-116h128v116h-128zM145 723v-116h127v116h-127zM133 870v-75h347v75 h-347z" />
<glyph unicode="&#x1d7;" horiz-adv-x="722" d="M76 720v-443q0 -113 36 -178q67 -118 254 -118t253 118q36 64 36 178v443h-153v-443q0 -73 -18 -108q-27 -61 -118 -61q-92 0 -119 61q-18 35 -18 108v443h-153zM402 891v-116h127v116h-127zM207 891v-116h127v116h-127zM541 1079h-155l-94 -146h101z" />
<glyph unicode="&#x1d8;" d="M204 532h-143v-321q0 -90 23 -138q40 -85 159 -85q42 0 72.5 11t62.5 40q7 5 13 13.5t10 15t5 7.5v-75h136v532h-142v-289q0 -53 -13 -83q-27 -57 -98 -57q-56 0 -75 40q-10 21 -10 68v321zM335 720v-116h128v116h-128zM140 720v-116h128v116h-128zM486 927h-155 l-94 -146h100z" />
<glyph unicode="&#x1d9;" horiz-adv-x="722" d="M76 720v-443q0 -113 36 -178q67 -118 254 -118t253 118q36 64 36 178v443h-153v-443q0 -73 -18 -108q-27 -61 -118 -61q-92 0 -119 61q-18 35 -18 108v443h-153zM402 917v-116h127v116h-127zM207 917v-116h127v116h-127zM298 984h125l115 146h-114l-63 -83l-64 83h-113z " />
<glyph unicode="&#x1da;" d="M204 532h-143v-321q0 -90 23 -138q40 -85 159 -85q42 0 72.5 11t62.5 40q7 5 13 13.5t10 15t5 7.5v-75h136v532h-142v-289q0 -53 -13 -83q-27 -57 -98 -57q-56 0 -75 40q-10 21 -10 68v321zM333 723v-116h127v116h-127zM138 723v-116h127v116h-127zM239 781h125l115 146 h-114l-63 -83l-64 83h-113z" />
<glyph unicode="&#x1db;" horiz-adv-x="722" d="M76 720v-443q0 -113 36 -178q67 -118 254 -118t253 118q36 64 36 178v443h-153v-443q0 -73 -18 -108q-27 -61 -118 -61q-92 0 -119 61q-18 35 -18 108v443h-153zM404 904v-116h128v116h-128zM209 904v-116h127v116h-127zM425 952l-94 146h-155l148 -146h101z" />
<glyph unicode="&#x1dc;" d="M204 532h-143v-321q0 -90 23 -138q40 -85 159 -85q42 0 72.5 11t62.5 40q7 5 13 13.5t10 15t5 7.5v-75h136v532h-142v-289q0 -53 -13 -83q-27 -57 -98 -57q-56 0 -75 40q-10 21 -10 68v321zM347 716v-115h128v115h-128zM152 716v-115h127v115h-127zM365 769l-94 146h-154 l148 -146h100z" />
<glyph unicode="&#x1dd;" horiz-adv-x="556" d="M384 209q-15 -112 -108 -112q-46 0 -75.5 29t-32.5 83h216zM68 85q68 -103 208 -103q112 0 182 73t70 213q0 148 -78 212q-76 66 -179 66q-123 0 -191 -78q-44 -50 -50 -96h142q11 22 26 37q27 24 70 24q40 0 69 -20q48 -31 51 -112h-365q-1 -66 5 -106q9 -63 40 -110z " />
<glyph unicode="&#x1de;" horiz-adv-x="722" d="M273 272l93 283l90 -283h-183zM282 720l-257 -720h158l49 148h266l46 -148h163l-255 720h-170zM408 929v-116h128v116h-128zM213 929v-116h127v116h-127zM193 1076v-74h347v74h-347z" />
<glyph unicode="&#x1df;" horiz-adv-x="556" d="M358 259v-52q-1 -70 -39 -97q-38 -26 -83 -26q-30 0 -49 17t-19 51q0 40 33 59q22 12 63 19l31 6q39 6 63 23zM274 324l-47 -6q-82 -11 -123 -34q-75 -44 -75 -142q0 -74 46 -116.5t120 -42.5q56 0 102 26q39 24 66 53q5 -41 13 -62h151v21q-15 7 -21 17t-7 36 q-1 24 -1 61v244q0 96 -68 131t-156 35q-134 0 -189 -70q-35 -45 -39 -115h134q4 30 20 49q20 24 70 24q45 0 67 -13t22 -45q0 -25 -30 -39q-16 -7 -55 -12zM322 739v-116h127v116h-127zM126 739v-116h128v116h-128zM107 884v-74h347v74h-347z" />
<glyph unicode="&#x1e0;" horiz-adv-x="722" d="M273 272l93 283l90 -283h-183zM282 720l-257 -720h158l49 148h266l46 -148h163l-255 720h-170zM303 925v-115h127v115h-127zM193 1076v-74h347v74h-347z" />
<glyph unicode="&#x1e1;" horiz-adv-x="556" d="M358 259v-52q-1 -70 -39 -97q-38 -26 -83 -26q-30 0 -49 17t-19 51q0 40 33 59q22 12 63 19l31 6q39 6 63 23zM274 324l-47 -6q-82 -11 -123 -34q-75 -44 -75 -142q0 -74 46 -116.5t120 -42.5q56 0 102 26q39 24 66 53q5 -41 13 -62h151v21q-15 7 -21 17t-7 36 q-1 24 -1 61v244q0 96 -68 131t-156 35q-134 0 -189 -70q-35 -45 -39 -115h134q4 30 20 49q20 24 70 24q45 0 67 -13t22 -45q0 -25 -30 -39q-16 -7 -55 -12zM205 735v-116h127v116h-127zM97 879v-74h347v74h-347z" />
<glyph unicode="&#x1e2;" horiz-adv-x="1000" d="M433 595v-324h-176l111 324h65zM271 717l-262 -717h156l52 152h216v-152h525v127h-377v187h333v123h-333v155h370v125h-680zM395 889v-74h347v74h-347z" />
<glyph unicode="&#x1e3;" horiz-adv-x="889" d="M710 321h-217q6 113 110 113q100 0 107 -113zM363 254v-53q0 -73 -51 -102q-28 -16 -70 -16q-38 0 -56.5 18.5t-18.5 44.5q0 41 26 58q16 11 61 20l54 11q40 9 55 19zM292 323l-85 -13q-76 -12 -113 -34q-67 -42 -67 -132q0 -65 44 -114q43 -48 143 -48q132 0 203 89 q26 -41 74 -65t112 -24q127 0 198 80q42 50 48 98h-141q-24 -67 -110 -67q-70 0 -94 54q-13 27 -13 84h364q2 111 -28 180q-57 133 -219 133q-89 0 -158 -57q-29 25 -56 35q-47 22 -111 22q-89 0 -146 -30q-87 -47 -91 -156h136q1 29 12 46q21 30 75 30q36 0 56 -7 q39 -14 39 -53q0 -24 -23 -38q-18 -9 -49 -13zM269 707v-74h347v74h-347z" />
<glyph unicode="&#x1e4;" horiz-adv-x="825" d="M402 139h85q-44 -31 -108 -31q-77 0 -138 55q-60 56 -60 188q0 128 54 195.5t144 67.5q47 0 83 -16q66 -29 83 -103h148q-12 104 -95 173q-82 70 -221 70q-158 0 -254 -105q-96 -106 -96 -280q0 -172 95 -273q92 -99 234 -99q88 0 147 37q35 21 78 72l15 -90h100v139h112 v98h-112v149h-300v-120h166q-2 -16 -6 -29h-154v-98z" />
<glyph unicode="&#x1e5;" horiz-adv-x="687" d="M325 533q-30 12 -70 12q-109 0 -168 -81q-59 -82 -59 -199q0 -124 61 -195q61 -72 164 -72q68 0 108 31q23 17 43 52v-35q0 -77 -16 -108q-26 -50 -101 -50q-54 0 -76 19q-13 10 -19 35h-151q7 -78 70 -119t168 -41q169 0 228 90q35 53 35 155v190h130v98h-130v217h-135 v-76q-32 56 -82 77zM267 217h134q-8 -43 -29 -66q-34 -37 -82 -37q-73 0 -102 68q-16 35 -16 82q0 54 15 90q29 69 101 69q54 0 86 -39q20 -26 28 -69h-135v-98z" />
<glyph unicode="&#x1e6;" horiz-adv-x="778" d="M560 495h148q-12 104 -96 173q-82 70 -220 70q-158 0 -254 -105q-96 -106 -96 -280q0 -172 95 -273q91 -99 234 -99q88 0 147 37q34 21 78 72l15 -90h99v386h-299v-120h166q-11 -72 -60 -115t-123 -43q-78 0 -139 55q-60 56 -60 188q0 128 54.5 195.5t144.5 67.5 q47 0 83 -16q66 -29 83 -103zM331 802h125l114 146h-113l-64 -82l-64 82h-113z" />
<glyph unicode="&#x1e7;" d="M410 269q0 -77 -32.5 -116t-84.5 -39q-72 0 -101 68q-16 35 -16 82q0 54 15 90q29 69 101 69q55 0 86.5 -40t31.5 -114zM329 533q-30 12 -70 12q-109 0 -168 -81q-59 -82 -59 -199q0 -124 61 -195q61 -72 164 -72q68 0 108 31q23 17 43 52v-35q0 -77 -16 -108 q-26 -50 -101 -50q-54 0 -76 19q-13 10 -19 35h-151q7 -78 70 -119t168 -41q169 0 228 90q35 53 35 155v505h-135v-76q-32 56 -82 77zM197 625h125l115 146h-114l-63 -83l-64 83h-113z" />
<glyph unicode="&#x1e8;" horiz-adv-x="722" d="M79 720v-720h148v241l71 73l223 -314h193l-310 423l295 297h-195l-277 -297v297h-148zM298 776h125l114 146h-113l-64 -83l-64 83h-113z" />
<glyph unicode="&#x1e9;" horiz-adv-x="556" d="M63 717v-717h137v167l58 61l127 -228h168l-193 326l186 204h-172l-174 -200v387h-137zM267 754h125l114 146h-113l-63 -82l-64 82h-114z" />
<glyph unicode="&#x1ea;" horiz-adv-x="778" d="M589 361q0 -121 -52 -187.5t-142 -66.5q-91 0 -143.5 66.5t-52.5 187.5q0 120 52.5 186.5t143.5 66.5q90 0 142 -66.5t52 -186.5zM630 64q109 103 109 297q0 198 -109 297q-81 84 -235 84q-155 0 -236 -84q-110 -99 -110 -297q0 -193 110 -297q81 -84 236 -84 q154 0 235 84zM484 -9h-88q-55 -32 -77 -52q-41 -38 -41 -82q0 -40 33.5 -68t83.5 -28q33 0 60 6l36 12v70q-31 -11 -49 -11q-24 0 -40 13.5t-16 34.5t15 38t51 43z" />
<glyph unicode="&#x1eb;" d="M430 265q0 -80 -32.5 -123.5t-93.5 -43.5t-94 43.5t-33 123.5t33 123.5t94 43.5t93.5 -43.5t32.5 -123.5zM304 -19q136 0 204 83q68 85 68 201q0 114 -68 199q-67 85 -204 85q-138 0 -205 -85q-67 -83 -67 -199q0 -118 67 -201q68 -83 205 -83zM368 -13h-88 q-54 -29 -77 -51q-41 -38 -41 -82q0 -40 33.5 -68.5t83.5 -28.5q35 0 59 7q10 2 37 11v71q-30 -12 -49 -12q-25 0 -40.5 13t-15.5 36q0 20 14.5 37t50.5 44z" />
<glyph unicode="&#x1ec;" horiz-adv-x="778" d="M589 361q0 -121 -52 -187.5t-142 -66.5q-91 0 -143.5 66.5t-52.5 187.5q0 120 52.5 186.5t143.5 66.5q90 0 142 -66.5t52 -186.5zM630 64q109 103 109 297q0 198 -109 297q-81 84 -235 84q-155 0 -236 -84q-110 -99 -110 -297q0 -193 110 -297q81 -84 236 -84 q154 0 235 84zM475 -7h-88q-54 -29 -77 -51q-41 -38 -41 -82q0 -40 33 -68.5t84 -28.5q35 0 59 7q10 2 37 11v71q-30 -12 -49 -12q-25 0 -41 13t-16 36q0 20 15 37t51 44zM216 894v-74h347v74h-347z" />
<glyph unicode="&#x1ed;" d="M430 265q0 -80 -32.5 -123.5t-93.5 -43.5t-94 43.5t-33 123.5t33 123.5t94 43.5t93.5 -43.5t32.5 -123.5zM304 -19q136 0 204 83q68 85 68 201q0 114 -68 199q-67 85 -204 85q-138 0 -205 -85q-67 -83 -67 -199q0 -118 67 -201q68 -83 205 -83zM383 -8h-88 q-54 -29 -77 -51q-41 -38 -41 -82q0 -40 33 -68.5t83 -28.5q36 0 60 7q10 2 37 11v71q-30 -12 -50 -12q-25 0 -40.5 13t-15.5 36q0 20 15 37t51 44zM131 698v-74h347v74h-347z" />
<glyph unicode="&#x1ee;" horiz-adv-x="581" d="M132 358l227 232h-332v130h532v-110l-147 -154q45 -20 75 -56q67 -37 67 -174q0 -122 -85 -179q-86 -56 -213 -56q-129 0 -194 92q-42 57 -46 120h142q6 -46 27.5 -70.5t66.5 -24.5q70 0 113.5 32t43.5 89q0 60 -14 99q-23 23 -80 30l-1 -1zM239 799h125l115 146h-114 l-63 -82l-64 82h-113z" />
<glyph unicode="&#x1ef;" horiz-adv-x="533" d="M132 168l179 232h-284v130h484v-110l-148 -154q46 -21 76 -56q67 -43 67 -181q0 -121 -69.5 -182.5t-199.5 -61.5q-129 0 -175 91q-41 57 -45 121h142q5 -45 17 -68q14 -27 62 -27q122 0 122 130q0 64 -13 106q-22 22 -80 30l-1 -1zM215 604h125l115 146h-114l-63 -83 l-64 83h-113z" />
<glyph unicode="&#x1f0;" horiz-adv-x="278" d="M4 -102v-111l50 -2q92 0 124 39q32 38 32 119v587h-139v-585q0 -27 -10 -38t-31 -11q-2 0 -5 0.5t-8.5 1t-12.5 0.5zM79 609h125l114 146h-113l-64 -83l-64 83h-113z" />
<glyph unicode="&#x1f1;" horiz-adv-x="1256" d="M199 595h139q101 0 136 -59t35 -169q0 -77 -23 -137q-42 -105 -148 -105h-139v470zM475 704q-43 14 -112 16h-310v-720h310q163 0 241 134q58 100 58 243q0 144 -65 236q-46 65 -122 91zM666 127v-127h560v127h-378l377 472v121h-550v-128h362z" />
<glyph unicode="&#x1f2;" horiz-adv-x="1153" d="M197 595h138q102 0 137 -59t35 -169q0 -77 -23 -137q-42 -105 -149 -105h-138v470zM472 704q-42 14 -111 16h-310v-720h310q163 0 241 134q58 100 58 243q0 140 -65 236q-46 65 -123 91zM682 419h255l-273 -311v-108h459v114h-279l270 303v115h-432v-113z" />
<glyph unicode="&#x1f3;" horiz-adv-x="1083" d="M408 465q-51 80 -147 80q-105 0 -168 -78q-62 -79 -62 -215q0 -118 63 -194q64 -75 157 -75q57 0 95 21.5t68 69.5v-74h135v719h-141v-254zM412 258q0 -72 -31 -114.5t-89 -42.5q-59 0 -88.5 43t-29.5 119q0 72 30 116t88 44q42 0 71 -25q49 -42 49 -140zM617 424h255 l-273 -310v-109h459v115h-279l270 302v116h-432v-114z" />
<glyph unicode="&#x1f4;" horiz-adv-x="778" d="M560 495h148q-12 104 -96 173q-82 70 -220 70q-158 0 -254 -105q-96 -106 -96 -280q0 -172 95 -273q91 -99 234 -99q88 0 147 37q34 21 78 72l15 -90h99v386h-299v-120h166q-11 -72 -60 -115t-123 -43q-78 0 -139 55q-60 56 -60 188q0 128 54.5 195.5t144.5 67.5 q47 0 83 -16q66 -29 83 -103zM557 956h-155l-94 -146h101z" />
<glyph unicode="&#x1f5;" d="M410 269q0 -77 -32.5 -116t-84.5 -39q-72 0 -101 68q-16 35 -16 82q0 54 15 90q29 69 101 69q55 0 86.5 -40t31.5 -114zM329 533q-30 12 -70 12q-109 0 -168 -81q-59 -82 -59 -199q0 -124 61 -195q61 -72 164 -72q68 0 108 31q23 17 43 52v-35q0 -77 -16 -108 q-26 -50 -101 -50q-54 0 -76 19q-13 10 -19 35h-151q7 -78 70 -119t168 -41q169 0 228 90q35 53 35 155v505h-135v-76q-32 56 -82 77zM446 772h-155l-94 -146h101z" />
<glyph unicode="&#x1f7;" horiz-adv-x="667" d="M369 595q112 0 112 -104q0 -55 -30 -90q-26 -30 -82 -67l-140 -98v359h140zM382 210q114 56 183 106q65 48 65 176q0 113 -63 170.5t-174 57.5h-313v-720h149v112z" />
<glyph unicode="&#x1f8;" horiz-adv-x="722" d="M74 720v-720h140v511l294 -511h150v720h-140v-503l-287 503h-157zM458 777l-94 146h-155l148 -146h101z" />
<glyph unicode="&#x1f9;" d="M547 358q0 99 -53 143t-134 44q-65 0 -109 -32q-23 -17 -51 -59v77h-134v-531h139v288q0 51 13 81q27 60 97 60q58 0 79 -41q11 -24 11 -64v-324h142v358zM405 623l-93 146h-155l148 -146h100z" />
<glyph unicode="&#x1fa;" horiz-adv-x="685" d="M382 858l125 115h-147l-77 -115h99zM447 739q0 43 -28 70.5t-75 27.5q-45 0 -74.5 -28t-29.5 -70q0 -33 17 -56l-264 -683h159l56 159h267l54 -159h163l-261 685q16 23 16 54zM293 739q0 23 14 38t37 15t36.5 -15.5t13.5 -37.5q0 -24 -13.5 -38.5t-36.5 -14.5t-37 15 t-14 38zM249 276l93 272h2l90 -272h-185z" />
<glyph unicode="&#x1fb;" horiz-adv-x="574" d="M335 802l128 119h-147l-79 -119h98zM295 564q46 0 77 30t31 75q0 46 -30 75.5t-78 29.5q-46 0 -77 -30t-31 -75q0 -46 30 -75.5t78 -29.5zM239 669q0 25 15 41.5t41 16.5t41 -16t15 -42q0 -25 -15 -41.5t-41 -16.5t-41 16t-15 42zM48 358h142q7 78 94 78q44 0 68 -14.5 t24 -55.5q0 -32 -27.5 -42.5t-104.5 -20.5q-37 -4 -60.5 -8t-55.5 -15.5t-50.5 -27.5t-32 -44.5t-13.5 -66.5q0 -76 49 -115.5t127 -39.5q113 0 174 64q1 -22 10 -50h144q-18 29 -18 115v269q0 147 -227 147q-99 0 -168 -41t-75 -132zM376 253v-53q0 -119 -115 -119 q-87 0 -87 66q0 23 9 38.5t28 23.5t35 11.5t44 7.5q70 9 86 25z" />
<glyph unicode="&#x1fc;" horiz-adv-x="981" d="M623 779l154 142h-157l-96 -142h99zM330 714l-341 -714h167l72 159h224v-159h492v132h-340v175h312v122h-312v153h332v132h-606zM280 276l138 306h34v-306h-172z" />
<glyph unicode="&#x1fd;" horiz-adv-x="907" d="M509 224h369q0 85 -22.5 151.5t-78 111t-137.5 44.5q-113 0 -173 -70q-49 70 -171 70q-65 0 -116.5 -15.5t-88.5 -56.5t-39 -103h142q4 80 99 80q92 0 92 -66q0 -35 -39 -48q-17 -6 -131 -23q-2 -1 -4 -1q-37 -6 -63.5 -14t-54 -25t-41.5 -47t-14 -72q0 -80 55 -117 t138 -37q63 0 120 21.5t91 66.5q61 -88 193 -88q85 0 150.5 47.5t87.5 128.5h-138q-14 -81 -103 -81q-56 0 -90.5 44.5t-32.5 98.5zM736 314h-227q0 50 32 86t84 36t81.5 -35.5t29.5 -86.5zM385 252v-64q0 -52 -36 -79.5t-81 -27.5q-88 0 -88 67q0 34 25.5 52t57 21t69 10 t53.5 21zM506 589l154 142h-157l-96 -142h99z" />
<glyph unicode="&#x1fe;" horiz-adv-x="778" d="M431 779l154 142h-157l-96 -142h99zM120 105l-86 -95l49 -43l83 92q91 -76 223 -76q161 0 256 106t95 265q0 147 -80 252l84 93l-50 44l-80 -89q-90 77 -225 77q-161 0 -256 -107t-95 -270q0 -149 82 -249zM519 548l-296 -329q-28 57 -28 135q0 66 18.5 119.5t63.5 89.5 t112 36q79 0 130 -51zM261 164l295 326q27 -58 27 -136q0 -100 -48 -169.5t-146 -69.5q-79 0 -128 49z" />
<glyph unicode="&#x1ff;" d="M343 589l154 142h-157l-96 -142h99zM104 69l-60 -68l37 -32l59 67q68 -50 165 -50q122 0 195 74.5t73 197.5q0 119 -69 193l54 61l-37 32l-53 -61q-68 48 -163 48q-121 0 -194 -74.5t-73 -198.5q0 -117 66 -189zM388 392l-193 -220q-15 34 -15 86q0 71 29.5 118.5 t95.5 47.5q53 0 83 -32zM220 127l195 222q16 -39 16 -91q0 -71 -29.5 -118t-96.5 -47q-54 0 -85 34z" />
<glyph unicode="&#x200;" horiz-adv-x="722" d="M273 272l93 283l90 -283h-183zM282 720l-257 -720h158l49 148h266l46 -148h163l-255 720h-170zM318 787l-73 142h-142l119 -142h96zM459 929h-142l120 -142h95z" />
<glyph unicode="&#x201;" horiz-adv-x="556" d="M358 259v-52q-1 -70 -39 -97q-38 -26 -83 -26q-30 0 -49 17t-19 51q0 40 33 59q22 12 63 19l31 6q39 6 63 23zM274 324l-47 -6q-82 -11 -123 -34q-75 -44 -75 -142q0 -74 46 -116.5t120 -42.5q56 0 102 26q39 24 66 53q5 -41 13 -62h151v21q-15 7 -21 17t-7 36 q-1 24 -1 61v244q0 96 -68 131t-156 35q-134 0 -189 -70q-35 -45 -39 -115h134q4 30 20 49q20 24 70 24q45 0 67 -13t22 -45q0 -25 -30 -39q-16 -7 -55 -12zM241 623l-73 142h-142l120 -142h95zM383 765h-142l119 -142h96z" />
<glyph unicode="&#x202;" horiz-adv-x="722" d="M273 272l93 283l90 -283h-183zM282 720l-257 -720h158l49 148h266l46 -148h163l-255 720h-170zM370 916q-156 0 -169 -145h66q8 45 47 61q23 9 56 9q32 0 55 -9q39 -16 47 -61h66q-12 145 -168 145z" />
<glyph unicode="&#x203;" horiz-adv-x="556" d="M358 259v-52q-1 -70 -39 -97q-38 -26 -83 -26q-30 0 -49 17t-19 51q0 40 33 59q22 12 63 19l31 6q39 6 63 23zM274 324l-47 -6q-82 -11 -123 -34q-75 -44 -75 -142q0 -74 46 -116.5t120 -42.5q56 0 102 26q39 24 66 53q5 -41 13 -62h151v21q-15 7 -21 17t-7 36 q-1 24 -1 61v244q0 96 -68 131t-156 35q-134 0 -189 -70q-35 -45 -39 -115h134q4 30 20 49q20 24 70 24q45 0 67 -13t22 -45q0 -25 -30 -39q-16 -7 -55 -12zM274 765q-156 0 -168 -145h66q7 45 47 61q23 9 55 9q34 0 56 -9q40 -16 47 -61h66q-12 145 -169 145z" />
<glyph unicode="&#x204;" horiz-adv-x="667" d="M608 592v128h-527v-720h545v129h-398v185h349v125h-349v153h380zM307 798l-73 142h-142l119 -142h96zM449 940h-142l119 -142h95z" />
<glyph unicode="&#x205;" horiz-adv-x="556" d="M167 319q6 53 33.5 83t74.5 30q46 0 75 -29t33 -84h-216zM482 443q-64 103 -207 103q-111 0 -182 -74q-70 -73 -70 -211q0 -148 77 -214q79 -65 180 -65q124 0 191 78q44 50 50 96h-143q-10 -21 -25 -36q-26 -25 -70 -25q-41 0 -70 20q-47 32 -50 113h364q1 60 -4 105 q-9 63 -41 110zM244 631l-73 143h-142l119 -143h96zM385 774h-142l119 -143h96z" />
<glyph unicode="&#x206;" horiz-adv-x="667" d="M608 592v128h-527v-720h545v129h-398v185h349v125h-349v153h380zM350 943q-157 0 -169 -145h66q7 45 47 61q23 9 56 9q32 0 55 -9q40 -16 47 -61h66q-12 145 -168 145z" />
<glyph unicode="&#x207;" horiz-adv-x="556" d="M167 319q6 53 33.5 83t74.5 30q46 0 75 -29t33 -84h-216zM482 443q-64 103 -207 103q-111 0 -182 -74q-70 -73 -70 -211q0 -148 77 -214q79 -65 180 -65q124 0 191 78q44 50 50 96h-143q-10 -21 -25 -36q-26 -25 -70 -25q-41 0 -70 20q-47 32 -50 113h364q1 60 -4 105 q-9 63 -41 110zM291 763q-156 0 -168 -145h65q7 45 47 61q23 9 56 9t56 -9q40 -16 47 -61h65q-12 145 -168 145z" />
<glyph unicode="&#x208;" horiz-adv-x="278" d="M214 0v720h-150v-720h150zM104 803l-73 142h-142l119 -142h96zM246 945h-142l119 -142h95z" />
<glyph unicode="&#x209;" horiz-adv-x="278" d="M67 532v-532h141v532h-141zM102 627l-73 143h-142l119 -143h96zM244 770h-142l119 -143h95z" />
<glyph unicode="&#x20a;" horiz-adv-x="278" d="M214 0v720h-150v-720h150zM140 948q-156 0 -168 -145h66q6 45 46 61q23 9 56 9q34 0 56 -9q40 -16 47 -61h66q-13 145 -169 145z" />
<glyph unicode="&#x20b;" horiz-adv-x="278" d="M67 532v-532h141v532h-141zM143 773q-156 0 -168 -145h66q6 45 46 61q22 9 56 9q33 0 56 -9q40 -16 47 -61h66q-13 145 -169 145z" />
<glyph unicode="&#x20c;" horiz-adv-x="778" d="M589 361q0 -121 -52 -187.5t-142 -66.5q-91 0 -143.5 66.5t-52.5 187.5q0 120 52.5 186.5t143.5 66.5q90 0 142 -66.5t52 -186.5zM630 64q109 103 109 297q0 198 -109 297q-81 84 -235 84q-155 0 -236 -84q-110 -99 -110 -297q0 -193 110 -297q81 -84 236 -84 q154 0 235 84zM346 820l-73 142h-142l119 -142h96zM487 962h-142l119 -142h96z" />
<glyph unicode="&#x20d;" d="M430 265q0 -80 -32.5 -123.5t-93.5 -43.5t-94 43.5t-33 123.5t33 123.5t94 43.5t93.5 -43.5t32.5 -123.5zM304 -19q136 0 204 83q68 85 68 201q0 114 -68 199q-67 85 -204 85q-138 0 -205 -85q-67 -83 -67 -199q0 -118 67 -201q68 -83 205 -83zM256 634l-73 143h-142 l119 -143h96zM397 777h-142l120 -143h95z" />
<glyph unicode="&#x20e;" horiz-adv-x="778" d="M589 361q0 -121 -52 -187.5t-142 -66.5q-91 0 -143.5 66.5t-52.5 187.5q0 120 52.5 186.5t143.5 66.5q90 0 142 -66.5t52 -186.5zM630 64q109 103 109 297q0 198 -109 297q-81 84 -235 84q-155 0 -236 -84q-110 -99 -110 -297q0 -193 110 -297q81 -84 236 -84 q154 0 235 84zM391 960q-156 0 -169 -145h66q7 45 47 61q23 9 56 9t55 -9q40 -16 47 -61h66q-12 145 -168 145z" />
<glyph unicode="&#x20f;" d="M430 265q0 -80 -32.5 -123.5t-93.5 -43.5t-94 43.5t-33 123.5t33 123.5t94 43.5t93.5 -43.5t32.5 -123.5zM304 -19q136 0 204 83q68 85 68 201q0 114 -68 199q-67 85 -204 85q-138 0 -205 -85q-67 -83 -67 -199q0 -118 67 -201q68 -83 205 -83zM301 773q-156 0 -169 -146 h66q7 45 47 61q21 10 56 10q34 0 55 -10q40 -16 47 -61h66q-12 146 -168 146z" />
<glyph unicode="&#x210;" horiz-adv-x="722" d="M227 595h174q49 0 74 -13q43 -22 43 -88q0 -60 -45 -81q-25 -12 -76 -12h-170v194zM618 651q-29 34 -70.5 50.5t-114.5 18.5h-353v-720h147v282h155q65 0 90 -23q24 -22 26 -92l1 -66q0 -32 6 -62q4 -19 10 -39h165v18q-21 14 -27 41q-4 16 -4 67v48q0 74 -20.5 111.5 t-70.5 58.5q60 20 85 69q26 50 26 102q0 79 -51 136zM294 802l-72 142h-142l119 -142h95zM436 944h-142l119 -142h96z" />
<glyph unicode="&#x211;" horiz-adv-x="389" d="M373 544q-7 0 -12 0.5t-7 0.5q-62 0 -102 -33q-24 -21 -56 -73v93h-133v-532h141v254q0 64 16 95q28 55 113 55q21 0 40 -3v143zM173 656l-73 143h-142l119 -143h96zM314 799h-142l120 -143h95z" />
<glyph unicode="&#x212;" horiz-adv-x="722" d="M227 595h174q49 0 74 -13q43 -22 43 -88q0 -60 -45 -81q-25 -12 -76 -12h-170v194zM618 651q-29 34 -70.5 50.5t-114.5 18.5h-353v-720h147v282h155q65 0 90 -23q24 -22 26 -92l1 -66q0 -32 6 -62q4 -19 10 -39h165v18q-21 14 -27 41q-4 16 -4 67v48q0 74 -20.5 111.5 t-70.5 58.5q60 20 85 69q26 50 26 102q0 79 -51 136zM350 942q-157 0 -169 -145h66q7 45 47 61q23 9 56 9q32 0 55 -9q40 -16 47 -61h66q-12 145 -168 145z" />
<glyph unicode="&#x213;" horiz-adv-x="389" d="M373 544q-7 0 -12 0.5t-7 0.5q-62 0 -102 -33q-24 -21 -56 -73v93h-133v-532h141v254q0 64 16 95q28 55 113 55q21 0 40 -3v143zM214 764q-156 0 -168 -145h66q7 45 47 61q23 9 55 9q34 0 56 -9q40 -16 47 -61h66q-13 145 -169 145z" />
<glyph unicode="&#x214;" horiz-adv-x="722" d="M76 720v-443q0 -113 36 -178q67 -118 254 -118t253 118q36 64 36 178v443h-153v-443q0 -73 -18 -108q-27 -61 -118 -61q-92 0 -119 61q-18 35 -18 108v443h-153zM324 810l-73 143h-142l119 -143h96zM465 953h-142l119 -143h96z" />
<glyph unicode="&#x215;" d="M204 532h-143v-321q0 -90 23 -138q40 -85 159 -85q42 0 72.5 11t62.5 40q7 5 13 13.5t10 15t5 7.5v-75h136v532h-142v-289q0 -53 -13 -83q-27 -57 -98 -57q-56 0 -75 40q-10 21 -10 68v321zM260 632l-73 142h-142l119 -142h96zM401 774h-142l119 -142h96z" />
<glyph unicode="&#x216;" horiz-adv-x="722" d="M76 720v-443q0 -113 36 -178q67 -118 254 -118t253 118q36 64 36 178v443h-153v-443q0 -73 -18 -108q-27 -61 -118 -61q-92 0 -119 61q-18 35 -18 108v443h-153zM374 950q-156 0 -168 -145h65q7 45 47 61q23 9 56 9q34 0 56 -9q40 -16 47 -61h65q-12 145 -168 145z" />
<glyph unicode="&#x217;" d="M204 532h-143v-321q0 -90 23 -138q40 -85 159 -85q42 0 72.5 11t62.5 40q7 5 13 13.5t10 15t5 7.5v-75h136v532h-142v-289q0 -53 -13 -83q-27 -57 -98 -57q-56 0 -75 40q-10 21 -10 68v321zM312 766q-156 0 -168 -146h65q7 45 47 61q22 9 56 9t56 -9q40 -16 47 -61h65 q-12 146 -168 146z" />
<glyph unicode="&#x218;" horiz-adv-x="649" d="M176 237h-152q-2 -124 86.5 -189t217.5 -65q142 0 219.5 63.5t77.5 165.5q0 33 -10 62t-22 48t-35.5 36t-38 25.5t-42.5 18t-35 11t-29 7.5q-144 37 -178.5 52.5t-34.5 55.5q0 41 32.5 61t75.5 20q135 0 141 -108h152q0 79 -41.5 132.5t-103.5 75.5t-141 22 q-107 0 -187 -56.5t-80 -159.5q0 -48 17.5 -83.5t50.5 -58.5t66 -36.5t79 -24.5q17 -5 51 -13.5t51 -13t42 -14t37 -19t21.5 -24.5t9.5 -34q0 -34 -24.5 -55t-53 -27.5t-61.5 -6.5q-69 0 -113.5 32.5t-44.5 99.5zM247 -50v-93h67q-9 -33 -57 -37v-37q67 0 101 18t34 76v73 h-145z" />
<glyph unicode="&#x219;" horiz-adv-x="537" d="M164 168h-135q2 -65 39 -107.5t88 -58.5t116 -16q100 0 168 43t68 137q0 65 -43.5 96t-120.5 49q-13 3 -34 7.5t-33.5 7.5t-29 7.5t-26.5 9t-19.5 11t-14 15t-4.5 19.5q0 48 79 48q92 0 97 -70h135q-8 88 -70.5 126.5t-157.5 38.5q-45 0 -82.5 -7.5t-71 -25.5t-52.5 -52 t-19 -81q0 -33 13 -57t39 -39.5t50.5 -24.5t61.5 -17q87 -18 124 -34t37 -46q0 -34 -28.5 -50t-64.5 -16q-45 0 -77 22t-32 65zM192 -50v-93h67q-9 -33 -57 -37v-37q67 0 101 18t34 76v73h-145z" />
<glyph unicode="&#x21a;" d="M227 582v-582h157v582h214v132h-585v-132h214zM233 -50v-93h67q-9 -33 -57 -37v-37q67 0 101 18t34 76v73h-145z" />
<glyph unicode="&#x21b;" horiz-adv-x="352" d="M234 517v155h-142v-155h-86v-95h86v-305q0 -38 12.5 -63t36.5 -37.5t51 -17.5t63 -5q53 0 83 5v111q-17 -4 -44 -4q-36 0 -48 12t-12 48v256h104v95h-104zM141 -50v-93h67q-9 -33 -57 -37v-37q67 0 101 18t34 76v73h-145z" />
<glyph unicode="&#x21c;" horiz-adv-x="664" d="M497 355h-3q2 0 3 1v-1zM335 102q-63 0 -154 42l-100 -87q97 -42 144 -59q55 -20 121 -20q114 0 195 70q77 74 77 169q0 67 -24 110q-20 33 -60 59q63 58 63 133q0 99 -69 160q-68 62 -186 62q-64 0 -114 -19q-51 -20 -138 -102l99 -95v-1q69 71 94 81q27 11 53 11 q57 0 89 -26v1q28 -25 28 -65q0 -48 -35 -65q-35 -19 -147 -20v-127q11 0 37.5 2t29.5 2q138 0 138 -97q0 -54 -34 -82q-38 -37 -107 -37z" />
<glyph unicode="&#x21d;" horiz-adv-x="664" d="M497 146h-3l1 1q1 1 2 1v-2zM335 -106q-61 0 -154 41l-100 -87q108 -45 144 -58q55 -20 121 -20q114 0 195 70q77 71 77 168q0 66 -24 110q-20 33 -60 59q63 59 63 133q0 100 -69 160q-68 62 -186 62q-64 0 -114 -19q-51 -18 -138 -102l99 -95q70 70 94 80q25 12 53 12 q55 0 89 -26v1q28 -26 28 -66q0 -48 -35 -65q-34 -17 -147 -19v-128q25 4 67 4q138 0 138 -96q0 -55 -34 -83q-39 -36 -107 -36z" />
<glyph unicode="&#x21e;" horiz-adv-x="722" d="M75 0h149v321h281v-321h150v720h-150v-275h-281v275h-149v-720zM295 774h125l114 146h-113l-64 -83l-64 83h-113z" />
<glyph unicode="&#x21f;" d="M514 477q-51 69 -156 69q-99 0 -153 -83v254h-139v-717h139v288q0 69 28.5 105.5t83.5 36.5q53 0 72 -37q15 -25 15 -69v-324h142v312q0 68 -5 103q-5 32 -27 62zM255 771h125l114 146h-113l-64 -82l-64 82h-113z" />
<glyph unicode="&#x220;" horiz-adv-x="722" d="M655 -212v636q0 114 -36 179q-67 117 -254 117q-79 0 -139 -23v23h-150v-285v-11v-425h153v425q0 74 18 108q27 61 118 61q92 0 119 -61q18 -34 18 -108v-636h153z" />
<glyph unicode="&#x226;" horiz-adv-x="722" d="M273 272l93 283l90 -283h-183zM282 720l-257 -720h158l49 148h266l46 -148h163l-255 720h-170zM308 918v-115h127v115h-127z" />
<glyph unicode="&#x227;" horiz-adv-x="556" d="M358 259v-52q-1 -70 -39 -97q-38 -26 -83 -26q-30 0 -49 17t-19 51q0 40 33 59q22 12 63 19l31 6q39 6 63 23zM274 324l-47 -6q-82 -11 -123 -34q-75 -44 -75 -142q0 -74 46 -116.5t120 -42.5q56 0 102 26q39 24 66 53q5 -41 13 -62h151v21q-15 7 -21 17t-7 36 q-1 24 -1 61v244q0 96 -68 131t-156 35q-134 0 -189 -70q-35 -45 -39 -115h134q4 30 20 49q20 24 70 24q45 0 67 -13t22 -45q0 -25 -30 -39q-16 -7 -55 -12zM216 748v-116h127v116h-127z" />
<glyph unicode="&#x228;" horiz-adv-x="667" d="M608 592v128h-527v-720h545v129h-398v185h349v125h-349v153h380zM471 -133q0 36 -23 55.5t-63 19.5q-7 0 -38 -6l43 64h-53l-101 -54l63 -57q26 8 41 8q18 0 31 -9t13 -28q0 -16 -13.5 -27.5t-40.5 -11.5q-16 0 -38 6q-33 9 -39 11l-18 -42q39 -14 45 -16q33 -10 60 -10 q58 0 94.5 26.5t36.5 70.5z" />
<glyph unicode="&#x229;" horiz-adv-x="556" d="M167 319q6 53 33.5 83t74.5 30q46 0 75 -29t33 -84h-216zM482 443q-64 103 -207 103q-111 0 -182 -74q-70 -73 -70 -211q0 -148 77 -214q79 -65 180 -65q124 0 191 78q44 50 50 96h-143q-10 -21 -25 -36q-26 -25 -70 -25q-41 0 -70 20q-47 32 -50 113h364q1 60 -4 105 q-9 63 -41 110zM394 -145q0 36 -23.5 55.5t-63.5 19.5q-12 0 -37 -6l42 64h-53l-101 -54l63 -57q26 8 41 8q45 0 45 -37q0 -16 -14 -27t-41 -11q-13 0 -38 5q-2 1 -8 2.5t-14 4t-16 4.5l-19 -42q32 -11 46 -15q36 -11 60 -11q58 0 94.5 26.5t36.5 70.5z" />
<glyph unicode="&#x22a;" horiz-adv-x="778" d="M589 361q0 -121 -52 -187.5t-142 -66.5q-91 0 -143.5 66.5t-52.5 187.5q0 120 52.5 186.5t143.5 66.5q90 0 142 -66.5t52 -186.5zM630 64q109 103 109 297q0 198 -109 297q-81 84 -235 84q-155 0 -236 -84q-110 -99 -110 -297q0 -193 110 -297q81 -84 236 -84 q154 0 235 84zM423 920v-115h128v115h-128zM228 920v-115h127v115h-127zM218 1045v-74h347v74h-347z" />
<glyph unicode="&#x22b;" d="M430 265q0 -80 -32.5 -123.5t-93.5 -43.5t-94 43.5t-33 123.5t33 123.5t94 43.5t93.5 -43.5t32.5 -123.5zM304 -19q136 0 204 83q68 85 68 201q0 114 -68 199q-67 85 -204 85q-138 0 -205 -85q-67 -83 -67 -199q0 -118 67 -201q68 -83 205 -83zM338 730v-115h128v115 h-128zM143 730v-115h128v115h-128zM128 858v-74h347v74h-347z" />
<glyph unicode="&#x22c;" horiz-adv-x="778" d="M589 361q0 -121 -52 -187.5t-142 -66.5q-91 0 -143.5 66.5t-52.5 187.5q0 120 52.5 186.5t143.5 66.5q90 0 142 -66.5t52 -186.5zM630 64q109 103 109 297q0 198 -109 297q-81 84 -235 84q-155 0 -236 -84q-110 -99 -110 -297q0 -193 110 -297q81 -84 236 -84 q154 0 235 84zM379 896q-25 9 -47 9q-62 0 -93 -46q-18 -27 -28 -76h64q4 19 17 30q11 11 30 11q17 0 32 -5l39 -13q20 -6 31 -9q27 -7 43 -7q90 0 111 120h-65q-9 -42 -47 -42q-7 0 -41 11zM226 1033v-74h347v74h-347z" />
<glyph unicode="&#x22d;" d="M430 265q0 -80 -32.5 -123.5t-93.5 -43.5t-94 43.5t-33 123.5t33 123.5t94 43.5t93.5 -43.5t32.5 -123.5zM304 -19q136 0 204 83q68 85 68 201q0 114 -68 199q-67 85 -204 85q-138 0 -205 -85q-67 -83 -67 -199q0 -118 67 -201q68 -83 205 -83zM291 731q-27 9 -47 9 q-62 0 -93 -46q-18 -27 -28 -76h64q5 20 16 30q13 11 30 11q18 0 32 -5l40 -13q13 -5 30 -9q27 -7 43 -7q91 0 112 120h-65q-6 -21 -16 -31.5t-31 -10.5q-8 0 -41 11zM130 880v-74h348v74h-348z" />
<glyph unicode="&#x22e;" horiz-adv-x="778" d="M589 361q0 -121 -52 -187.5t-142 -66.5q-91 0 -143.5 66.5t-52.5 187.5q0 120 52.5 186.5t143.5 66.5q90 0 142 -66.5t52 -186.5zM630 64q109 103 109 297q0 198 -109 297q-81 84 -235 84q-155 0 -236 -84q-110 -99 -110 -297q0 -193 110 -297q81 -84 236 -84 q154 0 235 84zM328 932v-116h127v116h-127z" />
<glyph unicode="&#x22f;" d="M430 265q0 -80 -32.5 -123.5t-93.5 -43.5t-94 43.5t-33 123.5t33 123.5t94 43.5t93.5 -43.5t32.5 -123.5zM304 -19q136 0 204 83q68 85 68 201q0 114 -68 199q-67 85 -204 85q-138 0 -205 -85q-67 -83 -67 -199q0 -118 67 -201q68 -83 205 -83zM239 748v-116h127v116 h-127z" />
<glyph unicode="&#x230;" horiz-adv-x="778" d="M589 361q0 -121 -52 -187.5t-142 -66.5q-91 0 -143.5 66.5t-52.5 187.5q0 120 52.5 186.5t143.5 66.5q90 0 142 -66.5t52 -186.5zM630 64q109 103 109 297q0 198 -109 297q-81 84 -235 84q-155 0 -236 -84q-110 -99 -110 -297q0 -193 110 -297q81 -84 236 -84 q154 0 235 84zM328 910v-116h127v116h-127zM224 1032v-74h347v74h-347z" />
<glyph unicode="&#x231;" d="M430 265q0 -80 -32.5 -123.5t-93.5 -43.5t-94 43.5t-33 123.5t33 123.5t94 43.5t93.5 -43.5t32.5 -123.5zM304 -19q136 0 204 83q68 85 68 201q0 114 -68 199q-67 85 -204 85q-138 0 -205 -85q-67 -83 -67 -199q0 -118 67 -201q68 -83 205 -83zM243 724v-116h127v116 h-127zM131 850v-75h347v75h-347z" />
<glyph unicode="&#x232;" horiz-adv-x="667" d="M487 720l-143 -314l-150 314h-177l249 -449v-271h151v271l240 449h-170zM164 863v-74h347v74h-347z" />
<glyph unicode="&#x233;" horiz-adv-x="556" d="M86 -102v-111q21 -2 64 -2q92 0 123 36q30 34 83 188l183 523h-148l-110 -392l-116 392h-155l196 -555q2 -6 -9 -32q-11 -28 -23 -35q-20 -15 -70 -13zM105 695v-74h348v74h-348z" />
<glyph unicode="&#x237;" horiz-adv-x="278" d="M-19 -61v-117q20 -4 46 -4q104 0 143 36.5t39 119.5v543h-142v-536q0 -46 -55 -46q-22 0 -31 4z" />
<glyph unicode="&#x238;" horiz-adv-x="961" d="M929 273q0 119 -59 195q-58 76 -164 76q-58 0 -96 -24q-33 -21 -58 -57v256h-143v-254q-51 80 -147 80q-105 0 -168 -78q-62 -79 -62 -215q0 -118 63 -194q65 -75 157 -75q58 0 95 22q37 19 66 65v-70h137v65q29 -39 51 -53q41 -26 106 -26q105 0 163 81q59 83 59 206z M413 258v-7q-2 -66 -31 -106q-30 -44 -90 -44q-58 0 -87.5 43t-29.5 119q0 72 30 116t88 44q40 0 71 -25q49 -42 49 -140zM783 258q0 -72 -30 -114.5t-83 -42.5q-62 0 -92 45q-20 29 -28 72v89q5 26 12 47q29 68 104 68t103 -70q14 -39 14 -94z" />
<glyph unicode="&#x239;" horiz-adv-x="963" d="M930 273q0 132 -65 202q-65 69 -157 69q-64 0 -111 -36q-25 -20 -48 -54v78h-133v-1h-1v-79q-25 43 -49 61q-40 33 -108 33q-95 0 -161 -80q-65 -80 -65 -212q0 -123 65 -197t157 -74q118 0 157 83v-277h138v2h5v277q22 -34 45 -51q43 -32 105 -32q100 0 163 73t63 215z M396 164q-31 -61 -103 -61q-74 0 -101 66q-15 36 -15 91q0 80 31 121.5t86 41.5q76 0 104 -69q17 -40 17 -87q0 -64 -19 -103zM667 422q62 0 91 -47t29 -109q0 -76 -31 -120t-89 -44q-41 0 -69 22q-49 37 -49 130q0 57 14 97q29 71 104 71z" />
<glyph unicode="&#x23a;" horiz-adv-x="722" d="M273 272l93 283l90 -283h-183zM282 720l-257 -720h158l49 148h266l46 -148h163l-255 720h-170zM517 847l-279 -952h115l280 952h-116z" />
<glyph unicode="&#x23b;" horiz-adv-x="722" d="M468 844l-34 -115q-27 4 -64 4q-136 0 -224 -88q-101 -104 -101 -291q0 -173 89 -274q38 -44 89 -68l-34 -115h115l25 85q32 -2 49 -2q126 0 205 73q82 74 101 192h-149q-15 -55 -38 -83q-42 -52 -121 -52h-9l132 446q22 -25 36 -76h150q-3 66 -50 134q-38 54 -94 83 l43 147h-116zM375 605q15 0 22 -1l-132 -451q-6 5 -16 17q-50 61 -50 182q0 120 47 186.5t129 66.5z" />
<glyph unicode="&#x23c;" horiz-adv-x="556" d="M371 644l-39 -102q-23 3 -46 3q-118 0 -184.5 -76t-66.5 -214q0 -121 60 -197q18 -23 41 -38l-44 -118h115l30 82q22 -3 47 -3q129 0 194 92q42 57 46 120h-142q-6 -46 -27.5 -70.5t-66.5 -24.5h-8l99 262q0 -3 1.5 -9l2.5 -10h142q-11 114 -75 159q-3 2 -7 5t-7 4 l50 135h-115zM194 357q25 70 95 70l-97 -258q-12 35 -12 90q0 59 14 98z" />
<glyph unicode="&#x23d;" d="M583 0v129h-356v197l148 1v91h-148v302h-151v-302h-83v-95l83 2v-325h507z" />
<glyph unicode="&#x23e;" d="M483 844l-59 -124h-408v-128h216v-275l-199 -420h115l84 178v-75h152v393l95 199h120v128h-60l60 124h-116z" />
<glyph unicode="&#x241;" d="M157 690q-91 -58 -97 -197h141q0 39 24 77t80 38q58 0 79 -31q22 -29 22 -67q0 -33 -19 -59q-11 -15 -29 -29l-35 -27q-52 -40 -66 -73q-12 -32 -15 -322h132q0 246 6 266q9 29 37 51l35 27q52 40 71 67q32 44 32 107q0 104 -73 156q-74 53 -183 53q-84 0 -142 -37z" />
<glyph unicode="&#x242;" d="M157 512q-91 -58 -97 -197h141q0 41 24 78q24 38 80 38q58 0 79 -31q22 -29 22 -67q0 -34 -19 -60q-9 -13 -29 -28l-35 -28q-52 -40 -66 -73q-12 -32 -15 -144h132q0 101 4 94l2 -6q9 29 37 51l35 27q52 40 71 67q32 44 32 107q0 104 -73 156q-74 53 -183 53 q-84 0 -142 -37z" />
<glyph unicode="&#x243;" horiz-adv-x="763" d="M668 643q-56 76 -188 77h-349v-451h-103v-99h103v-170h326q122 0 184 46q31 22 51 57q33 49 33 114q0 128 -112 169q37 20 55 41q33 41 33 106q0 63 -33 110zM375 269h-101v48h180q46 -1 72 -12q47 -21 47 -77q0 -68 -48 -90q-25 -13 -74 -13h-177v45h101v99zM274 595 h159q51 0 86 -12q39 -17 39 -66q0 -81 -107 -81h-177v159z" />
<glyph unicode="&#x244;" horiz-adv-x="832" d="M804 513h-97v207h-153v-207h-273v207h-153v-207h-100v-98h100v-138q0 -113 36 -178q66 -118 253 -118t254 118q36 64 36 178v138h97v98zM298 169q-17 36 -17 108v138h273v-138q0 -73 -18 -108q-27 -61 -119 -61q-91 0 -119 61z" />
<glyph unicode="&#x245;" horiz-adv-x="667" d="M340 546l158 -546h156l-246 720h-142l-243 -720h161z" />
<glyph unicode="&#x246;" horiz-adv-x="667" d="M419 844l-36 -124h-302v-720h90l-30 -103h114l31 103h340v129h-302l54 185h199v125h-161l44 153h148v128h-110l37 124h-116zM228 439v153h117l-45 -153h-72zM228 192v122h35z" />
<glyph unicode="&#x247;" horiz-adv-x="556" d="M356 644l-38 -101q-21 3 -43 3q-111 0 -182 -74q-70 -73 -70 -211q0 -149 78 -213q9 -9 24 -19l-48 -127h115l32 86q27 -6 56 -6q124 0 191 78q44 50 50 96h-143q-10 -21 -25 -36q-26 -25 -70 -25q-13 0 -18 1l49 132h213q1 60 -4 105q-9 63 -41 110q-26 41 -62 64 l52 137h-116zM167 319q6 53 33.5 83t74.5 30h1l-42 -113h-67zM175 163q-10 27 -12 65h36zM383 319h-34l21 55q12 -25 13 -55z" />
<glyph unicode="&#x248;" horiz-adv-x="556" d="M558 527h-75v193h-150v-193h-83v-98h83v-213q0 -53 -10 -74q-16 -37 -71 -37q-51 0 -68.5 32t-19.5 119v17h-142v-17q0 -128 48 -201t188 -73t194 91q31 53 31 146v210h75v98z" />
<glyph unicode="&#x249;" horiz-adv-x="278" d="M301 283h-91v247h-139v-247h-77v-98h77v-240q0 -27 -10 -38t-31 -11q-2 0 -5 0.5t-8.5 1t-12.5 0.5v-111l50 -2q92 0 124 39q32 38 32 119v242h91v98zM210 596v128h-139v-128h139z" />
<glyph unicode="&#x24a;" horiz-adv-x="824" d="M806 -110q-54 0 -70 37q-10 21 -10 74v719h-151v-28q-76 50 -194 50q-153 0 -236 -84q-109 -99 -109 -297q0 -194 109 -297q83 -84 236 -84q120 0 194 49v-25q0 -91 32 -146q54 -90 194 -90q4 0 4 61q1 18 1 61zM187 361q0 120 52 186.5t142 66.5q89 0 142 -66 q45 -55 52 -149v-76q-8 -95 -52 -150q-53 -66 -142 -66q-90 0 -142 66.5t-52 187.5z" />
<glyph unicode="&#x24b;" horiz-adv-x="659" d="M642 -213v111q-7 0 -12.5 -0.5t-8.5 -1t-5 -0.5q-21 0 -31 11t-10 38v585h-139v-6q-53 25 -128 25q-138 0 -205 -85q-67 -83 -67 -199q0 -118 67 -201q68 -83 205 -83q74 0 128 24v-62q0 -82 31 -119q32 -39 125 -39zM182 265q0 80 32.5 123.5t93.5 43.5t94 -43.5 t33 -123.5t-33 -123.5t-94 -43.5t-93.5 43.5t-32.5 123.5z" />
<glyph unicode="&#x24c;" horiz-adv-x="772" d="M671 651q-29 34 -71 50.5t-115 18.5h-353v-319h-103v-119h103v-282h147v282h156q65 0 90 -23q23 -22 25 -92l1 -66q2 -35 7 -62q3 -15 9 -39h166v18q-23 14 -27 41q-4 16 -4 67v48q0 75 -20.5 112.5t-71.5 57.5q61 20 86 69q26 50 26 102q0 77 -51 136zM279 595h175 q50 0 73 -13q44 -23 44 -88q0 -60 -45 -81q-26 -12 -76 -12h-171v194z" />
<glyph unicode="&#x24d;" horiz-adv-x="439" d="M368 269h-119q2 54 16 80q28 55 112 55q23 0 40 -3v143q-7 0 -11.5 0.5t-6.5 0.5q-63 0 -102 -33q-26 -21 -56 -73v93h-133v-263h-87v-99h87v-170h141v170h119v99z" />
<glyph unicode="&#x24e;" horiz-adv-x="767" d="M750 620h-105l54 100h-171l-45 -100h-200l-47 100h-177l55 -100h-96v-98h150l140 -251v-271h150v271l135 251h157v98zM385 406l-55 116h108z" />
<glyph unicode="&#x24f;" horiz-adv-x="661" d="M649 376h-112l55 156h-148l-44 -156h-136l-46 156h-155l55 -156h-89v-98h123l106 -301q2 -6 -9 -32q-11 -28 -22 -35q-21 -15 -70 -13l-18 1v-111q21 -2 64 -2q92 0 122 36q31 36 84 188l94 269h146v98zM334 140l-41 138h80z" />
<glyph unicode="&#x250;" horiz-adv-x="556" d="M197 270v51q1 71 39 96q38 27 83 27q31 0 49.5 -17t18.5 -51q0 -39 -32 -59q-22 -12 -63 -19l-31 -6q-40 -6 -64 -22zM282 205l47 5q81 10 122 35q76 43 76 142q0 74 -46.5 116t-120.5 42q-55 0 -101 -26q-42 -25 -67 -53q-1 34 -12 62h-152v-20q16 -7 22 -17.5t7 -35.5 t1 -62v-244q0 -96 68 -131t155 -35q134 0 190 71q35 45 39 114h-135q-5 -31 -19 -48q-21 -25 -70 -25q-46 0 -67.5 13t-21.5 45q0 27 30 39q20 9 55 13z" />
<glyph unicode="&#x251;" horiz-adv-x="592" d="M385 468q-62 65 -144 65q-93 0 -153 -82q-59 -83 -59 -187q0 -102 54 -189q55 -87 142 -87q96 0 156 76v-64h144v525h-140v-57zM281 424q51 0 76 -48q27 -48 27 -114t-27 -114t-76 -48q-55 0 -83 48q-29 49 -29 114t29 114q30 48 83 48z" />
<glyph unicode="&#x252;" horiz-adv-x="592" d="M169 53q63 -66 143 -66q95 0 153 82q60 83 60 187q0 103 -55 189q-54 88 -141 88q-96 0 -156 -76v64h-144v-525h140v57zM273 97q-50 0 -77 47q-26 49 -26 114q0 68 27 114q27 48 76 48q55 0 83 -48q29 -47 29 -114q0 -66 -30 -114q-29 -47 -82 -47z" />
<glyph unicode="&#x253;" d="M264 622v111q-14 0 -30.5 0.5t-19.5 0.5q-92 0 -124 -39q-32 -38 -32 -118v-172h2v-405h136v67q28 -39 52 -55q41 -26 106 -26q104 0 163 81q59 83 59 206q0 119 -59 195q-58 76 -164 76q-59 0 -96 -24q-33 -21 -58 -57v80h-2v31q0 28 10 38.5t32 10.5q9 0 25 -1z M430 258q0 -72 -30 -114.5t-83 -42.5q-60 0 -91.5 43t-31.5 115q0 57 15 95q29 68 104 68t103 -70q14 -39 14 -94z" />
<glyph unicode="&#x254;" horiz-adv-x="556" d="M177 185h-143q12 -114 75 -159q65 -45 164 -45q118 0 185 76.5t67 213.5q0 122 -61 198q-60 76 -189 76t-193 -91q-42 -59 -46 -121h142q8 95 94 95q68 0 94 -66q13 -35 13 -94q0 -63 -13 -99q-25 -70 -96 -70q-50 0 -73 32q-15 22 -20 54z" />
<glyph unicode="&#x256;" horiz-adv-x="646" d="M616 -213v111q-7 0 -12.5 -0.5t-8.5 -1t-5 -0.5q-21 0 -31 11t-10 38v55v719h-141v-254q-51 80 -147 80q-105 0 -168 -78q-62 -79 -62 -215q0 -118 63 -194q64 -75 157 -75q58 0 95 22q37 21 64 62v-124q0 -82 31 -119q31 -39 125 -39q4 0 10.5 0.5t18.5 1t21 0.5z M412 258q0 -72 -31 -114.5t-89 -42.5q-59 0 -88.5 43t-29.5 119q0 72 30 116t88 44q42 0 71 -25q49 -42 49 -140z" />
<glyph unicode="&#x257;" d="M615 627v111q-48 2 -50 2q-93 0 -124 -39q-32 -38 -32 -119v-39h-1v-78q-51 80 -147 80q-105 0 -168 -78q-62 -79 -62 -215q0 -118 63 -194q64 -75 157 -75q57 0 95 21.5t68 69.5v-74h135v543h-1v37q0 27 10 37.5t32 10.5q10 0 25 -1zM412 258q0 -72 -31 -114.5 t-89 -42.5q-59 0 -88.5 43t-29.5 119q0 72 30 116t88 44q42 0 71 -25q49 -42 49 -140z" />
<glyph unicode="&#x258;" horiz-adv-x="556" d="M385 319h-216q3 55 32.5 84t75.5 29q93 0 108 -113zM69 443q-31 -45 -40 -110q-6 -40 -5 -105h365q-3 -82 -51 -113q-29 -20 -69 -20q-44 0 -70 25q-15 15 -26 36h-142q6 -46 50 -96q67 -78 191 -78q102 0 179 65q78 66 78 214q0 138 -70 211q-71 74 -182 74 q-141 0 -208 -103z" />
<glyph unicode="&#x259;" horiz-adv-x="574" d="M281 -13q117 0 190.5 77.5t73.5 195.5q0 122 -71.5 196.5t-192.5 74.5q-186 0 -242 -173h125q7 26 39 46.5t73 20.5q61 0 92.5 -31.5t34.5 -99.5h-373q-9 -127 58 -217t193 -90zM285 94q-50 0 -76.5 27t-36.5 83h231q-3 -41 -30 -75.5t-88 -34.5z" />
<glyph unicode="&#x25a;" horiz-adv-x="882" d="M746 247q-24 7 -30 40.5t-1.5 70t-4.5 69.5q-61 -20 -115 -35q-21 -7 -63 -19q-39 107 -117 145q-93 44 -190 17q-118 -31 -165 -124q-30 -58 -22 -106l137 37q5 26 15 42q19 30 61 41q41 11 73 -1q53 -20 77 -95l-352 -95q16 -64 32 -100q26 -59 67 -96q93 -83 227 -46 q108 28 157 118q39 70 24 171q62 17 76 21q0 -60 37 -97.5t92 -31.5q76 4 114 90q-8 8 -27.5 19.5t-27.5 19.5q-34 -68 -74 -55zM422 239q13 -113 -76 -136q-44 -12 -80 8.5t-53 71.5z" />
<glyph unicode="&#x25b;" horiz-adv-x="505" d="M260 432q44 0 58 -12q14 -11 26 -39h120q-22 83 -67 119q-43 34 -143 34q-79 0 -141 -37q-63 -37 -67 -71q-4 -31 -4 -50q0 -43 16.5 -67.5t51.5 -42.5q-34 -19 -55 -56.5t-21 -86.5q0 -66 67 -100q68 -35 155 -35q97 0 146 38q48 39 63 90q1 8 3 22.5t3 21.5h-115 q-14 -76 -106 -76q-96 0 -96 70q0 29 33 47q34 19 69 19h46v92h-47q-32 0 -61 13q-29 14 -31 38v9q0 60 97 60z" />
<glyph unicode="&#x25c;" horiz-adv-x="505" d="M246 432q97 0 97 -60v-9q-2 -24 -32 -38q-27 -13 -60 -13h-47v-92h46q36 0 68 -19q34 -18 34 -47q0 -70 -96 -70q-92 0 -106 76h-115q1 -7 3 -22t3 -22q15 -51 63 -90q49 -38 146 -38q87 0 155 35q67 34 67 100q0 49 -21 86.5t-55 56.5q35 18 51.5 42.5t16.5 67.5 q0 12 -5 50q-5 35 -67 71q-61 37 -140 37q-100 0 -143 -34q-45 -36 -67 -119h120q12 28 26 39q14 12 58 12z" />
<glyph unicode="&#x25d;" horiz-adv-x="798" d="M659 359q-24 7 -30 40.5t-2 70.5t-3 69q-68 -21 -116 -35q-14 -5 -43 -13.5t-44 -12.5l-9 6t-11 7.5t-10 6.5q-61 36 -141 36q-100 0 -143 -34q-44 -35 -66 -119h119q12 28 26 39q14 12 59 12q96 0 96 -60v-9q-2 -24 -32 -38q-27 -13 -59 -13h-47v-92h46q34 0 68 -19 q34 -18 34 -47q0 -70 -97 -70q-92 0 -106 76h-115q3 -17 7 -44q13 -50 62 -90q49 -38 147 -38q86 0 154 35q67 34 67 100q0 48 -20.5 85.5t-54.5 57.5q35 18 51 43t16 67v15q1 1 3.5 1.5t3.5 0.5q73 20 76 21q0 -59 37 -97t92 -32q78 7 114 90q-8 8 -27.5 19.5t-27.5 19.5 q-34 -68 -74 -55z" />
<glyph unicode="&#x25e;" horiz-adv-x="537" d="M424 498q-63 36 -141 36q-117 11 -184 -65t-67 -214q0 -121 60 -198q62 -77 189 -69q87 0 155 35q67 34 67 100q0 49 -21 86.5t-55 56.5q35 18 51.5 42.5t16.5 67.5q0 12 -5 50q-4 34 -66 72zM287 427q34 4 60 -8q27 -13 27 -47v-9q-2 -24 -32 -38q-27 -13 -60 -13 l-1 -92q36 0 68 -19q34 -18 34 -47q0 -70 -96 -70h-3q-68 14 -93 81q-14 36 -14 94q0 59 14 98q25 70 96 70z" />
<glyph unicode="&#x25f;" horiz-adv-x="333" d="M14 -194q24 -3 53 -3q116 0 146 48q29 32 29 117v34h76v99h-78v429h-138v-429h-92v-99h92v-44q0 -42 -49 -41q-25 0 -39 2v-113z" />
<glyph unicode="&#x260;" d="M614 573v112q-15 0 -31.5 0.5t-18.5 0.5q-94 0 -125 -39q-31 -37 -31 -119v-68q-32 54 -79 73q-30 12 -70 12q-109 0 -168 -81q-59 -82 -59 -199q0 -124 61 -195q61 -72 164 -72q68 0 108 31q23 17 43 52v-35q0 -77 -16 -108q-26 -50 -101 -50q-54 0 -76 19 q-13 10 -19 35h-151q7 -78 70 -119t168 -41q169 0 228 90q35 53 35 155v329h1v170q0 28 10 38.5t31 10.5q2 0 5 -0.5t8.5 -1t12.5 -0.5zM410 269q0 -77 -32.5 -116t-84.5 -39q-72 0 -101 68q-16 35 -16 82q0 54 15 90q29 69 101 69q55 0 86.5 -40t31.5 -114z" />
<glyph unicode="&#x261;" d="M410 269q0 -77 -32.5 -116t-84.5 -39q-72 0 -101 68q-16 35 -16 82q0 54 15 90q29 69 101 69q55 0 86.5 -40t31.5 -114zM329 533q-30 12 -70 12q-109 0 -168 -81q-59 -82 -59 -199q0 -124 61 -195q61 -72 164 -72q68 0 108 31q23 17 43 52v-35q0 -77 -16 -108 q-26 -50 -101 -50q-54 0 -76 19q-13 10 -19 35h-151q7 -78 70 -119t168 -41q169 0 228 90q35 53 35 155v505h-135v-76q-32 56 -82 77z" />
<glyph unicode="&#x265;" d="M97 53q51 -69 156 -69q98 0 154 83v-255h138v718h-138v-288q0 -142 -113 -142q-53 0 -72 37q-14 26 -14 69v324h-143v-313q0 -68 5 -103q4 -31 27 -61z" />
<glyph unicode="&#x266;" d="M272 660v111q-9 0 -21 0.5t-18.5 1t-10.5 0.5q-94 0 -125 -39q-31 -37 -31 -119v-615h139v288q0 69 28.5 105.5t83.5 36.5q53 0 72 -37q15 -25 15 -69v-324h142v312q0 68 -5 103q-5 32 -27 62q-51 69 -156 69q-99 0 -153 -83v150q0 28 10 38.5t32 10.5q2 0 4.5 -0.5t8 -1 t12.5 -0.5z" />
<glyph unicode="&#x267;" horiz-adv-x="659" d="M612 -213v111q-7 0 -12.5 -0.5t-8.5 -1t-5 -0.5q-21 0 -31 11t-10 38v55h1v312q0 68 -5 103q-5 32 -27 62q-51 69 -156 69q-99 0 -153 -83v150q0 28 10 38.5t32 10.5q2 0 4.5 -0.5t8 -1t12.5 -0.5v111q-9 0 -21 0.5t-18.5 1t-10.5 0.5q-94 0 -125 -39q-31 -37 -31 -119 v-615h139v288q0 69 28.5 105.5t83.5 36.5q53 0 72 -37q15 -25 15 -69v-324h2v-57q0 -82 31 -119q31 -39 125 -39q4 0 10.5 0.5t18.5 1t21 0.5z" />
<glyph unicode="&#x268;" horiz-adv-x="378" d="M11 402v-74h100v-328h141v328h106v74h-106v130h-141v-130h-100zM252 596v128h-141v-128h141z" />
<glyph unicode="&#x269;" horiz-adv-x="278" d="M67 525v-525h140v525h-140z" />
<glyph unicode="&#x26a;" horiz-adv-x="334" d="M23 131v-131h280v131h-71v269h71v132h-71h-141h-68v-132h68v-269h-68z" />
<glyph unicode="&#x26b;" horiz-adv-x="392" d="M261 0v325h4q90 0 111 120h-65q-9 -42 -47 -42h-3v317h-139v-280q-57 -3 -85 -46q-18 -27 -28 -76h64q4 17 16 31q11 10 31 10h2v-359h139z" />
<glyph unicode="&#x26d;" horiz-adv-x="305" d="M274 -213v111q-7 0 -12.5 -0.5t-8 -1t-4.5 -0.5q-22 0 -32 11t-10 38v775h-139v-777q0 -82 31 -119q31 -39 125 -39z" />
<glyph unicode="&#x26f;" horiz-adv-x="889" d="M98 62q47 -62 131 -62q53 0 96 22q39 22 68 69q15 -38 45 -64q38 -27 99 -27q65 0 105 31q24 19 49 59v-77h135v531h-141v-320q0 -42 -11 -66q-21 -38 -80 -38q-52 0 -69 38q-10 21 -10 69v317h-140v-317q0 -34 -11 -61q-22 -48 -80 -48q-50 0 -68 37q-10 19 -10 50v339 h-143l-1 -336q0 -48 5 -78q7 -40 31 -68z" />
<glyph unicode="&#x270;" horiz-adv-x="889" d="M98 62q47 -62 131 -62q53 0 96 22q39 22 68 69q15 -38 45 -64q38 -27 99 -27q65 0 105 31q24 19 49 59v-278h135v732h-141v-320q0 -42 -11 -66q-21 -38 -80 -38q-52 0 -69 38q-10 21 -10 69v317h-140v-317q0 -34 -11 -61q-22 -48 -80 -48q-50 0 -68 37q-10 19 -10 50v339 h-143l-1 -336q0 -48 5 -78q7 -40 31 -68z" />
<glyph unicode="&#x271;" horiz-adv-x="889" d="M615 -102v-111q48 -2 50 -2q93 0 124 39q32 38 32 119l4 57l1 335q0 49 -5 79q-8 41 -30 68q-49 62 -131 62q-53 0 -96 -22q-41 -23 -68 -69q-16 39 -46 64q-38 27 -98 27q-65 0 -105 -31q-24 -19 -49 -59v77h-136v-531h142v320q0 42 11 66q20 38 80 38q51 0 69 -38 q10 -21 10 -69v-317h140v317q0 34 11 61q23 48 79 48q50 0 69 -37q10 -19 10 -50v-78h-1v-316q0 -27 -10 -38t-32 -11q-2 0 -5 0.5t-8.5 1t-11.5 0.5z" />
<glyph unicode="&#x272;" d="M0 -102v-111q48 -2 49 -2q93 0 125 39q32 38 32 119v370q2 34 12 56q27 60 97 60q58 0 79 -41q11 -24 11 -64v-324h142v358q0 99 -53 143t-134 44q-65 0 -109 -32q-23 -17 -45 -51v68h-6v1h-134v-531v-55q0 -27 -10 -38t-31 -11q-2 0 -5 0.5t-8.5 1t-11.5 0.5z" />
<glyph unicode="&#x273;" horiz-adv-x="648" d="M611 -213v111q-7 0 -12.5 -0.5t-8.5 -1t-5 -0.5q-21 0 -31 11t-10 38v55h3v358q0 99 -53 143t-134 44q-65 0 -109 -32q-23 -17 -51 -59v77h-134v-531h139v288q0 51 13 81q27 60 97 60q58 0 79 -41q11 -24 11 -64v-381q0 -82 31 -119q32 -39 125 -39q4 0 10.5 0.5t18.5 1 t21 0.5z" />
<glyph unicode="&#x274;" horiz-adv-x="529" d="M45 531v-531h140v323l149 -323h150v531h-140v-314l-141 314h-158z" />
<glyph unicode="&#x275;" d="M304 -19q136 0 204 83q68 85 68 201q0 114 -68 199q-67 85 -204 85q-138 0 -205 -85q-67 -83 -67 -199q0 -118 67 -201q68 -83 205 -83zM209 142q-24 32 -30 87h249q-6 -56 -31 -87q-32 -44 -93 -44q-60 0 -95 44zM397 388q25 -31 31 -85h-249q6 54 30 85q35 44 95 44 q61 0 93 -44z" />
<glyph unicode="&#x276;" horiz-adv-x="944" d="M420 262q0 -168 -128 -168q-118 0 -118 171q0 59 15 96q29 71 105 71q126 0 126 -170zM486 466q-66 78 -191 78q-119 0 -192 -75q-72 -73 -72 -207q0 -124 69 -202q70 -78 189 -78q79 0 131 30q30 16 57 48q30 -32 62 -50q48 -27 114 -27q117 0 178 52q62 53 71 122h-138 q-18 -62 -107 -62q-51 0 -79.5 36t-31.5 100h364q0 77 -8 119q-11 61 -38 97q-72 97 -197 97q-67 0 -114 -24q-27 -16 -67 -54zM752 388q14 -25 16 -67h-221q3 72 50 101q26 14 57 14q71 0 98 -48z" />
<glyph unicode="&#x278;" horiz-adv-x="722" d="M297 0v-209h128v209q119 7 192 74q71 66 73 189q-2 126 -69 201q-69 74 -196 75v167h-128v-167q-125 -2 -194 -75q-71 -76 -71 -201q2 -124 74 -189q73 -67 191 -74zM297 423v-307q-129 19 -131 147q-2 67 30 111q30 43 101 49zM425 116v307q71 -6 102 -49 q29 -44 29 -111q-2 -128 -131 -147z" />
<glyph unicode="&#x279;" horiz-adv-x="389" d="M63 1q12 -1 19 -1q62 0 101 33q25 20 56 72v-92h133v532h-140v-254q0 -64 -16 -95q-28 -55 -113 -55q-23 0 -40 3v-143z" />
<glyph unicode="&#x27a;" horiz-adv-x="389" d="M63 1q12 -1 19 -1q62 0 101 33q25 20 56 72v-92h133v707h-140v-429q0 -64 -16 -95q-28 -55 -113 -55q-23 0 -40 3v-143z" />
<glyph unicode="&#x27b;" horiz-adv-x="472" d="M440 -213v111q-7 0 -12.5 -0.5t-8 -1t-4.5 -0.5q-22 0 -32 11t-10 38v170h-1v430h-140v-254q0 -64 -16 -95q-28 -55 -113 -55q-23 0 -40 3v-143q12 -1 19 -1q62 0 101 33q23 17 51 63v-153q0 -82 31 -119q31 -39 125 -39q4 0 10.5 0.5t18.5 1t21 0.5z" />
<glyph unicode="&#x27c;" horiz-adv-x="389" d="M373 544q-7 0 -12 0.5t-7 0.5q-62 0 -102 -33q-24 -21 -56 -73v93h-133v-720h141v442q0 64 16 95q28 55 113 55q21 0 40 -3v143z" />
<glyph unicode="&#x27d;" horiz-adv-x="389" d="M269 -213v111q-8 -1 -15.5 -1.5t-9.5 -0.5q-22 0 -32 11t-10 38v55h2v254q0 64 16 95q28 55 113 55q21 0 40 -3v143q-7 0 -12 0.5t-7 0.5q-62 0 -102 -33q-24 -21 -56 -73v93h-133v-417v-172q0 -82 31 -119q32 -39 125 -39q4 0 10.5 0.5t18.5 1t21 0.5z" />
<glyph unicode="&#x27e;" horiz-adv-x="278" d="M240 407v112q-16 0 -46 5q-27 6 -33 6q-93 0 -125 -39q-32 -38 -32 -119v-372h140v370q0 28 10 38t60 1q2 0 5 -0.5t8.5 -1t12.5 -0.5z" />
<glyph unicode="&#x27f;" horiz-adv-x="278" d="M4 519v-112q7 0 12.5 0.5t8.5 1t5 0.5q50 9 60 -1q11 -11 11 -38v-370h139v372q0 81 -32 119q-32 39 -125 39q-6 0 -33 -6q-30 -5 -46 -5z" />
<glyph unicode="&#x280;" horiz-adv-x="533" d="M208 439h48q36 0 54 -9q32 -17 32 -65q0 -25 -33 -40q-19 -9 -57 -9h-44v123zM456 480q-41 50 -137 51h-260v-531h149v187h33q48 0 66.5 -15.5t19.5 -47.5l1 -50q0 -26 4 -46l7 -28h163v13q-15 10 -20 30q-3 13 -3 50v36q0 55 -15 82.5t-52 42.5q46 37 64 63t18 63 q0 57 -38 100z" />
<glyph unicode="&#x281;" horiz-adv-x="533" d="M256 92h-48v123h44q36 0 57 -8q33 -17 33 -40q0 -48 -32 -65q-17 -10 -54 -10zM456 51q38 43 38 100q0 37 -18 63t-64 63q36 15 51.5 43t15.5 82v36q0 36 3 50q5 20 20 30v13h-163q-6 -23 -7 -28q-4 -20 -4 -46l-1 -49q-1 -32 -19.5 -48t-66.5 -16h-33v187h-149v-531h260 q96 1 137 51z" />
<glyph unicode="&#x283;" horiz-adv-x="380" d="M222 -121q20 48 25 142l17 474q3 83 12 108q14 39 51 39q22 0 59 -17l10 111l-34 10q-39 9 -70 9q-102 0 -139 -87q-24 -55 -28 -173l-19 -449q-1 -76 -10 -105q-14 -39 -48 -39q-19 0 -56 19l-12 -111q58 -21 103 -21q100 0 139 90z" />
<glyph unicode="&#x284;" horiz-adv-x="380" d="M-8 75v-75h112q-3 -40 -8 -59q-14 -39 -48 -39q-19 0 -56 19l-12 -111q58 -21 103 -21q100 0 139 90q18 43 24 121h93v75h-90l15 420q3 83 12 108q14 39 51 39q22 0 59 -17l10 111l-34 10q-39 9 -70 9q-102 0 -139 -87q-24 -55 -28 -173l-18 -420h-115z" />
<glyph unicode="&#x285;" horiz-adv-x="428" d="M174 41q39 -50 138 -50q42 0 104 12l-12 61q-34 -11 -56 -11q-36 0 -48 22q-9 15 -10 58l-19 247q-4 65 -28 95q-38 47 -139 47q-35 0 -70 -4l-34 -6l10 -61q31 9 59 9q37 0 51 -21q9 -13 12 -59l17 -261q5 -52 25 -78z" />
<glyph unicode="&#x287;" horiz-adv-x="333" d="M309 237h-75v327q0 49 -23 74q-37 38 -135 34l-66 -2v-104q4 0 14 0.5t14 0.5q42 0 50 -8q9 -7 9 -41v-281h-87v-99h87v-149h137v149h75v99z" />
<glyph unicode="&#x288;" horiz-adv-x="333" d="M10 428h74v-538q0 -50 24 -74q36 -37 135 -34l66 3v104q-9 -1 -28 -1q-41 0 -51 8q-8 8 -8 41v491h87v99h-87v149h-138v-149h-74v-99z" />
<glyph unicode="&#x289;" horiz-adv-x="749" d="M26 283h99v-72q0 -90 23 -138q40 -85 160 -85q42 0 72 11t62 40q7 5 13.5 13.5t10.5 15t5 7.5v-75h135v283h118v98h-118v151h-141v-151h-197v151h-143v-151h-99v-98zM279 143q-11 24 -11 68v72h197v-40q0 -50 -14 -83q-25 -57 -97 -57q-56 0 -75 40z" />
<glyph unicode="&#x28a;" horiz-adv-x="577" d="M286 109q-110 0 -110 140q0 63 12 100q14 38 58 78v105h-213v-98h112q-50 -39 -71.5 -82t-21.5 -107q0 -105 66 -175t172 -70q111 0 172 70q62 71 62 175q0 120 -92 189h111v98h-212v-105q44 -41 56 -78q13 -36 13 -100q0 -140 -114 -140z" />
<glyph unicode="&#x28c;" horiz-adv-x="556" d="M162 0l113 393l111 -393h156l-191 532h-147l-192 -532h150z" />
<glyph unicode="&#x28d;" horiz-adv-x="778" d="M457 0l76 382l83 -382h150l-150 532h-144l-85 -387l-83 387h-143l-155 -532h145l83 383l81 -383h142z" />
<glyph unicode="&#x28e;" horiz-adv-x="556" d="M462 634v112q-58 2 -63 2q-92 0 -123 -37q-31 -36 -84 -188l-182 -523h148l110 393l116 -393h155l-196 556q-2 8 8 32q11 26 24 35q20 14 70 12z" />
<glyph unicode="&#x28f;" horiz-adv-x="499" d="M309 532l-53 -232l-60 232h-177l159 -331v-201h151v201l150 331h-170z" />
<glyph unicode="&#x292;" horiz-adv-x="551" d="M321 400l-178 -232l133 -1l1 1q57 -7 80 -30q14 -45 14 -106q0 -130 -122 -130q-49 0 -62 27q-13 25 -18 68h-142q4 -62 46 -121q46 -91 175 -91q130 0 199.5 61.5t69.5 182.5q0 138 -67 181q-30 35 -76 56l147 154v110h-483v-130h283z" />
<glyph unicode="&#x294;" d="M157 690q-91 -58 -97 -197h141q0 39 24 77t80 38q58 0 79 -31q22 -29 22 -67q0 -33 -19 -59q-11 -15 -29 -29l-35 -27q-52 -40 -66 -73q-12 -32 -15 -322h132q0 246 6 266q9 29 37 51l35 27q52 40 71 67q32 44 32 107q0 104 -73 156q-74 53 -183 53q-84 0 -142 -37z" />
<glyph unicode="&#x295;" d="M458 690q-58 37 -142 37q-109 0 -183 -53q-73 -52 -73 -156q0 -63 32 -107q19 -27 71 -67l35 -27q28 -22 37 -51q5 -18 7 -266h132q-3 292 -16 322q-14 33 -66 73l-35 27q-16 12 -28 29q-20 28 -20 59q0 37 21 67q22 31 80 31q57 0 80 -38q24 -38 24 -77h141 q-6 139 -97 197z" />
<glyph unicode="&#x296;" d="M157 37q58 -37 142 -37q110 0 183 52t73 156q0 63 -32 107q-18 27 -71 68l-35 27q-28 22 -37 51q-6 18 -6 266h-132q3 -292 15 -323q13 -32 66 -72l35 -28q20 -15 29 -29q19 -25 19 -59q0 -37 -22 -68q-21 -30 -79 -30q-56 0 -80 37t-24 79h-141q6 -139 97 -197z" />
<glyph unicode="&#x297;" horiz-adv-x="520" d="M351 341h142q-12 114 -76 159q-63 45 -163 45q-118 0 -170 -108q-52 -107 -52 -294q0 -171 46 -278q46 -108 174 -108t194 91q42 59 46 120h-142q-6 -46 -27.5 -70t-67.5 -24q-68 0 -88 107q-19 104 -19 165q0 64 19 171q20 110 91 110q49 0 73 -32q15 -22 20 -54z" />
<glyph unicode="&#x298;" horiz-adv-x="778" d="M589 361q0 -121 -52 -187.5t-142 -66.5q-91 0 -143.5 66.5t-52.5 187.5q0 120 52.5 186.5t143.5 66.5q90 0 142 -66.5t52 -186.5zM630 64q109 103 109 297q0 198 -109 297q-81 84 -235 84q-155 0 -236 -84q-110 -99 -110 -297q0 -193 110 -297q81 -84 236 -84 q154 0 235 84zM318 438v-146h148v146h-148z" />
<glyph unicode="&#x29a;" horiz-adv-x="537" d="M111 498q-62 -37 -67 -72q-4 -31 -4 -50q0 -42 16 -67t51 -43q-34 -20 -54.5 -57.5t-20.5 -85.5q0 -66 67 -100q68 -35 154 -35q129 -8 189 69q61 76 61 198q0 138 -67 214q-67 75 -185 65q-79 0 -140 -36zM248 427q71 0 96 -70q13 -36 13 -98q0 -61 -13 -94 q-26 -68 -94 -81h-2q-97 0 -97 70q0 29 34 47q34 19 68 19l-1 92q-31 0 -60 13q-29 14 -31 38v9q0 34 27 47q25 12 60 8z" />
<glyph unicode="&#x29c;" horiz-adv-x="646" d="M75 0h149v234h213v-234h149v525h-149v-185h-213v185h-149v-525z" />
<glyph unicode="&#x29e;" horiz-adv-x="556" d="M553 -188v717h-137v-167l-58 -60l-127 227h-168l193 -326l-186 -203h173l173 200v-388h137z" />
<glyph unicode="&#x29f;" horiz-adv-x="531" d="M76 531v-531h409v129h-258v402h-151z" />
<glyph unicode="&#x2a0;" d="M613 591v111q-9 0 -21 0.5t-18.5 1t-10.5 0.5q-93 0 -125 -39q-31 -38 -31 -119v-86q-21 35 -44 53q-41 33 -108 33q-95 0 -161 -80q-65 -80 -65 -212q0 -123 65 -197t157 -74q118 0 157 83v-277h138v754q0 28 10 38.5t31 10.5q10 0 26 -1zM393 164q-31 -61 -102 -61 q-75 0 -102 66q-15 36 -15 91q0 80 31 121.5t86 41.5q75 0 105 -69q16 -38 16 -87q0 -64 -19 -103z" />
<glyph unicode="&#x2a1;" d="M133 182v-74h110q-1 -33 -1 -108h132v108h106v74h-105q2 76 5 84q9 29 37 51l35 27q52 40 71 67q32 44 32 107q0 104 -73 156q-74 53 -183 53q-84 0 -142 -37q-91 -58 -97 -197h141q0 39 24 77t80 38q58 0 79 -31q22 -29 22 -67q0 -33 -19 -59q-11 -15 -29 -29l-35 -27 q-52 -40 -66 -73q-7 -19 -12 -140h-112z" />
<glyph unicode="&#x2a2;" d="M482 108v74h-112q-5 121 -12 140q-14 33 -66 73l-35 27q-16 12 -28 29q-20 28 -20 59q0 37 21 67q22 31 80 31q57 0 80 -38q24 -38 24 -77h141q-6 139 -97 197q-58 37 -142 37q-109 0 -183 -53q-73 -52 -73 -156q0 -63 32 -107q19 -27 71 -67l35 -27q28 -22 37 -51 q3 -8 5 -84h-105v-74h106q1 -31 1 -108h132q0 19 -0.5 55t-1.5 53h110z" />
<glyph unicode="&#x2a3;" horiz-adv-x="1000" d="M408 465q-51 80 -147 80q-105 0 -168 -78q-62 -79 -62 -215q0 -118 63 -194q64 -75 157 -75q57 0 95 21.5t68 69.5v-74h560v114h-279l270 303v115h-416v187h-141v-254zM412 258q0 -72 -31 -114.5t-89 -42.5q-59 0 -88.5 43t-29.5 119q0 72 30 116t88 44q42 0 71 -25 q49 -42 49 -140zM788 419l-239 -271v271h239z" />
<glyph unicode="&#x2a4;" horiz-adv-x="1016" d="M794 400l-178 -232l134 -1v1q58 -8 81 -30q13 -42 13 -106q0 -130 -122 -130q-48 0 -62 27q-12 23 -17 68h-143q4 -62 46 -121q46 -91 175 -91q130 0 199.5 61.5t69.5 182.5q0 138 -67 181q-30 35 -76 56l148 154v110h-463v189h-141v-254q-52 80 -147 80q-105 0 -168 -78 t-63 -215q0 -118 64 -194q64 -75 157 -75q57 0 95 21.5t67 69.5v-74h136v400h262zM395 258q0 -72 -31.5 -114.5t-89.5 -42.5t-87.5 43t-29.5 119q0 72 30 116t88 44q41 0 70 -25q50 -42 50 -140z" />
<glyph unicode="&#x2a6;" horiz-adv-x="787" d="M10 428h74v-327q0 -50 24 -74q37 -38 135 -34l66 2v48l8 -8q61 -53 186 -53q119 0 180 48.5t61 130.5q0 59 -41 100q-40 39 -125 59q-124 28 -145 39q-20 11 -20 35q0 21 20.5 34t63.5 13q56 0 78 -28q12 -17 15 -43h139q-16 177 -234 177q-104 0 -163 -53 q-12 -10 -23 -25v58h-87v149h-138v-149h-74v-99zM399 170h-141q0 -40 13 -72q-35 2 -41 8q-8 8 -8 41v281h63q-11 -30 -11 -60q0 -63 37 -96q36 -33 127 -56q125 -30 145 -42t20 -36q0 -49 -89 -49q-71 0 -96 28q-15 16 -19 53z" />
<glyph unicode="&#x2a7;" horiz-adv-x="607" d="M412 -121q20 48 25 142l18 474q3 81 11 108q14 39 51 39q23 0 59 -17l10 111l-34 10q-39 9 -69 9q-101 0 -139 -87q-21 -44 -27 -141h-95v149h-138v-149h-74v-99h74v-327q0 -50 24 -74q37 -38 135 -34l51 2q-3 -35 -8 -54q-12 -39 -48 -39q-20 0 -55 19l-12 -111 q57 -21 103 -21q99 0 138 90zM222 147v281h90l-13 -330h-5h-13q-41 0 -51 8q-8 8 -8 41z" />
<glyph unicode="&#x2a9;" horiz-adv-x="836" d="M582 -102v-111q48 -2 49 -2q93 0 125 39q32 38 32 119v415q0 96 -50 141.5t-138 45.5q-65 0 -109 -32q-23 -17 -51 -59v77h-134v-4h-79v45q0 42 48 41q7 0 16 -0.5t14.5 -1t8.5 -0.5v113q-24 3 -53 3q-115 0 -146 -48q-29 -32 -29 -117v-35h-76v-98h78v-429h139v429h79 v-429h139v288q0 51 13 81q27 60 98 60q57 0 78 -41q11 -24 11 -64v-324h3v-55q0 -27 -10 -38t-31 -11q-2 0 -5 0.5t-8.5 1t-11.5 0.5z" />
<glyph unicode="&#x2aa;" horiz-adv-x="687" d="M207 0v51q7 -9 16 -16q61 -53 186 -53q119 0 179.5 48.5t60.5 130.5q0 59 -41 100q-39 39 -124 59q-126 29 -145 39q-21 11 -21 35q0 20 21 33.5t63 13.5q56 0 78 -28q13 -16 16 -43h139q-9 94 -69.5 135.5t-165.5 41.5q-104 0 -163 -53q-19 -18 -30 -35v261h-139v-720 h139zM305 170h-98v112q4 -6 10 -10q36 -33 127 -56q125 -30 145 -42t20 -36q0 -49 -90 -49q-70 0 -95 28q-15 16 -19 53z" />
<glyph unicode="&#x2ab;" horiz-adv-x="667" d="M68 720v-720h563v114h-279l270 303v115h-415v188h-139zM445 419l-238 -271v271h238z" />
<glyph unicode="&#x2ac;" horiz-adv-x="443" d="M180 303l-44 -217l-47 217h-85l85 -303h82l49 221l47 -221h82l88 303h-83l-47 -218l-46 218h-81zM180 720l-44 -218l-47 218h-85l85 -303h82l49 221l47 -221h82l88 303h-83l-47 -219l-46 219h-81z" />
<glyph unicode="&#x2ad;" horiz-adv-x="588" d="M557 270h-521v-270h76v171h368v-171h77v270zM557 675h-521v-269h76v170h368v-170h77v269z" />
<glyph unicode="&#x2ae;" d="M-1 695v-112q7 0 12.5 0.5t8 1t4.5 0.5q22 0 32 -10.5t10 -38.5v-6h-1v-313q0 -68 5 -103q4 -31 27 -61q51 -69 156 -69q98 0 154 83v-255h138v718h-138v-288q0 -142 -113 -142q-53 0 -72 37q-14 26 -14 69v324h-3v9q0 80 -32 118q-32 39 -124 39q-3 0 -19 -0.5t-31 -0.5 z" />
<glyph unicode="&#x2af;" d="M614 -213v111q-6 0 -11.5 -0.5t-8.5 -1t-5 -0.5q-22 0 -32 11t-10 38v170h-2v415h-138v-288q0 -142 -113 -142q-53 0 -72 37q-14 26 -14 69v324h-3v9q0 80 -32 118q-32 39 -124 39q-3 0 -19 -0.5t-31 -0.5v-112q7 0 12.5 0.5t8 1t4.5 0.5q22 0 32 -10.5t10 -38.5v-6h-1 v-313q0 -68 5 -103q4 -31 27 -61q51 -69 156 -69q98 0 154 83v-108h1v-16q0 -81 32 -119q32 -39 124 -39q2 0 50 2z" />
<glyph unicode="&#x2b0;" horiz-adv-x="306" d="M257 595q-25 34 -78 34q-50 0 -76 -41v127h-70v-359h70v144q0 72 56 72q26 0 36 -19q7 -13 7 -34v-163h71v157q0 38 -2.5 53t-13.5 29z" />
<glyph unicode="&#x2b1;" horiz-adv-x="306" d="M136 687v55q-12 1 -25 1q-44 0 -61 -18t-17 -61v-308h70v144q0 72 56 72q26 0 36 -19q7 -13 7 -34v-163h71v157q0 38 -2.5 53t-13.5 29q-25 34 -78 34q-50 0 -76 -41v75q0 14 4.5 19t16.5 5h12z" />
<glyph unicode="&#x2b2;" horiz-adv-x="139" d="M105 654v65h-69v-65h69zM2 305v-55q8 0 16 -0.5t9 -0.5q45 0 61.5 18.5t16.5 60.5v294h-69v-293q0 -24 -21 -24h-13z" />
<glyph unicode="&#x2b3;" horiz-adv-x="195" d="M187 628q-7 1 -10 1q-32 0 -51 -16q-12 -10 -28 -37v47h-66v-267h70v128q0 31 8 47q15 28 57 28q2 0 20 -2v71z" />
<glyph unicode="&#x2b4;" horiz-adv-x="195" d="M32 357q3 0 5.5 -0.5t3.5 -0.5q31 0 51 17q11 9 28 36v-46h66v266h-70v-127q0 -31 -8 -47q-13 -28 -56 -28q-2 0 -9 0.5t-11 0.5v-71z" />
<glyph unicode="&#x2b5;" horiz-adv-x="236" d="M220 250v55h-12q-12 0 -16.5 5t-4.5 19v85h-1v215h-70v-127q0 -31 -8 -47q-13 -28 -56 -28q-2 0 -9 0.5t-11 0.5v-71q3 0 5.5 -0.5t3.5 -0.5q31 0 51 17q12 10 25 32v-77q0 -42 17 -60.5t61 -18.5q1 0 9.5 0.5t15.5 0.5z" />
<glyph unicode="&#x2b6;" horiz-adv-x="378" d="M182 408h-35v87h32q27 0 40 -6q24 -11 24 -28q0 -34 -23 -46q-11 -7 -38 -7zM324 379q27 32 27 71q0 26 -13 45t-46 45q26 10 37 29.5t11 58.5v26q0 23 2 35q3 15 14 21v10h-115q-2 -6 -5 -20q-4 -15 -4 -33v-35q-1 -23 -14.5 -34t-46.5 -11h-24v133h-105v-377h185 q67 0 97 36z" />
<glyph unicode="&#x2b7;" horiz-adv-x="389" d="M158 623l-38 -191l-42 191h-75l75 -267h72l43 194l41 -194h72l77 267h-72l-42 -192l-40 192h-71z" />
<glyph unicode="&#x2b8;" horiz-adv-x="278" d="M43 305v-55q16 -1 32 -1q46 0 61 18q17 18 42 94l92 262h-74l-55 -197l-58 197h-78l98 -278q1 -4 -5 -17.5t-11 -16.5q-12 -8 -35 -6h-9z" />
<glyph unicode="&#x2b9;" horiz-adv-x="333" d="M334 719h-155l-94 -292h101z" />
<glyph unicode="&#x2ba;" horiz-adv-x="610" d="M334 719h-155l-94 -292h101zM583 719h-155l-94 -292h101z" />
<glyph unicode="&#x2bb;" horiz-adv-x="278" d="M67 555v-103h139v129h-77q-2 21 8 40q16 40 67 55v51q-137 -30 -137 -172z" />
<glyph unicode="&#x2bc;" horiz-adv-x="278" d="M67 494v-51q137 27 137 171v103h-140v-128h77q2 -23 -8 -44q-18 -36 -66 -51z" />
<glyph unicode="&#x2bd;" horiz-adv-x="278" d="M201 443v51q-48 15 -66 51q-10 21 -8 44h77v128h-140v-103q0 -144 137 -171z" />
<glyph unicode="&#x2be;" horiz-adv-x="205" d="M54 647h1l-1 -50q45 2 75 32q32 32 32 76t-31.5 75t-75.5 31v-48q24 0 41 -17t17 -41t-17 -41t-41 -17z" />
<glyph unicode="&#x2bf;" horiz-adv-x="205" d="M160 647h1q-24 0 -41 17t-17 41t17 41t41 17v48q-44 0 -75.5 -31t-31.5 -75q0 -45 31 -76q30 -30 76 -32z" />
<glyph unicode="&#x2c0;" horiz-adv-x="306" d="M79 702q-46 -30 -49 -99h71q0 23 13 40.5t39 17.5q50 0 50 -49q0 -17 -10 -30q-5 -8 -14 -14l-17 -14q-27 -21 -33 -37q-7 -16 -8 -161h66q0 124 3 133q4 15 19 26l17 13q27 22 36 34q16 22 16 54q0 50 -35.5 77t-93.5 27q-41 0 -70 -18z" />
<glyph unicode="&#x2c1;" horiz-adv-x="306" d="M229 702q-28 18 -71 18q-57 0 -92.5 -27.5t-35.5 -76.5q0 -32 16 -54q8 -12 36 -34l17 -13q15 -11 19 -26q3 -9 3 -133h66q-2 148 -8 161q-6 16 -33 37l-18 14q-8 6 -14 14q-10 13 -10 30q0 21 12 35t39 14t39.5 -17t12.5 -41h71q-3 69 -49 99z" />
<glyph unicode="&#x2c2;" horiz-adv-x="292" d="M6 520v-62l287 -110v68l-205 73l205 73v67z" />
<glyph unicode="&#x2c3;" horiz-adv-x="292" d="M293 458v62l-287 109v-67l205 -73l-205 -73v-68z" />
<glyph unicode="&#x2c4;" horiz-adv-x="292" d="M181 633h-62l-110 -288h68l73 206l73 -206h68z" />
<glyph unicode="&#x2c5;" horiz-adv-x="292" d="M119 345h62l110 288h-68l-73 -206l-73 206h-68z" />
<glyph unicode="&#x2c6;" horiz-adv-x="259" d="M65 723h130l110 -142h-117l-62 81l-64 -81h-107z" />
<glyph unicode="&#x2c7;" horiz-adv-x="259" d="M195 581h-130l-110 142h111l64 -81l65 81h110z" />
<glyph unicode="&#x2c8;" horiz-adv-x="333" d="M206 712h-75v-152h75v152z" />
<glyph unicode="&#x2c9;" horiz-adv-x="259" d="M-47 694v-75h353v75h-353z" />
<glyph unicode="&#x2ca;" horiz-adv-x="333" d="M334 750h-155l-94 -146h101z" />
<glyph unicode="&#x2cb;" horiz-adv-x="333" d="M252 604l-94 146h-155l148 -146h101z" />
<glyph unicode="&#x2cc;" horiz-adv-x="333" d="M206 -69h-75v-152h75v152z" />
<glyph unicode="&#x2cd;" horiz-adv-x="333" d="M-5 -72v-74h347v74h-347z" />
<glyph unicode="&#x2ce;" horiz-adv-x="333" d="M252 -177l-94 146h-155l148 -146h101z" />
<glyph unicode="&#x2cf;" horiz-adv-x="333" d="M334 -31h-155l-94 -146h101z" />
<glyph unicode="&#x2d0;" horiz-adv-x="208" d="M13 0h187v45l-71 142h-46l-70 -142v-45zM200 529h-187v-46l71 -141h45l71 141v46z" />
<glyph unicode="&#x2d1;" horiz-adv-x="208" d="M200 431h-187v-45l71 -142h45l71 142v45z" />
<glyph unicode="&#x2d2;" horiz-adv-x="205" d="M54 256h1l-1 -49q44 1 75.5 32t31.5 75t-31.5 75t-75.5 31v-48q24 0 41 -17t17 -41t-17 -41t-41 -17z" />
<glyph unicode="&#x2d3;" horiz-adv-x="205" d="M160 256h1q-24 0 -41 17t-17 41t17 41t41 17v48q-44 0 -75.5 -31t-31.5 -75t31.5 -75t75.5 -32z" />
<glyph unicode="&#x2d4;" horiz-adv-x="292" d="M18 1h100v-1h64v1h100v63h-100v200h-64v-200h-100v-63z" />
<glyph unicode="&#x2d5;" horiz-adv-x="292" d="M282 263h-100v1h-64v-1h-100v-63h100v-200h64v200h100v63z" />
<glyph unicode="&#x2d6;" horiz-adv-x="292" d="M18 101h100v-101h64v101h100v63h-100v100h-64v-100h-100v-63z" />
<glyph unicode="&#x2d7;" horiz-adv-x="333" d="M23 270v-66h280v66h-280z" />
<glyph unicode="&#x2d8;" horiz-adv-x="259" d="M26 727q5 -36 34.5 -53.5t64.5 -17.5q93 0 110 71h63q-18 -146 -178 -146q-146 0 -158 146h64z" />
<glyph unicode="&#x2d9;" horiz-adv-x="259" d="M62 714h135v-117h-135v117z" />
<glyph unicode="&#x2da;" horiz-adv-x="259" d="M7 656q0 51 35.5 86.5t86.5 35.5t87 -35.5t36 -86.5t-36 -86.5t-87 -35.5t-86.5 35.5t-35.5 86.5zM66 656q0 -30 17 -50t46 -20t46.5 20t17.5 50t-17.5 50t-46.5 20t-46 -20t-17 -50z" />
<glyph unicode="&#x2db;" horiz-adv-x="259" d="M250 -149q-53 -68 -134 -68q-14 0 -28 2.5t-34 10.5t-32.5 27.5t-12.5 49.5q0 65 114 130h65q-83 -74 -83 -126q0 -15 11.5 -24.5t27.5 -9.5q35 0 58 30z" />
<glyph unicode="&#x2dc;" horiz-adv-x="259" d="M313 714q-6 -20 -9 -29.5t-12.5 -29t-20 -29t-29 -18t-41.5 -8.5q-29 0 -82 17q-47 17 -70 17q-19 0 -27.5 -10t-14.5 -32h-60q6 25 13.5 44t21 38t36.5 29.5t54 10.5q19 0 64 -17q42 -18 66 -18q22 0 32.5 10t9.5 25h69z" />
<glyph unicode="&#x2dd;" horiz-adv-x="259" d="M151 581h99l149 142h-157zM-55 581h98l149 142h-157z" />
<glyph unicode="&#x2de;" horiz-adv-x="414" d="M274 247q-23 7 -29 40.5t-1.5 70t-4.5 69.5q-37 -12 -115 -35.5t-115 -35.5v-93q32 5 86.5 20.5t65.5 18.5q0 -60 37 -97.5t92 -31.5q39 2 69 27.5t44 62.5q-7 7 -26.5 18.5t-27.5 20.5q-33 -66 -75 -55z" />
<glyph unicode="&#x2df;" horiz-adv-x="292" d="M234 618l-84 -84l-84 84l-45 -45l84 -84l-84 -84l45 -46l84 84l84 -84l45 46l-84 84l84 84z" />
<glyph unicode="&#x2e0;" horiz-adv-x="278" d="M103 356v-98h72v98l94 261h-77l-53 -162h-1l-52 162h-77z" />
<glyph unicode="&#x2e1;" horiz-adv-x="139" d="M104 356v360h-70v-360h70z" />
<glyph unicode="&#x2e2;" horiz-adv-x="278" d="M86 441h-70q0 -43 31 -68t92 -25q59 0 89.5 24t30.5 65q0 31 -21 50q-19 19 -62 30q-63 14 -72 19q-11 6 -11 17q0 24 42 24q28 0 39 -14q6 -6 8 -21h69q-7 88 -117 88q-50 0 -80 -26t-30 -63q0 -31 18 -48q21 -17 64 -29q62 -13 73 -21q9 -6 9 -17q0 -25 -44 -25 q-34 0 -48 14q-7 7 -10 26z" />
<glyph unicode="&#x2e3;" horiz-adv-x="278" d="M6 356h85l46 81l46 -81h87l-91 137l87 129h-83l-43 -77l-45 77h-85l87 -131z" />
<glyph unicode="&#x2e4;" horiz-adv-x="306" d="M229 702q-28 18 -71 18q-57 0 -92.5 -27.5t-35.5 -76.5q0 -32 16 -54q8 -12 36 -34l17 -13q15 -11 19 -26q3 -9 3 -133h66q-2 148 -8 161q-6 16 -33 37l-18 14q-8 6 -14 14q-10 13 -10 30q0 21 12 35t39 14t39.5 -17t12.5 -41h71q-3 69 -49 99z" />
<glyph unicode="&#x2e5;" horiz-adv-x="475" d="M313 0h132v720h-441v-132h309v-588z" />
<glyph unicode="&#x2e6;" horiz-adv-x="470" d="M309 0h131v720h-131v-147h-309v-132h309v-441z" />
<glyph unicode="&#x2e7;" horiz-adv-x="470" d="M309 0h131v720h-131v-294h-309v-132h309v-294z" />
<glyph unicode="&#x2e8;" horiz-adv-x="470" d="M440 720h-131v-442h-309v-132h309v-146h131v720z" />
<glyph unicode="&#x2e9;" horiz-adv-x="475" d="M445 720h-132v-588h-309v-132h441v720z" />
<glyph unicode="&#x2ea;" horiz-adv-x="296" d="M30 531v-531h265v51h-199v480h-66z" />
<glyph unicode="&#x2eb;" horiz-adv-x="295" d="M30 531v-531h66v240h199v51h-199v240h-66z" />
<glyph unicode="&#x2ec;" horiz-adv-x="333" d="M106 -177h125l115 146h-114l-63 -83l-64 83h-113z" />
<glyph unicode="&#x2ed;" horiz-adv-x="333" d="M-5 709v-74h347v74h-347zM-5 563v-74h347v74h-347z" />
<glyph unicode="&#x2ee;" horiz-adv-x="500" d="M307 494v-51q136 25 136 171v103h-139v-128h76q0 -23 -6 -39q-17 -41 -67 -56zM76 494v-51q137 26 137 171v103h-139v-128h76q2 -22 -7 -41q-18 -38 -67 -54z" />
<glyph unicode="&#x2ef;" horiz-adv-x="292" d="M119 -241h62l110 288h-68l-73 -206l-73 206h-68z" />
<glyph unicode="&#x2f0;" horiz-adv-x="292" d="M181 47h-62l-110 -288h68l73 206l73 -206h68z" />
<glyph unicode="&#x2f1;" horiz-adv-x="292" d="M6 -66v-62l287 -110v68l-205 73l205 73v67z" />
<glyph unicode="&#x2f2;" horiz-adv-x="292" d="M293 -128v62l-287 109v-67l205 -73l-205 -73v-68z" />
<glyph unicode="&#x2f3;" horiz-adv-x="333" d="M167 -134q-24 0 -41.5 16.5t-17.5 40.5t17.5 41t41.5 17q23 0 40 -17t17 -41t-17 -40.5t-40 -16.5zM167 30q-45 0 -76 -31t-31 -76q0 -44 31.5 -75t75.5 -31q43 0 74 31q32 32 32 75q0 44 -32 76q-31 31 -74 31z" />
<glyph unicode="&#x2f4;" horiz-adv-x="333" d="M252 301l-94 146h-155l148 -146h101z" />
<glyph unicode="&#x2f5;" horiz-adv-x="333" d="M221 305l-73 142h-142l119 -142h96zM362 447h-142l119 -142h96z" />
<glyph unicode="&#x2f6;" horiz-adv-x="333" d="M293 447l-73 -142h96l119 142h-142zM221 447h-142l-73 -142h96z" />
<glyph unicode="&#x2f7;" horiz-adv-x="333" d="M153 114q-27 9 -48 9q-61 0 -92 -46q-18 -28 -28 -77h63q5 20 17 31q13 11 30 11q18 0 32 -5l40 -14q5 -2 16 -4.5t14 -3.5q30 -8 43 -8q91 0 112 121h-65q-6 -21 -16 -31.5t-31 -10.5q-8 0 -41 11z" />
<glyph unicode="&#x2f8;" horiz-adv-x="333" d="M113 720v-146h148v146h-148zM113 354v-146h148v146h-148z" />
<glyph unicode="&#x2f9;" horiz-adv-x="333" d="M93 722v-298h66v247h81v51h-147z" />
<glyph unicode="&#x2fa;" horiz-adv-x="333" d="M240 424v298h-147v-51h81v-247h66z" />
<glyph unicode="&#x2fb;" horiz-adv-x="333" d="M93 298v-298h147v51h-81v247h-66z" />
<glyph unicode="&#x2fc;" horiz-adv-x="333" d="M240 0v298h-66v-247h-81v-51h147z" />
<glyph unicode="&#x2fd;" horiz-adv-x="333" d="M18 -1h298v147h-51v-81h-197v81h-50v-147z" />
<glyph unicode="&#x2fe;" horiz-adv-x="333" d="M18 -1h298v66h-51h-197v81h-50v-147z" />
<glyph unicode="&#x2ff;" horiz-adv-x="595" d="M9 112l288 -109v71h293v74h-293v74z" />
<glyph unicode="&#x300;" horiz-adv-x="0" d="M-147 723h-156l153 -142h99z" />
<glyph unicode="&#x301;" horiz-adv-x="0" d="M-202 581h99l154 142h-157z" />
<glyph unicode="&#x302;" horiz-adv-x="0" d="M-191 723h130l110 -142h-117l-62 81l-64 -81h-107z" />
<glyph unicode="&#x303;" horiz-adv-x="0" d="M57 714q-6 -20 -9 -29.5t-12.5 -29t-20 -29t-29 -18t-41.5 -8.5q-29 0 -82 17q-47 17 -70 17q-19 0 -27.5 -10t-14.5 -32h-60q6 25 13.5 44t21 38t36.5 29.5t54 10.5q19 0 64 -17q42 -18 66 -18q22 0 32.5 10t9.5 25h69z" />
<glyph unicode="&#x304;" horiz-adv-x="0" d="M60 691h-372v-75h372v75z" />
<glyph unicode="&#x305;" horiz-adv-x="0" d="M-479 709v-74h348v74h-348z" />
<glyph unicode="&#x306;" horiz-adv-x="0" d="M-230 727q5 -36 34.5 -53.5t64.5 -17.5q93 0 110 71h63q-18 -146 -178 -146q-146 0 -158 146h64z" />
<glyph unicode="&#x307;" horiz-adv-x="0" d="M-194 714h135v-117h-135v117z" />
<glyph unicode="&#x308;" horiz-adv-x="0" d="M-162 714h-134v-117h134v117zM44 714h-135v-117h135v117z" />
<glyph unicode="&#x309;" horiz-adv-x="0" d="M-318 739q14 -12 14 -30q0 -41 -63 -46l-4 -37h68l7 21q64 14 64 66q0 21 -11 39q-26 39 -88 39q-7 0 -46 -3l2 -39h25q23 -1 32 -10z" />
<glyph unicode="&#x30a;" horiz-adv-x="0" d="M-249 656q0 51 35.5 86.5t86.5 35.5t87 -35.5t36 -86.5t-36 -86.5t-87 -35.5t-86.5 35.5t-35.5 86.5zM-190 656q0 -30 17 -50t46 -20t46.5 20t17.5 50t-17.5 50t-46.5 20t-46 -20t-17 -50z" />
<glyph unicode="&#x30b;" horiz-adv-x="0" d="M-105 581h99l149 142h-157zM-311 581h98l149 142h-157z" />
<glyph unicode="&#x30c;" horiz-adv-x="0" d="M-61 581h-130l-110 142h111l64 -81l65 81h110z" />
<glyph unicode="&#x30d;" horiz-adv-x="0" d="M-268 712h-74v-152h74v152z" />
<glyph unicode="&#x30e;" horiz-adv-x="0" d="M-349 712h-74v-152h74v152zM-188 712h-74v-152h74v152z" />
<glyph unicode="&#x30f;" horiz-adv-x="0" d="M-305 607l-72 143h-143l120 -143h95zM-163 750h-142l119 -143h96z" />
<glyph unicode="&#x310;" horiz-adv-x="0" d="M-305 604q156 0 168 146h-66q-6 -44 -47 -61q-22 -9 -55 -9t-56 9q-40 16 -47 61h-66q13 -146 169 -146zM-370 876v-115h127v115h-127z" />
<glyph unicode="&#x311;" horiz-adv-x="0" d="M-305 750q-156 0 -169 -146h66q8 46 47 62q23 9 56 9t55 -9q41 -17 47 -62h66q-12 146 -168 146z" />
<glyph unicode="&#x312;" horiz-adv-x="0" d="M-375 555v-103h139v129h-76q-2 20 7 40q16 40 67 55v51q-137 -30 -137 -172z" />
<glyph unicode="&#x313;" horiz-adv-x="0" d="M-372 494v-51q137 27 137 171v103h-140v-128h77q2 -23 -8 -44q-18 -36 -66 -51z" />
<glyph unicode="&#x314;" horiz-adv-x="0" d="M-375 727v-103q0 -146 137 -172v51q-51 15 -67 55q-9 20 -7 40h76v129h-139z" />
<glyph unicode="&#x315;" horiz-adv-x="0" d="M-372 494v-51q137 27 137 171v103h-140v-128h77q2 -23 -8 -44q-18 -36 -66 -51z" />
<glyph unicode="&#x316;" horiz-adv-x="0" d="M-181 -177l-93 146h-155l148 -146h100z" />
<glyph unicode="&#x317;" horiz-adv-x="0" d="M-181 -31h-155l-94 -146h101z" />
<glyph unicode="&#x318;" horiz-adv-x="0" d="M-238 -177v-100h64v264h-64v-100h-199v-64h199z" />
<glyph unicode="&#x319;" horiz-adv-x="0" d="M-373 -277v100h199v64h-199v100h-64v-264h64z" />
<glyph unicode="&#x31a;" horiz-adv-x="0" d="M-173 690h-264v-64h200v-114h64v178z" />
<glyph unicode="&#x31b;" horiz-adv-x="0" d="M-432 470l-47 -27q4 -7 18 -10.5t41.5 -7.5t44.5 -8q57 -13 135 29l109 63l-75 131l-126 -73l42 -73q-43 -22 -77 -19q-33 4 -65 -5z" />
<glyph unicode="&#x31c;" horiz-adv-x="0" d="M-253 -134h1q-24 0 -41 16.5t-17 40.5t17 41t41 17v49q-44 0 -75 -31.5t-31 -75.5t31 -75t75 -32z" />
<glyph unicode="&#x31d;" horiz-adv-x="0" d="M-337 -212h-100v-64h264v64h-100v198h-64v-198z" />
<glyph unicode="&#x31e;" horiz-adv-x="0" d="M-437 -78h100v-198h64v198h100v64h-264v-64z" />
<glyph unicode="&#x31f;" horiz-adv-x="0" d="M-437 -176h100v-100h64v100h100v64h-100v100h-64v-100h-100v-64z" />
<glyph unicode="&#x320;" horiz-adv-x="0" d="M-479 -72v-74h348v74h-348z" />
<glyph unicode="&#x321;" horiz-adv-x="0" d="M-356 -192v-56q12 -1 24 -1q45 0 62 18.5t17 60.5v181h-70v-180q0 -14 -4.5 -19t-16.5 -5q-5 0 -12 1z" />
<glyph unicode="&#x322;" horiz-adv-x="0" d="M-253 -248v56q-8 -1 -13 -1q-21 0 -21 24v180h-69v-181q0 -42 16.5 -60.5t61.5 -18.5q12 0 25 1z" />
<glyph unicode="&#x323;" horiz-adv-x="0" d="M-369 -52v-116h127v116h-127z" />
<glyph unicode="&#x324;" horiz-adv-x="0" d="M-271 -52v-116h127v116h-127zM-466 -52v-116h127v116h-127z" />
<glyph unicode="&#x325;" horiz-adv-x="0" d="M-305 -134q-24 0 -41 16.5t-17 40.5t17 41t41 17t40.5 -17t16.5 -41t-16.5 -40.5t-40.5 -16.5zM-305 30q-44 0 -75 -31q-32 -32 -32 -76t31.5 -75t75.5 -31t75 31t31 75t-31 75.5t-75 31.5z" />
<glyph unicode="&#x326;" horiz-adv-x="0" d="M-372 -287v-51q137 25 137 171v103h-140v-128h77q2 -24 -8 -44q-18 -36 -66 -51z" />
<glyph unicode="&#x327;" horiz-adv-x="0" d="M-223 -147q42 -18 84 -18q40 0 40 34q0 32 -40 32q-23 0 -40 -7l-21 24l59 84h49l-39 -54h2q13 5 34 5q37 0 64.5 -18t27.5 -52q0 -100 -117 -100q-64 0 -124 22z" />
<glyph unicode="&#x328;" horiz-adv-x="0" d="M-6 -149q-53 -68 -134 -68q-14 0 -28 2.5t-34 10.5t-32.5 27.5t-12.5 49.5q0 65 114 130h65q-83 -74 -83 -126q0 -15 11.5 -24.5t27.5 -9.5q35 0 58 30z" />
<glyph unicode="&#x329;" horiz-adv-x="0" d="M-268 -69h-74v-152h74v152z" />
<glyph unicode="&#x32a;" horiz-adv-x="0" d="M-131 0h-348v-147h51v81h246v-81h51v147z" />
<glyph unicode="&#x32b;" horiz-adv-x="0" d="M-439 -177q75 0 118 36q6 5 16 15l15 -15q44 -36 119 -36t119 36q42 34 50 110h-66q-7 -45 -47 -61q-21 -10 -56 -10t-56 10q-35 13 -40 36q-4 19 -4 25h-68q0 -6 -4 -25q-4 -22 -41 -36q-21 -10 -55 -10q-35 0 -56 10q-40 16 -47 61h-66q12 -146 169 -146z" />
<glyph unicode="&#x32c;" horiz-adv-x="0" d="M-367 -177h125l114 146h-113l-64 -83l-64 83h-113z" />
<glyph unicode="&#x32d;" horiz-adv-x="0" d="M-128 -177l-114 146h-125l-115 -146h113l64 82l64 -82h113z" />
<glyph unicode="&#x32e;" horiz-adv-x="0" d="M-305 -177q156 0 168 146h-66q-6 -44 -47 -61q-21 -10 -55 -10q-35 0 -56 10q-40 16 -47 61h-66q13 -146 169 -146z" />
<glyph unicode="&#x32f;" horiz-adv-x="0" d="M-305 -31q-156 0 -169 -146h66q7 45 47 61q21 10 56 10q34 0 55 -10q41 -17 47 -61h66q-12 146 -168 146z" />
<glyph unicode="&#x330;" horiz-adv-x="0" d="M-320 -57q-27 9 -48 9q-61 0 -92 -46q-17 -24 -28 -76h63q4 19 17 30t30 11q18 0 32 -5l39 -13q20 -6 31 -9q30 -8 43 -8q91 0 111 121h-65q-9 -42 -46 -42q-8 0 -41 11z" />
<glyph unicode="&#x331;" horiz-adv-x="0" d="M-459 -72v-74h308v74h-308z" />
<glyph unicode="&#x332;" horiz-adv-x="0" d="M-479 -72v-74h348v74h-348z" />
<glyph unicode="&#x333;" horiz-adv-x="0" d="M-479 -72v-74h348v74h-348zM-479 -218v-74h348v74h-348z" />
<glyph unicode="&#x334;" horiz-adv-x="0" d="M-320 333q-24 10 -48 10q-60 0 -92 -47q-17 -25 -28 -76h63q5 20 17 31q13 11 30 11q16 0 32 -6l39 -13q20 -6 31 -9q27 -7 43 -7q92 0 111 121h-65q-9 -42 -46 -42q-7 0 -41 10z" />
<glyph unicode="&#x335;" horiz-adv-x="0" d="M-479 319v-74h348v74h-348z" />
<glyph unicode="&#x336;" horiz-adv-x="0" d="M-479 319v-74h348v74h-348z" />
<glyph unicode="&#x337;" horiz-adv-x="0" d="M-224 542l-278 -371h114l280 371h-116z" />
<glyph unicode="&#x338;" horiz-adv-x="0" d="M-100 731h114l-279 -747h-113z" />
<glyph unicode="&#x339;" horiz-adv-x="0" d="M-358 -134h1l-1 -50q44 1 75 32t31 75t-31 75.5t-75 31.5v-49q24 0 40.5 -17t16.5 -41t-16.5 -40.5t-40.5 -16.5z" />
<glyph unicode="&#x33a;" horiz-adv-x="0" d="M-479 -147h348v147h-51v-82h-246v82h-51v-147z" />
<glyph unicode="&#x33b;" horiz-adv-x="0" d="M-444 -10v-279h278v279h-278zM-231 -238h-147v177h147v-177z" />
<glyph unicode="&#x33c;" horiz-adv-x="0" d="M-171 -31q-75 0 -119 -36l-15 -15q-2 3 -7.5 8t-8.5 7q-43 36 -118 36q-77 0 -120 -97l64 12q21 10 56 10q34 0 55 -10q36 -14 41 -35q4 -20 4 -26h68q0 6 4 26q5 22 40 35q21 10 56 10t56 -10l64 -12q-45 97 -120 97z" />
<glyph unicode="&#x33d;" horiz-adv-x="0" d="M-221 813l-84 -84l-84 84l-45 -45l84 -84l-84 -84l45 -46l84 85l84 -85l45 46l-84 84l84 84z" />
<glyph unicode="&#x33e;" horiz-adv-x="0" d="M-354 689l17 -45q10 -35 10 -41q0 -38 -42 -47v-65q121 21 121 111q0 16 -7 43q-3 11 -9 31l-13 39q-6 18 -6 32q0 19 11 30q11 12 31 17v63q-50 -10 -76 -27q-47 -32 -47 -93q0 -24 10 -48z" />
<glyph unicode="&#x33f;" horiz-adv-x="0" d="M-479 709v-74h348v74h-348zM-479 563v-74h348v74h-348z" />
<glyph unicode="&#x340;" horiz-adv-x="0" d="M-181 604l-93 146h-155l148 -146h100z" />
<glyph unicode="&#x341;" horiz-adv-x="0" d="M-181 750h-155l-94 -146h101z" />
<glyph unicode="&#x342;" horiz-adv-x="0" d="M-305 750q-156 0 -169 -146h66q8 46 47 62q23 9 56 9t55 -9q41 -17 47 -62h66q-12 146 -168 146z" />
<glyph unicode="&#x343;" horiz-adv-x="0" d="M-372 494v-51q137 27 137 171v103h-140v-128h77q2 -23 -8 -44q-18 -36 -66 -51z" />
<glyph unicode="&#x344;" horiz-adv-x="0" d="M-482 711v-90h89v90h-89zM-218 711v-90h91v90h-91zM-315 755l-65 -135h69l115 135h-119z" />
<glyph unicode="&#x345;" horiz-adv-x="0" d="M-340 -51v-262h70v262h-70z" />
<glyph unicode="&#x346;" horiz-adv-x="0" d="M-131 781h-348v-147h51v81h246v-81h51v147z" />
<glyph unicode="&#x347;" horiz-adv-x="0" d="M-459 -72v-74h308v74h-308zM-459 -218v-74h308v74h-308z" />
<glyph unicode="&#x348;" horiz-adv-x="0" d="M-349 -69h-74v-152h74v152zM-188 -69h-74v-152h74v152z" />
<glyph unicode="&#x349;" horiz-adv-x="0" d="M-232 0h-145v-66h94v-81h51v147z" />
<glyph unicode="&#x34a;" horiz-adv-x="0" d="M-320 724q-22 9 -48 9q-61 0 -92 -46q-17 -24 -28 -76h63q4 18 17 31q11 10 30 10q18 0 32 -5l39 -13q20 -6 31 -9q27 -7 43 -7q92 0 111 120h-65q-9 -42 -46 -42q-8 0 -41 11zM-256 793q24 0 40.5 17t16.5 41t-16.5 41t-40.5 17t-41 -17t-17 -41t17 -41t41 -17z M-354 452q24 0 41 16.5t17 40.5t-17 41t-41 17t-41 -17t-17 -41t17 -40.5t41 -16.5z" />
<glyph unicode="&#x34b;" horiz-adv-x="0" d="M-320 651q-27 9 -48 9q-61 0 -92 -46q-17 -24 -28 -76h63q4 19 17 30t30 11q18 0 32 -5l39 -13q20 -6 31 -9q30 -8 43 -8q91 0 111 121h-65q-9 -42 -46 -42q-8 0 -41 11zM-320 797q-24 10 -48 10q-60 0 -92 -47q-17 -24 -28 -76h63q5 20 17 31q13 11 30 11q16 0 32 -6 l39 -13q20 -6 31 -9q27 -7 43 -7q92 0 111 121h-65q-9 -42 -46 -42q-11 0 -41 10z" />
<glyph unicode="&#x34c;" horiz-adv-x="0" d="M-369 678q-37 -1 -68 -31v-68q18 21 32 28.5t35 7.5q24 0 63 -19q40 -18 65 -18q21 0 43 11q15 8 26 18v70q-9 -11 -20 -20q-25 -17 -51 -17q-18 0 -59 19t-66 19zM-195 703q14 8 22 16v69q-30 -36 -71 -36q-20 0 -59 19q-41 19 -66 19q-32 0 -68 -31v-68q19 20 33 28.5 t34 8.5q22 0 63 -19q39 -19 65 -19q25 0 47 13z" />
<glyph unicode="&#x34d;" horiz-adv-x="0" d="M-742 -132l288 -109v71l298 3v-74l288 109l-288 110v-71l-298 -3v74z" />
<glyph unicode="&#x34e;" horiz-adv-x="0" d="M-305 -37l-110 -141h71v-98h74v98h74z" />
<glyph unicode="&#x34f;" horiz-adv-x="0" />
<glyph unicode="&#x350;" horiz-adv-x="0" d="M-161 458v62l-288 109v-67l206 -73l-206 -73v-68z" />
<glyph unicode="&#x351;" horiz-adv-x="0" d="M-253 647h1q-24 0 -41 17t-17 41t17 41t41 17v48q-44 0 -75 -31t-31 -75t31 -75.5t75 -32.5z" />
<glyph unicode="&#x352;" horiz-adv-x="0" d="M-305 877q-156 0 -169 -146h66q7 45 47 61q21 10 56 10q34 0 55 -10q41 -17 47 -61h66q-12 146 -168 146zM-370 721v-116h127v116h-127z" />
<glyph unicode="&#x353;" horiz-adv-x="0" d="M-221 32l-84 -84l-84 84l-45 -45l84 -84l-84 -84l45 -46l84 84l84 -84l45 46l-84 84l84 84z" />
<glyph unicode="&#x354;" horiz-adv-x="0" d="M-449 -66v-62l288 -110v68l-206 73l206 73v67z" />
<glyph unicode="&#x355;" horiz-adv-x="0" d="M-161 -128v62l-288 109v-67l206 -73l-206 -73v-68z" />
<glyph unicode="&#x356;" horiz-adv-x="0" d="M-299 -128v62l-287 109v-67l205 -73l-205 -73v-68zM-133 47h-62l-110 -288h68l73 206l73 -206h68z" />
<glyph unicode="&#x357;" horiz-adv-x="0" d="M-358 647h1l-1 -50q44 1 75 32.5t31 75.5t-31 75t-75 31v-48q24 0 40.5 -17t16.5 -41t-16.5 -41t-40.5 -17z" />
<glyph unicode="&#x358;" horiz-adv-x="0" d="M-222 729v-116h127v116h-127z" />
<glyph unicode="&#x359;" horiz-adv-x="0" d="M-442 -98l-23 -72l104 -33l-69 -97l63 -44l70 92l68 -92l62 44l-68 97l104 33l-23 72l-102 -33v118h-84v-118z" />
<glyph unicode="&#x35a;" horiz-adv-x="0" d="M-386 30q-44 0 -75 -31.5t-31 -75.5t31 -75t75 -31t75 31l6 6q1 -2 5 -6q31 -31 75 -31t75.5 31t31.5 75q0 45 -31 76t-76 31q-44 0 -75 -31q-4 -4 -5 -6l-6 6q-31 31 -75 31zM-386 -134q-24 0 -41 16.5t-17 40.5t17 41t41 17t41 -17q12 -10 15 -25q-1 -5 -1 -16 q0 -10 1 -15q-5 -15 -15 -25q-17 -17 -41 -17zM-225 -134q-24 0 -41 17q-9 9 -14 24q1 5 1 16q0 12 -1 17q5 15 14 24q17 17 41 17t41 -17t17 -41t-17 -40.5t-41 -16.5z" />
<glyph unicode="&#x35b;" horiz-adv-x="0" d="M-253 729l-66 -114l40 -40l104 177l-41 40l-159 -3l75 99l-41 40l-113 -162l38 -38z" />
<glyph unicode="&#x35c;" horiz-adv-x="0" d="M-587 -213q146 -64 289 -64q126 0 246 49q101 39 214 121v83l-55 -31q-111 -61 -237 -85q-79 -16 -177 -16q-147 0 -268 41q-68 23 -196 92l-1 -80l48 -35q55 -40 137 -75z" />
<glyph unicode="&#x35d;" horiz-adv-x="0" d="M-587 592q147 -63 289 -63q126 0 246 49q101 39 214 121v82l-55 -30q-115 -63 -237 -85q-79 -16 -177 -16q-149 0 -268 40q-71 25 -196 93l-1 -80l48 -35q58 -42 137 -76z" />
<glyph unicode="&#x35e;" horiz-adv-x="0" d="M-826 709v-74h1042v74h-1042z" />
<glyph unicode="&#x35f;" horiz-adv-x="0" d="M-767 -72v-74h924v74h-924z" />
<glyph unicode="&#x360;" horiz-adv-x="0" d="M-351 730q-70 14 -142 14q-186 0 -278 -70q-53 -39 -84 -114h190q16 30 50 46q33 16 91 16q57 0 95 -8l119 -20q32 -5 92 -13q88 -11 129 -11q152 0 229 52q80 52 105 129h-195q-13 -24 -42 -44q-28 -19 -98 -19q-24 0 -43 3q-39 6 -80 13z" />
<glyph unicode="&#x361;" horiz-adv-x="0" d="M-23 719q-146 64 -290 64q-124 0 -246 -49q-106 -43 -213 -121v-83l55 31q111 61 237 85q79 16 176 16q148 0 269 -41q68 -23 196 -92l1 80l-48 35q-55 40 -137 75z" />
<glyph unicode="&#x362;" horiz-adv-x="0" d="M393 112l-288 110v-71h-1123v-74h1123v-74z" />
<glyph unicode="&#x363;" horiz-adv-x="0" d="M-265 618v-26q-1 -32 -18.5 -46.5t-42.5 -14.5q-34 0 -34 33q0 20 16 30q9 5 31 10l16 2q18 3 32 12zM-307 650l-24 -3q-39 -4 -61 -17q-38 -23 -38 -71q0 -37 23 -58t60 -21q29 0 51 13q20 11 33 27q1 -15 7 -32h75v11q-13 6 -14 26v31v122q0 48 -34 66q-36 17 -78 17 q-66 0 -95 -35q-18 -24 -19 -58h67q1 15 10 25q10 12 34 12q45 0 45 -29q0 -12 -15 -20q-8 -3 -27 -6z" />
<glyph unicode="&#x364;" horiz-adv-x="0" d="M-359 648q6 56 54 56q22 0 37 -14.5t17 -41.5h-108zM-202 710q-33 52 -103 52q-57 0 -91.5 -37.5t-34.5 -105.5q0 -70 36.5 -105t91.5 -35q62 0 96 40q22 24 24 47h-70q-5 -9 -14 -18q-13 -12 -34 -12q-22 0 -35 10q-24 16 -25 56h182q0 29 -2 53q-4 31 -21 55z" />
<glyph unicode="&#x365;" horiz-adv-x="0" d="M-270 786v65h-70v-65h70zM-340 754v-266h70v266h-70z" />
<glyph unicode="&#x366;" horiz-adv-x="0" d="M-242 621q0 -83 -63 -83q-30 0 -47 21.5t-17 61.5t17 61.5t47 21.5q63 0 63 -83zM-305 479q66 0 101 40t35 102q0 61 -35 101.5t-101 40.5t-101 -40.5t-35 -101.5q0 -62 35 -102t101 -40z" />
<glyph unicode="&#x367;" horiz-adv-x="0" d="M-354 754h-71v-160q0 -45 11 -69q19 -43 80 -43q40 0 67 26q3 3 6.5 7.5t5.5 7.5l2 3v-38h68v266h-71v-144q0 -27 -7 -42q-13 -28 -49 -28q-26 0 -37 20q-5 12 -5 34v160z" />
<glyph unicode="&#x368;" horiz-adv-x="0" d="M-254 659h71q-9 102 -119 102q-59 0 -92.5 -38t-33.5 -107q0 -63 31.5 -100t93.5 -37q64 0 97 46q20 29 23 60h-71q-5 -47 -47 -47q-35 0 -47 33q-7 15 -7 47q0 31 7 49q14 35 48 35q26 0 36 -16q9 -14 10 -27z" />
<glyph unicode="&#x369;" horiz-adv-x="0" d="M-246 721q-26 40 -73 40q-53 0 -84.5 -39t-31.5 -107q0 -59 31.5 -97t79.5 -38q53 0 81 45v-37h68v360h-71v-127zM-244 618q0 -36 -15.5 -57.5t-44.5 -21.5q-59 0 -59 81q0 35 15 57.5t44 22.5q21 0 35 -13q25 -19 25 -69z" />
<glyph unicode="&#x36a;" horiz-adv-x="0" d="M-201 727q-25 34 -78 34q-50 0 -76 -41v127h-70v-359h70v144q0 72 56 72q26 0 36 -19q7 -13 7 -35v-162h71v157q0 38 -2.5 53t-13.5 29z" />
<glyph unicode="&#x36b;" horiz-adv-x="0" d="M-132 729q-25 31 -65 31q-28 0 -48 -10q-20 -11 -34 -35q-7 17 -23 32q-19 13 -50 13q-32 0 -52 -15q-12 -9 -24 -30v39h-68v-266h71v160q0 21 5 33q11 20 40 20q26 0 35 -20q5 -12 5 -34v-159h69v159q0 18 6 30q10 24 40 24q25 0 34 -18q5 -12 5 -25v-170h71l1 168 q0 26 -3 39q-4 20 -15 34z" />
<glyph unicode="&#x36c;" horiz-adv-x="0" d="M-228 760q-5 1 -9 1q-32 0 -51 -16q-12 -10 -28 -37v46h-66v-266h70v128q0 29 8 47q14 27 56 27q12 0 20 -1v71z" />
<glyph unicode="&#x36d;" horiz-adv-x="0" d="M-379 703h37v-164q0 -24 11 -37q18 -20 68 -18l33 2v52h-14q-21 0 -25 3.5t-4 20.5v141h43v49h-43v74h-69v-74h-37v-49z" />
<glyph unicode="&#x36e;" horiz-adv-x="0" d="M-247 754l-57 -196l-55 196h-79l96 -266h73l97 266h-75z" />
<glyph unicode="&#x36f;" horiz-adv-x="0" d="M-437 488h85l46 80l46 -80h87l-91 137l87 129h-82l-44 -77l-44 77h-86l87 -131z" />
<glyph unicode="&#x374;" horiz-adv-x="278" d="M155 561l94 171h-153l-43 -171h102z" />
<glyph unicode="&#x375;" horiz-adv-x="278" d="M115 -32l-89 -171h153l38 171h-102z" />
<glyph unicode="&#x37a;" horiz-adv-x="139" d="M34 -51v-262h70v262h-70z" />
<glyph unicode="&#x37b;" horiz-adv-x="556" d="M35 341h142q5 32 20 54q24 32 73 32q71 0 96 -70q14 -39 14 -98q0 -58 -14 -94q-25 -67 -94 -67q-45 0 -66.5 24.5t-27.5 70.5h-142q4 -63 46 -120q65 -92 194 -92q128 0 188 76q61 76 61 198q0 138 -66.5 214t-184.5 76q-100 0 -164 -45t-75 -159z" />
<glyph unicode="&#x37c;" horiz-adv-x="556" d="M383 341h142q-11 114 -75 159t-164 45q-118 0 -184.5 -76t-66.5 -214q0 -121 60 -198q61 -76 189 -76q129 0 194 92q42 57 46 120h-142q-6 -46 -27.5 -70.5t-66.5 -24.5q-69 0 -94 67q-14 36 -14 94q0 59 14 98q25 70 96 70q49 0 73 -32q15 -22 20 -54zM237 329v-122h104 v122h-104z" />
<glyph unicode="&#x37d;" horiz-adv-x="556" d="M35 341h142q5 32 20 54q24 32 73 32q71 0 96 -70q14 -39 14 -98q0 -58 -14 -94q-25 -67 -94 -67q-45 0 -66.5 24.5t-27.5 70.5h-142q4 -63 46 -120q65 -92 194 -92q128 0 188 76q61 76 61 198q0 138 -66.5 214t-184.5 76q-100 0 -164 -45t-75 -159zM323 207v122h-104 v-122h104z" />
<glyph unicode="&#x37e;" horiz-adv-x="278" d="M218 354v154h-157v-154h157zM61 154v-154h72q2 -33 -19 -60.5t-52 -33.5v-72q67 10 111.5 55t44.5 111v154h-157z" />
<glyph unicode="&#x384;" horiz-adv-x="241" d="M93 731l-30 -142h118l74 142h-162z" />
<glyph unicode="&#x385;" horiz-adv-x="512" d="M201 731l-26 -142h111l67 142h-152zM359 715v-117h125v117h-125zM28 715v-117h125v117h-125z" />
<glyph unicode="&#x386;" horiz-adv-x="722" d="M301 714l-271 -714h159l56 159h267l54 -159h163l-267 714h-161zM471 276h-185l93 262h2zM44 714l-30 -142h118l74 142h-162z" />
<glyph unicode="&#x387;" horiz-adv-x="278" d="M218 354v154h-157v-154h157z" />
<glyph unicode="&#x388;" horiz-adv-x="844" d="M44 714l-30 -142h118l74 142h-162zM265 714v-714h542v132h-385v175h346v122h-346v153h377v132h-534z" />
<glyph unicode="&#x389;" horiz-adv-x="937" d="M44 714l-30 -142h118l74 142h-162zM265 714v-714h157v308h289v-308h157v714h-157v-274h-289v274h-157z" />
<glyph unicode="&#x38a;" horiz-adv-x="491" d="M44 714l-30 -142h118l74 142h-162zM265 714v-714h157v714h-157z" />
<glyph unicode="&#x38c;" horiz-adv-x="928" d="M188 354q0 -159 95 -265t256 -106t256 106t95 265q0 163 -95 270t-256 107t-256 -107t-95 -270zM345 354q0 66 18.5 119.5t63.5 89.5t112 36t112 -36t63.5 -89.5t18.5 -119.5q0 -100 -48 -169.5t-146 -69.5t-146 69.5t-48 169.5zM44 714l-30 -142h118l74 142h-162z" />
<glyph unicode="&#x38e;" horiz-adv-x="924" d="M511 278v-278h157v274l265 440h-175l-166 -282l-167 282h-177zM44 714l-30 -142h118l74 142h-162z" />
<glyph unicode="&#x38f;" horiz-adv-x="929" d="M542 599q89 0 140.5 -56t51.5 -159q0 -91 -35 -152.5t-112 -113.5v-118h305v128h-141v5q62 39 101 106t39 154q0 152 -97 245t-252 93q-151 0 -250 -96.5t-99 -241.5q0 -90 36 -156t98 -104v-5h-137v-128h306v118q-75 54 -110.5 115.5t-35.5 150.5q0 103 52 159t140 56z M44 714l-30 -142h118l74 142h-162z" />
<glyph unicode="&#x390;" horiz-adv-x="280" d="M203 136v381h-142v-418q0 -113 115 -113q49 0 92 21v91q-20 -5 -32 -5q-33 0 -33 43zM100 731l-26 -142h111l67 142h-152zM258 715v-117h125v117h-125zM-73 715v-117h125v117h-125z" />
<glyph unicode="&#x391;" horiz-adv-x="685" d="M264 714l-271 -714h159l56 159h267l54 -159h163l-267 714h-161zM434 276h-185l93 262h2z" />
<glyph unicode="&#x392;" horiz-adv-x="704" d="M69 714v-714h346q106 0 179 52.5t73 154.5q0 68 -33 115.5t-98 65.5q97 47 97 149q0 177 -228 177h-336zM385 425h-159v167h147q108 0 108 -82q0 -85 -96 -85zM394 122h-168v196h171q113 0 113 -102q0 -94 -116 -94z" />
<glyph unicode="&#x393;" horiz-adv-x="571" d="M69 714v-714h157v582h332v132h-489z" />
<glyph unicode="&#x394;" horiz-adv-x="681" d="M262 714l-269 -714h695l-265 714h-161zM198 132l142 406h2l138 -406h-282z" />
<glyph unicode="&#x395;" horiz-adv-x="648" d="M69 714v-714h542v132h-385v175h346v122h-346v153h377v132h-534z" />
<glyph unicode="&#x396;" horiz-adv-x="648" d="M23 124v-124h602v132h-393l383 458v124h-562v-132h353z" />
<glyph unicode="&#x397;" horiz-adv-x="741" d="M69 714v-714h157v308h289v-308h157v714h-157v-274h-289v274h-157z" />
<glyph unicode="&#x398;" horiz-adv-x="778" d="M38 354q0 -159 95 -265t256 -106t256 106t95 265q0 163 -95 270t-256 107t-256 -107t-95 -270zM195 354q0 66 18.5 119.5t63.5 89.5t112 36t112 -36t63.5 -89.5t18.5 -119.5q0 -100 -48 -169.5t-146 -69.5t-146 69.5t-48 169.5zM275 426v-122h231v122h-231z" />
<glyph unicode="&#x399;" horiz-adv-x="295" d="M69 714v-714h157v714h-157z" />
<glyph unicode="&#x39a;" horiz-adv-x="722" d="M69 714v-714h157v230l90 91l215 -321h197l-306 432l279 282h-196l-279 -296v296h-157z" />
<glyph unicode="&#x39b;" horiz-adv-x="665" d="M254 714l-261 -714h159l180 538h2l175 -538h163l-257 714h-161z" />
<glyph unicode="&#x39c;" horiz-adv-x="907" d="M69 714v-714h147v501h2l175 -501h121l175 506h2v-506h147v714h-221l-158 -491h-2l-167 491h-221z" />
<glyph unicode="&#x39d;" horiz-adv-x="741" d="M69 714v-714h147v478h2l297 -478h157v714h-147v-479h-2l-298 479h-156z" />
<glyph unicode="&#x39e;" horiz-adv-x="623" d="M50 714v-132h523v132h-523zM99 438v-132h425v132h-425zM41 132v-132h541v132h-541z" />
<glyph unicode="&#x39f;" horiz-adv-x="778" d="M38 354q0 -159 95 -265t256 -106t256 106t95 265q0 163 -95 270t-256 107t-256 -107t-95 -270zM195 354q0 66 18.5 119.5t63.5 89.5t112 36t112 -36t63.5 -89.5t18.5 -119.5q0 -100 -48 -169.5t-146 -69.5t-146 69.5t-48 169.5z" />
<glyph unicode="&#x3a0;" horiz-adv-x="753" d="M69 714v-714h157v582h301v-582h157v714h-615z" />
<glyph unicode="&#x3a1;" horiz-adv-x="667" d="M69 714v-714h157v256h165q125 0 186 66t61 163t-61 163t-186 66h-322zM226 378v214h122q64 0 101 -22.5t37 -84.5t-37 -84.5t-101 -22.5h-122z" />
<glyph unicode="&#x3a3;" horiz-adv-x="648" d="M37 0h578v132h-381l222 240v2l-204 209h347v131h-550v-130l213 -214l-225 -240v-130z" />
<glyph unicode="&#x3a4;" d="M227 582v-582h157v582h214v132h-585v-132h214z" />
<glyph unicode="&#x3a5;" horiz-adv-x="667" d="M254 278v-278h157v274l265 440h-175l-166 -282l-167 282h-177z" />
<glyph unicode="&#x3a6;" horiz-adv-x="815" d="M487 749h-157v-70q-136 -6 -214.5 -84.5t-78.5 -223.5q0 -143 77 -216.5t216 -79.5v-75h157v75q135 6 213.5 83.5t78.5 216.5q0 143 -77.5 220.5t-214.5 83.5v70zM487 192v371q68 -2 101.5 -47t33.5 -141q0 -95 -33 -138t-102 -45zM330 563v-372q-70 2 -103.5 43 t-33.5 137q0 188 137 192z" />
<glyph unicode="&#x3a7;" horiz-adv-x="667" d="M244 374l-250 -374h177l159 247l156 -247h187l-249 373l229 341h-172l-145 -228l-140 228h-182z" />
<glyph unicode="&#x3a8;" horiz-adv-x="841" d="M342 714v-443q-72 1 -102.5 39.5t-30.5 128.5v275h-158v-277q0 -137 69 -206.5t222 -76.5v-154h157v154q148 10 219.5 80.5t71.5 202.5v277h-158v-275q0 -90 -30.5 -128.5t-102.5 -38.5v442h-157z" />
<glyph unicode="&#x3a9;" horiz-adv-x="773" d="M57 107v-107h280v200q-74 17 -111 67.5t-37 127.5q0 89 55.5 150.5t143.5 61.5q87 0 141.5 -60.5t54.5 -148.5q0 -77 -38 -129t-111 -69v-200h281v107h-181v37q89 23 136.5 96.5t47.5 168.5q0 138 -96.5 225t-235.5 87t-236 -88t-97 -226q0 -94 48 -165.5t135 -97.5v-37 h-180z" />
<glyph unicode="&#x3aa;" horiz-adv-x="296" d="M182 905v-117h135v117h-135zM-24 905v-117h135v117h-135zM69 714v-714h157v714h-157z" />
<glyph unicode="&#x3ab;" horiz-adv-x="657" d="M372 905v-117h135v117h-135zM166 905v-117h135v117h-135zM254 278v-278h157v274l265 440h-175l-166 -282l-167 282h-177z" />
<glyph unicode="&#x3ac;" horiz-adv-x="618" d="M543 517h-142v-62h-2q-49 76 -138 76q-76 0 -129.5 -41t-76.5 -100.5t-23 -128.5q0 -70 24 -131.5t76 -102.5t121 -41q106 0 150 80h2q11 -40 43 -60t72 -20q46 0 86 21v91q-18 -5 -31 -5q-32 0 -32 43v381zM406 259q0 -68 -27.5 -117t-85.5 -49t-88.5 50t-30.5 114 q0 68 28.5 117.5t93.5 49.5q53 0 81.5 -49t28.5 -116zM274 731l-30 -142h118l74 142h-162z" />
<glyph unicode="&#x3ad;" horiz-adv-x="515" d="M235 731l-30 -142h118l74 142h-162zM348 364h138q-24 167 -221 167q-95 0 -157.5 -43t-62.5 -116q0 -79 75 -106v-4q-94 -30 -94 -116q0 -75 60 -117.5t165 -42.5q113 0 176 45t78 145h-137q-6 -48 -32 -67t-74 -19q-93 0 -93 70q0 64 73 64h68v90h-65q-31 0 -47 13.5 t-16 36.5q0 63 80 63q76 0 86 -63z" />
<glyph unicode="&#x3ae;" horiz-adv-x="593" d="M54 517v-517h142v271q0 78 26 113t84 35q50 0 70.5 -30.5t20.5 -96.5v-473h142v499q0 105 -41 159t-148 54q-106 0 -158 -86h-3v72h-135zM276 731l-30 -142h118l74 142h-162z" />
<glyph unicode="&#x3af;" horiz-adv-x="273" d="M196 136v381h-142v-418q0 -113 115 -113q49 0 92 21v91q-20 -5 -32 -5q-33 0 -33 43zM93 731l-30 -142h118l74 142h-162z" />
<glyph unicode="&#x3b0;" horiz-adv-x="568" d="M199 517h-142v-339q0 -192 226 -192q121 0 186.5 78t65.5 211q0 138 -59 242h-147q32 -54 48 -121t16 -123q0 -93 -26.5 -136.5t-83.5 -43.5q-84 0 -84 100v324zM225 731l-26 -142h111l67 142h-152zM383 715v-117h125v117h-125zM52 715v-117h125v117h-125z" />
<glyph unicode="&#x3b1;" horiz-adv-x="618" d="M543 517h-142v-62h-2q-49 76 -138 76q-76 0 -129.5 -41t-76.5 -100.5t-23 -128.5q0 -70 24 -131.5t76 -102.5t121 -41q106 0 150 80h2q11 -40 43 -60t72 -20q46 0 86 21v91q-18 -5 -31 -5q-32 0 -32 43v381zM406 259q0 -68 -27.5 -117t-85.5 -49t-88.5 50t-30.5 114 q0 68 28.5 117.5t93.5 49.5q53 0 81.5 -49t28.5 -116z" />
<glyph unicode="&#x3b2;" horiz-adv-x="588" d="M54 490v-672h142v244h1q49 -76 153 -76q91 0 149 59.5t58 175.5q0 73 -38.5 129t-111.5 67v3q47 8 73.5 43.5t26.5 84.5q0 76 -54.5 125t-168.5 49q-115 0 -172.5 -56.5t-57.5 -175.5zM264 351h54q50 0 73.5 -31t23.5 -104q0 -63 -32 -93.5t-78 -30.5q-55 0 -85.5 45.5 t-30.5 136.5v204q0 73 22.5 104t72.5 31q82 0 82 -80q0 -92 -76 -92h-26v-90z" />
<glyph unicode="&#x3b3;" horiz-adv-x="508" d="M498 517h-145q-27 -235 -91 -358h-5q-9 82 -39.5 193t-61.5 165h-151q57 -103 108 -275.5t51 -282.5v-141h143l-1 179q151 241 192 520z" />
<glyph unicode="&#x3b4;" horiz-adv-x="592" d="M36 249q0 -114 71 -188.5t196 -74.5q63 0 113 23t80 61t45 83.5t15 93.5q0 40 -13 76.5t-30 62.5t-48 53.5t-53.5 43.5t-59.5 39q-7 4 -19.5 11.5t-19 12t-16.5 10.5t-15 10.5t-10 9.5t-7.5 9.5t-2.5 9.5q0 23 53 23q99 0 176 -35v106q-70 33 -176 33q-199 0 -199 -118 q0 -69 97 -125q-87 -26 -132 -85t-45 -145zM179 249q0 150 118 177q63 -37 90 -80t27 -99q0 -74 -29.5 -114t-81.5 -40q-57 0 -90.5 38.5t-33.5 117.5z" />
<glyph unicode="&#x3b5;" horiz-adv-x="515" d="M348 364h138q-24 167 -221 167q-95 0 -157.5 -43t-62.5 -116q0 -79 75 -106v-4q-94 -30 -94 -116q0 -75 60 -117.5t165 -42.5q113 0 176 45t78 145h-137q-6 -48 -32 -67t-74 -19q-93 0 -93 70q0 64 73 64h68v90h-65q-31 0 -47 13.5t-16 36.5q0 63 80 63q76 0 86 -63z" />
<glyph unicode="&#x3b6;" horiz-adv-x="474" d="M345 -66q0 -40 -12 -88h124q15 53 15 114q0 69 -33 112t-107 43h-24q-66 0 -97 36t-31 111q0 123 69 210t225 149v93h-393v-108h198q-241 -103 -241 -344q0 -119 61 -190.5t170 -71.5h32q44 0 44 -66z" />
<glyph unicode="&#x3b7;" horiz-adv-x="593" d="M54 517v-517h142v271q0 78 26 113t84 35q50 0 70.5 -30.5t20.5 -96.5v-473h142v499q0 105 -41 159t-148 54q-106 0 -158 -86h-3v72h-135z" />
<glyph unicode="&#x3b8;" horiz-adv-x="575" d="M287 722q-251 0 -251 -367q0 -369 251 -369q252 0 252 369q0 178 -58 272.5t-194 94.5zM392 416h-210q0 105 23.5 152t81.5 47q56 0 80.5 -47.5t24.5 -151.5zM287 94q-58 0 -82 46.5t-24 168.5h212q0 -123 -23 -169t-83 -46z" />
<glyph unicode="&#x3b9;" horiz-adv-x="273" d="M196 136v381h-142v-418q0 -113 115 -113q49 0 92 21v91q-20 -5 -32 -5q-33 0 -33 43z" />
<glyph unicode="&#x3ba;" horiz-adv-x="567" d="M54 517v-517h142v156l58 56l145 -212h172l-221 310l198 207h-168l-184 -207v207h-142z" />
<glyph unicode="&#x3bb;" horiz-adv-x="551" d="M519 93q-18 0 -28 25l-177 466q-28 77 -64 107.5t-103 30.5q-53 0 -91 -11v-106q24 7 49 7q26 0 41.5 -7t24.5 -29l41 -98l-207 -478h152l117 329h3l85 -270q23 -73 109 -73q42 0 80 21v91q-15 -5 -32 -5z" />
<glyph unicode="&#x3bc;" horiz-adv-x="593" d="M539 0v517h-142v-271q0 -78 -26 -113t-84 -35q-50 0 -70.5 30.5t-20.5 96.5v292h-142v-699h142v192q30 -24 75 -24q74 0 130 86h3v-72h135z" />
<glyph unicode="&#x3bd;" horiz-adv-x="530" d="M515 517h-141q-24 -202 -104 -364h-3l-113 364h-149l177 -517h158q135 260 175 517z" />
<glyph unicode="&#x3be;" horiz-adv-x="465" d="M326 115h-27q-121 0 -121 105q0 57 33.5 80t114.5 23h91v102h-88q-71 0 -100.5 22t-29.5 73q0 45 27.5 69.5t78.5 24.5q60 0 145 -31v106q-77 33 -161 33q-102 0 -167 -54t-65 -148q0 -51 30 -90t93 -48v-2q-73 -17 -108.5 -64t-35.5 -116q0 -90 57.5 -145t164.5 -55h28 q31 0 41.5 -15.5t10.5 -50.5q0 -40 -12 -88h124q15 53 15 114q0 155 -139 155z" />
<glyph unicode="&#x3bf;" d="M38 258q0 -123 73 -197.5t194 -74.5q122 0 195 74.5t73 197.5q0 124 -73 198.5t-195 74.5q-121 0 -194 -74.5t-73 -198.5zM180 258q0 71 29.5 118.5t95.5 47.5q67 0 96.5 -47.5t29.5 -118.5t-29.5 -118t-96.5 -47q-66 0 -95.5 47t-29.5 118z" />
<glyph unicode="&#x3c0;" horiz-adv-x="666" d="M532 -7q61 0 104 20v106q-21 -10 -44 -10q-25 0 -31.5 15t-6.5 44v242h79v107h-603v-107h70v-410h135v410h184v-287q0 -130 113 -130z" />
<glyph unicode="&#x3c1;" horiz-adv-x="597" d="M54 257v-439h142v245h2q23 -38 62.5 -57.5t79.5 -19.5q58 0 103.5 24t71 64t38.5 86.5t13 96.5q0 114 -67 194t-194 80q-121 0 -186 -71t-65 -203zM424 263q0 -74 -28.5 -122t-87.5 -48q-56 0 -86.5 47t-30.5 119q0 77 32 121t82 44q57 0 88 -45t31 -116z" />
<glyph unicode="&#x3c2;" horiz-adv-x="547" d="M341 115h-38q-59 0 -92 36.5t-33 110.5q0 65 29 113.5t92 48.5q71 0 93 -66h138q-20 85 -82 129t-149 44q-66 0 -117.5 -23.5t-82.5 -62.5t-47 -85.5t-16 -97.5q0 -127 64 -194.5t167 -67.5h43q44 0 44 -66q0 -40 -12 -88h124q15 53 15 114q0 69 -33 112t-107 43z" />
<glyph unicode="&#x3c3;" horiz-adv-x="598" d="M36 258q0 -118 69 -195t190 -77q66 0 117 24.5t80 65t43.5 87t14.5 95.5q0 46 -23.5 90t-60.5 62h129v107h-278q-131 0 -206 -71.5t-75 -187.5zM178 258q0 152 144 152h32q54 -39 54 -152q0 -78 -29.5 -121.5t-83.5 -43.5t-85.5 41.5t-31.5 123.5z" />
<glyph unicode="&#x3c4;" horiz-adv-x="499" d="M311 138v272h184v107h-490v-107h164v-311q0 -59 31.5 -86t95.5 -27q58 0 102 22v91q-20 -5 -40 -5q-47 0 -47 44z" />
<glyph unicode="&#x3c5;" horiz-adv-x="572" d="M196 517h-142v-339q0 -192 226 -192q121 0 186.5 78t65.5 211q0 138 -59 242h-147q32 -54 48 -121t16 -123q0 -93 -26.5 -136.5t-83.5 -43.5q-84 0 -84 100v324z" />
<glyph unicode="&#x3c6;" horiz-adv-x="754" d="M449 531v129h-142v-129q-123 -4 -197 -77t-74 -193q0 -130 75 -201.5t196 -73.5v-168h142v168q122 2 196.5 75.5t74.5 201.5q0 119 -73.5 191.5t-197.5 76.5zM449 95v331q65 0 97 -42.5t32 -120.5q0 -168 -129 -168zM307 424v-331q-129 0 -129 168q0 77 33 120t96 43z " />
<glyph unicode="&#x3c7;" horiz-adv-x="537" d="M537 -181l-196 379l176 319h-158l-89 -200l-91 200h-162l178 -324l-195 -374h160l105 250l110 -250h162z" />
<glyph unicode="&#x3c8;" horiz-adv-x="726" d="M638 517h-146q54 -108 54 -244q0 -83 -29.5 -131t-85.5 -50v567h-142v-567q-93 6 -93 157v268h-142v-275q0 -250 235 -257v-167h142v168q117 2 187 81t70 208q0 142 -50 242z" />
<glyph unicode="&#x3c9;" horiz-adv-x="760" d="M307 372v-172q0 -56 -11.5 -82t-40.5 -26q-77 0 -77 151q0 149 94 274h-149q-87 -123 -87 -280q0 -52 10 -95t32.5 -79t63 -56.5t95.5 -20.5q54 0 84.5 20t54.5 68q37 -88 140 -88t155.5 72t52.5 180q0 165 -87 279h-149q94 -123 94 -273q0 -152 -79 -152q-29 0 -41 26 t-12 81v173h-143z" />
<glyph unicode="&#x3ca;" horiz-adv-x="280" d="M203 136v381h-142v-418q0 -113 115 -113q49 0 92 21v91q-20 -5 -32 -5q-33 0 -33 43zM173 715v-117h135v117h-135zM-33 715v-117h135v117h-135z" />
<glyph unicode="&#x3cb;" horiz-adv-x="575" d="M199 517h-142v-339q0 -192 226 -192q121 0 186.5 78t65.5 211q0 138 -59 242h-147q32 -54 48 -121t16 -123q0 -93 -26.5 -136.5t-83.5 -43.5q-84 0 -84 100v324zM310 715v-117h135v117h-135zM104 715v-117h135v117h-135z" />
<glyph unicode="&#x3cc;" d="M274 731l-30 -142h118l74 142h-162zM38 258q0 -123 73 -197.5t194 -74.5q122 0 195 74.5t73 197.5q0 124 -73 198.5t-195 74.5q-121 0 -194 -74.5t-73 -198.5zM180 258q0 71 29.5 118.5t95.5 47.5q67 0 96.5 -47.5t29.5 -118.5t-29.5 -118t-96.5 -47q-66 0 -95.5 47 t-29.5 118z" />
<glyph unicode="&#x3cd;" horiz-adv-x="575" d="M245 731l-30 -142h118l74 142h-162zM199 517h-142v-339q0 -192 226 -192q121 0 186.5 78t65.5 211q0 138 -59 242h-147q32 -54 48 -121t16 -123q0 -93 -26.5 -136.5t-83.5 -43.5q-84 0 -84 100v324z" />
<glyph unicode="&#x3ce;" horiz-adv-x="760" d="M307 372v-172q0 -56 -11.5 -82t-40.5 -26q-77 0 -77 151q0 149 94 274h-149q-87 -123 -87 -280q0 -52 10 -95t32.5 -79t63 -56.5t95.5 -20.5q54 0 84.5 20t54.5 68q37 -88 140 -88t155.5 72t52.5 180q0 165 -87 279h-149q94 -123 94 -273q0 -152 -79 -152q-29 0 -41 26 t-12 81v173h-143zM349 731l-30 -142h118l74 142h-162z" />
<glyph unicode="&#x3f2;" horiz-adv-x="556" d="M383 341h142q-11 114 -75 159t-164 45q-118 0 -184.5 -76t-66.5 -214q0 -121 60 -198q61 -76 189 -76q129 0 194 92q42 57 46 120h-142q-6 -46 -27.5 -70.5t-66.5 -24.5q-69 0 -94 67q-14 36 -14 94q0 59 14 98q25 70 96 70q49 0 73 -32q15 -22 20 -54z" />
<glyph unicode="&#x3f3;" horiz-adv-x="257" d="M189 715h-140v-125h140v125zM49 15v-20q-2 -28 -18 -35q-10 -5 -27 -4v-102q5 -1 25 -1q93 0 128 30q20 17 26.5 38t6.5 64q-1 16 -1 51v489h-140v-510z" />
<glyph unicode="&#x3f4;" horiz-adv-x="778" d="M51 353q0 -163 89 -266q86 -103 249 -105q166 2 251 105q85 102 87 266q-1 165 -87 267q-85 102 -251 104q-164 -2 -249 -104q-89 -103 -89 -267zM258 170q-43 46 -52 133h366q-11 -88 -50 -133q-51 -60 -133 -60q-80 0 -131 60zM522 537q38 -44 48 -118h-362 q10 74 50 118q51 59 131 59q82 0 133 -59z" />
<glyph unicode="&#x3f5;" horiz-adv-x="509" d="M350 333h-182q11 32 27 58v-1q31 43 74 43q47 0 71 -24v2q21 -25 25 -89h130q-5 116 -60 171q-65 59 -167 59q-125 0 -192 -97q-55 -79 -55 -183q0 -106 45 -187q65 -106 189 -106q95 0 157 46q79 57 83 195h-125q-22 -120 -101 -120q-53 0 -81 48v-2q-14 29 -22 70h184 v117z" />
<glyph unicode="&#x3f6;" horiz-adv-x="509" d="M348 333h-181v-117h184q-8 -42 -23 -70v2q-27 -48 -80 -48q-80 0 -102 120h-125q4 -138 83 -195q64 -46 157 -46q125 0 190 106q44 82 44 187q0 104 -54 183q-67 97 -192 97q-102 0 -167 -59q-57 -57 -61 -171h130q4 63 26 89v-2q24 24 71 24q43 0 74 -43v1 q20 -31 26 -58z" />
<glyph unicode="&#x3f7;" horiz-adv-x="667" d="M81 719v-719h146v183h78q99 0 157 27q111 52 111 195q0 97 -65 151.5t-188 54.5h-93v108h-146zM383 482q46 -19 46 -82q0 -67 -52 -89q-27 -13 -89 -13h-61v196h69q60 0 87 -12z" />
<glyph unicode="&#x3f8;" d="M419 175q-27 -73 -103 -73q-58 0 -88 43t-30 120q0 79 32.5 118.5t83.5 39.5q57 0 88.5 -40.5t31.5 -112.5q0 -58 -15 -95zM201 719h-139v-927h139v278q31 -53 81 -73q30 -11 72 -11q107 0 164 82q58 82 58 202q0 135 -60 205.5t-164 70.5q-103 0 -151 -86v259z" />
<glyph unicode="&#x3f9;" horiz-adv-x="722" d="M146 645q-101 -104 -101 -291q0 -173 89 -274q88 -100 244 -100q126 0 205 73q82 74 101 192h-149q-15 -55 -38 -83q-42 -52 -121 -52q-80 0 -128.5 62t-48.5 180q0 120 47 186.5t129 66.5q81 0 122 -47q23 -26 38 -78h150q-3 66 -50 134q-84 119 -265 119 q-136 0 -224 -88z" />
<glyph unicode="&#x3fa;" horiz-adv-x="833" d="M553 720l-130 -566l-131 566h-218v-720h140v487q0 33 -1 58v59l135 -604h146l136 604q0 -34 -1 -59v-58v-487h141v720h-217z" />
<glyph unicode="&#x3fb;" horiz-adv-x="773" d="M504 520l-105 -366l-107 366h-218v-716h140v483q0 34 -1 59v58l111 -404h146l112 404q0 -33 -1 -58v-59v-287h140v520h-217z" />
<glyph unicode="&#x3fc;" horiz-adv-x="660" d="M11 -44v-103h113v-49h140v49h190v103h-190v94h2q51 -62 137 -60q102 3 158 81q55 76 55 174q0 123 -62 203q-64 81 -192 82q-99 1 -166 -57q-33 -31 -52 -82q-20 -54 -20 -129v-306h-113zM258 268q0 30 6 55q5 26 17 46q14 22 35 33q21 12 54 12q32 0 54 -14 q18 -14 29 -38q10 -22 15 -50q2 -38 2 -54q0 -28 -4 -51q-5 -28 -16 -52q-11 -25 -31 -39q-20 -16 -52 -16q-37 0 -58 15q-21 13 -34 38q-10 23 -13 54q-4 25 -4 61z" />
<glyph unicode="&#x3fd;" horiz-adv-x="722" d="M584 645q-88 88 -224 88q-181 0 -265 -119q-47 -68 -50 -134h150q15 52 38 78q41 47 121 47q84 0 130.5 -66.5t46.5 -186.5q0 -118 -48.5 -180t-128.5 -62q-79 0 -121 52q-23 28 -38 83h-149q19 -117 100 -192q80 -73 206 -73q156 0 244 100q89 101 89 274 q0 187 -101 291z" />
<glyph unicode="&#x3fe;" horiz-adv-x="722" d="M146 645q-101 -104 -101 -291q0 -173 89 -274q88 -100 244 -100q126 0 205 73q82 74 101 192h-149q-15 -55 -38 -83q-42 -52 -121 -52q-80 0 -128.5 62t-48.5 180q0 120 47 186.5t129 66.5q81 0 122 -47q23 -26 38 -78h150q-3 66 -50 134q-84 119 -265 119 q-136 0 -224 -88zM330 412v-122h104v122h-104z" />
<glyph unicode="&#x3ff;" horiz-adv-x="722" d="M584 645q-88 88 -224 88q-181 0 -265 -119q-47 -68 -50 -134h150q15 52 38 78q41 47 121 47q84 0 130.5 -66.5t46.5 -186.5q0 -118 -48.5 -180t-128.5 -62q-79 0 -121 52q-23 28 -38 83h-149q19 -117 100 -192q80 -73 206 -73q156 0 244 100q89 101 89 274 q0 187 -101 291zM400 290v122h-104v-122h104z" />
<glyph unicode="&#x400;" horiz-adv-x="648" d="M69 714v-714h542v132h-385v175h346v122h-346v153h377v132h-534zM304 920h-156l153 -142h99z" />
<glyph unicode="&#x401;" horiz-adv-x="648" d="M69 714v-714h542v132h-385v175h346v122h-346v153h377v132h-534zM308 911h-134v-117h134v117zM514 911h-135v-117h135v117z" />
<glyph unicode="&#x402;" horiz-adv-x="804" d="M505 -11q54 0 99.5 13t82 40t57 75t20.5 113q0 119 -65.5 176t-176.5 57q-50 0 -96 -21.5t-72 -56.5v197h234v132h-575v-132h184v-582h157v183q0 74 35.5 116.5t94.5 42.5q57 0 89.5 -29t32.5 -83q0 -119 -134 -119q-41 0 -55 7v-118q33 -11 88 -11z" />
<glyph unicode="&#x403;" horiz-adv-x="574" d="M74 714v-714h157v582h339v132h-496zM230 778h99l154 142h-157z" />
<glyph unicode="&#x404;" horiz-adv-x="736" d="M382 -16q137 0 217 71.5t99 196.5h-153q-28 -139 -162 -139q-80 0 -127.5 52t-59.5 145h263v123h-258q15 75 61 121t123 46q60 0 101 -29t56 -81h152q-14 105 -99 173t-207 68q-160 0 -255 -106t-95 -267q0 -168 94 -271t250 -103z" />
<glyph unicode="&#x405;" horiz-adv-x="649" d="M328 -16q142 0 219.5 63t77.5 165q0 164 -212 208q-144 37 -178.5 52.5t-34.5 55.5q0 41 32.5 61t75.5 20q135 0 141 -108h152q0 79 -41.5 132.5t-103.5 75.5t-141 22q-107 0 -187 -56.5t-80 -159.5q0 -48 17.5 -83.5t50.5 -58.5t66 -36.5t79 -24.5q17 -5 51 -13.5 t51 -13t42 -14t37 -19t21.5 -24.5t9.5 -34q0 -34 -24.5 -55t-53 -27.5t-61.5 -6.5q-69 0 -113.5 32.5t-44.5 99.5h-152q-1 -64 24 -114t68 -79.5t97 -44.5t115 -15z" />
<glyph unicode="&#x406;" horiz-adv-x="295" d="M69 714v-714h157v714h-157z" />
<glyph unicode="&#x407;" horiz-adv-x="295" d="M69 714v-714h157v714h-157zM111 911h-134v-117h134v117zM317 911h-135v-117h135v117z" />
<glyph unicode="&#x408;" horiz-adv-x="556" d="M249 -16q238 0 238 241v489h-157v-482q0 -26 -1.5 -41t-8.5 -35.5t-25.5 -30.5t-47.5 -10q-52 0 -71.5 30.5t-19.5 88.5v32h-142v-62q0 -110 68.5 -165t166.5 -55z" />
</font>
</defs>
</svg>
