<?xml version="1.0" standalone="no"?>
<!DOCTYPE svg PUBLIC "-//W3C//DTD SVG 1.1//EN" "http://www.w3.org/Graphics/SVG/1.1/DTD/svg11.dtd" >
<svg xmlns="http://www.w3.org/2000/svg">
<metadata></metadata>
<defs>
<font id="midnight_neueitalic" horiz-adv-x="556" >
<font-face units-per-em="1000" ascent="800" descent="-200" />
<missing-glyph horiz-adv-x="278" />
<glyph unicode="fi" horiz-adv-x="519" d="M119 442h-88l15 75h88q3 13 9 38.5t9.5 38t10.5 33.5t14 32t19 25t26 21t34 12t45 5q45 0 71 -8l-14 -72q-25 5 -40 5q-24 0 -40 -6.5t-26 -22.5t-14.5 -26.5t-10.5 -38t-9 -36.5h99l-14 -75h-100l-95 -442h-85zM505 610h-86l22 104h86zM400 517h85l-108 -517h-85z" />
<glyph unicode="fl" horiz-adv-x="519" d="M442 714h85l-150 -714h-85zM119 442h-88l15 75h88q3 13 9 38.5t9.5 38t10.5 33.5t14 32t19 25t26 21t34 12t45 5q45 0 71 -8l-14 -72q-25 5 -40 5q-24 0 -40 -6.5t-26 -22.5t-14.5 -26.5t-10.5 -38t-9 -36.5h99l-14 -75h-100l-95 -442h-85z" />
<glyph horiz-adv-x="0" />
<glyph unicode="&#x9;" horiz-adv-x="278" />
<glyph unicode="&#xd;" horiz-adv-x="278" />
<glyph horiz-adv-x="0" />
<glyph unicode=" "  horiz-adv-x="278" />
<glyph unicode="&#x09;" horiz-adv-x="278" />
<glyph unicode="&#xa0;" horiz-adv-x="278" />
<glyph unicode="!" horiz-adv-x="259" d="M205 491l-90 -308h-46l43 308l47 223h93zM24 111h111l-24 -111h-111z" />
<glyph unicode="&#x22;" horiz-adv-x="426" d="M286 714h68v-258h-68v258zM146 714h68v-258h-68v258z" />
<glyph unicode="#" d="M231 424l-21 -150h122l21 150h-122zM131 206h-97l9 68h97l21 150h-101l9 68h102l29 205h69l-29 -205h122l29 205h69l-29 -205h91l-9 -68h-91l-21 -150h93l-9 -68h-93l-29 -206h-69l29 206h-123l-29 -206h-69z" />
<glyph unicode="$" d="M172 -11q-95 15 -140.5 78t-40.5 167h89q-7 -145 108 -169l54 269q-41 12 -69 25t-54.5 34t-40 52.5t-13.5 73.5q0 100 77.5 161t179.5 51l13 63h53l-14 -69q76 -22 122 -78t40 -144h-90q4 118 -87 148l-49 -246l54 -19q152 -44 152 -180q0 -77 -46 -132.5t-112 -77.5 t-134 -12l-17 -80h-53zM239 58q29 -7 71.5 4t79 47t36.5 88q0 20 -3 35.5t-11.5 27t-15.5 19t-22 14.5t-24 10l-28.5 9.5l-28.5 9.5zM307 656q-35 0 -67 -10t-58.5 -40.5t-26.5 -76.5q0 -75 91 -105l13 -6z" />
<glyph unicode="%" horiz-adv-x="926" d="M79 454q0 58 18.5 114t62.5 98.5t104 42.5q146 0 146 -145q0 -61 -18 -117t-62 -97t-107 -41q-67 0 -105.5 38t-38.5 107zM581 137q0 -48 18 -71t61 -23q41 0 68.5 35t37.5 79t10 91q0 85 -73 85q-58 0 -90 -65.5t-32 -130.5zM513 133q0 58 18.5 114t62.5 98.5t104 42.5 q146 0 146 -145q0 -62 -18 -117.5t-62 -96t-107 -40.5q-67 0 -105.5 38t-38.5 106zM644 725h64l-435 -752h-64zM147 458q0 -48 18 -71t61 -23q41 0 68.5 35t37.5 79t10 91q0 85 -73 85q-58 0 -90 -65.5t-32 -130.5z" />
<glyph unicode="&#x26;" horiz-adv-x="630" d="M246 551q0 -45 45 -117q25 14 34 19.5t31.5 21t32 26.5t19 28.5t9.5 35.5q0 33 -22.5 53.5t-56.5 20.5q-40 0 -66 -23.5t-26 -64.5zM424 74q-92 -85 -204 -85q-86 0 -142.5 49.5t-56.5 134.5q0 35 12.5 65.5t29.5 51.5t47.5 43t52 34t57.5 31q-19 29 -29 47.5t-20 49.5 t-10 61q0 71 50 114.5t128 43.5q67 0 115 -35.5t48 -100.5q0 -35 -15.5 -66.5t-44 -57t-54.5 -42.5t-62 -36l112 -184q53 74 63 145h82q-26 -117 -103 -207l85 -130h-97zM257 338q-33 -17 -53.5 -30t-46 -34t-38.5 -47.5t-13 -57.5q0 -47 36.5 -76.5t86.5 -29.5q45 0 79 16 t76 51z" />
<glyph unicode="'" horiz-adv-x="278" d="M142 714h68v-258h-68v258z" />
<glyph unicode="(" horiz-adv-x="259" d="M116 -197q-36 78 -58.5 179t-22.5 188q0 82 19 158.5t56 146.5t80 129t103 127h70q-243 -292 -243 -597q0 -179 52 -331h-56z" />
<glyph unicode=")" horiz-adv-x="259" d="M-116 -197q242 282 242 595q0 181 -52 333h56q36 -80 58.5 -181.5t22.5 -187.5q0 -157 -65 -284t-192 -275h-70z" />
<glyph unicode="*" horiz-adv-x="352" d="M247 601l110 11l5 -48l-107 -14l49 -100l-49 -23l-47 103l-78 -87l-37 37l77 84l-95 48l25 46l96 -49l22 105h54z" />
<glyph unicode="+" horiz-adv-x="600" d="M334 287h218v-68h-218v-219h-68v219h-218v68h218v219h68v-219z" />
<glyph unicode="," horiz-adv-x="278" d="M39 111h111q-5 -18 -12 -55.5t-12 -58.5t-16.5 -50.5t-26 -46t-40 -30t-58.5 -16.5l10 48q23 4 38.5 18.5t22 30.5t13.5 41q1 5 2 8h-56z" />
<glyph unicode="-" horiz-adv-x="389" d="M42 318h290l-16 -80h-290z" />
<glyph unicode="." horiz-adv-x="278" d="M39 111h111l-24 -111h-111z" />
<glyph unicode="/" horiz-adv-x="333" d="M278 731h73l-296 -747h-72z" />
<glyph unicode="0" d="M115 249q0 -186 115 -186q55 0 98 45.5t65 109.5t32.5 116.5t10.5 82.5q0 6 0.5 31.5t0 36.5t-2 34.5t-5.5 36t-12 30t-19.5 26.5t-29 15.5t-40.5 6.5q-54 0 -97.5 -45t-67 -110.5t-36 -126t-12.5 -103.5zM25 263q0 65 18 138t53 144t97.5 117.5t141.5 46.5 q95 0 143 -64.5t48 -203.5q0 -43 -9 -97.5t-31.5 -118t-55.5 -115.5t-87.5 -86.5t-121.5 -34.5q-196 0 -196 274z" />
<glyph unicode="1" d="M282 0h-90l115 539q-85 -20 -183 -20l14 68q69 0 133.5 32t95.5 90h66z" />
<glyph unicode="2" d="M68 468q12 113 77.5 177t177.5 64q88 0 143.5 -51.5t55.5 -137.5q0 -49 -19 -91t-58.5 -77t-70.5 -56.5t-88 -53.5t-77 -45q-93 -60 -116 -122h369l-16 -75h-451q5 61 27.5 109t62 83.5t77 60t92 56.5t86.5 56q47 37 69.5 69t22.5 81q0 56 -32 87.5t-87 31.5 q-69 0 -110 -47.5t-45 -118.5h-90z" />
<glyph unicode="3" d="M229 404q196 -11 196 132q0 57 -33 77.5t-87 20.5q-127 0 -144 -144h-90q13 95 73 157t166 62q96 0 150.5 -44.5t54.5 -132.5q0 -59 -37.5 -103t-89.5 -59q92 -41 92 -147q0 -39 -16 -79t-46 -75.5t-80.5 -57.5t-113.5 -22q-108 0 -166 57t-57 173h90q-6 -156 135 -156 q72 0 118 42.5t46 113.5q0 39 -14.5 63.5t-42.5 35.5t-54.5 14.5t-64.5 3.5z" />
<glyph unicode="4" d="M307 166h-310l16 84l420 459h72l-98 -468h94l-15 -75h-94l-36 -166h-85zM94 241h228l67 321h-2z" />
<glyph unicode="5" d="M508 622h-291l-56 -192l2 -2q51 39 125 39q93 0 146 -60t53 -154q0 -125 -80 -198q-77 -66 -187 -66q-98 0 -155.5 53t-57.5 148h90q0 -127 128 -127q80 0 126 53t46 133q0 69 -36 106t-105 37q-39 0 -73.5 -18.5t-52.5 -50.5h-76l110 374h359z" />
<glyph unicode="6" d="M455 525q-1 55 -27.5 82t-82.5 27q-38 0 -70 -17t-52 -39t-38 -61t-26.5 -64.5t-20.5 -67.5h2q48 71 155 71q87 0 143.5 -60t56.5 -148q0 -113 -69 -186t-184 -73q-107 0 -160 65t-53 173q0 158 60 291q40 94 104.5 142.5t165.5 48.5q87 0 135.5 -48t50.5 -136h-90z M405 244q0 62 -34 99.5t-96 37.5q-73 0 -114.5 -50t-41.5 -125q0 -65 33 -104t98 -39q74 0 114.5 53t40.5 128z" />
<glyph unicode="7" d="M564 626q-117 -109 -217 -283.5t-153 -342.5h-97q107 341 374 622h-369l17 75h457z" />
<glyph unicode="8" d="M104 519q0 89 62.5 139.5t153.5 50.5q82 0 140.5 -48t58.5 -128q0 -60 -35 -103t-92 -56v-2q50 -21 75 -65.5t25 -101.5q0 -96 -70 -156t-167 -60q-100 0 -166.5 51t-66.5 149q0 80 45.5 131.5t124.5 65.5v2q-39 17 -63.5 53.5t-24.5 77.5zM249 63q68 0 110.5 38.5 t42.5 106.5q0 58 -34.5 93t-96.5 35q-72 0 -115.5 -38t-43.5 -108q0 -62 37.5 -94.5t99.5 -32.5zM194 516q0 -54 33 -79.5t87 -25.5q51 0 83 32t32 83q0 108 -113 108q-54 0 -88 -32t-34 -86z" />
<glyph unicode="9" d="M94 169q0 -106 103 -106q39 0 71.5 16.5t53 38.5t39.5 59.5t28.5 63.5t21.5 66l-2 2q-47 -70 -156 -70q-87 0 -143 60t-56 148q0 111 69 186.5t178 75.5q108 0 163 -64t55 -174q0 -151 -59 -287q-43 -98 -102.5 -146.5t-159.5 -48.5q-92 0 -144 45t-50 135h90zM274 314 q73 0 114 50.5t41 124.5q0 68 -35 106.5t-102 38.5q-69 0 -108.5 -56t-39.5 -127q0 -62 34 -99.5t96 -37.5z" />
<glyph unicode=":" horiz-adv-x="278" d="M211 406h-112l23 111h112zM37 111h113l-23 -111h-112z" />
<glyph unicode=";" horiz-adv-x="278" d="M210 406h-111l24 111h111zM39 111h111q-5 -18 -12 -55.5t-12 -58.5t-16.5 -50.5t-26 -46t-40 -30t-58.5 -16.5l10 48q23 4 38.5 18.5t22 30.5t13.5 41q1 5 2 8h-56z" />
<glyph unicode="&#x3c;" horiz-adv-x="600" d="M554 446l-425 -193l425 -193v-67l-508 229v62l508 230v-68z" />
<glyph unicode="=" horiz-adv-x="600" d="M48 186h504v-68h-504v68zM552 320h-504v68h504v-68z" />
<glyph unicode="&#x3e;" horiz-adv-x="600" d="M46 60l425 193l-425 193v68l508 -230v-62l-508 -229v67z" />
<glyph unicode="?" d="M169 111h111l-24 -111h-111zM86 488q6 101 73.5 167.5t168.5 66.5q83 0 145 -43t62 -122q0 -57 -23 -100.5t-57 -70.5t-69 -51t-64.5 -56.5t-38.5 -73.5l-4 -22h-83q14 84 50 129q29 39 104 90q95 63 95 140q0 52 -31 78.5t-84 26.5q-69 0 -111 -45t-48 -114h-85z" />
<glyph unicode="@" horiz-adv-x="800" d="M534 270q-11 -37 -11 -51q0 -31 24 -31q46 0 92 75.5t46 154.5q0 114 -80.5 186t-190.5 72q-127 0 -215.5 -94.5t-88.5 -226.5q0 -133 91 -225t218 -92q71 0 138 33t110 88h63q-47 -83 -131 -129t-182 -46q-158 0 -266.5 108.5t-108.5 267.5q0 153 109 262t262 109 q141 0 240.5 -87.5t99.5 -220.5q0 -62 -23.5 -118t-59 -92.5t-76 -58t-75.5 -21.5q-27 0 -44.5 16.5t-19.5 48.5h-3q-59 -67 -124 -67q-63 0 -103 45.5t-40 112.5q0 110 67 197t168 87q81 0 112 -82l23 63h63zM420 505q-66 0 -113 -69t-47 -140q0 -42 24 -69.5t62 -27.5 q61 0 108 72t47 141q0 36 -24.5 64.5t-56.5 28.5z" />
<glyph unicode="A" horiz-adv-x="667" d="M375 714h104l129 -714h-98l-33 215h-301l-125 -215h-105zM219 295h246l-53 335h-2z" />
<glyph unicode="B" horiz-adv-x="685" d="M183 407h212q152 0 152 136q0 30 -12.5 49.5t-36 28t-44 11t-47.5 2.5h-176zM156 714h287q199 0 199 -171q0 -62 -37.5 -112.5t-98.5 -59.5v-2q50 -15 78.5 -53.5t28.5 -94.5q0 -100 -72.5 -160.5t-180.5 -60.5h-353zM115 80h230q25 0 48 4t54.5 16.5t51 43.5t19.5 77 q0 62 -39 84t-108 22h-204z" />
<glyph unicode="C" horiz-adv-x="722" d="M660 241q-28 -123 -107.5 -190t-208.5 -67q-147 0 -226.5 81.5t-79.5 230.5q0 117 46 215t137 159t209 61q121 0 196.5 -64t75.5 -183h-95q0 82 -48 124.5t-129 42.5q-95 0 -164.5 -54t-101 -132.5t-31.5 -168.5q0 -108 53.5 -170.5t157.5 -62.5q172 0 221 178h95z" />
<glyph unicode="D" horiz-adv-x="704" d="M117 80h165q97 0 167 52.5t102 130.5t32 168q0 203 -197 203h-152zM158 714h250q131 0 200.5 -72t69.5 -201q0 -201 -109.5 -321t-287.5 -120h-274z" />
<glyph unicode="E" horiz-adv-x="611" d="M158 714h492l-16 -80h-397l-48 -227h370l-16 -80h-371l-52 -247h402l-18 -80h-497z" />
<glyph unicode="F" horiz-adv-x="574" d="M156 714h470l-17 -80h-375l-47 -227h330l-17 -80h-330l-68 -327h-95z" />
<glyph unicode="G" horiz-adv-x="759" d="M557 71q-81 -87 -213 -87q-147 0 -226.5 81.5t-79.5 230.5q0 117 46 215t137 159t209 61q126 0 206.5 -60.5t80.5 -178.5h-95q0 78 -54.5 118.5t-137.5 40.5q-95 0 -164.5 -54t-101 -132.5t-31.5 -168.5q0 -108 53.5 -170.5t157.5 -62.5q108 0 169 60.5t89 172.5h-228 l16 80h311l-78 -376h-60z" />
<glyph unicode="H" horiz-adv-x="722" d="M157 714h96l-65 -307h374l64 307h95l-150 -714h-95l69 327h-374l-69 -327h-95z" />
<glyph unicode="I" horiz-adv-x="259" d="M157 714h95l-150 -714h-95z" />
<glyph unicode="J" horiz-adv-x="519" d="M412 176q-21 -99 -71 -145.5t-152 -46.5q-90 0 -143.5 39t-53.5 112q0 37 8 99h96q-9 -42 -10 -74q0 -97 105 -97q34 0 59 13.5t39.5 40t22.5 50t15 58.5l104 489h94z" />
<glyph unicode="K" horiz-adv-x="667" d="M158 714h95l-75 -352l2 -2l404 354h127l-344 -294l229 -420h-105l-195 362l-143 -121l-51 -241h-95z" />
<glyph unicode="L" d="M157 714h95l-132 -634h377l-17 -80h-473z" />
<glyph unicode="M" horiz-adv-x="870" d="M157 714h132l95 -614h2l353 614h132l-151 -714h-91l146 625h-2l-364 -625h-91l-93 625h-2l-125 -625h-91z" />
<glyph unicode="N" horiz-adv-x="722" d="M158 714h102l255 -591h2l119 591h92l-151 -714h-102l-253 587h-2l-121 -587h-92z" />
<glyph unicode="O" horiz-adv-x="759" d="M133 296q0 -108 53.5 -170.5t157.5 -62.5q90 0 157.5 53t99.5 131.5t32 167.5q0 103 -53.5 169.5t-149.5 66.5q-95 0 -164.5 -54t-101 -132.5t-31.5 -168.5zM38 296q0 117 46 215t137 159t209 61q136 0 217 -90t81 -226q0 -114 -45.5 -211.5t-134.5 -158.5t-204 -61 q-147 0 -226.5 81.5t-79.5 230.5z" />
<glyph unicode="P" horiz-adv-x="648" d="M181 372h215q76 0 117 39.5t41 105.5q0 62 -32.5 89.5t-84.5 27.5h-201zM156 714h281q212 0 212 -197q0 -37 -13.5 -73.5t-43 -72t-85.5 -57.5t-131 -22h-212l-62 -292h-95z" />
<glyph unicode="Q" horiz-adv-x="759" d="M435 203l79 -77q58 48 88.5 126t30.5 163q0 103 -53.5 169.5t-149.5 66.5q-95 0 -164.5 -54t-101 -132.5t-31.5 -168.5q0 -108 53.5 -170.5t157.5 -62.5q57 0 102 21l-65 62zM609 -73l-99 95q-74 -38 -166 -38q-147 0 -226.5 81.5t-79.5 230.5q0 117 46 215t137 159 t209 61q136 0 217 -90t81 -226q0 -104 -40 -196.5t-112 -152.5l87 -83z" />
<glyph unicode="R" horiz-adv-x="685" d="M158 714h275q48 0 88 -9t74.5 -29t53.5 -56.5t19 -87.5q0 -73 -45 -127.5t-116 -64.5v-2q44 -14 61.5 -56t11.5 -99q-1 -13 -8 -58t-5.5 -72.5t14.5 -52.5h-99q-18 55 2 153q5 48 4 77t-14 45.5t-26.5 22.5t-32.5 7h-38h-211l-64 -305h-95zM183 385h214q53 0 90 14.5 t54.5 37.5t24.5 44.5t7 44.5q0 108 -140 108h-197z" />
<glyph unicode="S" horiz-adv-x="648" d="M519 503q2 80 -40.5 114t-123.5 34q-61 0 -113 -30t-52 -87q0 -48 30 -73.5t86 -41.5l96 -26q80 -22 126 -64t46 -129q0 -70 -44 -121t-105 -73t-129 -22q-136 0 -213 62t-68 188h95q-4 -92 46.5 -131.5t143.5 -39.5q74 0 126.5 35t52.5 102q0 50 -33 75.5t-94 42.5 l-97 26q-160 45 -160 180q0 97 78 152t182 55q54 0 100.5 -13.5t83 -40.5t57 -71.5t18.5 -102.5h-95z" />
<glyph unicode="T" horiz-adv-x="574" d="M635 634h-240l-134 -634h-95l134 634h-240l17 80h576z" />
<glyph unicode="U" horiz-adv-x="722" d="M639 286q-23 -106 -36 -137q-34 -84 -107.5 -124.5t-170.5 -40.5q-158 0 -224 79.5t-35 230.5l89 420h95l-94 -444q-47 -207 169 -207q57 0 95.5 15t62 48t35.5 67.5t25 92.5l90 428h95z" />
<glyph unicode="V" horiz-adv-x="611" d="M288 0h-107l-102 714h97l73 -621h2l339 621h101z" />
<glyph unicode="W" horiz-adv-x="926" d="M655 0h-99l-45 616h-2l-282 -616h-102l-45 714h94l25 -601h2l274 601h108l40 -603h2l260 603h98z" />
<glyph unicode="X" horiz-adv-x="611" d="M266 373l-172 341h102l132 -282l229 282h107l-294 -354l181 -360h-98l-144 302l-244 -302h-108z" />
<glyph unicode="Y" horiz-adv-x="611" d="M254 287l-188 427h101l146 -346l271 346h110l-346 -427l-62 -287h-93z" />
<glyph unicode="Z" horiz-adv-x="611" d="M-20 79l535 555h-409l20 80h521l-17 -81l-540 -553h456l-17 -80h-566z" />
<glyph unicode="[" horiz-adv-x="259" d="M163 731h189l-14 -65h-108l-164 -798h108l-14 -65h-188z" />
<glyph unicode="\" horiz-adv-x="333" d="M351 -16h-73l-295 747h72z" />
<glyph unicode="]" horiz-adv-x="259" d="M61 -197h-188l14 65h108l163 798h-108l14 65h189z" />
<glyph unicode="^" horiz-adv-x="600" d="M268 697h64l218 -433h-70l-181 360l-178 -360h-71z" />
<glyph unicode="_" horiz-adv-x="500" d="M0 -74h500v-50h-500v50z" />
<glyph unicode="`" horiz-adv-x="222" d="M244 588h-67l-101 143h101z" />
<glyph unicode="a" horiz-adv-x="519" d="M53 361q11 82 74 125t150 43q189 0 189 -132q0 -30 -16 -94l-33 -141q-1 -7 -5 -22t-6.5 -28t-2.5 -24q0 -32 25 -32q8 0 27 7l-13 -63q-29 -11 -52 -11q-35 0 -53 19t-14 53l-2 2q-55 -74 -173 -74q-71 0 -114 34.5t-43 110.5q0 42 16 72.5t37.5 47t59.5 27.5t64.5 14.5 t70.5 7.5q8 1 12 1q33 3 49 5t35 7.5t27 13.5t13.5 21.5t5.5 34.5q0 37 -31 52.5t-73 15.5q-53 0 -92 -23t-47 -70h-85zM75 135q0 -34 27 -53t66 -19q101 0 145 68q10 14 17.5 32t11 30t9 37t7.5 34h-2q-22 -16 -73 -23.5t-94 -11t-78 -26.5t-36 -68z" />
<glyph unicode="b" horiz-adv-x="593" d="M146 714h85l-55 -261l2 -2q62 78 158 78q100 0 151.5 -60t51.5 -163q0 -129 -74 -223t-199 -94q-68 0 -117 32.5t-57 74.5h-2l-19 -96h-75zM454 306q0 65 -30.5 106.5t-87.5 41.5q-70 0 -120 -44t-70.5 -101.5t-20.5 -116.5q0 -60 38.5 -94.5t102.5 -34.5 q58 0 102.5 40.5t65 95t20.5 107.5z" />
<glyph unicode="c" horiz-adv-x="537" d="M416 353q0 48 -29 74.5t-80 26.5q-92 0 -146.5 -75t-54.5 -168q0 -66 30.5 -107t97.5 -41q54 0 93.5 28.5t57.5 77.5h85q-23 -88 -84 -134t-152 -46q-105 0 -159 57.5t-54 164.5q0 131 77 224.5t209 93.5q90 0 140.5 -43.5t53.5 -132.5h-85z" />
<glyph unicode="d" horiz-adv-x="593" d="M455 0h-80l18 74h-2q-37 -48 -76.5 -66.5t-94.5 -18.5q-97 0 -150 57.5t-53 153.5q0 126 79.5 227.5t207.5 101.5q35 0 66 -8t58 -29t37 -54h2l55 276h84zM102 200q0 -137 133 -137q61 0 109 42.5t70.5 100t22.5 114.5q0 60 -34.5 97t-95.5 37q-94 0 -149.5 -79 t-55.5 -175z" />
<glyph unicode="e" horiz-adv-x="537" d="M98 233q-3 -23 -3 -45q0 -57 39.5 -91t94.5 -34q112 0 149 99h85q-20 -84 -83.5 -128.5t-150.5 -44.5q-61 0 -106 19t-68.5 51t-34 66t-10.5 71q0 145 78.5 239t187.5 94q219 0 219 -229q0 -27 -8 -67h-389zM410 308q4 61 -26 103.5t-95 42.5q-71 0 -115 -40t-64 -106 h300z" />
<glyph unicode="f" horiz-adv-x="296" d="M119 442h-88l15 75h88q3 13 9 38.5t9.5 38t10.5 33.5t14 32t19 25t26 21t34 12t45 5q45 0 71 -8l-14 -72q-25 5 -40 5q-24 0 -40 -6.5t-26 -22.5t-14.5 -26.5t-10.5 -38t-9 -36.5h99l-14 -75h-100l-95 -442h-85z" />
<glyph unicode="g" horiz-adv-x="574" d="M459 75q-22 -96 -40 -140q-61 -144 -235 -144q-87 0 -145 39.5t-60 120.5h84q6 -85 130 -85q38 0 67.5 13t46.5 29t32.5 49.5t21.5 53.5t17 62l-2 2q-52 -78 -161 -78q-93 0 -143.5 58t-50.5 155q0 123 75 221t194 98q58 0 105 -29t59 -76v-2h2l16 95h80zM106 210 q0 -59 33 -99t94 -40q46 0 83 24t59 61.5t34 79.5t12 83q0 63 -33.5 99t-98.5 36q-56 0 -99.5 -42t-63.5 -96.5t-20 -105.5z" />
<glyph unicode="h" d="M146 714h85l-61 -273l2 -2q32 44 80.5 67t103.5 23q73 0 108.5 -32t35.5 -101q0 -34 -15 -101l-63 -295h-85l66 302q1 6 4.5 24t5.5 33t2 23q0 35 -25 53.5t-65 18.5q-73 0 -128 -60q-37 -32 -57 -108l-60 -286h-84z" />
<glyph unicode="i" horiz-adv-x="222" d="M208 610h-86l22 104h86zM103 517h85l-108 -517h-84z" />
<glyph unicode="j" horiz-adv-x="222" d="M208 610h-86l22 104h86zM-104 -116q22 -6 33 -6q26 0 37.5 19.5t24.5 77.5l112 542h85l-130 -613q-24 -101 -121 -101q-33 0 -56 6z" />
<glyph unicode="k" horiz-adv-x="481" d="M146 714h84l-89 -420l2 -2l260 225h111l-225 -191l128 -326h-95l-101 275l-102 -91l-39 -184h-84z" />
<glyph unicode="l" horiz-adv-x="222" d="M145 714h85l-150 -714h-84z" />
<glyph unicode="m" horiz-adv-x="852" d="M105 517h79l-19 -77l2 -2q71 91 180 91t130 -93q30 42 78 67.5t99 25.5q61 0 102.5 -28.5t41.5 -87.5q0 -41 -15 -103l-65 -310h-85l72 328q8 32 8 56q0 30 -22.5 50t-56.5 20t-70.5 -21t-59.5 -50q-31 -35 -48 -116l-57 -267h-85l62 295q16 71 16 91q0 68 -72 68 q-33 0 -67.5 -19t-59.5 -47q-25 -24 -35 -48.5t-20 -68.5l-58 -271h-84z" />
<glyph unicode="n" d="M104 517h82l-16 -78h2q32 44 80.5 67t103.5 23q73 0 108.5 -32t35.5 -101q0 -34 -15 -101l-63 -295h-85l66 302q1 6 4.5 24t5.5 33t2 23q0 35 -25 53.5t-65 18.5q-73 0 -128 -60q-37 -32 -57 -108l-60 -286h-84z" />
<glyph unicode="o" horiz-adv-x="557" d="M10 204q0 133 79 229t210 96q105 0 160 -54.5t55 -159.5q0 -134 -78 -230t-208 -96q-100 0 -159 60t-59 155zM95 205q0 -65 37 -103.5t105 -38.5q58 0 104 41t67 96t21 108q0 64 -34.5 105t-101.5 41q-62 0 -108.5 -40.5t-68 -96t-21.5 -112.5z" />
<glyph unicode="p" horiz-adv-x="593" d="M102 517h80l-18 -74h2q37 48 77 67t94 19q97 0 150 -58t53 -154q0 -81 -33 -154.5t-100.5 -123.5t-153.5 -50q-56 0 -102 21t-59 69h-2l-55 -276h-83zM455 317q0 137 -133 137q-61 0 -109 -42.5t-70.5 -100t-22.5 -114.5q0 -60 34.5 -97t95.5 -37q94 0 149.5 79t55.5 175 z" />
<glyph unicode="q" horiz-adv-x="593" d="M102 212q0 -65 33 -107t99 -42q64 0 110.5 44.5t66.5 102.5t20 117q0 60 -35 93.5t-98 33.5q-59 0 -105.5 -39t-68.5 -93t-22 -110zM410 -197h-86l56 263h-2q-63 -77 -163 -77q-98 0 -148 61t-50 162q0 82 31.5 153t95 117.5t145.5 46.5q130 0 167 -94h2l17 82h86z" />
<glyph unicode="r" horiz-adv-x="333" d="M103 517h80l-25 -111h2q69 123 188 123q1 0 15 1t15 -1l-20 -91q-3 1 -13 1h-12q-31 0 -51 -5q-66 -17 -110 -84q-26 -37 -43 -121l-49 -229h-84z" />
<glyph unicode="s" horiz-adv-x="481" d="M355 365q2 42 -28.5 65.5t-78.5 23.5q-110 0 -110 -66q0 -8 2 -15t7.5 -13t10.5 -11t14.5 -11t16.5 -9.5t20 -9.5t20 -8.5t22.5 -8.5t22.5 -9q65 -27 101 -59t36 -86q0 -80 -62.5 -119.5t-148.5 -39.5q-208 0 -208 174h84q-3 -53 34.5 -76.5t97.5 -23.5q48 0 83 19t35 60 q0 15 -6.5 26.5t-23.5 22.5t-27.5 16t-40 17t-38.5 16q-64 25 -100.5 56t-36.5 84q0 68 57.5 108.5t134.5 40.5q81 0 138 -40t57 -124h-85z" />
<glyph unicode="t" horiz-adv-x="315" d="M221 517h103l-16 -75h-103l-64 -304q0 -2 -1.5 -14.5t-1.5 -19.5q0 -35 51 -35q20 0 49 9l-15 -78q-33 -5 -60 -5q-116 0 -116 83q0 16 5 43l68 321h-87l16 75h87l32 153h85z" />
<glyph unicode="u" d="M411 0h-82l16 78h-2q-64 -89 -184 -89q-73 0 -108.5 32t-35.5 100q0 34 15 101l63 295h85l-66 -302q-12 -46 -12 -80q0 -35 25 -53.5t65 -18.5q68 0 119 49.5t66 118.5l60 286h85z" />
<glyph unicode="v" horiz-adv-x="481" d="M207 0h-91l-74 517h90l44 -430h2l224 430h92z" />
<glyph unicode="w" horiz-adv-x="759" d="M495 0h-90l-26 402h-2l-185 -402h-90l-61 517h90l32 -411h2l186 411h96l25 -411h2l196 411h92z" />
<glyph unicode="x" horiz-adv-x="481" d="M176 274l-115 243h98l78 -188l154 188h103l-222 -250l132 -267h-97l-94 212l-176 -212h-102z" />
<glyph unicode="y" horiz-adv-x="481" d="M163 -87q-27 -42 -44 -63.5t-49 -40t-73 -18.5q-33 0 -59 13l15 69q23 -14 48 -14q46 0 80 56l52 85l-91 517h91l60 -411h2l217 411h93z" />
<glyph unicode="z" horiz-adv-x="444" d="M-40 64l359 378h-278l15 75h393l-13 -61l-363 -381h309l-14 -75h-420z" />
<glyph unicode="{" horiz-adv-x="333" d="M382 671h-50q-26 0 -42.5 -25.5t-23.5 -62.5l-37 -181q-14 -61 -50 -94t-65 -40l-1 -3q22 -3 43.5 -26t21.5 -70q0 -8 -6 -38l-37 -180q-3 -16 -3 -34q0 -54 33 -54h50l-13 -60h-70q-33 0 -59 24t-26 66q0 21 4 41l38 181q4 20 4 41q0 34 -18 55t-45 21l15 68q33 0 64 33 t43 85l38 182q11 60 52.5 95.5t82.5 35.5h70z" />
<glyph unicode="|" horiz-adv-x="222" d="M77 786h68v-999h-68v999z" />
<glyph unicode="}" horiz-adv-x="333" d="M-77 -137h50q25 0 41.5 25.5t23.5 62.5l37 180q9 42 33.5 74t45 44.5t36.5 15.5l1 3q-22 3 -43.5 26t-21.5 70q0 8 6 38l37 181q3 17 3 34q0 54 -33 54h-50l13 60h70q33 0 59 -24t26 -66q0 -21 -4 -41l-38 -182q-4 -20 -4 -41q0 -35 18 -56t45 -21l-15 -68q-33 0 -64 -33 t-43 -84l-38 -181q-11 -59 -52.5 -95t-81.5 -36h-70z" />
<glyph unicode="~" horiz-adv-x="600" d="M531 269q-27 -41 -55 -63.5t-70 -22.5q-45 0 -102 33q-66 39 -115 39q-48 0 -84 -76l-36 50q42 86 125 86q38 0 111 -32q10 -4 34.5 -16.5t40 -18t27.5 -5.5q7 0 14.5 2t13 4.5t12 8.5t10.5 9.5t10.5 12t9 12.5t9.5 14t9 13z" />
<glyph unicode="&#xa1;" horiz-adv-x="259" d="M20 25l90 308h46l-43 -308l-47 -222h-92zM201 406h-111l24 111h111z" />
<glyph unicode="&#xa2;" d="M480 169q-23 -88 -84.5 -134t-154.5 -46l-22 -104h-39l23 107q-85 10 -128.5 66.5t-43.5 152.5q0 128 80 223t206 95l19 91h39l-20 -93q156 -19 156 -174h-85q0 44 -23 71t-63 33l-84 -399q50 4 85.5 33t53.5 78h85zM116 211q0 -135 102 -150l84 398q-86 -6 -136 -81 t-50 -167z" />
<glyph unicode="&#xa3;" d="M-2 63q65 52 94.5 91.5t29.5 92.5q0 41 -10 80h-86l10 45h62q-23 86 -23 127q0 98 72.5 165t169.5 67q108 0 166.5 -70t52.5 -176h-90q6 67 -26.5 119t-95.5 52q-69 0 -114 -47.5t-45 -119.5q0 -59 23 -117h154l-10 -45h-130q10 -27 10 -68q0 -47 -40.5 -102t-93.5 -86 v-2q52 27 112 27q30 0 84 -16q6 -2 19.5 -7t21.5 -7.5t20.5 -5t23.5 -2.5q8 0 17.5 2.5t16 5t16.5 8.5t15 9.5t15.5 11t13.5 9.5l32 -72q-69 -48 -136 -48q-35 0 -104 23q-70 24 -101 24q-20 0 -44 -8t-34.5 -13t-39.5 -21z" />
<glyph unicode="&#xa4;" d="M281 524q-71 0 -119.5 -50.5t-48.5 -124.5q0 -73 48.5 -123t118.5 -50q69 0 116 51t47 124q0 71 -47 122t-115 51zM74 604l56 -56q62 51 151 51q85 0 143 -50l57 56l50 -51l-55 -55q52 -55 52 -148q0 -89 -52 -150l55 -56l-47 -47l-56 58q-60 -55 -148 -55q-92 0 -152 54 l-55 -58l-48 48l55 58q-52 63 -52 146q0 94 54 148l-57 58z" />
<glyph unicode="&#xa5;" d="M206 174h-145l14 60h144l8 52l-8 23h-130l14 60h97l-110 345h98l101 -344l239 344h108l-249 -345h96l-13 -60h-129l-24 -33l-9 -42h147l-14 -60h-146l-36 -174h-89z" />
<glyph unicode="&#xa6;" horiz-adv-x="222" d="M145 411h-68v250h68v-250zM77 161h68v-249h-68v249z" />
<glyph unicode="&#xa7;" d="M440 555q1 47 -23.5 74t-73.5 27q-40 0 -67.5 -22t-27.5 -55q0 -42 47 -93q8 -8 40 -40.5t45.5 -46.5t36 -39.5t39.5 -48.5q35 -47 35 -96q0 -66 -38.5 -110t-104.5 -52q29 -31 29 -88q0 -79 -55.5 -119.5t-138.5 -42.5q-83 2 -129.5 54t-46.5 135h80q0 -53 28 -83.5 t82 -30.5q41 0 68 21.5t27 58.5q0 44 -49 100l-134 145q-63 71 -63 136q0 126 139 157q-22 32 -22 79q0 73 53.5 114.5t128.5 41.5q81 0 131 -48t44 -128h-80zM126 351q0 -46 59 -107l70 -75q27 -27 59 -65q97 21 97 100q0 26 -25 61t-56 64t-65 63t-47 53q-9 0 -32 -12 t-30 -19q-30 -26 -30 -63z" />
<glyph unicode="&#xa8;" horiz-adv-x="222" d="M78 696h89l-21 -104h-89zM241 696h89l-21 -104h-89z" />
<glyph unicode="&#xa9;" horiz-adv-x="800" d="M599 285q-16 -72 -66.5 -114.5t-119.5 -42.5q-100 0 -161 64.5t-61 164.5q0 102 59 165t160 63q74 0 125 -39.5t63 -112.5h-63q-8 43 -41 70t-83 27q-72 0 -112 -48t-40 -123q0 -73 42 -124.5t112 -51.5q50 0 82.5 28t39.5 74h64zM92 359q0 -137 88.5 -229t220.5 -92 q130 0 218.5 92t88.5 229q0 134 -88.5 225.5t-218.5 91.5q-132 0 -220.5 -91t-88.5 -226zM24 359q0 157 111 264.5t266 107.5t265 -107.5t110 -264.5q0 -160 -110 -267.5t-265 -107.5q-156 0 -266.5 107.5t-110.5 267.5z" />
<glyph unicode="&#xaa;" horiz-adv-x="311" d="M274 544h-2q-13 -11 -45 -15.5t-60.5 -6t-51 -15t-22.5 -40.5q0 -18 17 -27.5t42 -9.5q53 3 77 19t33 50zM75 606q6 50 47.5 76.5t99.5 26.5q45 0 86 -18.5t41 -54.5q0 -7 -1.5 -16t-4.5 -20.5t-4 -16.5l-20 -83q-13 -55 -13 -58q0 -12 17 -12q7 0 15 3l-8 -46 q-15 -7 -34 -7q-23 0 -34.5 12.5t-9.5 33.5h-3q-35 -46 -97 -46q-119 0 -119 93q0 83 130 95q31 2 48.5 4.5t38 8t30 16.5t9.5 27q0 35 -67 35q-76 0 -87 -53h-60z" />
<glyph unicode="&#xab;" horiz-adv-x="463" d="M226 250l22 92l174 100l-21 -85l-120 -68l87 -90l-19 -85zM30 250l22 92l174 100l-21 -85l-120 -68l87 -90l-19 -85z" />
<glyph unicode="&#xac;" horiz-adv-x="600" d="M552 109h-68v211h-436v68h504v-279z" />
<glyph unicode="&#xad;" horiz-adv-x="389" d="M57 318l-17 -80h289l17 80h-289z" />
<glyph unicode="&#xae;" horiz-adv-x="800" d="M323 382h71q22 0 35.5 1t30.5 4.5t26.5 11t16 21.5t6.5 34q0 67 -96 67h-90v-139zM255 576h169q153 0 153 -125q0 -107 -115 -119l125 -193h-73l-119 188h-72v-188h-68v437zM92 359q0 -137 88.5 -229t220.5 -92q130 0 218.5 92t88.5 229q0 134 -88.5 225.5t-218.5 91.5 q-132 0 -220.5 -91t-88.5 -226zM24 359q0 157 111 264.5t266 107.5t265 -107.5t110 -264.5q0 -160 -110 -267.5t-265 -107.5q-156 0 -266.5 107.5t-110.5 267.5z" />
<glyph unicode="&#xaf;" horiz-adv-x="222" d="M65 675h269l-11 -55h-270z" />
<glyph unicode="&#xb0;" horiz-adv-x="400" d="M127 561q0 -42 28 -70t70 -28t70 28t28 70t-28 70t-70 28t-70 -28t-28 -70zM77 561q0 62 43 105t105 43t105 -43t43 -105t-43 -105t-105 -43t-105 43t-43 105z" />
<glyph unicode="&#xb1;" horiz-adv-x="600" d="M48 68h504v-68h-504v68zM48 339h218v166h68v-166h218v-68h-218v-167h-68v167h-218v68z" />
<glyph unicode="&#xb2;" horiz-adv-x="333" d="M55 561q7 69 51 108.5t120 39.5q58 0 96 -31.5t38 -83.5q0 -84 -107 -142l-63 -36l-46.5 -27t-35 -25.5t-21.5 -28.5h231l-10 -55h-296q0 57 27.5 91t96.5 79l64 40q23 14 32 20t27 20t25.5 29t7.5 32q0 30 -19 46.5t-53 16.5q-92 -5 -97 -93h-68z" />
<glyph unicode="&#xb3;" horiz-adv-x="333" d="M169 527q31 -3 57.5 1.5t46.5 22.5t20 49q0 54 -74 54q-39 0 -63 -21.5t-26 -56.5h-68q3 59 46 96t114 37q60 0 99.5 -28t39.5 -80q0 -35 -24.5 -62t-63.5 -36v-2q65 -22 65 -89q0 -54 -46.5 -96.5t-125.5 -42.5q-77 0 -114.5 36.5t-34.5 103.5h68q-3 -41 14.5 -63 t68.5 -22q46 0 74 22t28 63q0 23 -9.5 37.5t-25 20t-35.5 7t-40 -0.5z" />
<glyph unicode="&#xb4;" horiz-adv-x="222" d="M230 731h113l-136 -143h-70z" />
<glyph unicode="&#xb5;" d="M411 0h-82l16 78h-2q-31 -43 -78.5 -66t-93.5 -23q-32 0 -57.5 11.5t-35.5 25.5h-2l-47 -223h-84l148 714h85l-66 -302q-12 -46 -12 -80q0 -35 25 -53.5t65 -18.5q68 0 119 49.5t66 118.5l60 286h85z" />
<glyph unicode="&#xb6;" horiz-adv-x="600" d="M244 336q-91 0 -139 53.5t-32 132.5q20 95 90 143.5t177 48.5h238l-181 -868h-64l169 813h-126l-169 -813h-65z" />
<glyph unicode="&#xb7;" horiz-adv-x="278" d="M67 253q0 27 19.5 45.5t44.5 18.5q27 0 45.5 -18.5t18.5 -45.5q0 -28 -18.5 -46t-45.5 -18q-26 0 -45 19t-19 45z" />
<glyph unicode="&#xb8;" horiz-adv-x="222" d="M-22 -144q45 -15 63 -15q60 0 60 30q0 31 -46 31q-27 0 -42 -8l-18 30l73 89h47l-58 -65h2q9 4 26 4q38 0 64.5 -18.5t26.5 -55.5q0 -42 -36.5 -64.5t-82.5 -22.5q-52 0 -97 22z" />
<glyph unicode="&#xb9;" horiz-adv-x="333" d="M214 280h-66l66 325q-51 -17 -117 -17l9 50q52 0 92.5 20t58.5 51h47z" />
<glyph unicode="&#xba;" horiz-adv-x="344" d="M44 512q0 80 52.5 138.5t137.5 58.5q69 0 105 -33.5t36 -96.5q0 -80 -51.5 -139.5t-134.5 -59.5q-68 0 -107 33.5t-38 98.5zM104 513q0 -37 22 -60t63 -23q55 0 90.5 44t35.5 101q0 38 -21 61t-64 23q-58 0 -92 -45.5t-34 -100.5z" />
<glyph unicode="&#xbb;" horiz-adv-x="463" d="M419 306l-22 -92l-174 -100l21 85l120 68l-87 90l19 85zM223 306l-22 -92l-174 -100l21 85l120 68l-87 90l19 85z" />
<glyph unicode="&#xbc;" horiz-adv-x="834" d="M559 725h64l-435 -752h-64zM196 280h-66l66 325q-51 -17 -117 -17l9 50q52 0 92.5 20t58.5 51h47zM621 151l41 181h-2l-178 -181h139zM611 96h-199l11 58l269 275h58l-64 -278h61l-13 -55h-60l-22 -96h-63z" />
<glyph unicode="&#xbd;" horiz-adv-x="834" d="M559 725h64l-435 -752h-64zM474 281q7 69 51 108.5t120 39.5q58 0 96 -31.5t38 -83.5q0 -84 -107 -142l-63 -36l-46.5 -27t-35 -25.5t-21.5 -28.5h231l-10 -55h-296q0 57 27.5 91t96.5 79l64 40q23 14 32 20t27 20t25.5 29t7.5 32q0 30 -19 46.5t-53 16.5 q-44 0 -69.5 -25t-27.5 -68h-68zM196 280h-66l66 325q-51 -17 -117 -17l9 50q52 0 92.5 20t58.5 51h47z" />
<glyph unicode="&#xbe;" horiz-adv-x="834" d="M634 725h64l-435 -752h-64zM169 527q31 -3 57.5 1.5t46.5 22.5t20 49q0 54 -74 54q-39 0 -63 -21.5t-26 -56.5h-68q3 59 46 96t114 37q60 0 99.5 -28t39.5 -80q0 -35 -24.5 -62t-63.5 -36v-2q65 -22 65 -89q0 -54 -46.5 -96.5t-125.5 -42.5q-77 0 -114.5 36.5 t-34.5 103.5h68q-3 -41 14.5 -63t68.5 -22q46 0 74 22t28 63q0 23 -9.5 37.5t-25 20t-35.5 7t-40 -0.5zM700 332h-2l-178 -181h139zM649 96h-199l11 58l269 275h58l-64 -278h61l-13 -55h-60l-22 -96h-63z" />
<glyph unicode="&#xbf;" d="M348 406h-110l22 111h113zM431 25q-12 -108 -78.5 -171t-174.5 -63q-83 0 -139.5 48t-56.5 130q0 102 109 182q76 53 99 79q41 44 46 102h83q-9 -58 -31 -98.5t-49.5 -65t-80.5 -61.5q-87 -63 -87 -131q0 -48 31.5 -79t78.5 -31q137 0 165 159h85z" />
<glyph unicode="&#xc0;" horiz-adv-x="667" d="M487 755h-67l-101 143h101zM375 714h104l129 -714h-98l-33 215h-301l-125 -215h-105zM219 295h246l-53 335h-2z" />
<glyph unicode="&#xc1;" horiz-adv-x="667" d="M473 898h113l-136 -143h-70zM375 714h104l129 -714h-98l-33 215h-301l-125 -215h-105zM219 295h246l-53 335h-2z" />
<glyph unicode="&#xc2;" horiz-adv-x="667" d="M406 898h86l75 -143h-74l-51 93l-87 -93h-82zM375 714h104l129 -714h-98l-33 215h-301l-125 -215h-105zM219 295h246l-53 335h-2z" />
<glyph unicode="&#xc3;" horiz-adv-x="667" d="M266 764q10 30 20 50.5t31 39.5t48 19q25 0 77 -25q5 -2 14.5 -6.5t14 -6.5t13 -5t11.5 -3h11q15 0 25 6.5t14 12.5t12 22h51q-15 -49 -38 -79t-64 -30q-23 0 -75 24t-66 22q-33 0 -47 -41h-52zM375 714h104l129 -714h-98l-33 215h-301l-125 -215h-105zM219 295h246 l-53 335h-2z" />
<glyph unicode="&#xc4;" horiz-adv-x="667" d="M321 863h89l-21 -104h-89zM484 863h89l-21 -104h-89zM375 714h104l129 -714h-98l-33 215h-301l-125 -215h-105zM219 295h246l-53 335h-2z" />
<glyph unicode="&#xc5;" horiz-adv-x="667" d="M329 844q0 46 33.5 79.5t79.5 33.5t79.5 -33.5t33.5 -79.5t-33.5 -79.5t-79.5 -33.5t-79.5 33.5t-33.5 79.5zM374 844q0 -29 19.5 -48.5t48.5 -19.5t48.5 19.5t19.5 48.5t-19.5 48.5t-48.5 19.5t-48.5 -19.5t-19.5 -48.5zM375 714h104l129 -714h-98l-33 215h-301 l-125 -215h-105zM219 295h246l-53 335h-2z" />
<glyph unicode="&#xc6;" horiz-adv-x="926" d="M441 714h524l-17 -80h-351l-47 -227h330l-18 -80h-329l-53 -247h357l-16 -80h-455l43 208h-230l-149 -208h-108zM235 288h192l75 346h-22z" />
<glyph unicode="&#xc7;" horiz-adv-x="722" d="M607 484q0 82 -48 124.5t-129 42.5q-95 0 -164.5 -54t-101 -132.5t-31.5 -168.5q0 -108 53.5 -170.5t157.5 -62.5q172 0 221 178h95q-28 -123 -107.5 -190t-208.5 -67h-5l-32 -36h2q9 4 26 4q38 0 64.5 -18.5t26.5 -55.5q0 -42 -36.5 -64.5t-82.5 -22.5q-51 0 -98 22 l18 43q45 -15 64 -15q60 0 60 30q0 31 -46 31q-27 0 -42 -8l-19 30l53 64q-126 12 -192.5 91.5t-66.5 216.5q0 117 46 215t137 159t209 61q121 0 196.5 -64t75.5 -183h-95z" />
<glyph unicode="&#xc8;" horiz-adv-x="611" d="M469 755h-67l-101 143h101zM158 714h492l-16 -80h-397l-48 -227h370l-16 -80h-371l-52 -247h402l-18 -80h-497z" />
<glyph unicode="&#xc9;" horiz-adv-x="611" d="M455 898h113l-136 -143h-70zM158 714h492l-16 -80h-397l-48 -227h370l-16 -80h-371l-52 -247h402l-18 -80h-497z" />
<glyph unicode="&#xca;" horiz-adv-x="611" d="M388 898h86l75 -143h-74l-51 93l-87 -93h-82zM158 714h492l-16 -80h-397l-48 -227h370l-16 -80h-371l-52 -247h402l-18 -80h-497z" />
<glyph unicode="&#xcb;" horiz-adv-x="611" d="M303 863h89l-21 -104h-89zM466 863h89l-21 -104h-89zM158 714h492l-16 -80h-397l-48 -227h370l-16 -80h-371l-52 -247h402l-18 -80h-497z" />
<glyph unicode="&#xcc;" horiz-adv-x="259" d="M273 755h-67l-101 143h101zM157 714h95l-150 -714h-95z" />
<glyph unicode="&#xcd;" horiz-adv-x="259" d="M259 898h113l-136 -143h-70zM157 714h95l-150 -714h-95z" />
<glyph unicode="&#xce;" horiz-adv-x="259" d="M192 898h86l75 -143h-74l-51 93l-87 -93h-82zM157 714h95l-150 -714h-95z" />
<glyph unicode="&#xcf;" horiz-adv-x="259" d="M107 863h89l-21 -104h-89zM270 863h89l-21 -104h-89zM157 714h95l-150 -714h-95z" />
<glyph unicode="&#xd0;" horiz-adv-x="704" d="M186 407h200l-14 -68h-200l-55 -259h165q97 0 167 52.5t102 130.5t32 168q0 203 -197 203h-152zM79 339h-66l14 68h66l65 307h250q131 0 200.5 -72t69.5 -201q0 -201 -109.5 -321t-287.5 -120h-274z" />
<glyph unicode="&#xd1;" horiz-adv-x="722" d="M293 764q10 30 20 50.5t31 39.5t48 19q25 0 77 -25q5 -2 14.5 -6.5t14 -6.5t13 -5t11.5 -3h11q15 0 25 6.5t14 12.5t12 22h51q-15 -49 -38 -79t-64 -30q-23 0 -75 24t-66 22q-33 0 -47 -41h-52zM158 714h102l255 -591h2l119 591h92l-151 -714h-102l-253 587h-2l-121 -587 h-92z" />
<glyph unicode="&#xd2;" horiz-adv-x="759" d="M513 755h-67l-101 143h101zM133 296q0 -108 53.5 -170.5t157.5 -62.5q90 0 157.5 53t99.5 131.5t32 167.5q0 103 -53.5 169.5t-149.5 66.5q-95 0 -164.5 -54t-101 -132.5t-31.5 -168.5zM38 296q0 117 46 215t137 159t209 61q136 0 217 -90t81 -226q0 -114 -45.5 -211.5 t-134.5 -158.5t-204 -61q-147 0 -226.5 81.5t-79.5 230.5z" />
<glyph unicode="&#xd3;" horiz-adv-x="759" d="M499 898h113l-136 -143h-70zM133 296q0 -108 53.5 -170.5t157.5 -62.5q90 0 157.5 53t99.5 131.5t32 167.5q0 103 -53.5 169.5t-149.5 66.5q-95 0 -164.5 -54t-101 -132.5t-31.5 -168.5zM38 296q0 117 46 215t137 159t209 61q136 0 217 -90t81 -226q0 -114 -45.5 -211.5 t-134.5 -158.5t-204 -61q-147 0 -226.5 81.5t-79.5 230.5z" />
<glyph unicode="&#xd4;" horiz-adv-x="759" d="M432 898h86l75 -143h-74l-51 93l-87 -93h-82zM133 296q0 -108 53.5 -170.5t157.5 -62.5q90 0 157.5 53t99.5 131.5t32 167.5q0 103 -53.5 169.5t-149.5 66.5q-95 0 -164.5 -54t-101 -132.5t-31.5 -168.5zM38 296q0 117 46 215t137 159t209 61q136 0 217 -90t81 -226 q0 -114 -45.5 -211.5t-134.5 -158.5t-204 -61q-147 0 -226.5 81.5t-79.5 230.5z" />
<glyph unicode="&#xd5;" horiz-adv-x="759" d="M292 764q10 30 20 50.5t31 39.5t48 19q25 0 77 -25q5 -2 14.5 -6.5t14 -6.5t13 -5t11.5 -3h11q15 0 25 6.5t14 12.5t12 22h51q-15 -49 -38 -79t-64 -30q-23 0 -75 24t-66 22q-33 0 -47 -41h-52zM133 296q0 -108 53.5 -170.5t157.5 -62.5q90 0 157.5 53t99.5 131.5 t32 167.5q0 103 -53.5 169.5t-149.5 66.5q-95 0 -164.5 -54t-101 -132.5t-31.5 -168.5zM38 296q0 117 46 215t137 159t209 61q136 0 217 -90t81 -226q0 -114 -45.5 -211.5t-134.5 -158.5t-204 -61q-147 0 -226.5 81.5t-79.5 230.5z" />
<glyph unicode="&#xd6;" horiz-adv-x="759" d="M347 863h89l-21 -104h-89zM510 863h89l-21 -104h-89zM133 296q0 -108 53.5 -170.5t157.5 -62.5q90 0 157.5 53t99.5 131.5t32 167.5q0 103 -53.5 169.5t-149.5 66.5q-95 0 -164.5 -54t-101 -132.5t-31.5 -168.5zM38 296q0 117 46 215t137 159t209 61q136 0 217 -90 t81 -226q0 -114 -45.5 -211.5t-134.5 -158.5t-204 -61q-147 0 -226.5 81.5t-79.5 230.5z" />
<glyph unicode="&#xd7;" horiz-adv-x="600" d="M71 72l182 182l-181 180l48 48l181 -180l180 180l48 -48l-180 -180l181 -182l-48 -48l-181 182l-182 -182z" />
<glyph unicode="&#xd8;" horiz-adv-x="759" d="M181 135q56 -72 163 -72q90 0 157.5 53t99.5 131.5t32 167.5q0 72 -27 126zM583 579q-56 72 -153 72q-95 0 -164.5 -54t-101 -132.5t-31.5 -168.5q0 -73 25 -123zM88 106q-50 77 -50 190q0 117 46 215t137 159t209 61q134 0 217 -91l98 93l29 -32l-100 -95 q54 -82 54 -191q0 -114 -45.5 -211.5t-134.5 -158.5t-204 -61q-148 0 -229 87h-3l-95 -92l-28 31z" />
<glyph unicode="&#xd9;" horiz-adv-x="722" d="M504 755h-67l-101 143h101zM639 286q-23 -106 -36 -137q-34 -84 -107.5 -124.5t-170.5 -40.5q-158 0 -224 79.5t-35 230.5l89 420h95l-94 -444q-47 -207 169 -207q57 0 95.5 15t62 48t35.5 67.5t25 92.5l90 428h95z" />
<glyph unicode="&#xda;" horiz-adv-x="722" d="M490 898h113l-136 -143h-70zM639 286q-23 -106 -36 -137q-34 -84 -107.5 -124.5t-170.5 -40.5q-158 0 -224 79.5t-35 230.5l89 420h95l-94 -444q-47 -207 169 -207q57 0 95.5 15t62 48t35.5 67.5t25 92.5l90 428h95z" />
<glyph unicode="&#xdb;" horiz-adv-x="722" d="M423 898h86l75 -143h-74l-51 93l-87 -93h-82zM639 286q-23 -106 -36 -137q-34 -84 -107.5 -124.5t-170.5 -40.5q-158 0 -224 79.5t-35 230.5l89 420h95l-94 -444q-47 -207 169 -207q57 0 95.5 15t62 48t35.5 67.5t25 92.5l90 428h95z" />
<glyph unicode="&#xdc;" horiz-adv-x="722" d="M338 863h89l-21 -104h-89zM501 863h89l-21 -104h-89zM639 286q-23 -106 -36 -137q-34 -84 -107.5 -124.5t-170.5 -40.5q-158 0 -224 79.5t-35 230.5l89 420h95l-94 -444q-47 -207 169 -207q57 0 95.5 15t62 48t35.5 67.5t25 92.5l90 428h95z" />
<glyph unicode="&#xdd;" horiz-adv-x="611" d="M425 898h113l-136 -143h-70zM254 287l-188 427h101l146 -346l271 346h110l-346 -427l-62 -287h-93z" />
<glyph unicode="&#xde;" horiz-adv-x="648" d="M156 258h215q76 0 117 39.5t41 105.5q0 62 -32.5 89.5t-84.5 27.5h-201zM156 714h95l-23 -114h184q212 0 212 -197q0 -37 -13.5 -73.5t-43 -72t-85.5 -57.5t-131 -22h-212l-37 -178h-95z" />
<glyph unicode="&#xdf;" horiz-adv-x="537" d="M102 504q21 109 73.5 168t151.5 59q80 0 133.5 -37t53.5 -113q0 -71 -42.5 -123.5t-106.5 -60.5v-2q54 -8 83.5 -49t29.5 -98q0 -107 -71.5 -183t-177.5 -76q-43 0 -73 5l14 71q14 -2 15 -2h15q83 0 138 47.5t55 130.5q0 37 -12.5 61.5t-36 36.5t-50 15.5t-62.5 2.5 l15 70q74 -4 128 31t54 106q0 42 -30.5 67t-67.5 25q-36 0 -62.5 -13t-42.5 -38.5t-24.5 -49.5t-15.5 -58l-105 -497h-85z" />
<glyph unicode="&#xe0;" horiz-adv-x="519" d="M368 588h-67l-101 143h101zM53 361q11 82 74 125t150 43q189 0 189 -132q0 -30 -16 -94l-33 -141q-1 -7 -5 -22t-6.5 -28t-2.5 -24q0 -32 25 -32q8 0 27 7l-13 -63q-29 -11 -52 -11q-35 0 -53 19t-14 53l-2 2q-55 -74 -173 -74q-71 0 -114 34.5t-43 110.5q0 42 16 72.5 t37.5 47t59.5 27.5t64.5 14.5t70.5 7.5q8 1 12 1q33 3 49 5t35 7.5t27 13.5t13.5 21.5t5.5 34.5q0 37 -31 52.5t-73 15.5q-53 0 -92 -23t-47 -70h-85zM75 135q0 -34 27 -53t66 -19q101 0 145 68q10 14 17.5 32t11 30t9 37t7.5 34h-2q-22 -16 -73 -23.5t-94 -11t-78 -26.5 t-36 -68z" />
<glyph unicode="&#xe1;" horiz-adv-x="519" d="M354 731h113l-136 -143h-70zM53 361q11 82 74 125t150 43q189 0 189 -132q0 -30 -16 -94l-33 -141q-1 -7 -5 -22t-6.5 -28t-2.5 -24q0 -32 25 -32q8 0 27 7l-13 -63q-29 -11 -52 -11q-35 0 -53 19t-14 53l-2 2q-55 -74 -173 -74q-71 0 -114 34.5t-43 110.5q0 42 16 72.5 t37.5 47t59.5 27.5t64.5 14.5t70.5 7.5q8 1 12 1q33 3 49 5t35 7.5t27 13.5t13.5 21.5t5.5 34.5q0 37 -31 52.5t-73 15.5q-53 0 -92 -23t-47 -70h-85zM75 135q0 -34 27 -53t66 -19q101 0 145 68q10 14 17.5 32t11 30t9 37t7.5 34h-2q-22 -16 -73 -23.5t-94 -11t-78 -26.5 t-36 -68z" />
<glyph unicode="&#xe2;" horiz-adv-x="519" d="M287 731h86l75 -143h-74l-51 93l-87 -93h-82zM53 361q11 82 74 125t150 43q189 0 189 -132q0 -30 -16 -94l-33 -141q-1 -7 -5 -22t-6.5 -28t-2.5 -24q0 -32 25 -32q8 0 27 7l-13 -63q-29 -11 -52 -11q-35 0 -53 19t-14 53l-2 2q-55 -74 -173 -74q-71 0 -114 34.5 t-43 110.5q0 42 16 72.5t37.5 47t59.5 27.5t64.5 14.5t70.5 7.5q8 1 12 1q33 3 49 5t35 7.5t27 13.5t13.5 21.5t5.5 34.5q0 37 -31 52.5t-73 15.5q-53 0 -92 -23t-47 -70h-85zM75 135q0 -34 27 -53t66 -19q101 0 145 68q10 14 17.5 32t11 30t9 37t7.5 34h-2 q-22 -16 -73 -23.5t-94 -11t-78 -26.5t-36 -68z" />
<glyph unicode="&#xe3;" horiz-adv-x="519" d="M147 597q10 30 20 50.5t31 39.5t48 19q25 0 77 -25q5 -2 14.5 -6.5t14 -6.5t13 -5t11.5 -3h11q15 0 25 6.5t14 12.5t12 22h51q-15 -49 -38 -79t-64 -30q-23 0 -75 24t-66 22q-33 0 -47 -41h-52zM53 361q11 82 74 125t150 43q189 0 189 -132q0 -30 -16 -94l-33 -141 q-1 -7 -5 -22t-6.5 -28t-2.5 -24q0 -32 25 -32q8 0 27 7l-13 -63q-29 -11 -52 -11q-35 0 -53 19t-14 53l-2 2q-55 -74 -173 -74q-71 0 -114 34.5t-43 110.5q0 42 16 72.5t37.5 47t59.5 27.5t64.5 14.5t70.5 7.5q8 1 12 1q33 3 49 5t35 7.5t27 13.5t13.5 21.5t5.5 34.5 q0 37 -31 52.5t-73 15.5q-53 0 -92 -23t-47 -70h-85zM75 135q0 -34 27 -53t66 -19q101 0 145 68q10 14 17.5 32t11 30t9 37t7.5 34h-2q-22 -16 -73 -23.5t-94 -11t-78 -26.5t-36 -68z" />
<glyph unicode="&#xe4;" horiz-adv-x="519" d="M202 696h89l-21 -104h-89zM365 696h89l-21 -104h-89zM53 361q11 82 74 125t150 43q189 0 189 -132q0 -30 -16 -94l-33 -141q-1 -7 -5 -22t-6.5 -28t-2.5 -24q0 -32 25 -32q8 0 27 7l-13 -63q-29 -11 -52 -11q-35 0 -53 19t-14 53l-2 2q-55 -74 -173 -74q-71 0 -114 34.5 t-43 110.5q0 42 16 72.5t37.5 47t59.5 27.5t64.5 14.5t70.5 7.5q8 1 12 1q33 3 49 5t35 7.5t27 13.5t13.5 21.5t5.5 34.5q0 37 -31 52.5t-73 15.5q-53 0 -92 -23t-47 -70h-85zM75 135q0 -34 27 -53t66 -19q101 0 145 68q10 14 17.5 32t11 30t9 37t7.5 34h-2 q-22 -16 -73 -23.5t-94 -11t-78 -26.5t-36 -68z" />
<glyph unicode="&#xe5;" horiz-adv-x="519" d="M200 662q0 46 33.5 79.5t79.5 33.5t79.5 -33.5t33.5 -79.5t-33.5 -79.5t-79.5 -33.5t-79.5 33.5t-33.5 79.5zM245 662q0 -29 19.5 -48.5t48.5 -19.5t48.5 19.5t19.5 48.5t-19.5 48.5t-48.5 19.5t-48.5 -19.5t-19.5 -48.5zM53 361q11 82 74 125t150 43q189 0 189 -132 q0 -30 -16 -94l-33 -141q-1 -7 -5 -22t-6.5 -28t-2.5 -24q0 -32 25 -32q8 0 27 7l-13 -63q-29 -11 -52 -11q-35 0 -53 19t-14 53l-2 2q-55 -74 -173 -74q-71 0 -114 34.5t-43 110.5q0 42 16 72.5t37.5 47t59.5 27.5t64.5 14.5t70.5 7.5q8 1 12 1q33 3 49 5t35 7.5t27 13.5 t13.5 21.5t5.5 34.5q0 37 -31 52.5t-73 15.5q-53 0 -92 -23t-47 -70h-85zM75 135q0 -34 27 -53t66 -19q101 0 145 68q10 14 17.5 32t11 30t9 37t7.5 34h-2q-22 -16 -73 -23.5t-94 -11t-78 -26.5t-36 -68z" />
<glyph unicode="&#xe6;" horiz-adv-x="870" d="M80 132q0 -36 27.5 -52.5t68.5 -16.5q80 0 125 45q43 43 61 158q-31 -15 -85.5 -23.5t-94.5 -14t-71 -29t-31 -67.5zM64 362q13 86 76 126.5t155 40.5q125 0 165 -81q27 38 71.5 59.5t93.5 21.5q99 0 149 -52.5t50 -150.5q0 -39 -14 -93h-375q-5 -27 -5 -52q0 -50 32 -84 t92 -34q111 0 153 99h87q-9 -27 -28 -58q-76 -115 -219 -115q-145 0 -182 111q-66 -111 -203 -111q-166 0 -166 143q0 136 196 158q10 1 32 3.5t32.5 3.5t29.5 4t28.5 6t23.5 7.5t21.5 11t15 15t10.5 19.5t3 25q0 69 -113 69q-49 0 -83 -24t-45 -68h-83zM739 308 q9 62 -20.5 104t-97.5 42q-66 0 -112 -42.5t-60 -103.5h290z" />
<glyph unicode="&#xe7;" horiz-adv-x="537" d="M416 353q0 48 -29 74.5t-80 26.5q-92 0 -146.5 -75t-54.5 -168q0 -66 30.5 -107t97.5 -41q54 0 93.5 28.5t57.5 77.5h85q-21 -82 -77.5 -128t-140.5 -51l-37 -42h2q9 4 26 4q38 0 64.5 -18.5t26.5 -55.5q0 -42 -36.5 -64.5t-82.5 -22.5q-51 0 -98 22l18 43q45 -15 64 -15 q60 0 60 30q0 31 -46 31q-27 0 -42 -8l-19 30l55 67q-92 8 -139 65t-47 155q0 131 77 224.5t209 93.5q90 0 140.5 -43.5t53.5 -132.5h-85z" />
<glyph unicode="&#xe8;" horiz-adv-x="537" d="M377 588h-67l-101 143h101zM98 233q-3 -23 -3 -45q0 -57 39.5 -91t94.5 -34q112 0 149 99h85q-20 -84 -83.5 -128.5t-150.5 -44.5q-61 0 -106 19t-68.5 51t-34 66t-10.5 71q0 145 78.5 239t187.5 94q219 0 219 -229q0 -27 -8 -67h-389zM410 308q4 61 -26 103.5t-95 42.5 q-71 0 -115 -40t-64 -106h300z" />
<glyph unicode="&#xe9;" horiz-adv-x="537" d="M363 731h113l-136 -143h-70zM98 233q-3 -23 -3 -45q0 -57 39.5 -91t94.5 -34q112 0 149 99h85q-20 -84 -83.5 -128.5t-150.5 -44.5q-61 0 -106 19t-68.5 51t-34 66t-10.5 71q0 145 78.5 239t187.5 94q219 0 219 -229q0 -27 -8 -67h-389zM410 308q4 61 -26 103.5t-95 42.5 q-71 0 -115 -40t-64 -106h300z" />
<glyph unicode="&#xea;" horiz-adv-x="537" d="M296 731h86l75 -143h-74l-51 93l-87 -93h-82zM98 233q-3 -23 -3 -45q0 -57 39.5 -91t94.5 -34q112 0 149 99h85q-20 -84 -83.5 -128.5t-150.5 -44.5q-61 0 -106 19t-68.5 51t-34 66t-10.5 71q0 145 78.5 239t187.5 94q219 0 219 -229q0 -27 -8 -67h-389zM410 308 q4 61 -26 103.5t-95 42.5q-71 0 -115 -40t-64 -106h300z" />
<glyph unicode="&#xeb;" horiz-adv-x="537" d="M211 696h89l-21 -104h-89zM374 696h89l-21 -104h-89zM98 233q-3 -23 -3 -45q0 -57 39.5 -91t94.5 -34q112 0 149 99h85q-20 -84 -83.5 -128.5t-150.5 -44.5q-61 0 -106 19t-68.5 51t-34 66t-10.5 71q0 145 78.5 239t187.5 94q219 0 219 -229q0 -27 -8 -67h-389zM410 308 q4 61 -26 103.5t-95 42.5q-71 0 -115 -40t-64 -106h300z" />
<glyph unicode="&#xec;" horiz-adv-x="222" d="M244 588h-67l-101 143h101zM-4 0l107 517h85l-108 -517h-84z" />
<glyph unicode="&#xed;" horiz-adv-x="222" d="M230 731h113l-136 -143h-70zM-4 0l107 517h85l-108 -517h-84z" />
<glyph unicode="&#xee;" horiz-adv-x="222" d="M153 731h86l75 -143h-74l-51 93l-87 -93h-82zM-4 0l107 517h85l-108 -517h-84z" />
<glyph unicode="&#xef;" horiz-adv-x="222" d="M68 696h89l-21 -104h-89zM231 696h89l-21 -104h-89zM-4 0l107 517h85l-108 -517h-84z" />
<glyph unicode="&#xf0;" horiz-adv-x="574" d="M508 696l-108 -55q66 -64 97.5 -129.5t31.5 -169.5q0 -154 -76.5 -253.5t-217.5 -99.5q-100 0 -159 59t-59 151q0 126 79 216.5t210 90.5q81 0 129 -53h2q-13 44 -46.5 88t-62.5 64l-114 -57l-42 40l113 56q-26 20 -59 42l64 45q47 -30 69 -50l105 53zM300 431 q-62 0 -109 -38t-68 -89.5t-21 -103.5q0 -62 37 -99.5t105 -37.5q86 0 140.5 77t54.5 159q0 59 -36 95.5t-103 36.5z" />
<glyph unicode="&#xf1;" d="M190 597q10 30 20 50.5t31 39.5t48 19q25 0 77 -25q5 -2 14.5 -6.5t14 -6.5t13 -5t11.5 -3h11q15 0 25 6.5t14 12.5t12 22h51q-15 -49 -38 -79t-64 -30q-23 0 -75 24t-66 22q-33 0 -47 -41h-52zM104 517h82l-16 -78h2q32 44 80.5 67t103.5 23q73 0 108.5 -32t35.5 -101 q0 -34 -15 -101l-63 -295h-85l66 302q1 6 4.5 24t5.5 33t2 23q0 35 -25 53.5t-65 18.5q-73 0 -128 -60q-37 -32 -57 -108l-60 -286h-84z" />
<glyph unicode="&#xf2;" horiz-adv-x="574" d="M395 588h-67l-101 143h101zM17 204q0 133 79 229t210 96q105 0 160 -54.5t55 -159.5q0 -134 -78 -230t-208 -96q-100 0 -159 60t-59 155zM102 205q0 -65 37 -103.5t105 -38.5q58 0 104 41t67 96t21 108q0 64 -34.5 105t-101.5 41q-62 0 -108.5 -40.5t-68 -96 t-21.5 -112.5z" />
<glyph unicode="&#xf3;" horiz-adv-x="574" d="M381 731h113l-136 -143h-70zM17 204q0 133 79 229t210 96q105 0 160 -54.5t55 -159.5q0 -134 -78 -230t-208 -96q-100 0 -159 60t-59 155zM102 205q0 -65 37 -103.5t105 -38.5q58 0 104 41t67 96t21 108q0 64 -34.5 105t-101.5 41q-62 0 -108.5 -40.5t-68 -96 t-21.5 -112.5z" />
<glyph unicode="&#xf4;" horiz-adv-x="574" d="M314 731h86l75 -143h-74l-51 93l-87 -93h-82zM17 204q0 133 79 229t210 96q105 0 160 -54.5t55 -159.5q0 -134 -78 -230t-208 -96q-100 0 -159 60t-59 155zM102 205q0 -65 37 -103.5t105 -38.5q58 0 104 41t67 96t21 108q0 64 -34.5 105t-101.5 41q-62 0 -108.5 -40.5 t-68 -96t-21.5 -112.5z" />
<glyph unicode="&#xf5;" horiz-adv-x="574" d="M174 597q10 30 20 50.5t31 39.5t48 19q25 0 77 -25q5 -2 14.5 -6.5t14 -6.5t13 -5t11.5 -3h11q15 0 25 6.5t14 12.5t12 22h51q-15 -49 -38 -79t-64 -30q-23 0 -75 24t-66 22q-33 0 -47 -41h-52zM17 204q0 133 79 229t210 96q105 0 160 -54.5t55 -159.5q0 -134 -78 -230 t-208 -96q-100 0 -159 60t-59 155zM102 205q0 -65 37 -103.5t105 -38.5q58 0 104 41t67 96t21 108q0 64 -34.5 105t-101.5 41q-62 0 -108.5 -40.5t-68 -96t-21.5 -112.5z" />
<glyph unicode="&#xf6;" horiz-adv-x="574" d="M229 696h89l-21 -104h-89zM392 696h89l-21 -104h-89zM17 204q0 133 79 229t210 96q105 0 160 -54.5t55 -159.5q0 -134 -78 -230t-208 -96q-100 0 -159 60t-59 155zM102 205q0 -65 37 -103.5t105 -38.5q58 0 104 41t67 96t21 108q0 64 -34.5 105t-101.5 41 q-62 0 -108.5 -40.5t-68 -96t-21.5 -112.5z" />
<glyph unicode="&#xf7;" horiz-adv-x="600" d="M236 47q0 26 19 45t45 19t45 -19t19 -45q0 -24 -19 -43.5t-44 -19.5q-26 0 -45.5 18.5t-19.5 44.5zM236 459q0 26 19 45t45 19t45 -19t19 -45q0 -24 -19 -44t-44 -20q-26 0 -45.5 19t-19.5 45zM48 287h504v-68h-504v68z" />
<glyph unicode="&#xf8;" horiz-adv-x="574" d="M47 83q-30 49 -30 121q0 133 79 229t210 96q111 0 165 -63l70 63l25 -28l-73 -66q28 -46 28 -120q0 -134 -78 -230t-208 -96q-111 0 -166 64l-74 -67l-24 27zM408 409q-38 45 -108 45q-62 0 -108.5 -40.5t-68 -96t-21.5 -112.5q0 -40 10 -63h1zM130 108q38 -45 114 -45 q58 0 104 41t67 96t21 108q0 35 -11 66z" />
<glyph unicode="&#xf9;" d="M367 588h-67l-101 143h101zM411 0h-82l16 78h-2q-64 -89 -184 -89q-73 0 -108.5 32t-35.5 100q0 34 15 101l63 295h85l-66 -302q-12 -46 -12 -80q0 -35 25 -53.5t65 -18.5q68 0 119 49.5t66 118.5l60 286h85z" />
<glyph unicode="&#xfa;" d="M343 731h113l-136 -143h-70zM411 0h-82l16 78h-2q-64 -89 -184 -89q-73 0 -108.5 32t-35.5 100q0 34 15 101l63 295h85l-66 -302q-12 -46 -12 -80q0 -35 25 -53.5t65 -18.5q68 0 119 49.5t66 118.5l60 286h85z" />
<glyph unicode="&#xfb;" d="M310 731h86l75 -143h-74l-51 93l-87 -93h-82zM411 0h-82l16 78h-2q-64 -89 -184 -89q-73 0 -108.5 32t-35.5 100q0 34 15 101l63 295h85l-66 -302q-12 -46 -12 -80q0 -35 25 -53.5t65 -18.5q68 0 119 49.5t66 118.5l60 286h85z" />
<glyph unicode="&#xfc;" d="M191 696h89l-21 -104h-89zM354 696h89l-21 -104h-89zM411 0h-82l16 78h-2q-64 -89 -184 -89q-73 0 -108.5 32t-35.5 100q0 34 15 101l63 295h85l-66 -302q-12 -46 -12 -80q0 -35 25 -53.5t65 -18.5q68 0 119 49.5t66 118.5l60 286h85z" />
<glyph unicode="&#xfd;" horiz-adv-x="481" d="M312 731h113l-136 -143h-70zM163 -87q-27 -42 -44 -63.5t-49 -40t-73 -18.5q-33 0 -59 13l15 69q23 -14 48 -14q46 0 80 56l52 85l-91 517h91l60 -411h2l217 411h93z" />
<glyph unicode="&#xfe;" horiz-adv-x="593" d="M142 714h85l-63 -271h2q37 48 77 67t94 19q97 0 150 -58t53 -154q0 -81 -33 -154.5t-100.5 -123.5t-153.5 -50q-56 0 -102 21t-59 69h-2l-55 -276h-83zM455 317q0 137 -133 137q-61 0 -109 -42.5t-70.5 -100t-22.5 -114.5q0 -60 34.5 -97t95.5 -37q94 0 149.5 79 t55.5 175z" />
<glyph unicode="&#xff;" horiz-adv-x="481" d="M160 696h89l-21 -104h-89zM323 696h89l-21 -104h-89zM163 -87q-27 -42 -44 -63.5t-49 -40t-73 -18.5q-33 0 -59 13l15 69q23 -14 48 -14q46 0 80 56l52 85l-91 517h91l60 -411h2l217 411h93z" />
<glyph unicode="&#x100;" horiz-adv-x="648" d="M363 714l-430 -714h98l125 215h302l33 -215h105l-128 714h-105zM445 295h-242l192 333h2zM280 872l-12 -55h341l12 55h-341z" />
<glyph unicode="&#x101;" horiz-adv-x="537" d="M462 2l14 66q-18 -5 -27 -5q-10 0 -15 3t-5.5 12t0.5 16.5t5 26.5l57 266q9 43 -1.5 72.5t-37 44t-56 20t-69.5 5.5q-95 0 -164 -41.5t-92 -131.5h85q26 98 150 98q50 0 79 -18t18 -68q-4 -19 -15 -31t-31.5 -18.5t-38.5 -10t-50.5 -8t-54.5 -8.5q-41 -7 -69 -15.5 t-59.5 -25.5t-51.5 -46.5t-29 -71.5q-15 -74 24.5 -109.5t115.5 -35.5q113 0 199 80q-17 -80 55 -80q38 0 64 14zM380 267l-18 -87q-10 -43 -58 -80t-125 -37q-43 0 -68 18.5t-16 57.5q10 44 46.5 67t77 27t89 11.5t72.5 22.5zM186 682l-11 -55h341l11 55h-341z" />
<glyph unicode="&#x102;" horiz-adv-x="648" d="M363 714l-430 -714h98l125 215h302l33 -215h105l-128 714h-105zM445 295h-242l192 333h2zM354 919h-50q-11 -138 125 -138q65 0 113.5 36.5t73.5 101.5h-51q-26 -43 -51.5 -63t-65.5 -20q-88 0 -94 83z" />
<glyph unicode="&#x103;" horiz-adv-x="537" d="M462 2l14 66q-18 -5 -27 -5q-10 0 -15 3t-5.5 12t0.5 16.5t5 26.5l57 266q9 43 -1.5 72.5t-37 44t-56 20t-69.5 5.5q-95 0 -164 -41.5t-92 -131.5h85q26 98 150 98q50 0 79 -18t18 -68q-4 -19 -15 -31t-31.5 -18.5t-38.5 -10t-50.5 -8t-54.5 -8.5q-41 -7 -69 -15.5 t-59.5 -25.5t-51.5 -46.5t-29 -71.5q-15 -74 24.5 -109.5t115.5 -35.5q113 0 199 80q-17 -80 55 -80q38 0 64 14zM380 267l-18 -87q-10 -43 -58 -80t-125 -37q-43 0 -68 18.5t-16 57.5q10 44 46.5 67t77 27t89 11.5t72.5 22.5zM260 729h-50q-8 -138 125 -138 q65 0 113.5 36.5t73.5 101.5h-51q-26 -43 -51 -63t-65 -20q-87 0 -95 83z" />
<glyph unicode="&#x104;" horiz-adv-x="667" d="M479 714h-104l-429 -714h105l125 215h301l33 -215h7q-21 -13 -44 -29q-78 -57 -78 -109q0 -71 88 -71q40 0 68 13.5t57 48.5l-37 12q-32 -24 -72 -24q-37 0 -37 37q0 20 30.5 51t64.5 54q11 7 26 17h25zM465 295h-246l191 335h2z" />
<glyph unicode="&#x105;" horiz-adv-x="519" d="M53 361h85q8 47 47 70t92 23q42 0 73 -15.5t31 -52.5q0 -48 -26.5 -61.5t-103.5 -20.5q-119 -11 -164 -29q-96 -37 -96 -141q0 -76 43 -110.5t114 -34.5q118 0 173 74l2 -2q-4 -33 14 -53q8 -8 17 -12q-20 -13 -37 -25q-78 -57 -78 -109q0 -71 88 -71q40 0 68 13.5 t57 48.5l-37 12q-32 -24 -72 -24q-37 0 -37 37q0 20 30.5 51t64.5 54q5 3 13 9q1 0 2 1q17 3 26 7l13 63l-14 -5q-10 -2 -13 -2q-25 0 -25 32q0 11 2.5 24t6.5 28t5 22l33 141q16 64 16 94q0 132 -189 132q-87 0 -150 -43t-74 -125zM75 135q1 45 36 68t78 26.5t94 11 t73 23.5h2q-2 -9 -7.5 -34t-9 -37t-11 -30t-17.5 -32q-44 -68 -145 -68q-39 0 -66 19t-27 53z" />
<glyph unicode="&#x106;" horiz-adv-x="722" d="M660 241h-95q-49 -178 -221 -178q-104 0 -157.5 62.5t-53.5 170.5q0 90 31.5 168.5t101 132.5t164.5 54q81 0 129 -42.5t48 -124.5h95q0 119 -75.5 183t-196.5 64q-118 0 -209 -61t-137 -159t-46 -215q0 -149 79.5 -230.5t226.5 -81.5q129 0 208.5 67t107.5 190zM582 898 h-113l-93 -143h70z" />
<glyph unicode="&#x107;" horiz-adv-x="537" d="M416 353h85q-3 89 -53.5 132.5t-140.5 43.5q-132 0 -209 -93.5t-77 -224.5q0 -107 54 -164.5t159 -57.5q91 0 152 46t84 134h-85q-18 -49 -57.5 -77.5t-93.5 -28.5q-67 0 -97.5 41t-30.5 107q0 93 54.5 168t146.5 75q51 0 80 -26.5t29 -74.5zM451 731h-113l-93 -143h70z " />
<glyph unicode="&#x108;" horiz-adv-x="722" d="M58 355q-35 -163 29 -267.5t222 -104.5q136 0 231.5 75t138.5 211h-95q-25 -91 -92.5 -148.5t-157.5 -57.5q-82 0 -130.5 41.5t-56.5 107.5t7 150q26 122 105 205.5t199 83.5q77 0 122.5 -39t45.5 -113h95q8 110 -61 171t-184 61q-159 0 -271.5 -107t-146.5 -269z M469 922l-133 -143h77l90 96l49 -96h84l-74 143h-93z" />
<glyph unicode="&#x109;" horiz-adv-x="537" d="M429 351h88q9 89 -41.5 133.5t-143.5 44.5q-118 0 -198 -77.5t-105 -199.5q-25 -120 22.5 -192t163.5 -72q197 0 271 201h-87q-44 -126 -169 -126q-75 0 -101.5 55t-9.5 134q18 88 68 145t136 57q53 0 80 -27t26 -76zM333 732l-133 -143h77l90 96l49 -96h84l-74 143h-93z " />
<glyph unicode="&#x10a;" horiz-adv-x="722" d="M58 355q-35 -163 29 -267.5t222 -104.5q136 0 231.5 75t138.5 211h-95q-25 -91 -92.5 -148.5t-157.5 -57.5q-82 0 -130.5 41.5t-56.5 107.5t7 150q26 122 105 205.5t199 83.5q77 0 122.5 -39t45.5 -113h95q8 110 -61 171t-184 61q-159 0 -271.5 -107t-146.5 -269z M533 793l22 104h-90l-22 -104h90z" />
<glyph unicode="&#x10b;" horiz-adv-x="537" d="M429 351h88q9 89 -41.5 133.5t-143.5 44.5q-118 0 -198 -77.5t-105 -199.5q-25 -120 22.5 -192t163.5 -72q197 0 271 201h-87q-44 -126 -169 -126q-75 0 -101.5 55t-9.5 134q18 88 68 145t136 57q53 0 80 -27t26 -76zM397 604l22 104h-90l-22 -104h90z" />
<glyph unicode="&#x10c;" horiz-adv-x="722" d="M58 355q-35 -163 29 -267.5t222 -104.5q136 0 231.5 75t138.5 211h-95q-25 -91 -92.5 -148.5t-157.5 -57.5q-82 0 -130.5 41.5t-56.5 107.5t7 150q26 122 105 205.5t199 83.5q77 0 122.5 -39t45.5 -113h95q8 110 -61 171t-184 61q-159 0 -271.5 -107t-146.5 -269z M532 779l133 143h-77l-90 -96l-49 96h-84l74 -143h93z" />
<glyph unicode="&#x10d;" horiz-adv-x="537" d="M429 351h88q9 89 -41.5 133.5t-143.5 44.5q-118 0 -198 -77.5t-105 -199.5q-25 -120 22.5 -192t163.5 -72q197 0 271 201h-87q-44 -126 -169 -126q-75 0 -101.5 55t-9.5 134q18 88 68 145t136 57q53 0 80 -27t26 -76zM392 589l133 143h-77l-90 -96l-49 96h-84l74 -143h93 z" />
<glyph unicode="&#x10e;" horiz-adv-x="704" d="M169 714l-151 -714h245q342 0 422 374q36 170 -34 255t-237 85h-245zM288 80h-158l117 554h160q127 0 167.5 -69.5t12.5 -203.5q-16 -75 -47 -130t-63 -83t-72.5 -44.5t-65.5 -20t-51 -3.5zM467 779l133 143h-77l-90 -96l-49 96h-84l74 -143h93z" />
<glyph unicode="&#x10f;" horiz-adv-x="593" d="M466 0l151 714h-85l-56 -266h-2q-16 42 -60 61.5t-90 19.5q-113 0 -190.5 -76.5t-102.5 -192.5t20.5 -194t159.5 -78q124 0 182 82h2l-14 -70h85zM119 254q18 85 68 142.5t130 57.5q82 0 110 -56t11 -140q-18 -81 -68.5 -138t-130.5 -57q-77 0 -107.5 56.5t-12.5 134.5z M693 714l-56 -143h60l105 143h-109z" />
<glyph unicode="&#x110;" horiz-adv-x="704" d="M90 341l-72 -341h245q342 0 422 374q36 170 -34 255t-237 85h-245l-65 -309h-70l-14 -64h70zM199 405l48 229h160q127 0 167.5 -69.5t12.5 -203.5q-16 -75 -47 -130t-63 -83t-72.5 -44.5t-65.5 -20t-51 -3.5h-158l55 261h214l14 64h-214z" />
<glyph unicode="&#x111;" horiz-adv-x="598" d="M346 636l-12 -53h170l-28 -135h-2q-16 42 -60 61.5t-90 19.5q-113 0 -190.5 -76.5t-102.5 -192.5t20.5 -194t159.5 -78q124 0 182 82h2l-14 -70h85l123 583h86l12 53h-86l16 78h-85l-16 -78h-170zM119 254q18 85 68 142.5t130 57.5q82 0 110 -56t11 -140 q-18 -81 -68.5 -138t-130.5 -57q-77 0 -107.5 56.5t-12.5 134.5z" />
<glyph unicode="&#x112;" horiz-adv-x="611" d="M169 714l-151 -714h496l17 80h-401l52 247h371l17 80h-371l48 227h398l17 80h-493zM274 872l-12 -55h341l12 55h-341z" />
<glyph unicode="&#x113;" horiz-adv-x="537" d="M479 164h-84q-43 -101 -155 -101q-80 0 -111 48.5t-14 121.5h387q10 39 12.5 78.5t-6.5 79.5t-28.5 70t-57.5 49t-91 19q-106 0 -191 -76t-109 -193q-23 -123 24 -197.5t166 -74.5q89 0 156 45t102 131zM428 308h-297q16 62 65.5 104t113.5 42q63 0 94.5 -41.5 t23.5 -104.5zM195 682l-11 -55h341l11 55h-341z" />
<glyph unicode="&#x114;" horiz-adv-x="611" d="M169 714l-151 -714h496l17 80h-401l52 247h371l17 80h-371l48 227h398l17 80h-493zM348 919h-50q-11 -138 125 -138q65 0 113.5 36.5t73.5 101.5h-51q-26 -43 -51.5 -63t-65.5 -20q-88 0 -94 83z" />
<glyph unicode="&#x115;" horiz-adv-x="537" d="M479 164h-84q-43 -101 -155 -101q-80 0 -111 48.5t-14 121.5h387q10 39 12.5 78.5t-6.5 79.5t-28.5 70t-57.5 49t-91 19q-106 0 -191 -76t-109 -193q-23 -123 24 -197.5t166 -74.5q89 0 156 45t102 131zM428 308h-297q16 62 65.5 104t113.5 42q63 0 94.5 -41.5 t23.5 -104.5zM269 729h-50q-8 -138 125 -138q65 0 113.5 36.5t73.5 101.5h-51q-26 -43 -51 -63t-65 -20q-87 0 -95 83z" />
<glyph unicode="&#x116;" horiz-adv-x="611" d="M169 714l-151 -714h496l17 80h-401l52 247h371l17 80h-371l48 227h398l17 80h-493zM472 793l22 104h-90l-22 -104h90z" />
<glyph unicode="&#x117;" horiz-adv-x="537" d="M479 164h-84q-43 -101 -155 -101q-80 0 -111 48.5t-14 121.5h387q10 39 12.5 78.5t-6.5 79.5t-28.5 70t-57.5 49t-91 19q-106 0 -191 -76t-109 -193q-23 -123 24 -197.5t166 -74.5q89 0 156 45t102 131zM428 308h-297q16 62 65.5 104t113.5 42q63 0 94.5 -41.5 t23.5 -104.5zM394 604l22 104h-90l-22 -104h90z" />
<glyph unicode="&#x118;" horiz-adv-x="611" d="M650 714h-492l-151 -714h425q-21 -13 -44 -29q-78 -57 -78 -109q0 -71 88 -71q40 0 68 13.5t57 48.5l-37 12q-32 -24 -72 -24q-37 0 -37 37q0 20 30.5 51t64.5 54q17 11 31 17l19 80h-402l52 247h371l16 80h-370l48 227h397z" />
<glyph unicode="&#x119;" horiz-adv-x="537" d="M98 233h389q8 40 8 67q0 229 -219 229q-109 0 -187.5 -94t-78.5 -239q0 -135 112 -188q41 -17 104 -19q-4 -3 -12.5 -9t-13.5 -9q-78 -57 -78 -109q0 -71 88 -71q40 0 68 13.5t57 48.5l-37 12q-32 -24 -72 -24q-37 0 -37 37q0 20 30.5 51t64.5 54q21 14 28 18 q33 10 66 31q66 47 85 130h-85q-37 -99 -149 -99q-55 0 -94.5 34t-39.5 91q0 22 3 45zM410 308h-300q20 66 64 106t115 40q65 0 95 -42.5t26 -103.5z" />
<glyph unicode="&#x11a;" horiz-adv-x="611" d="M169 714l-151 -714h496l17 80h-401l52 247h371l17 80h-371l48 227h398l17 80h-493zM471 779l133 143h-77l-90 -96l-49 96h-84l74 -143h93z" />
<glyph unicode="&#x11b;" horiz-adv-x="537" d="M479 164h-84q-43 -101 -155 -101q-80 0 -111 48.5t-14 121.5h387q10 39 12.5 78.5t-6.5 79.5t-28.5 70t-57.5 49t-91 19q-106 0 -191 -76t-109 -193q-23 -123 24 -197.5t166 -74.5q89 0 156 45t102 131zM428 308h-297q16 62 65.5 104t113.5 42q63 0 94.5 -41.5 t23.5 -104.5zM391 589l133 143h-77l-90 -96l-49 96h-84l74 -143h93z" />
<glyph unicode="&#x11c;" horiz-adv-x="759" d="M55 343q-20 -95 2.5 -176t91 -132.5t170.5 -51.5q149 0 251 106l7 -89h60l79 376h-313l-17 -80h228q-16 -100 -93 -166.5t-185 -66.5q-57 0 -100 23.5t-64 63t-28 91t7 107.5q26 126 107.5 214.5t202.5 88.5q84 0 132.5 -39.5t46.5 -117.5h95q6 120 -64 178.5t-193 58.5 q-162 0 -274.5 -111.5t-148.5 -276.5zM475 922l-133 -143h77l90 96l49 -96h84l-74 143h-93z" />
<glyph unicode="&#x11d;" horiz-adv-x="574" d="M459 44l100 473h-80l-15 -74h-1q-14 42 -50 64t-86 22q-65 0 -118.5 -25t-88.5 -66.5t-57.5 -87t-32.5 -94.5q-23 -112 21 -187t154 -75q53 0 101.5 24t79.5 70h2l-7 -34q-19 -92 -68 -144t-129 -52q-30 0 -57 8t-45.5 27.5t-13.5 48.5h-85q-13 -77 42.5 -114.5 t139.5 -37.5q123 0 195 62.5t99 191.5zM226 69q-40 0 -66 17.5t-35.5 46t-11 63.5t8.5 70q17 81 66 134.5t127 53.5q74 0 99 -54t9 -131q-19 -83 -69 -141.5t-128 -58.5zM335 732l-133 -143h77l90 96l49 -96h84l-74 143h-93z" />
<glyph unicode="&#x11e;" horiz-adv-x="759" d="M55 343q-20 -95 2.5 -176t91 -132.5t170.5 -51.5q149 0 251 106l7 -89h60l79 376h-313l-17 -80h228q-16 -100 -93 -166.5t-185 -66.5q-57 0 -100 23.5t-64 63t-28 91t7 107.5q26 126 107.5 214.5t202.5 88.5q84 0 132.5 -39.5t46.5 -117.5h95q6 120 -64 178.5t-193 58.5 q-162 0 -274.5 -111.5t-148.5 -276.5zM415 919h-50q-11 -138 125 -138q65 0 113.5 36.5t73.5 101.5h-51q-26 -43 -51.5 -63t-65.5 -20q-88 0 -94 83z" />
<glyph unicode="&#x11f;" horiz-adv-x="574" d="M459 44l100 473h-80l-15 -74h-1q-14 42 -50 64t-86 22q-65 0 -118.5 -25t-88.5 -66.5t-57.5 -87t-32.5 -94.5q-23 -112 21 -187t154 -75q53 0 101.5 24t79.5 70h2l-7 -34q-19 -92 -68 -144t-129 -52q-30 0 -57 8t-45.5 27.5t-13.5 48.5h-85q-13 -77 42.5 -114.5 t139.5 -37.5q123 0 195 62.5t99 191.5zM226 69q-40 0 -66 17.5t-35.5 46t-11 63.5t8.5 70q17 81 66 134.5t127 53.5q74 0 99 -54t9 -131q-19 -83 -69 -141.5t-128 -58.5zM274 729h-50q-8 -138 125 -138q65 0 113.5 36.5t73.5 101.5h-51q-26 -43 -51 -63t-65 -20 q-87 0 -95 83z" />
<glyph unicode="&#x120;" horiz-adv-x="759" d="M55 343q-20 -95 2.5 -176t91 -132.5t170.5 -51.5q149 0 251 106l7 -89h60l79 376h-313l-17 -80h228q-16 -100 -93 -166.5t-185 -66.5q-57 0 -100 23.5t-64 63t-28 91t7 107.5q26 126 107.5 214.5t202.5 88.5q84 0 132.5 -39.5t46.5 -117.5h95q6 120 -64 178.5t-193 58.5 q-162 0 -274.5 -111.5t-148.5 -276.5zM538 793l22 104h-90l-22 -104h90z" />
<glyph unicode="&#x121;" horiz-adv-x="574" d="M459 44l100 473h-80l-15 -74h-1q-14 42 -50 64t-86 22q-65 0 -118.5 -25t-88.5 -66.5t-57.5 -87t-32.5 -94.5q-23 -112 21 -187t154 -75q53 0 101.5 24t79.5 70h2l-7 -34q-19 -92 -68 -144t-129 -52q-30 0 -57 8t-45.5 27.5t-13.5 48.5h-85q-13 -77 42.5 -114.5 t139.5 -37.5q123 0 195 62.5t99 191.5zM226 69q-40 0 -66 17.5t-35.5 46t-11 63.5t8.5 70q17 81 66 134.5t127 53.5q74 0 99 -54t9 -131q-19 -83 -69 -141.5t-128 -58.5zM399 604l22 104h-90l-22 -104h90z" />
<glyph unicode="&#x122;" horiz-adv-x="759" d="M55 343q-20 -95 2.5 -176t91 -132.5t170.5 -51.5q149 0 251 106l7 -89h60l79 376h-313l-17 -80h228q-16 -100 -93 -166.5t-185 -66.5q-57 0 -100 23.5t-64 63t-28 91t7 107.5q26 126 107.5 214.5t202.5 88.5q84 0 132.5 -39.5t46.5 -117.5h95q6 120 -64 178.5t-193 58.5 q-162 0 -274.5 -111.5t-148.5 -276.5zM250 -50l-19 -88h52q-1 -8 -3.5 -13t-13.5 -12t-31 -12l-7 -35q98 0 117 83l16 77h-111z" />
<glyph unicode="&#x123;" horiz-adv-x="574" d="M459 44l100 473h-80l-15 -74h-1q-14 42 -50 64t-86 22q-65 0 -118.5 -25t-88.5 -66.5t-57.5 -87t-32.5 -94.5q-23 -112 21 -187t154 -75q53 0 101.5 24t79.5 70h2l-7 -34q-19 -92 -68 -144t-129 -52q-30 0 -57 8t-45.5 27.5t-13.5 48.5h-85q-13 -77 42.5 -114.5 t139.5 -37.5q123 0 195 62.5t99 191.5zM226 69q-40 0 -66 17.5t-35.5 46t-11 63.5t8.5 70q17 81 66 134.5t127 53.5q74 0 99 -54t9 -131q-19 -83 -69 -141.5t-128 -58.5zM414 626l18 88h-52q2 9 4 13t13 11.5t31 12.5l8 35q-100 0 -117 -83l-16 -77h111z" />
<glyph unicode="&#x124;" horiz-adv-x="722" d="M169 714l-151 -714h95l69 327h376l-69 -327h95l151 714h-95l-65 -307h-376l65 307h-95zM447 922l-133 -143h77l90 96l49 -96h84l-74 143h-93z" />
<glyph unicode="&#x125;" d="M155 714l-151 -714h85l62 292q15 73 63.5 117.5t123.5 44.5q49 0 71 -28t12 -76l-74 -350h85l72 340q41 189 -138 189q-51 0 -102.5 -22t-79.5 -66h-2l58 273h-85zM358 922l-133 -143h77l90 96l49 -96h84l-74 143h-93z" />
<glyph unicode="&#x126;" horiz-adv-x="722" d="M169 714l-151 -714h95l65 306h376l-65 -306h95l151 714h-95l-30 -144h-376l30 144h-95zM570 384h-376l27 128h376z" />
<glyph unicode="&#x127;" horiz-adv-x="561" d="M46 583h86l-123 -583h85l62 292q15 73 63.5 117.5t123.5 44.5q49 0 71 -28t12 -76l-74 -350h85l72 340q41 189 -138 189q-51 0 -102.5 -22t-79.5 -66h-2l30 142h170l12 53h-170l16 78h-85l-16 -78h-86z" />
<glyph unicode="&#x128;" horiz-adv-x="259" d="M173 714l-151 -714h95l151 714h-95zM436 907h-52q-21 -44 -55 -44q-20 0 -61.5 20t-69.5 20q-84 0 -129 -110h52q15 23 24 30q15 12 34 12q13 0 62 -19q42 -20 71 -20q43 0 75 32q34 35 49 79z" />
<glyph unicode="&#x129;" horiz-adv-x="222" d="M9 0h85l109 517h-85zM377 717h-52q-24 -44 -55 -44q-20 0 -61.5 20t-69.5 20q-84 0 -129 -110h52q15 23 24 30q15 12 34 12q13 0 62 -19q38 -20 70 -20q44 0 76 32q34 35 49 79z" />
<glyph unicode="&#x12a;" horiz-adv-x="259" d="M173 714l-151 -714h95l151 714h-95zM85 872l-12 -55h341l12 55h-341z" />
<glyph unicode="&#x12b;" horiz-adv-x="222" d="M9 0h85l109 517h-85zM26 682l-11 -55h341l11 55h-341z" />
<glyph unicode="&#x12c;" horiz-adv-x="259" d="M173 714l-151 -714h95l151 714h-95zM159 919h-50q-11 -138 125 -138q65 0 113.5 36.5t73.5 101.5h-51q-26 -43 -51.5 -63t-65.5 -20q-88 0 -94 83z" />
<glyph unicode="&#x12d;" horiz-adv-x="222" d="M9 0h85l109 517h-85zM100 729h-50q-8 -138 125 -138q65 0 113.5 36.5t73.5 101.5h-51q-26 -43 -51 -63t-65 -20q-87 0 -95 83z" />
<glyph unicode="&#x12e;" horiz-adv-x="259" d="M173 714l-151 -714h59q-111 -62 -130 -132q-8 -40 13 -59t60 -19q56 0 104 62l-24 18q-30 -30 -63 -30t-25 42q6 25 27 49.5t74 68.5l151 714h-95z" />
<glyph unicode="&#x12f;" horiz-adv-x="222" d="M223 610l22 104h-85l-22 -104h85zM9 0h49q-110 -61 -129 -132q-8 -40 12.5 -59t59.5 -19q56 0 104 62l-24 18q-30 -30 -63 -30t-25 42q6 25 27 49.5t74 68.5l109 517h-85z" />
<glyph unicode="&#x130;" horiz-adv-x="259" d="M173 714l-151 -714h95l151 714h-95zM283 793l22 104h-90l-22 -104h90z" />
<glyph unicode="&#x131;" horiz-adv-x="222" d="M-4 0l107 517h85l-108 -517h-84z" />
<glyph unicode="&#x132;" horiz-adv-x="770" d="M173 714l-151 -714h95l151 714h-95zM262 235l-9 -44q-22 -101 21 -154.5t143 -53.5q111 0 172.5 56t79.5 139l114 536h-95l-111 -522q-13 -63 -46 -96t-95 -33q-65 0 -83 37t-2 105l6 30h-95z" />
<glyph unicode="&#x133;" horiz-adv-x="438" d="M223 610l22 104h-85l-22 -104h85zM118 517l-109 -517h85l109 517h-85zM439 610l22 104h-85l-22 -104h85zM295 -66l124 583h-85l-121 -569q-8 -40 -21.5 -55.5t-41.5 -15.5h-18q-2 0 -16 2l-16 -73q17 -4 43 -4q125 0 152 132z" />
<glyph unicode="&#x134;" horiz-adv-x="519" d="M11 235l-9 -44q-22 -101 21 -154.5t143 -53.5q111 0 172.5 56t79.5 139l114 536h-95l-111 -522q-13 -63 -46 -96t-95 -33q-65 0 -83 37t-2 105l6 30h-95zM479 922l-133 -143h77l90 96l49 -96h84l-74 143h-93z" />
<glyph unicode="&#x135;" horiz-adv-x="222" d="M79 -66l124 583h-85l-121 -569q-8 -40 -21.5 -55.5t-40.5 -15.5h-18q-2 0 -16 2l-16 -73q17 -4 43 -4q124 0 151 132zM159 732l-133 -143h77l90 96l49 -96h84l-74 143h-93z" />
<glyph unicode="&#x136;" horiz-adv-x="667" d="M169 714l-151 -714h95l53 250l142 111l182 -361h120l-223 426l362 288h-123l-437 -356l75 356h-95zM219 -50l-19 -88h52q-1 -8 -3.5 -13t-13.5 -12t-31 -12l-7 -35q98 0 117 83l16 77h-111z" />
<glyph unicode="&#x137;" horiz-adv-x="519" d="M160 714l-151 -714h85l41 196l96 74l120 -270h108l-151 329l245 188h-114l-284 -226l90 423h-85zM149 -50l-19 -88h52q-1 -8 -3.5 -13t-13.5 -12t-31 -12l-7 -35q98 0 117 83l16 77h-111z" />
<glyph unicode="&#x138;" horiz-adv-x="514" d="M113 517l-109 -517h85l41 196l96 74l120 -270h108l-151 329l245 188h-114l-284 -226l48 226h-85z" />
<glyph unicode="&#x139;" d="M169 714l-151 -714h473l17 80h-378l134 634h-95zM314 922l-116 -143h64l161 143h-109z" />
<glyph unicode="&#x13a;" horiz-adv-x="222" d="M160 714l-151 -714h85l151 714h-85zM286 922l-116 -143h64l161 143h-109z" />
<glyph unicode="&#x13b;" d="M169 714l-151 -714h473l17 80h-378l134 634h-95zM182 -50l-19 -88h52q-1 -8 -3.5 -13t-13.5 -12t-31 -12l-7 -35q98 0 117 83l16 77h-111z" />
<glyph unicode="&#x13c;" horiz-adv-x="222" d="M160 714l-151 -714h85l151 714h-85zM-15 -50l-19 -88h52q-1 -8 -3.5 -13t-13.5 -12t-31 -12l-7 -35q98 0 117 83l16 77h-111z" />
<glyph unicode="&#x13d;" d="M169 714l-151 -714h473l17 80h-378l134 634h-95zM393 714l-56 -143h60l105 143h-109z" />
<glyph unicode="&#x13e;" horiz-adv-x="288" d="M160 714l-151 -714h85l151 714h-85zM306 714l-52 -227h68l54 227h-70z" />
<glyph unicode="&#x13f;" d="M169 714l-151 -714h473l17 80h-378l134 634h-95zM416 337l22 104h-90l-22 -104h90z" />
<glyph unicode="&#x140;" horiz-adv-x="342" d="M160 714l-151 -714h85l151 714h-85zM326 337l22 104h-90l-22 -104h90z" />
<glyph unicode="&#x141;" d="M57 235l-77 -48l17 82l77 48l83 397h95l-69 -330l221 136l-17 -83l-221 -135l-46 -222h377l-17 -80h-473z" />
<glyph unicode="&#x142;" horiz-adv-x="222" d="M230 714l-53 -232l2 -2l66 52l-10 -78l-74 -57l-81 -397h-84l67 322l-69 -54l9 77l74 57l68 312h85z" />
<glyph unicode="&#x143;" horiz-adv-x="722" d="M260 714h-102l-151 -714h92l121 587h2l253 -587h102l151 714h-92l-119 -591h-2zM594 898h-113l-93 -143h70z" />
<glyph unicode="&#x144;" d="M186 517h-82l-108 -517h84l60 286q20 76 57 108q55 60 128 60q40 0 65 -18.5t25 -53.5q0 -8 -2 -23t-5.5 -33t-4.5 -24l-66 -302h85l63 295q15 67 15 101q0 69 -35.5 101t-108.5 32q-55 0 -103.5 -23t-80.5 -67h-2zM471 731h-113l-93 -143h70z" />
<glyph unicode="&#x145;" horiz-adv-x="722" d="M168 714l-151 -714h90l121 573h2l252 -573h104l151 714h-90l-123 -579h-2l-253 579h-101zM232 -50l-19 -88h52q-1 -8 -3.5 -13t-13.5 -12t-31 -12l-7 -35q98 0 117 83l16 77h-111z" />
<glyph unicode="&#x146;" d="M113 517l-109 -517h85l62 292q15 73 63.5 117.5t123.5 44.5q49 0 71 -28t12 -76l-74 -350h85l72 340q41 189 -138 189q-113 0 -188 -94h-2l17 82h-80zM150 -50l-19 -88h52q-1 -8 -3.5 -13t-13.5 -12t-31 -12l-7 -35q98 0 117 83l16 77h-111z" />
<glyph unicode="&#x147;" horiz-adv-x="722" d="M168 714l-151 -714h90l121 573h2l252 -573h104l151 714h-90l-123 -579h-2l-253 579h-101zM511 779l133 143h-77l-90 -96l-49 96h-84l74 -143h93z" />
<glyph unicode="&#x148;" d="M113 517l-109 -517h85l62 292q15 73 63.5 117.5t123.5 44.5q49 0 71 -28t12 -76l-74 -350h85l72 340q41 189 -138 189q-113 0 -188 -94h-2l17 82h-80zM391 589l133 143h-77l-90 -96l-49 96h-84l74 -143h93z" />
<glyph unicode="&#x149;" horiz-adv-x="663" d="M220 517l-109 -517h85l62 292q15 73 63.5 117.5t123.5 44.5q49 0 71 -28t12 -76l-74 -350h85l72 340q41 189 -138 189q-113 0 -188 -94h-2l17 82h-80zM109 714l-23 -111h59q-23 -97 -79 -97l-11 -50q54 0 91.5 42t50.5 105l23 111h-111z" />
<glyph unicode="&#x14a;" horiz-adv-x="722" d="M492 -17l-2 -8q-12 -55 -33.5 -74t-67.5 -19q-29 0 -64 7l-17 -78q27 -9 74 -9q79 0 128 37t67 121l160 754h-90l-123 -579h-2l-253 579h-101l-151 -714h90l121 573h2z" />
<glyph unicode="&#x14b;" d="M113 517l-109 -517h85l62 292q15 73 63.5 117.5t123.5 44.5q49 0 71 -28t12 -76l-82 -386q-11 -50 -29.5 -68.5t-57.5 -18.5q-23 0 -55 5l-15 -73q27 -7 63 -7q144 0 176 148l83 390q41 189 -138 189q-113 0 -188 -94h-2l17 82h-80z" />
<glyph unicode="&#x14c;" horiz-adv-x="760" d="M53 357q-18 -73 -8 -140.5t39 -119.5t89 -83t143 -31q109 0 199.5 53.5t145.5 137t76 183.5q11 59 11 113.5t-19 102t-51 83t-84.5 55.5t-118.5 20q-82 0 -155 -31t-125.5 -83.5t-89 -119t-52.5 -140.5zM148 357q27 121 107.5 207.5t202.5 86.5q50 0 88.5 -17t60 -45.5 t34 -66t11 -79.5t-9.5 -86q-11 -56 -36.5 -107t-63 -93.5t-92 -68t-117.5 -25.5t-106.5 25.5t-62 67.5t-24 94.5t7.5 106.5zM336 872l-12 -55h341l12 55h-341z" />
<glyph unicode="&#x14d;" horiz-adv-x="574" d="M30 258q-25 -118 25 -194t169 -76q118 0 200.5 76t107.5 194q25 119 -24.5 195t-168.5 76q-118 0 -201 -76.5t-108 -194.5zM120 258q20 91 77 143.5t126 52.5t104 -52.5t15 -143.5t-76 -143t-126 -52q-69 0 -104.5 52t-15.5 143zM202 682l-11 -55h341l11 55h-341z" />
<glyph unicode="&#x14e;" horiz-adv-x="760" d="M53 357q-18 -73 -8 -140.5t39 -119.5t89 -83t143 -31q109 0 199.5 53.5t145.5 137t76 183.5q11 59 11 113.5t-19 102t-51 83t-84.5 55.5t-118.5 20q-82 0 -155 -31t-125.5 -83.5t-89 -119t-52.5 -140.5zM148 357q27 121 107.5 207.5t202.5 86.5q50 0 88.5 -17t60 -45.5 t34 -66t11 -79.5t-9.5 -86q-11 -56 -36.5 -107t-63 -93.5t-92 -68t-117.5 -25.5t-106.5 25.5t-62 67.5t-24 94.5t7.5 106.5zM410 919h-50q-11 -138 125 -138q65 0 113.5 36.5t73.5 101.5h-51q-26 -43 -51.5 -63t-65.5 -20q-88 0 -94 83z" />
<glyph unicode="&#x14f;" horiz-adv-x="574" d="M30 258q-25 -118 25 -194t169 -76q118 0 200.5 76t107.5 194q25 119 -24.5 195t-168.5 76q-118 0 -201 -76.5t-108 -194.5zM120 258q20 91 77 143.5t126 52.5t104 -52.5t15 -143.5t-76 -143t-126 -52q-69 0 -104.5 52t-15.5 143zM276 729h-50q-8 -138 125 -138 q65 0 113.5 36.5t73.5 101.5h-51q-26 -43 -51 -63t-65 -20q-87 0 -95 83z" />
<glyph unicode="&#x150;" horiz-adv-x="760" d="M53 357q-18 -73 -8 -140.5t39 -119.5t89 -83t143 -31q109 0 199.5 53.5t145.5 137t76 183.5q11 59 11 113.5t-19 102t-51 83t-84.5 55.5t-118.5 20q-82 0 -155 -31t-125.5 -83.5t-89 -119t-52.5 -140.5zM148 357q27 121 107.5 207.5t202.5 86.5q50 0 88.5 -17t60 -45.5 t34 -66t11 -79.5t-9.5 -86q-11 -56 -36.5 -107t-63 -93.5t-92 -68t-117.5 -25.5t-106.5 25.5t-62 67.5t-24 94.5t7.5 106.5zM637 922l-111 -143h66l150 143h-105zM481 922l-111 -143h66l150 143h-105z" />
<glyph unicode="&#x151;" horiz-adv-x="574" d="M30 258q-25 -118 25 -194t169 -76q118 0 200.5 76t107.5 194q25 119 -24.5 195t-168.5 76q-118 0 -201 -76.5t-108 -194.5zM120 258q20 91 77 143.5t126 52.5t104 -52.5t15 -143.5t-76 -143t-126 -52q-69 0 -104.5 52t-15.5 143zM504 732l-111 -143h66l150 143h-105z M348 732l-111 -143h66l150 143h-105z" />
<glyph unicode="&#x152;" horiz-adv-x="1074" d="M1090 634h-379l-48 -227h347l-16 -80h-347l-52 -247h384l-16 -80h-475l13 57h-2q-29 -36 -76.5 -54.5t-99.5 -18.5q-135 0 -208 88.5t-73 227.5q0 108 44.5 205.5t132.5 161.5t199 64q64 0 120 -24t86 -73l16 80h466zM594 534q8 42 -49.5 79.5t-117.5 37.5 q-69 0 -125.5 -31.5t-91.5 -83.5t-54 -115t-19 -129q0 -94 50 -161.5t141 -67.5t150 58q19 18 31.5 42.5t17 41.5t11.5 52z" />
<glyph unicode="&#x153;" horiz-adv-x="907" d="M667 454q-69 0 -115 -40.5t-60 -105.5h290q2 22 2 29q0 49 -30 83t-87 34zM102 195q0 -57 33.5 -94.5t94.5 -37.5q50 0 88 28.5t58.5 73t30.5 90.5t10 90q0 52 -33.5 80.5t-86.5 28.5q-60 0 -106 -43.5t-67.5 -101t-21.5 -114.5zM838 163q-29 -86 -93.5 -130t-156.5 -44 q-139 0 -179 101q-27 -48 -76.5 -74.5t-107.5 -26.5q-100 0 -154 50t-54 152q0 83 33.5 159.5t101 127.5t153.5 51q67 0 110.5 -22.5t63.5 -78.5q27 50 78.5 75.5t111.5 25.5q99 0 149.5 -54.5t50.5 -150.5q0 -40 -11 -91h-379q-7 -28 -7 -53q0 -58 34.5 -87.5t96.5 -29.5 q51 0 91 27.5t57 72.5h87z" />
<glyph unicode="&#x154;" horiz-adv-x="685" d="M169 714l-151 -714h95l64 305h232q33 0 53.5 -9.5t28.5 -30t9.5 -39t0.5 -50.5q0 -23 -4.5 -53t-9 -51t-5 -41.5t7.5 -30.5h106q-11 17 -14 44t-1.5 45t7.5 57.5t7 50.5q3 36 1.5 65.5t-20.5 51.5t-56 30v2q131 34 163 181q18 87 -29 137t-149 50h-336zM392 385h-198 l53 249h236q64 0 88.5 -32.5t12.5 -89.5q-26 -127 -192 -127zM499 922l-116 -143h64l161 143h-109z" />
<glyph unicode="&#x155;" horiz-adv-x="333" d="M110 517l-109 -517h85l48 230q22 103 77.5 156t154.5 53l19 90q-68 2 -119 -27.5t-97 -93.5h-2l23 109h-80zM323 732l-116 -143h64l161 143h-109z" />
<glyph unicode="&#x156;" horiz-adv-x="685" d="M169 714l-151 -714h95l64 305h232q33 0 53.5 -9.5t28.5 -30t9.5 -39t0.5 -50.5q0 -23 -4.5 -53t-9 -51t-5 -41.5t7.5 -30.5h106q-11 17 -14 44t-1.5 45t7.5 57.5t7 50.5q3 36 1.5 65.5t-20.5 51.5t-56 30v2q131 34 163 181q18 87 -29 137t-149 50h-336zM392 385h-198 l53 249h236q64 0 88.5 -32.5t12.5 -89.5q-26 -127 -192 -127zM224 -50l-19 -88h52q-1 -8 -3.5 -13t-13.5 -12t-31 -12l-7 -35q98 0 117 83l16 77h-111z" />
<glyph unicode="&#x157;" horiz-adv-x="333" d="M110 517l-109 -517h85l48 230q22 103 77.5 156t154.5 53l19 90q-68 2 -119 -27.5t-97 -93.5h-2l23 109h-80zM-23 -50l-19 -88h52q-1 -8 -3.5 -13t-13.5 -12t-31 -12l-7 -35q98 0 117 83l16 77h-111z" />
<glyph unicode="&#x158;" horiz-adv-x="685" d="M169 714l-151 -714h95l64 305h232q33 0 53.5 -9.5t28.5 -30t9.5 -39t0.5 -50.5q0 -23 -4.5 -53t-9 -51t-5 -41.5t7.5 -30.5h106q-11 17 -14 44t-1.5 45t7.5 57.5t7 50.5q3 36 1.5 65.5t-20.5 51.5t-56 30v2q131 34 163 181q18 87 -29 137t-149 50h-336zM392 385h-198 l53 249h236q64 0 88.5 -32.5t12.5 -89.5q-26 -127 -192 -127zM475 779l133 143h-77l-90 -96l-49 96h-84l74 -143h93z" />
<glyph unicode="&#x159;" horiz-adv-x="333" d="M110 517l-109 -517h85l48 230q22 103 77.5 156t154.5 53l19 90q-68 2 -119 -27.5t-97 -93.5h-2l23 109h-80zM307 589l133 143h-77l-90 -96l-49 96h-84l74 -143h93z" />
<glyph unicode="&#x15a;" horiz-adv-x="648" d="M519 503h95q2 58 -18.5 102.5t-57 71.5t-83 40.5t-100.5 13.5q-104 0 -182 -55t-78 -152q0 -135 160 -180l97 -26q61 -17 94 -42.5t33 -75.5q0 -67 -52.5 -102t-126.5 -35q-93 0 -143.5 39.5t-46.5 131.5h-95q-9 -126 68 -188t213 -62q68 0 129 22t105 73t44 121 q0 87 -46 129t-126 64l-96 26q-56 16 -86 41.5t-30 73.5q0 57 52 87t113 30q81 0 123.5 -34t40.5 -114zM507 898h-113l-93 -143h70z" />
<glyph unicode="&#x15b;" horiz-adv-x="481" d="M355 365h85q0 84 -57 124t-138 40q-77 0 -134.5 -40.5t-57.5 -108.5q0 -53 36.5 -84t100.5 -56q9 -4 38.5 -16t40 -17t27.5 -16t23.5 -22.5t6.5 -26.5q0 -41 -35 -60t-83 -19q-60 0 -97.5 23.5t-34.5 76.5h-84q0 -174 208 -174q86 0 148.5 39.5t62.5 119.5q0 54 -36 86 t-101 59q-7 3 -22.5 9t-22.5 8.5t-20 8.5t-20 9.5t-16.5 9.5t-14.5 11t-10.5 11t-7.5 13t-2 15q0 66 110 66q48 0 78.5 -23.5t28.5 -65.5zM407 731h-113l-93 -143h70z" />
<glyph unicode="&#x15c;" horiz-adv-x="648" d="M538 505h90q19 113 -40.5 169.5t-174.5 56.5q-108 0 -194.5 -53.5t-109.5 -155.5q-11 -53 6.5 -90t54 -56t82.5 -31.5t93 -22.5t84 -23.5t56.5 -39.5t11.5 -66q-8 -37 -29.5 -63.5t-52 -40.5t-61.5 -20t-66 -6q-88 0 -138.5 43.5t-33.5 128.5h-90q-26 -123 44 -187.5 t198 -64.5q70 0 135 20.5t119.5 70.5t69.5 122q11 50 -1 88t-39.5 58.5t-65.5 36.5t-79 23.5t-79.5 18t-68.5 22t-45 33.5t-8 53q13 64 65.5 93t120.5 29q161 0 146 -146zM413 922l-133 -143h77l90 96l49 -96h84l-74 143h-93z" />
<glyph unicode="&#x15d;" horiz-adv-x="500" d="M90 163h-85q-15 -91 36 -133t146 -42q91 0 164 39t91 124q8 35 -0.5 61.5t-31.5 42.5t-47 25.5t-59 17.5q-10 2 -32 7.5t-33 8.5t-29 8.5t-26.5 11t-18 13.5t-12 18.5t0.5 22.5q14 66 124 66q48 0 78 -20.5t24 -66.5h85q13 89 -35 125.5t-143 36.5q-77 0 -143 -37.5 t-81 -109.5q-9 -40 3.5 -68.5t39 -43.5t60.5 -25t68.5 -17t62 -16.5t42.5 -27t10 -44.5q-17 -77 -141 -77q-59 0 -93 23.5t-25 76.5zM299 732l-133 -143h77l90 96l49 -96h84l-74 143h-93z" />
<glyph unicode="&#x15e;" horiz-adv-x="648" d="M127 -147l-27 -44q41 -19 88 -19q49 0 91.5 21.5t51.5 67.5q8 35 -13 54t-56 19q-20 0 -34 -7l-2 2l36 36h6q70 0 135 20.5t119.5 70.5t69.5 122q11 50 -1 88t-39.5 58.5t-65.5 36.5t-79 23.5t-79.5 18t-68.5 22t-45 33.5t-8 53q13 64 65.5 93t120.5 29q161 0 146 -146 h90q19 113 -40.5 169.5t-174.5 56.5q-108 0 -194.5 -53.5t-109.5 -155.5q-11 -53 6.5 -90t54 -56t82.5 -31.5t93 -22.5t84 -23.5t56.5 -39.5t11.5 -66q-8 -37 -29.5 -63.5t-52 -40.5t-61.5 -20t-66 -6q-88 0 -138.5 43.5t-33.5 128.5h-90q-23 -112 32.5 -175.5t164.5 -73.5 l-63 -64l11 -28q26 8 43 8q21 0 32 -8.5t8 -22.5q-7 -31 -65 -31q-33 0 -62 13z" />
<glyph unicode="&#x15f;" horiz-adv-x="500" d="M54 -147l-27 -44q41 -19 88 -19q49 0 91.5 21.5t51.5 67.5q8 35 -13 54t-56 19q-20 0 -34 -7l-2 2l41 41q90 3 159.5 41.5t88.5 121.5q8 35 -0.5 61.5t-31.5 42.5t-47 25.5t-59 17.5q-10 2 -32 7.5t-33 8.5t-29 8.5t-26.5 11t-18 13.5t-12 18.5t0.5 22.5q14 66 124 66 q48 0 78 -20.5t24 -66.5h85q13 89 -35 125.5t-143 36.5q-77 0 -143 -37.5t-81 -109.5q-9 -40 3.5 -68.5t39 -43.5t60.5 -25t68.5 -17t62 -16.5t42.5 -27t10 -44.5q-17 -77 -141 -77q-59 0 -93 23.5t-25 76.5h-85q-15 -82 27 -124.5t122 -48.5l-67 -68l11 -28q26 8 43 8 q21 0 32 -8.5t8 -22.5q-7 -31 -65 -31q-33 0 -62 13z" />
<glyph unicode="&#x160;" horiz-adv-x="648" d="M441 755h-86l-77 143h76l51 -93l93 93h78zM519 503q2 80 -40.5 114t-123.5 34q-61 0 -113 -30t-52 -87q0 -48 30 -73.5t86 -41.5l96 -26q80 -22 126 -64t46 -129q0 -70 -44 -121t-105 -73t-129 -22q-136 0 -213 62t-68 188h95q-4 -92 46.5 -131.5t143.5 -39.5 q74 0 126.5 35t52.5 102q0 50 -33 75.5t-94 42.5l-97 26q-160 45 -160 180q0 97 78 152t182 55q54 0 100.5 -13.5t83 -40.5t57 -71.5t18.5 -102.5h-95z" />
<glyph unicode="&#x161;" horiz-adv-x="481" d="M334 588h-86l-77 143h76l51 -93l93 93h78zM355 365q2 42 -28.5 65.5t-78.5 23.5q-110 0 -110 -66q0 -8 2 -15t7.5 -13t10.5 -11t14.5 -11t16.5 -9.5t20 -9.5t20 -8.5t22.5 -8.5t22.5 -9q65 -27 101 -59t36 -86q0 -80 -62.5 -119.5t-148.5 -39.5q-208 0 -208 174h84 q-3 -53 34.5 -76.5t97.5 -23.5q48 0 83 19t35 60q0 15 -6.5 26.5t-23.5 22.5t-27.5 16t-40 17t-38.5 16q-64 25 -100.5 56t-36.5 84q0 68 57.5 108.5t134.5 40.5q81 0 138 -40t57 -124h-85z" />
<glyph unicode="&#x162;" horiz-adv-x="574" d="M314 634l-134 -634h95l134 634h238l17 80h-571l-17 -80h238zM160 -50l-19 -88h52q-1 -8 -3.5 -13t-13.5 -12t-31 -12l-7 -35q98 0 117 83l16 77h-111z" />
<glyph unicode="&#x163;" horiz-adv-x="315" d="M231 517l33 155h-85l-33 -155h-88l-16 -75h88l-69 -329q-15 -68 7 -90.5t92 -22.5h65l15 75h-39q-40 0 -50 8t-4 38l68 321h103l16 75h-103zM37 -144l-18 -43q45 -22 97 -22q46 0 82.5 22.5t36.5 64.5q0 37 -26.5 55.5t-64.5 18.5q-17 0 -26 -4h-2l58 65h-47l-73 -89 l18 -30q15 8 42 8q46 0 46 -31q0 -30 -60 -30q-18 0 -63 15z" />
<glyph unicode="&#x164;" horiz-adv-x="574" d="M314 634l-134 -634h95l134 634h238l17 80h-571l-17 -80h238zM438 779l133 143h-77l-90 -96l-49 96h-84l74 -143h93z" />
<glyph unicode="&#x165;" horiz-adv-x="315" d="M364 714l-56 -143h60l105 143h-109zM231 517l33 155h-85l-33 -155h-88l-16 -75h88l-69 -329q-15 -68 7 -90.5t92 -22.5h65l15 75h-39q-40 0 -50 8t-4 38l68 321h103l16 75h-103z" />
<glyph unicode="&#x166;" horiz-adv-x="574" d="M141 487l-13 -61h142l-90 -426h95l90 426h144l13 61h-144l31 147h238l17 80h-571l-17 -80h238l-31 -147h-142z" />
<glyph unicode="&#x167;" horiz-adv-x="315" d="M27 346l-12 -55h83l-37 -178q-15 -68 7 -90.5t92 -22.5h65l15 75h-39q-40 0 -50 8t-4 38l36 170h95l12 55h-95l20 96h103l16 75h-103l33 155h-85l-33 -155h-88l-16 -75h88l-20 -96h-83z" />
<glyph unicode="&#x168;" horiz-adv-x="722" d="M642 258l97 456h-95l-97 -456q-20 -96 -78 -145.5t-149 -49.5q-96 0 -136.5 49.5t-20.5 145.5l97 456h-95l-97 -456q-29 -139 32 -207t203 -68q136 0 223 69.5t116 205.5zM668 907h-52q-21 -44 -55 -44q-20 0 -61.5 20t-69.5 20q-84 0 -129 -110h52q15 23 24 30 q15 12 34 12q13 0 62 -19q42 -20 71 -20q43 0 75 32q34 35 49 79z" />
<glyph unicode="&#x169;" d="M432 0l109 517h-85l-62 -292q-15 -73 -63.5 -117.5t-123.5 -44.5q-49 0 -71.5 28t-11.5 76l74 350h-85l-72 -340q-41 -189 138 -189q115 0 188 94h2l-17 -82h80zM543 717h-52q-24 -44 -55 -44q-20 0 -61.5 20t-69.5 20q-84 0 -129 -110h52q15 23 24 30q15 12 34 12 q13 0 62 -19q38 -20 70 -20q44 0 76 32q34 35 49 79z" />
<glyph unicode="&#x16a;" horiz-adv-x="722" d="M642 258l97 456h-95l-97 -456q-20 -96 -78 -145.5t-149 -49.5q-96 0 -136.5 49.5t-20.5 145.5l97 456h-95l-97 -456q-29 -139 32 -207t203 -68q136 0 223 69.5t116 205.5zM318 872l-12 -55h341l12 55h-341z" />
<glyph unicode="&#x16b;" d="M432 0l109 517h-85l-62 -292q-15 -73 -63.5 -117.5t-123.5 -44.5q-49 0 -71.5 28t-11.5 76l74 350h-85l-72 -340q-41 -189 138 -189q115 0 188 94h2l-17 -82h80zM192 682l-11 -55h341l11 55h-341z" />
<glyph unicode="&#x16c;" horiz-adv-x="722" d="M642 258l97 456h-95l-97 -456q-20 -96 -78 -145.5t-149 -49.5q-96 0 -136.5 49.5t-20.5 145.5l97 456h-95l-97 -456q-29 -139 32 -207t203 -68q136 0 223 69.5t116 205.5zM392 919h-50q-11 -138 125 -138q65 0 113.5 36.5t73.5 101.5h-51q-26 -43 -51.5 -63t-65.5 -20 q-88 0 -94 83z" />
<glyph unicode="&#x16d;" d="M432 0l109 517h-85l-62 -292q-15 -73 -63.5 -117.5t-123.5 -44.5q-49 0 -71.5 28t-11.5 76l74 350h-85l-72 -340q-41 -189 138 -189q115 0 188 94h2l-17 -82h80zM266 729h-50q-8 -138 125 -138q65 0 113.5 36.5t73.5 101.5h-51q-26 -43 -51 -63t-65 -20q-87 0 -95 83z " />
<glyph unicode="&#x16e;" horiz-adv-x="722" d="M642 258l97 456h-95l-97 -456q-20 -96 -78 -145.5t-149 -49.5q-96 0 -136.5 49.5t-20.5 145.5l97 456h-95l-97 -456q-29 -139 32 -207t203 -68q136 0 223 69.5t116 205.5zM372 861q-10 -46 16.5 -79t72.5 -33q45 0 86 33.5t51 78.5t-17.5 78.5t-72.5 33.5q-46 0 -86 -33 t-50 -79zM417 860q7 29 30 48.5t52 19.5t44 -19.5t8 -48.5q-6 -29 -29 -48.5t-52 -19.5t-44 19.5t-9 48.5z" />
<glyph unicode="&#x16f;" d="M432 0l109 517h-85l-62 -292q-15 -73 -63.5 -117.5t-123.5 -44.5q-49 0 -71.5 28t-11.5 76l74 350h-85l-72 -340q-41 -189 138 -189q115 0 188 94h2l-17 -82h80zM249 681q-10 -46 17 -79t72 -33q46 0 86.5 33t50.5 79t-17 79t-72 33q-46 0 -86.5 -33t-50.5 -79zM295 680 q6 29 29 48.5t52 19.5t44 -19.5t9 -48.5t-29 -48.5t-52 -19.5t-44 19.5t-9 48.5z" />
<glyph unicode="&#x170;" horiz-adv-x="722" d="M642 258l97 456h-95l-97 -456q-20 -96 -78 -145.5t-149 -49.5q-96 0 -136.5 49.5t-20.5 145.5l97 456h-95l-97 -456q-29 -139 32 -207t203 -68q136 0 223 69.5t116 205.5zM619 922l-111 -143h66l150 143h-105zM463 922l-111 -143h66l150 143h-105z" />
<glyph unicode="&#x171;" d="M432 0l109 517h-85l-62 -292q-15 -73 -63.5 -117.5t-123.5 -44.5q-49 0 -71.5 28t-11.5 76l74 350h-85l-72 -340q-41 -189 138 -189q115 0 188 94h2l-17 -82h80zM494 732l-111 -143h66l150 143h-105zM338 732l-111 -143h66l150 143h-105z" />
<glyph unicode="&#x172;" horiz-adv-x="722" d="M642 258l97 456h-95l-97 -456q-20 -96 -78 -145.5t-149 -49.5q-96 0 -136.5 49.5t-20.5 145.5l97 456h-95l-97 -456q-56 -269 223 -275q-97 -55 -110 -117q-8 -38 13.5 -57t62.5 -19q72 0 121 62l-28 18q-30 -30 -66 -30q-40 0 -32 42q8 43 88 103q121 9 198.5 78 t103.5 195z" />
<glyph unicode="&#x173;" d="M432 0l109 517h-85l-62 -292q-15 -73 -63.5 -117.5t-123.5 -44.5q-49 0 -71.5 28t-11.5 76l74 350h-85l-72 -340q-41 -189 138 -189q115 0 188 94h2l-17 -82q-126 -65 -141 -134q-8 -38 13.5 -57t62.5 -19q72 0 121 62l-28 18q-30 -30 -66 -30q-40 0 -32 42 q13 50 110 118h40z" />
<glyph unicode="&#x174;" horiz-adv-x="926" d="M663 0l342 714h-95l-271 -594h-2l-32 594h-103l-286 -594h-2l-14 594h-97l32 -714h99l292 600h2l36 -600h99zM552 922l-133 -143h77l90 96l49 -96h84l-74 143h-93z" />
<glyph unicode="&#x175;" horiz-adv-x="758" d="M516 0l274 517h-88l-206 -423h-2l-18 423h-93l-194 -423h-2l-27 423h-94l57 -517h92l191 411h2l18 -411h90zM431 732l-133 -143h77l90 96l49 -96h84l-74 143h-93z" />
<glyph unicode="&#x176;" horiz-adv-x="648" d="M375 292l362 422h-108l-281 -340l-142 340h-113l187 -422l-62 -292h95zM417 922l-133 -143h77l90 96l49 -96h84l-74 143h-93z" />
<glyph unicode="&#x177;" horiz-adv-x="500" d="M192 -69l349 586h-90l-235 -423h-2l-61 423h-96l96 -514l-54 -88q-35 -47 -80 -47q-11 0 -47 12l-17 -78q24 -9 58 -9q55 0 93.5 30.5t85.5 107.5zM304 732l-133 -143h77l90 96l49 -96h84l-74 143h-93z" />
<glyph unicode="&#x178;" horiz-adv-x="611" d="M273 863h89l-21 -104h-89zM436 863h89l-21 -104h-89zM254 287l-188 427h101l146 -346l271 346h110l-346 -427l-62 -287h-93z" />
<glyph unicode="&#x179;" horiz-adv-x="611" d="M515 634l-535 -555l-17 -79h566l17 80h-456l540 553l17 81h-521l-20 -80h409zM518 898h-113l-93 -143h70z" />
<glyph unicode="&#x17a;" horiz-adv-x="444" d="M319 442l-359 -378l-12 -64h420l14 75h-309l363 381l13 61h-393l-15 -75h278zM395 731h-113l-93 -143h70z" />
<glyph unicode="&#x17b;" horiz-adv-x="611" d="M515 634l-535 -555l-17 -79h566l17 80h-456l540 553l17 81h-521l-20 -80h409zM440 863h-89l-21 -104h89z" />
<glyph unicode="&#x17c;" horiz-adv-x="444" d="M319 442l-359 -378l-12 -64h420l14 75h-309l363 381l13 61h-393l-15 -75h278zM317 696h-89l-21 -104h89z" />
<glyph unicode="&#x17d;" horiz-adv-x="611" d="M423 755h-86l-77 143h76l51 -93l93 93h78zM-20 79l535 555h-409l20 80h521l-17 -81l-540 -553h456l-17 -80h-566z" />
<glyph unicode="&#x17e;" horiz-adv-x="444" d="M315 588h-86l-77 143h76l51 -93l93 93h78zM-40 64l359 378h-278l15 75h393l-13 -61l-363 -381h309l-14 -75h-420z" />
<glyph unicode="&#x17f;" horiz-adv-x="278" d="M208 451q35 155 46 175q14 21 53 21q2 0 11.5 -0.5t19.5 -0.5l17 80q-30 2 -37 2q-88 0 -128 -45q-22 -25 -36 -80l-18 -82h-72l-15 -70h72l-95 -451h87z" />
<glyph unicode="&#x180;" d="M265 58q-63 0 -90 53.5t-7 149.5q20 95 69.5 145t112.5 50q68 0 97.5 -52t9.5 -149q-18 -84 -66 -141q-47 -56 -126 -56zM277 507q-28 -17 -64 -51l29 135h163l12 58h-163l16 71h-85l-16 -71h-65l-12 -58h65l-125 -591h79l15 73q40 -92 149 -92q89 0 168 73 q80 74 106 196q24 115 -17 198q-40 84 -148 84q-61 0 -107 -25z" />
<glyph unicode="&#x182;" horiz-adv-x="667" d="M177 717l-152 -717h323q97 0 166 54.5t90 151.5q18 84 -21 146t-148 62h-225l46 215h427l19 88h-525zM425 99q-35 -16 -92 -16h-193l53 249h193q147 0 120 -126q-16 -78 -81 -107z" />
<glyph unicode="&#x183;" d="M151 720l-153 -720h81l14 67q20 -38 40 -55q35 -29 95 -29q107 0 183 82q79 83 104 206q28 129 -19 198q-47 68 -143 68q-98 0 -173 -78l37 173h311l19 88h-382h-14zM424 267q-21 -96 -69 -151t-117 -55q-95 0 -110 86q-9 47 6 120q23 104 77 146q55 45 115 45 q68 0 92 -54t6 -137z" />
<glyph unicode="&#x186;" horiz-adv-x="722" d="M35 216q-10 -90 49 -163q60 -72 196 -72q159 0 275 110q106 101 139 261q45 209 -46 309q-69 75 -194 75q-144 0 -251 -92q-86 -75 -124 -190h95q30 70 69 114q74 83 181 83q117 0 159 -79q43 -77 16 -204q-32 -149 -112.5 -226t-189.5 -77q-162 0 -167 151h-95z" />
<glyph unicode="&#x189;" horiz-adv-x="722" d="M45 422l-18 -87h65l-71 -335h289q181 0 291 158q65 93 90 213q29 135 -11 224q-56 122 -233 122h-274l-63 -295h-65zM207 422l45 212h173q223 0 164 -281q-7 -31 -23 -75q-28 -68 -66 -111q-47 -54 -108 -74q-33 -10 -83 -10h-174l54 252h205l18 87h-205z" />
<glyph unicode="&#x18b;" horiz-adv-x="667" d="M561 0l152 717h-524l-19 -88h427l-46 -215h-226q-107 0 -174 -62q-65 -62 -83 -146q-21 -97 26 -151.5t144 -54.5h323zM203 99q-52 28 -36 107q27 126 174 126h193l-53 -249h-193q-57 0 -85 16z" />
<glyph unicode="&#x18c;" d="M458 0l153 720h-15h-381l-19 -88h311l-37 -173q-43 78 -139 78q-97 0 -173 -68q-74 -67 -103 -198q-25 -124 16 -206q43 -82 149 -82q60 0 107 29q25 15 64 55l-14 -67h81zM143 267q18 82 65 137q46 54 116 54q60 0 95 -45q36 -44 14 -146q-15 -75 -43 -120 q-54 -86 -148 -86q-70 0 -95 55t-4 151z" />
<glyph unicode="&#x18d;" horiz-adv-x="567" d="M77 476q-36 -168 67 -260l175 -154h-280l-16 -72h383l17 80l-157 138q123 0 197 77t101 200q21 99 -33 164q-54 66 -160 66q-109 0 -192 -69q-81 -67 -102 -170zM352 635q72 0 106.5 -49.5t18.5 -126.5q-15 -69 -62 -124q-48 -54 -81 -58q-14 -2 -30 -5l-15 -2h-15 q-64 0 -105 39t-18 141q17 80 72 132q56 53 129 53z" />
<glyph unicode="&#x18e;" horiz-adv-x="667" d="M556 0l152 717h-523l-19 -88h428l-46 -218h-396l-18 -83h396l-51 -243h-436l-18 -85h531z" />
<glyph unicode="&#x18f;" horiz-adv-x="737" d="M633 396h-588q-7 -32 -7 -100q0 -149 75 -230t210 -81q118 0 206.5 61t132.5 159t44 215q0 150 -79 231t-227 81q-120 0 -204 -59t-121 -159h97q33 65 92 102t136 37q104 0 157.5 -62.5t53.5 -170.5q0 -91 -29.5 -169t-96.5 -132t-162 -54q-88 0 -140.5 67t-52.5 185h489 z" />
<glyph unicode="&#x190;" horiz-adv-x="535" d="M219 50q-69 0 -99 47q-28 43 -13 114q29 135 172 135q3 0 35 -2l15 72q-82 2 -109 23q-39 29 -22 106q13 59 53.5 92.5t98.5 33.5q60 0 90 -55q28 -50 14 -113l73 1q22 102 -20 170q-43 70 -146 70q-93 0 -161 -59q-64 -59 -84 -153q-20 -86 42 -148q-58 -28 -90 -74 q-27 -41 -40 -104q-19 -94 25 -161q46 -69 140 -69q107 0 190 77q71 66 96 163h-73q-21 -68 -69 -114q-53 -52 -118 -52z" />
<glyph unicode="&#x191;" horiz-adv-x="611" d="M-87 -132l-16 -76q20 -3 36 -3q85 0 136 48q25 28 37 85l86 404h352l18 86h-352l46 217h400l19 88h-498l-42 -196h-1l-125 -589q-11 -46 -23 -53q-14 -9 -73 -11z" />
<glyph unicode="&#x192;" d="M245 449l46 164q28 101 156 101q23 0 65 -8l-20 -73q-14 6 -40 6q-45 0 -62 -20.5t-34 -82.5l-24 -87h111l-18 -68h-111l-118 -414q-18 -68 -55 -99.5t-104 -31.5q-23 0 -55 5l20 74q19 -5 38 -4q57 8 77 84l110 386h-95l18 68h95z" />
<glyph unicode="&#x196;" horiz-adv-x="222" d="M138 -12l16 76q-57 1 -69 10q-11 9 0 54l125 589h-88l-127 -598q-12 -57 1 -85q21 -48 107 -48q4 0 15 1t20 1z" />
<glyph unicode="&#x197;" horiz-adv-x="341" d="M52 449l-12 -57h113l-83 -392h88l83 392h112l12 57h-112l57 268h-88l-57 -268h-113z" />
<glyph unicode="&#x19a;" horiz-adv-x="341" d="M52 449l-12 -57h113l-83 -392h88l83 392h112l12 57h-112l57 268h-88l-57 -268h-113z" />
<glyph unicode="&#x19b;" d="M122 557l-12 -58l153 41l6 -37l-311 -503h97l235 396l53 -322q12 -74 84 -74h51l15 72h-25q-16 0 -23 13q-8 15 -11 28l-87 449l127 35l13 57l-150 -40q-11 58 -28 84q-20 26 -71 26q-28 0 -51 -5l-15 -73h32q41 2 50 -47v-7z" />
<glyph unicode="&#x19d;" horiz-adv-x="722" d="M-95 -132l-16 -76q20 -3 36 -3q85 0 126 48q24 29 36 85l17 78h5l123 581l245 -581h109l152 717h-93l-124 -581l-238 581h-115l-167 -785q-11 -46 -23 -53q-14 -9 -73 -11z" />
<glyph unicode="&#x19e;" d="M115 523l-111 -523h88l58 274q12 53 24.5 79.5t38.5 52.5q36 33 73 43q20 7 52 7q62 0 75 -49q8 -32 -2 -77l-112 -524h90l113 529q17 82 4 122q-23 78 -134 78q-100 0 -189 -86l16 74h-84z" />
<glyph unicode="&#x19f;" horiz-adv-x="778" d="M737 615q-65 122 -255 122q-182 0 -303 -133q-93 -102 -125 -249q-34 -159 28 -267q70 -109 237 -109q177 0 300 125q102 105 137 267q32 150 -19 244zM171 147q-39 74 -23 177h496q-29 -93 -90 -166q-77 -92 -204 -92q-136 0 -179 81zM633 573q46 -68 29 -177h-496 q33 114 106 178q85 76 198 76t163 -77z" />
<glyph unicode="&#x1a0;" horiz-adv-x="889" d="M756 371q27 125 -4 210q38 3 83 20l99 38l-19 96l-107 -41l10 -48l-6 -4l-7 -3q-19 -7 -44 -9q-18 -4 -33 -1q-69 108 -246 108q-182 0 -303 -133q-93 -102 -125 -249q-34 -159 28 -267q70 -109 237 -109q177 0 300 125q102 105 137 267zM657 370q-26 -121 -102 -212 q-77 -92 -205 -92q-136 0 -179 81t-17 202q32 149 117 225q86 76 199 76q114 0 164 -77t23 -203z" />
<glyph unicode="&#x1a1;" horiz-adv-x="676" d="M513 272q16 73 5 129q38 5 73 19l100 38l-20 97l-106 -41l9 -49q-2 -2 -6 -4l-6 -3q-21 -7 -44 -9q-12 -2 -16 -2q-8 15 -16 24q-55 67 -157 67q-112 0 -196 -78q-83 -78 -111 -210q-27 -123 21 -196t156 -73q129 0 208 82q81 84 106 209zM421 270q-16 -79 -64 -147 q-47 -66 -133 -66q-80 0 -105 55t-7 139q18 87 67 148q50 62 131 62q90 0 113 -72q13 -45 -2 -119z" />
<glyph unicode="&#x1a2;" horiz-adv-x="810" d="M696 634l-176 -831h95l193 911h-269q-48 17 -109 17q-118 0 -209 -61t-137 -159t-46 -215q0 -150 79 -231t227 -81q86 0 149 30l128 620h75zM344 63q-104 0 -157.5 62.5t-53.5 170.5q0 90 31.5 168.5t101 132.5t164.5 54q17 0 48.5 -7.5t46.5 -14.5l-120 -559 q-20 -7 -61 -7z" />
<glyph unicode="&#x1a3;" horiz-adv-x="651" d="M525 442l-135 -639h85l151 714h-232q-35 12 -88 12q-131 0 -210 -96t-79 -229q0 -95 59 -155t159 -60q72 0 136 35l88 418h66zM244 63q-68 0 -105 38.5t-37 103.5q0 57 21.5 112.5t68 96t108.5 40.5q48 0 73 -18l-77 -364q-26 -9 -52 -9z" />
<glyph unicode="&#x1a6;" horiz-adv-x="638" d="M117 717l-152 -717h98l44 210h221q59 0 84 -13q44 -24 32 -94l-19 -120q-10 -62 -4 -81h119l3 16q-21 11 -22 44q-2 20 6 61l18 97q9 60 -4.5 88.5t-53.5 46.5q110 51 137 171q25 124 -65 170q-50 24 -131 24h-234l21 97h-98zM348 291h-224l52 245h237q51 0 76 -15 q51 -27 34 -104q-14 -68 -58 -97t-117 -29z" />
<glyph unicode="&#x1a7;" horiz-adv-x="667" d="M608 231h-92q-17 -62 -49 -99q-65 -71 -187 -71q-56 0 -95 16q-81 30 -64 108q12 59 54 84q42 24 125 42l102 22q99 21 144 47q78 44 98 135q20 97 -34 158q-53 62 -176 62q-112 0 -203 -55q-90 -54 -116 -173h91q19 55 50 88q58 56 163 56q86 0 116 -36t19 -84 q-10 -51 -60 -77q-32 -16 -138 -39l-105 -23q-77 -16 -123 -45q-79 -51 -99 -146q-25 -118 50 -171q77 -51 191 -51q134 0 223 68q91 67 115 184z" />
<glyph unicode="&#x1a8;" horiz-adv-x="500" d="M438 164h-85q-14 -45 -36 -67q-42 -43 -124 -43q-52 0 -83 22.5t-22 64.5q7 34 41 51q27 12 81 25l73 18q73 17 107 37q63 35 77 99q16 75 -28 120.5t-133 45.5q-118 0 -185 -70q-43 -43 -52 -94h83q7 28 32 54q37 34 112 34q49 0 71 -18.5t16 -50.5q-7 -34 -46 -55 q-21 -12 -61 -21l-62 -14q-100 -23 -137 -45q-58 -33 -73 -106q-15 -69 27 -120t151 -51q115 0 176 53q60 53 80 131z" />
<glyph unicode="&#x1a9;" horiz-adv-x="574" d="M-15 80l-17 -80h518l17 80h-405l349 277l-210 278h371l17 80h-484l-17 -80l210 -278z" />
<glyph unicode="&#x1ae;" horiz-adv-x="611" d="M86 -132l-16 -76q20 -3 35 -3q85 0 138 48q24 29 36 85l151 710h242l18 85h-582l-18 -85h242l-149 -700q-11 -46 -24 -53q-14 -10 -73 -11z" />
<glyph unicode="&#x1af;" horiz-adv-x="862" d="M274 717h-99l-86 -403q-28 -131 -7 -203q37 -130 218 -130q182 0 275 130q50 69 79 203l63 294q46 -1 101 20l99 38l-19 97l-107 -41l10 -49q-2 -2 -6 -4l-6 -2q-23 -9 -44 -10q-14 -2 -18 -2l13 62h-99l-94 -443q-16 -77 -51 -124q-62 -84 -185 -84q-103 0 -130 78 q-18 51 -1 130z" />
<glyph unicode="&#x1b0;" horiz-adv-x="698" d="M203 523h-90l-76 -356q-14 -68 -1 -106q26 -75 138 -75q71 0 130 41q29 20 53 50l-17 -77h83l85 400q50 -2 105 20l100 38l-20 97l-106 -41l9 -49q-2 -2 -6 -4l-6 -3q-21 -7 -44 -9q-16 -2 -22 -2l16 76h-87l-55 -257q-17 -79 -44 -120q-51 -83 -143 -83q-63 0 -77 47 q-8 26 1 66z" />
<glyph unicode="&#x1b1;" horiz-adv-x="755" d="M633 338q-23 -110 -104 -179q-80 -69 -196 -69q-113 0 -164 69q-50 70 -28 179q21 95 89 183q69 87 160 123l18 81h-274l-17 -80h182q-67 -24 -145 -106t-103 -201q-32 -149 35 -244q67 -94 230 -94q162 0 269 95t138 243q25 120 -18 201q-43 82 -98 106h182l17 80h-274 l-18 -81q77 -36 108 -124q31 -86 11 -182z" />
<glyph unicode="&#x1b5;" horiz-adv-x="611" d="M-20 79l-17 -79h566l17 80h-456l540 553l17 81h-521l-20 -80h409z" />
<glyph unicode="&#x1b6;" horiz-adv-x="444" d="M-40 64l-12 -64h420l14 75h-309l363 381l13 61h-393l-15 -75h278z" />
<glyph unicode="&#x1b7;" horiz-adv-x="549" d="M151 406h113l49 5q84 0 99 -68q15 -67 -2 -146q-16 -78 -70 -103q-52 -24 -124 -24q-56 0 -94.5 34.5t-38.5 90.5h-85q-8 -104 55 -152t154 -48q103 0 188 45q86 47 110 158q29 139 -22 215q-37 58 -109 72l208 152l17 80h-485l-17 -80h372z" />
<glyph unicode="&#x1b8;" horiz-adv-x="549" d="M338 406h113l-220 231h371l17 80h-485l-17 -80l144 -152q-77 -13 -141 -72q-84 -78 -112 -215q-24 -112 42 -158q66 -45 168 -45q92 0 175 48t121 152h-86q-23 -57 -78 -92q-54 -33 -109 -33q-71 0 -114 24q-42 26 -26 103q16 76 61 146q45 68 129 68z" />
<glyph unicode="&#x1b9;" horiz-adv-x="500" d="M295 209h113l-220 231h322l17 81h-435l-17 -81l143 -152q-76 -14 -141 -72q-84 -78 -112 -215q-24 -112 38 -162q63 -51 165 -51q180 0 254 210h-86q-27 -65 -60.5 -100t-84.5 -35q-71 0 -110 30q-39 28 -22 107q16 78 60 146q45 68 129 68z" />
<glyph unicode="&#x1bb;" horiz-adv-x="566" d="M197 279q-108 -56 -153 -122q-46 -67 -70 -157h480l17 83h-382q24 52 81 94q33 24 87 51l74 37q99 49 141 84q71 59 89 143q17 81 -25 145q-41 65 -161 65q-144 0 -224 -102q-45 -60 -65 -149h89q17 66 43 102q48 68 139 68q61 0 90 -36t16 -97q-10 -51 -59 -92 q-32 -26 -102 -63zM67 310h478l15 69h-478z" />
<glyph unicode="&#x1c0;" horiz-adv-x="260" d="M112 0l154 728h-83l-154 -728h83z" />
<glyph unicode="&#x1c1;" horiz-adv-x="431" d="M112 0l154 728h-83l-154 -728h83zM283 0l154 728h-83l-154 -728h83z" />
<glyph unicode="&#x1c2;" horiz-adv-x="568" d="M573 489h-218l51 239h-83l-51 -239h-208l-17 -82h208l-27 -127h-208l-18 -84h208l-41 -196h83l41 196h218l18 84h-218l27 127h218z" />
<glyph unicode="&#x1c3;" horiz-adv-x="278" d="M187 717l-50 -236l-40 -310h49l90 310l50 236h-99zM56 102l-21 -102h97l21 102h-97z" />
<glyph unicode="&#x1c4;" horiz-adv-x="1235" d="M285 83h-174l117 551h173q223 0 164 -281q-7 -31 -23 -75q-28 -68 -66 -111q-47 -54 -108 -74q-33 -10 -83 -10zM149 717l-152 -717h289q185 0 294 163q63 91 87 207q32 149 -20 242q-60 105 -208 105h-290zM595 83l-17 -81h565l18 86h-442l559 548l18 84h-533l-19 -86 h408zM1068 777l130 141h-80l-86 -94l-46 94h-80l70 -141h92z" />
<glyph unicode="&#x1c5;" horiz-adv-x="1094" d="M267 83h-174l117 551h173q223 0 164 -281q-7 -31 -23 -75q-28 -68 -66 -111q-47 -54 -108 -74q-33 -10 -83 -10zM131 717l-152 -717h289q185 0 294 163q63 91 87 207q32 149 -20 242q-60 105 -208 105h-290zM595 69l-14 -69h437l16 79h-317l387 372l16 72h-405l-17 -79 h287zM980 584l129 142h-80l-86 -94l-46 94h-79l69 -142h93z" />
<glyph unicode="&#x1c6;" horiz-adv-x="982" d="M222 58q-79 0 -103 56q-23 58 -5 141q21 97 72 149t119 52q63 0 91.5 -50t8.5 -145q-21 -96 -71 -149.5t-112 -53.5zM400 507q-34 25 -95 25q-109 0 -185 -84q-76 -82 -100 -198q-26 -123 22 -196t136 -73q111 0 189 92l-15 -73h79l153 720h-85l-57 -264q-22 36 -42 51z M483 69l-14 -69h438l16 79h-318l388 372l16 72h-406l-17 -79h287zM877 582l130 141h-80l-86 -94l-46 94h-79l69 -141h92z" />
<glyph unicode="&#x1c7;" horiz-adv-x="981" d="M144 717l-152 -717h461l18 85h-364l134 632h-97zM941 214l107 503h-97l-102 -478q-20 -93 -40 -123q-35 -54 -113 -54q-108 0 -82 118l11 51h-92l-11 -51q-24 -112 24 -156q47 -43 128 -43q139 0 210 92q38 49 57 141z" />
<glyph unicode="&#x1c8;" horiz-adv-x="707" d="M147 717l-152 -717h461l18 85h-364l134 632h-97zM753 616l22 101h-88l-22 -101h88zM423 -132l-16 -76q20 -3 35 -3q86 0 127 48q25 28 37 85l127 599h-88l-125 -589q-11 -46 -24 -53q-14 -10 -73 -11z" />
<glyph unicode="&#x1c9;" horiz-adv-x="371" d="M135 717l-152 -717h88l152 717h-88zM416 616l22 101h-88l-22 -101h88zM86 -132l-16 -76q20 -3 35 -3q86 0 127 48q25 28 37 85l127 599h-88l-125 -589q-11 -46 -24 -53q-14 -10 -73 -11z" />
<glyph unicode="&#x1ca;" horiz-adv-x="1113" d="M147 717l-152 -717h93l123 581l245 -581h109l152 717h-93l-124 -581l-238 581h-115zM1057 227l107 503h-96l-102 -478q-20 -92 -41 -123q-35 -53 -112 -53q-108 0 -82 117l11 52h-92l-11 -52q-24 -111 23 -155q49 -44 129 -44q140 0 209 92q38 50 57 141z" />
<glyph unicode="&#x1cb;" horiz-adv-x="867" d="M144 717l-152 -717h93l123 581l245 -581h109l152 717h-93l-124 -581l-238 581h-115zM916 616l22 101h-88l-22 -101h88zM586 -132l-16 -76q20 -3 35 -3q87 0 127 48q25 28 37 85l127 599h-88l-125 -589q-11 -46 -24 -53q-14 -10 -73 -11z" />
<glyph unicode="&#x1cc;" horiz-adv-x="704" d="M92 523l-111 -523h87l58 274q12 53 24.5 79.5t39.5 52.5q36 33 72 43q20 7 52 7q62 0 75 -49q8 -32 -2 -77l-70 -330h90l71 335q17 82 4 122q-22 78 -134 78q-100 0 -189 -86l16 74h-83zM750 616l22 101h-88l-22 -101h88zM420 -132l-16 -76q20 -3 35 -3q87 0 127 48 q25 28 37 85l127 599h-88l-125 -589q-11 -46 -24 -53q-14 -10 -73 -11z" />
<glyph unicode="&#x1cd;" horiz-adv-x="667" d="M446 294h-224l182 317zM377 717l-422 -717h99l123 215h284l27 -215h107l-108 717h-110zM504 771l130 142h-80l-86 -94l-45 94h-80l68 -142h93z" />
<glyph unicode="&#x1ce;" d="M178 57q-40 0 -62.5 22.5t-14.5 59.5q11 50 56 73q28 14 76 20l54 7q61 7 98 27l-15 -71q-17 -82 -99 -116q-45 -22 -93 -22zM352 317l-144 -18q-79 -9 -131.5 -50t-67.5 -112q-14 -67 23 -111t109 -44q58 0 114 25t92 62q-2 -33 5 -48q14 -32 59 -32q30 0 63 9l14 64 q-26 -2 -30 -2q-17 0 -21 7t-1 23l64 301q15 74 -35 109q-49 36 -142 36q-79 0 -149 -38q-68 -38 -90 -135h82q14 43 34 61q36 37 105 37q61 0 88 -20.5t17 -64.5q-5 -23 -13 -34q-13 -20 -45 -25zM400 577l129 141h-80l-85 -94l-46 94h-80l69 -141h93z" />
<glyph unicode="&#x1cf;" horiz-adv-x="278" d="M190 717l-152 -717h98l152 717h-98zM299 774l129 142h-80l-86 -94l-45 94h-80l69 -142h93z" />
<glyph unicode="&#x1d0;" horiz-adv-x="278" d="M142 521l-110 -521h90l110 521h-90zM255 587l130 141h-80l-86 -94l-46 94h-79l69 -141h92z" />
<glyph unicode="&#x1d1;" horiz-adv-x="778" d="M737 615q-65 122 -255 122q-182 0 -303 -133q-93 -102 -125 -249q-34 -159 28 -267q70 -109 237 -109q177 0 300 125q102 105 137 267q32 150 -19 244zM657 370q-26 -121 -102 -212q-77 -92 -205 -92q-136 0 -179 81t-17 202q32 149 117 225q86 76 199 76q114 0 164 -77 t23 -203zM554 788l130 141h-80l-86 -94l-46 94h-80l69 -141h93z" />
<glyph unicode="&#x1d2;" d="M421 270q-16 -79 -64 -147q-47 -66 -133 -66q-80 0 -105 55t-7 139q18 87 67 148q50 62 131 62q90 0 113 -72q13 -45 -2 -119zM513 272q28 130 -28 198t-156 68q-112 0 -196 -78q-83 -78 -111 -210q-27 -123 21 -196t156 -73q129 0 208 82q81 84 106 209zM400 586 l130 142h-80l-86 -94l-46 94h-79l69 -142h92z" />
<glyph unicode="&#x1d3;" horiz-adv-x="722" d="M274 717h-99l-86 -403q-28 -131 -7 -203q37 -130 218 -130q182 0 275 130q50 69 79 203l86 403h-99l-94 -443q-16 -77 -51 -124q-62 -84 -185 -84q-103 0 -130 78q-18 51 -1 130zM529 756l130 141h-80l-86 -93l-46 93h-80l69 -141h93z" />
<glyph unicode="&#x1d4;" d="M203 523h-90l-76 -356q-14 -68 -1 -106q26 -75 138 -75q71 0 130 41q29 20 53 50l-17 -77h83l111 523h-87l-55 -257q-17 -79 -44 -120q-51 -83 -143 -83q-63 0 -77 47q-8 26 1 66zM398 571l130 141h-81l-85 -93l-46 93h-80l69 -141h93z" />
<glyph unicode="&#x1d5;" horiz-adv-x="722" d="M274 717h-99l-86 -403q-28 -131 -7 -203q37 -130 218 -130q182 0 275 130q50 69 79 203l86 403h-99l-94 -443q-16 -77 -51 -124q-62 -84 -185 -84q-103 0 -130 78q-18 51 -1 130zM535 864l-22 -102h91l22 102h-91zM374 864l-22 -102h91l22 102h-91zM365 979l-13 -58h312 l13 58h-312z" />
<glyph unicode="&#x1d6;" d="M203 523h-90l-76 -356q-14 -68 -1 -106q26 -75 138 -75q71 0 130 41q29 20 53 50l-17 -77h83l111 523h-87l-55 -257q-17 -79 -44 -120q-51 -83 -143 -83q-63 0 -77 47q-8 26 1 66zM400 667l-21 -102h92l21 102h-92zM239 667l-21 -102h92l21 102h-92zM240 779l-12 -58h312 l12 58h-312z" />
<glyph unicode="&#x1d7;" horiz-adv-x="722" d="M274 717h-99l-86 -403q-28 -131 -7 -203q37 -130 218 -130q182 0 275 130q50 69 79 203l86 403h-99l-94 -443q-16 -77 -51 -124q-62 -84 -185 -84q-103 0 -130 78q-18 51 -1 130zM533 853l-22 -102h91l22 102h-91zM372 853l-22 -102h91l22 102h-91zM676 1035h-109 l-118 -141h67z" />
<glyph unicode="&#x1d8;" d="M203 523h-90l-76 -356q-14 -68 -1 -106q26 -75 138 -75q71 0 130 41q29 20 53 50l-17 -77h83l111 523h-87l-55 -257q-17 -79 -44 -120q-51 -83 -143 -83q-63 0 -77 47q-8 26 1 66zM390 669l-22 -102h91l22 102h-91zM229 669l-22 -102h91l22 102h-91zM538 855h-108 l-119 -141h67z" />
<glyph unicode="&#x1d9;" horiz-adv-x="722" d="M274 717h-99l-86 -403q-28 -131 -7 -203q37 -130 218 -130q182 0 275 130q50 69 79 203l86 403h-99l-94 -443q-16 -77 -51 -124q-62 -84 -185 -84q-103 0 -130 78q-18 51 -1 130zM520 851l-21 -102h92l21 102h-92zM359 851l-21 -102h92l21 102h-92zM543 886l130 141h-80 l-86 -94l-46 94h-80l69 -141h93z" />
<glyph unicode="&#x1da;" d="M203 523h-90l-76 -356q-14 -68 -1 -106q26 -75 138 -75q71 0 130 41q29 20 53 50l-17 -77h83l111 523h-87l-55 -257q-17 -79 -44 -120q-51 -83 -143 -83q-63 0 -77 47q-8 26 1 66zM388 653l-21 -102h91l21 102h-91zM226 653l-21 -102h92l21 102h-92zM408 689l129 142h-80 l-86 -94l-46 94h-79l69 -142h93z" />
<glyph unicode="&#x1db;" horiz-adv-x="722" d="M274 717h-99l-86 -403q-28 -131 -7 -203q37 -130 218 -130q182 0 275 130q50 69 79 203l86 403h-99l-94 -443q-16 -77 -51 -124q-62 -84 -185 -84q-103 0 -130 78q-18 51 -1 130zM513 840l-21 -101h91l21 101h-91zM352 840l-21 -101h91l21 101h-91zM529 869l-59 141h-108 l100 -141h67z" />
<glyph unicode="&#x1dc;" d="M203 523h-90l-76 -356q-14 -68 -1 -106q26 -75 138 -75q71 0 130 41q29 20 53 50l-17 -77h83l111 523h-87l-55 -257q-17 -79 -44 -120q-51 -83 -143 -83q-63 0 -77 47q-8 26 1 66zM388 655l-22 -101h91l22 101h-91zM226 655l-22 -101h92l22 101h-92zM407 687l-60 141 h-108l101 -141h67z" />
<glyph unicode="&#x1dd;" d="M33 75q19 -42 65.5 -68t102.5 -26q109 0 195 78q86 80 113 205q27 128 -26 199t-151 71q-38 0 -73 -8q-62 -14 -111 -52q-29 -23 -56 -59q-26 -35 -36 -63h87q18 34 46 61q51 45 120 45q141 0 108 -176h-383q-16 -77 -16 -115q-2 -53 15 -92zM110 212h291 q-16 -66 -67 -111q-49 -43 -111 -43q-84 0 -108 63q-12 35 -5 91z" />
<glyph unicode="&#x1de;" horiz-adv-x="667" d="M446 294h-224l182 317zM377 717l-422 -717h99l123 215h284l27 -215h107l-108 717h-110zM499 860l-21 -101h91l21 101h-91zM338 860l-21 -101h91l21 101h-91zM322 953l-12 -57h313l12 57h-313z" />
<glyph unicode="&#x1df;" d="M178 57q-40 0 -62.5 22.5t-14.5 59.5q11 50 56 73q28 14 76 20l54 7q61 7 98 27l-15 -71q-17 -82 -99 -116q-45 -22 -93 -22zM352 317l-144 -18q-79 -9 -131.5 -50t-67.5 -112q-14 -67 23 -111t109 -44q58 0 114 25t92 62q-2 -33 5 -48q14 -32 59 -32q30 0 63 9l14 64 q-26 -2 -30 -2q-17 0 -21 7t-1 23l64 301q15 74 -35 109q-49 36 -142 36q-79 0 -149 -38q-68 -38 -90 -135h82q14 43 34 61q36 37 105 37q61 0 88 -20.5t17 -64.5q-5 -23 -13 -34q-13 -20 -45 -25zM385 694l-21 -101h91l21 101h-91zM224 694l-21 -101h91l21 101h-91z M213 805l-13 -57h312l13 57h-312z" />
<glyph unicode="&#x1e0;" horiz-adv-x="667" d="M446 294h-224l182 317zM377 717l-422 -717h99l123 215h284l27 -215h107l-108 717h-110zM414 859l-22 -102h91l22 102h-91zM319 953l-12 -57h312l12 57h-312z" />
<glyph unicode="&#x1e1;" d="M178 57q-40 0 -62.5 22.5t-14.5 59.5q11 50 56 73q28 14 76 20l54 7q61 7 98 27l-15 -71q-17 -82 -99 -116q-45 -22 -93 -22zM352 317l-144 -18q-79 -9 -131.5 -50t-67.5 -112q-14 -67 23 -111t109 -44q58 0 114 25t92 62q-2 -33 5 -48q14 -32 59 -32q30 0 63 9l14 64 q-26 -2 -30 -2q-17 0 -21 7t-1 23l64 301q15 74 -35 109q-49 36 -142 36q-79 0 -149 -38q-68 -38 -90 -135h82q14 43 34 61q36 37 105 37q61 0 88 -20.5t17 -64.5q-5 -23 -13 -34q-13 -20 -45 -25zM309 705l-21 -101h91l21 101h-91zM218 808l-12 -58h313l12 58h-313z" />
<glyph unicode="&#x1e2;" horiz-adv-x="1000" d="M434 634h97l-72 -339h-230zM391 717l-443 -717h105l125 213h264l-45 -213h494l18 85h-398l52 246h357l17 81h-357l47 220h389l18 85h-643zM554 837l-12 -58h312l12 58h-312z" />
<glyph unicode="&#x1e3;" horiz-adv-x="889" d="M757 303h-289q20 75 69.5 115t111.5 40q61 0 91.5 -40.5t16.5 -114.5zM378 266l-14 -66q-12 -38 -17 -49q-14 -25 -41 -46q-65 -50 -126 -50q-44 0 -69 22.5t-17 62.5q10 47 54 70q28 15 83 22l76 12q47 8 71 22zM341 317l-143 -19q-64 -7 -108 -35q-68 -44 -86 -130 q-15 -68 23 -109.5t120 -41.5q127 0 225 112q7 -37 50 -74q47 -38 119 -38q79 0 151 40q33 18 72 61q36 40 50 81h-89q-48 -106 -165 -106q-66 0 -94.5 46.5t-13.5 128.5h384q17 79 17 125.5t-19 89.5q-41 88 -168 88q-109 0 -185 -79q-13 33 -49 55q-40 24 -106 24 q-81 0 -133 -23q-90 -40 -119 -151h84q12 55 67 83q31 15 81 15q59 0 82.5 -21t14.5 -64q-10 -52 -62 -58zM367 658l-12 -58h313l12 58h-313z" />
<glyph unicode="&#x1e4;" horiz-adv-x="791" d="M456 183h89q-23 -38 -56 -62q-77 -57 -173 -57q-127 0 -166 80q-39 82 -11 209q32 149 115 222q84 75 184 75q179 0 180 -150h96q6 141 -89 197q-66 39 -167 39q-146 0 -262 -102q-120 -107 -159 -286q-38 -183 41 -285q73 -82 201 -82q98 0 170 36q41 20 104 75l4 -92 h63l38 183h94l15 69h-94l28 132h-315l-17 -81h224q-6 -27 -15 -51h-107z" />
<glyph unicode="&#x1e5;" horiz-adv-x="598" d="M398 502q-39 30 -101 30q-91 0 -171 -74t-108 -205q-28 -139 21 -199q51 -60 136 -60q112 0 179 79q-23 -109 -49 -150q-47 -71 -147 -71q-64 0 -88 29q-15 20 -14 54h-89q-11 -78 37 -117t137 -39q152 0 228 106q41 60 62 157l41 189h100l14 70h-100l47 217h-81l-14 -66 q-20 35 -40 50zM276 231h114q-16 -46 -37 -80q-59 -86 -152 -86q-62 0 -87.5 47t-6.5 134q17 78 44 122q53 87 145 87q62 0 92 -47q24 -38 15 -107h-113z" />
<glyph unicode="&#x1e6;" horiz-adv-x="778" d="M649 697q-66 39 -167 39q-146 0 -262 -102q-120 -107 -159 -286q-38 -182 40 -285q73 -82 202 -82q98 0 170 36q41 20 104 75l4 -92h63l81 384h-315l-17 -81h224q-29 -127 -104 -183q-77 -56 -173 -56q-127 0 -166 80q-39 82 -11 209q32 149 115 222q84 75 184 75 q179 0 180 -150h96q6 141 -89 197zM540 781l128 141h-80l-86 -94l-46 94h-79l70 -141h93z" />
<glyph unicode="&#x1e7;" d="M402 502q-38 30 -100 30q-91 0 -171 -74t-108 -205q-28 -139 21 -199q51 -60 136 -60q109 0 179 79q-23 -109 -49 -150q-47 -71 -148 -71q-64 0 -87 29q-15 20 -14 54h-89q-10 -81 39 -118q50 -38 134 -38q153 0 229 106q41 60 62 157l102 476h-81l-14 -66q-21 35 -41 50 zM301 455q65 0 93.5 -48.5t8.5 -142.5q-14 -65 -45 -113q-59 -86 -153 -86q-61 0 -86 47.5t-7 133.5q17 78 44 122q52 87 145 87zM365 601l129 141h-80l-86 -94l-45 94h-80l69 -141h93z" />
<glyph unicode="&#x1e8;" horiz-adv-x="667" d="M168 717l-152 -717h95l53 250l138 110l175 -360h126l-217 428l361 289h-134l-424 -349l74 349h-95zM492 760l129 141h-80l-86 -93l-46 93h-79l69 -141h93z" />
<glyph unicode="&#x1e9;" horiz-adv-x="500" d="M154 717l-152 -717h85l41 196l89 68l107 -264h112l-142 327l242 196h-112l-274 -222l89 416h-85zM414 748l130 141h-81l-85 -94l-46 94h-80l69 -141h93z" />
<glyph unicode="&#x1ea;" horiz-adv-x="778" d="M737 615q-65 122 -255 122q-182 0 -303 -133q-93 -102 -125 -249q-34 -159 28 -267q70 -109 237 -109q177 0 300 125q102 105 137 267q32 150 -19 244zM657 370q-26 -121 -102 -212q-77 -92 -205 -92q-136 0 -179 81t-17 202q32 149 117 225q86 76 199 76q114 0 164 -77 t23 -203zM365 -16h-72q-56 -33 -82 -57q-36 -33 -43 -71q-7 -36 13 -62.5t65 -26.5q26 0 51 6q25 9 32 11l13 64q-21 -11 -42 -11q-24 0 -34.5 13t-7.5 32q5 20 17 35q14 15 56 44z" />
<glyph unicode="&#x1eb;" d="M421 270q-16 -79 -64 -147q-47 -66 -133 -66q-80 0 -105 55t-7 139q18 87 67 148q50 62 131 62q90 0 113 -72q13 -45 -2 -119zM513 272q28 130 -28 198t-156 68q-112 0 -196 -78q-83 -78 -111 -210q-27 -123 21 -196t156 -73q129 0 208 82q81 84 106 209zM249 -14h-71 q-53 -30 -83 -57q-34 -31 -43 -71q-7 -36 13 -62.5t65 -26.5q25 0 52 6q22 7 30 11l14 64q-21 -11 -42 -11q-24 0 -34.5 13t-6.5 32q5 20 17 35q16 18 56 44z" />
<glyph unicode="&#x1ec;" horiz-adv-x="778" d="M737 615q-65 122 -255 122q-182 0 -303 -133q-93 -102 -125 -249q-34 -159 28 -267q70 -109 237 -109q177 0 300 125q102 105 137 267q32 150 -19 244zM657 370q-26 -121 -102 -212q-77 -92 -205 -92q-136 0 -179 81t-17 202q32 149 117 225q86 76 199 76q114 0 164 -77 t23 -203zM365 -16h-72q-56 -33 -82 -57q-36 -33 -43 -71q-7 -36 13 -62.5t65 -26.5q26 0 51 6q25 9 32 11l13 64q-21 -11 -42 -11q-24 0 -34.5 13t-7.5 32q5 20 17 35q14 15 56 44zM340 856l-12 -58h313l12 58h-313z" />
<glyph unicode="&#x1ed;" d="M421 270q-16 -79 -64 -147q-47 -66 -133 -66q-80 0 -105 55t-7 139q18 87 67 148q50 62 131 62q90 0 113 -72q13 -45 -2 -119zM513 272q28 130 -28 198t-156 68q-112 0 -196 -78q-83 -78 -111 -210q-27 -123 21 -196t156 -73q129 0 208 82q81 84 106 209zM249 -14h-71 q-53 -30 -83 -57q-34 -31 -43 -71q-7 -36 13 -62.5t65 -26.5q25 0 52 6q22 7 30 11l14 64q-21 -11 -42 -11q-24 0 -34.5 13t-6.5 32q5 20 17 35q16 18 56 44zM187 663l-12 -58h313l12 58h-313z" />
<glyph unicode="&#x1ee;" horiz-adv-x="537" d="M260 406h-113l318 231h-371l17 80h484l-17 -80l-207 -152q70 -13 109 -72q51 -76 22 -215q-24 -111 -110 -158q-86 -45 -188 -45q-92 0 -155 48q-62 49 -55 152h86q0 -56 38.5 -90.5t94.5 -34.5q71 0 124 24q54 25 70 103q17 80 1 146q-15 68 -99 68zM410 788l130 141 h-80l-86 -94l-46 94h-80l69 -141h93z" />
<glyph unicode="&#x1ef;" horiz-adv-x="489" d="M171 209h-114l318 231h-322l17 81h436l-17 -81l-208 -152q72 -14 109 -72q51 -76 22 -215q-24 -113 -109 -162q-84 -51 -186 -51q-178 0 -164 210h86q0 -60 16 -96q17 -39 71 -39q162 0 192 137q16 79 0 146q-15 68 -99 68zM350 592l129 141h-80l-85 -93l-47 93h-79 l69 -141h93z" />
<glyph unicode="&#x1f0;" horiz-adv-x="222" d="M-107 -132l-16 -76q21 -3 36 -3q85 0 126 48q24 29 36 85l127 599h-88l-125 -589q-11 -46 -23 -53q-14 -10 -73 -11zM224 587l129 142h-80l-86 -94l-46 94h-79l69 -142h93z" />
<glyph unicode="&#x1f1;" horiz-adv-x="1225" d="M269 83h-173l117 551h172q224 0 165 -281q-8 -35 -24 -75q-27 -66 -65 -111q-47 -54 -109 -74q-33 -10 -83 -10zM133 717l-152 -717h290q185 0 294 163q63 91 87 207q31 148 -21 242q-60 105 -207 105h-291zM587 83l-17 -81h565l18 86h-442l559 548l18 84h-532l-19 -86 h407z" />
<glyph unicode="&#x1f2;" horiz-adv-x="1123" d="M282 83h-173l117 551h172q224 0 165 -281q-7 -31 -23 -75q-28 -68 -66 -111q-47 -54 -109 -74q-31 -10 -83 -10zM146 717l-152 -717h290q185 0 294 163q63 91 87 207q31 148 -21 242q-58 105 -207 105h-291zM610 69l-14 -69h438l16 79h-318l387 372l16 72h-405l-17 -79 h287z" />
<glyph unicode="&#x1f3;" horiz-adv-x="998" d="M222 58q-79 0 -103 56q-23 58 -5 141q21 97 72 149t119 52q63 0 91.5 -50t8.5 -145q-21 -96 -71 -149.5t-112 -53.5zM400 507q-34 25 -95 25q-109 0 -185 -84q-76 -82 -100 -198q-26 -123 22 -196t136 -73q111 0 189 92l-15 -73h79l153 720h-85l-57 -264q-22 36 -42 51z M481 69l-14 -69h437l16 79h-317l387 372l16 72h-405l-17 -79h287z" />
<glyph unicode="&#x1f4;" horiz-adv-x="778" d="M649 697q-66 39 -167 39q-146 0 -262 -102q-120 -107 -159 -286q-38 -182 40 -285q73 -82 202 -82q98 0 170 36q41 20 104 75l4 -92h63l81 384h-315l-17 -81h224q-29 -127 -104 -183q-77 -56 -173 -56q-127 0 -166 80q-39 82 -11 209q32 149 115 222q84 75 184 75 q179 0 180 -150h96q6 141 -89 197zM628 921h-108l-120 -141h68z" />
<glyph unicode="&#x1f5;" d="M402 502q-38 30 -100 30q-91 0 -171 -74t-108 -205q-28 -139 21 -199q51 -60 136 -60q109 0 179 79q-23 -109 -49 -150q-47 -71 -148 -71q-64 0 -87 29q-15 20 -14 54h-89q-10 -81 39 -118q50 -38 134 -38q153 0 229 106q41 60 62 157l102 476h-81l-14 -66q-21 35 -41 50 zM301 455q65 0 93.5 -48.5t8.5 -142.5q-14 -65 -45 -113q-59 -86 -153 -86q-61 0 -86 47.5t-7 133.5q17 78 44 122q52 87 145 87zM485 730h-109l-119 -141h67z" />
<glyph unicode="&#x1f7;" horiz-adv-x="667" d="M177 717l-152 -717h98l33 157l240 73q119 44 187 121t86 161q21 96 -25.5 150.5t-143.5 54.5h-323zM535 619q53 -29 36 -108q-21 -100 -70 -137q-52 -39 -119 -62l-209 -73l84 395h193q56 0 85 -15z" />
<glyph unicode="&#x1f8;" horiz-adv-x="722" d="M168 717l-152 -717h93l123 581l245 -581h109l152 717h-93l-124 -581l-238 581h-115zM523 748l-59 141h-108l100 -141h67z" />
<glyph unicode="&#x1f9;" d="M115 523l-111 -523h88l58 274q12 53 24.5 79.5t38.5 52.5q36 33 73 43q20 7 52 7q62 0 75 -49q8 -32 -2 -77l-70 -330h90l71 335q17 82 4 122q-23 78 -134 78q-100 0 -189 -86l16 74h-84zM419 591l-58 141h-109l101 -141h66z" />
<glyph unicode="&#x1fa;" horiz-adv-x="648" d="M489 973l-88 -106h64l126 106h-102zM347 682l-414 -682h98l125 215h302l33 -215h105l-126 682q39 28 50 72q9 41 -13.5 68t-61.5 27q-40 0 -74.5 -27.5t-41.5 -67.5q-9 -45 18 -72zM370 754q5 24 23.5 39.5t42.5 15.5q23 0 35.5 -15.5t7.5 -39.5t-24 -40t-42 -16 q-24 0 -36 16.5t-7 39.5zM203 295l192 333h2l48 -333h-242z" />
<glyph unicode="&#x1fb;" horiz-adv-x="537" d="M444 922l-109 -126h63l155 126h-109zM332 565q44 0 80.5 29.5t46.5 73.5q10 45 -14.5 74t-69.5 29q-44 0 -81 -29.5t-47 -73.5q-9 -45 15.5 -74t69.5 -29zM414 668q-5 -27 -26 -44.5t-48 -17.5t-40 17.5t-8 44.5q6 27 27 44.5t48 17.5t40 -17.5t7 -44.5zM462 2l14 66 q-18 -5 -27 -5q-10 0 -15 3t-5.5 12t0.5 16.5t5 26.5l57 266q9 43 -1.5 72.5t-37 44t-56 20t-69.5 5.5q-95 0 -164 -41.5t-92 -131.5h85q26 98 150 98q50 0 79 -18t18 -68q-4 -19 -15 -31t-31.5 -19t-38.5 -10t-51 -7.5t-54 -8.5q-32 -6 -55 -11.5t-50.5 -18t-46.5 -28.5 t-34.5 -41.5t-22.5 -59.5q-15 -74 24.5 -109.5t115.5 -35.5q113 0 199 80q-17 -80 55 -80q38 0 64 14zM380 267l-18 -87q-10 -43 -58 -80t-125 -37q-43 0 -68 18.5t-16 57.5q10 44 46.5 67t77 27t89 11.5t72.5 22.5z" />
<glyph unicode="&#x1fc;" horiz-adv-x="926" d="M445 714l-512 -714h107l146 208h246l-44 -208h447l17 80h-357l52 247h330l17 80h-330l48 227h351l17 80h-535zM481 634h41l-73 -346h-209zM749 922l-116 -143h64l161 143h-109z" />
<glyph unicode="&#x1fd;" horiz-adv-x="870" d="M456 233h379q64 296 -170 296q-114 0 -181 -75q-22 75 -157 75q-95 0 -164 -41.5t-92 -131.5h85q26 98 150 98q24 0 42 -3t34.5 -10.5t23 -24.5t0.5 -42q-3 -13 -7.5 -22.5t-14.5 -16.5t-18 -11.5t-27 -9t-32.5 -6.5t-43 -7t-50.5 -9q-41 -7 -69 -15.5t-59.5 -25.5 t-51.5 -46.5t-29 -71.5q-15 -74 24.5 -109.5t119.5 -35.5q162 0 239 101q25 -101 166 -101q88 0 156 45.5t105 129.5h-87q-46 -100 -152 -100q-75 0 -105.5 48.5t-13.5 121.5zM761 308h-289q15 65 62.5 105.5t114.5 40.5q66 0 94.5 -41t17.5 -105zM95 139q9 44 41 64t83 29 q17 3 55.5 8.5t64.5 11.5t44 15l-18 -87q-10 -43 -59.5 -80t-126.5 -37q-43 0 -68 18.5t-16 57.5zM597 732l-116 -143h64l161 143h-109z" />
<glyph unicode="&#x1fe;" horiz-adv-x="760" d="M546 922l-116 -143h64l161 143h-109zM811 700l-25 30l-98 -87q-69 88 -213 88q-82 0 -155 -31t-125.5 -83.5t-89 -119t-52.5 -140.5q-32 -154 29 -255l-103 -92l26 -30l100 89q73 -86 211 -86q109 0 199.5 53.5t145.5 137t76 183.5q33 150 -27 253zM614 577l-455 -407 q-35 78 -11 187q27 121 107.5 207.5t202.5 86.5q108 0 156 -74zM178 134l455 407q34 -76 9 -184q-11 -56 -36.5 -107t-63 -93.5t-92 -68t-117.5 -25.5q-105 0 -155 71z" />
<glyph unicode="&#x1ff;" horiz-adv-x="574" d="M421 732l-116 -143h64l161 143h-109zM514 443l74 66l-22 26l-72 -65q-51 59 -155 59q-118 0 -201 -76.5t-108 -194.5q-24 -116 21 -187l-77 -69l23 -24l74 67q52 -57 153 -57q118 0 200.5 76t107.5 194q25 115 -18 185zM424 407l-299 -270q-20 55 -5 121q20 91 77 143.5 t126 52.5q68 0 101 -47zM140 108l300 269q18 -50 2 -119q-20 -91 -76 -143t-126 -52q-64 0 -100 45z" />
<glyph unicode="&#x200;" horiz-adv-x="667" d="M446 294h-224l182 317zM377 717l-422 -717h99l123 215h284l27 -215h107l-108 717h-110zM392 767l-37 142h-104l79 -142h62zM555 767l-37 142h-106l81 -142h62z" />
<glyph unicode="&#x201;" d="M178 57q-40 0 -62.5 22.5t-14.5 59.5q11 50 56 73q28 14 76 20l54 7q61 7 98 27l-15 -71q-17 -82 -99 -116q-45 -22 -93 -22zM352 317l-144 -18q-79 -9 -131.5 -50t-67.5 -112q-14 -67 23 -111t109 -44q58 0 114 25t92 62q-2 -33 5 -48q14 -32 59 -32q30 0 63 9l14 64 q-26 -2 -30 -2q-17 0 -21 7t-1 23l64 301q15 74 -35 109q-49 36 -142 36q-79 0 -149 -38q-68 -38 -90 -135h82q14 43 34 61q36 37 105 37q61 0 88 -20.5t17 -64.5q-5 -23 -13 -34q-13 -20 -45 -25zM302 591l-37 142h-104l79 -142h62zM465 591l-37 142h-105l80 -142h62z" />
<glyph unicode="&#x202;" horiz-adv-x="667" d="M446 294h-224l182 317zM377 717l-422 -717h99l123 215h284l27 -215h107l-108 717h-110zM536 738h50q6 48 -7 77q-26 59 -112 59q-142 0 -189 -136h48q15 32 34 48q32 29 86 29q57 0 78 -29q12 -16 12 -48z" />
<glyph unicode="&#x203;" d="M178 57q-40 0 -62.5 22.5t-14.5 59.5q11 50 56 73q28 14 76 20l54 7q61 7 98 27l-15 -71q-17 -82 -99 -116q-45 -22 -93 -22zM352 317l-144 -18q-79 -9 -131.5 -50t-67.5 -112q-14 -67 23 -111t109 -44q58 0 114 25t92 62q-2 -33 5 -48q14 -32 59 -32q30 0 63 9l14 64 q-26 -2 -30 -2q-17 0 -21 7t-1 23l64 301q15 74 -35 109q-49 36 -142 36q-79 0 -149 -38q-68 -38 -90 -135h82q14 43 34 61q36 37 105 37q61 0 88 -20.5t17 -64.5q-5 -23 -13 -34q-13 -20 -45 -25zM438 593h49q6 46 -8 77q-26 59 -112 59q-141 0 -188 -136h48q13 31 33 48 q32 29 86 29q56 0 79 -29q12 -18 13 -48z" />
<glyph unicode="&#x204;" horiz-adv-x="667" d="M177 717l-152 -717h531l18 85h-436l51 244h396l18 83h-396l46 217h428l19 88h-523zM425 767l-37 142h-105l80 -142h62zM587 767l-37 142h-105l81 -142h61z" />
<glyph unicode="&#x205;" d="M503 441q-19 41 -65.5 67.5t-102.5 26.5q-110 0 -195 -79t-112 -205q-27 -128 25 -199q53 -71 151 -71q38 0 73 8q61 13 110 53q30 24 56 57q27 36 36 65h-86q-17 -35 -46 -61q-49 -45 -119 -45q-72 0 -98.5 46.5t-11.5 128.5h384q17 82 17 116q2 53 -16 92zM426 303 h-290q16 67 66 111q52 44 112 44q84 0 106 -63q14 -35 6 -92zM310 591l-37 142h-104l79 -142h62zM473 591l-37 142h-106l81 -142h62z" />
<glyph unicode="&#x206;" horiz-adv-x="667" d="M177 717l-152 -717h531l18 85h-436l51 244h396l18 83h-396l46 217h428l19 88h-523zM557 767h50q6 46 -8 77q-25 58 -112 58q-143 0 -189 -135h49q13 31 33 48q32 29 85 29q58 0 79 -29q12 -18 13 -48z" />
<glyph unicode="&#x207;" d="M503 441q-19 41 -65.5 67.5t-102.5 26.5q-110 0 -195 -79t-112 -205q-27 -128 25 -199q53 -71 151 -71q38 0 73 8q61 13 110 53q30 24 56 57q27 36 36 65h-86q-17 -35 -46 -61q-49 -45 -119 -45q-72 0 -98.5 46.5t-11.5 128.5h384q17 82 17 116q2 53 -16 92zM426 303 h-290q16 67 66 111q52 44 112 44q84 0 106 -63q14 -35 6 -92zM456 588h49q6 47 -7 78q-25 58 -112 58q-139 0 -189 -136h48q15 32 34 48q32 29 86 29q56 0 79 -29q10 -16 12 -48z" />
<glyph unicode="&#x208;" horiz-adv-x="278" d="M190 717l-152 -717h98l152 717h-98zM205 767l-37 142h-105l80 -142h62zM367 767l-37 142h-105l81 -142h61z" />
<glyph unicode="&#x209;" horiz-adv-x="222" d="M119 521l-110 -521h89l110 521h-89zM137 591l-37 142h-104l79 -142h62zM300 591l-37 142h-106l81 -142h62z" />
<glyph unicode="&#x20a;" horiz-adv-x="278" d="M190 717l-152 -717h98l152 717h-98zM358 767h50q5 49 -8 77q-25 58 -112 58q-143 0 -189 -135h48q13 31 33 48q34 29 86 29q58 0 79 -29q12 -18 13 -48z" />
<glyph unicode="&#x20b;" horiz-adv-x="222" d="M119 521l-110 -521h89l110 521h-89zM283 597h50q5 48 -7 77q-25 58 -112 58q-143 0 -190 -135h48q15 32 34 48q32 28 86 28q58 0 79 -28q11 -17 12 -48z" />
<glyph unicode="&#x20c;" horiz-adv-x="778" d="M737 615q-65 122 -255 122q-182 0 -303 -133q-93 -102 -125 -249q-34 -159 28 -267q70 -109 237 -109q177 0 300 125q102 105 137 267q32 150 -19 244zM657 370q-26 -121 -102 -212q-77 -92 -205 -92q-136 0 -179 81t-17 202q32 149 117 225q86 76 199 76q114 0 164 -77 t23 -203zM454 794l-37 142h-105l80 -142h62zM616 794l-37 142h-105l81 -142h61z" />
<glyph unicode="&#x20d;" d="M421 270q-16 -79 -64 -147q-47 -66 -133 -66q-80 0 -105 55t-7 139q18 87 67 148q50 62 131 62q90 0 113 -72q13 -45 -2 -119zM513 272q28 130 -28 198t-156 68q-112 0 -196 -78q-83 -78 -111 -210q-27 -123 21 -196t156 -73q129 0 208 82q81 84 106 209zM309 591 l-37 142h-105l80 -142h62zM471 591l-37 142h-105l81 -142h61z" />
<glyph unicode="&#x20e;" horiz-adv-x="778" d="M737 615q-65 122 -255 122q-182 0 -303 -133q-93 -102 -125 -249q-34 -159 28 -267q70 -109 237 -109q177 0 300 125q102 105 137 267q32 150 -19 244zM657 370q-26 -121 -102 -212q-77 -92 -205 -92q-136 0 -179 81t-17 202q32 149 117 225q86 76 199 76q114 0 164 -77 t23 -203zM599 787h50q6 45 -8 77q-25 58 -112 58q-142 0 -189 -135h49q13 30 33 47q32 29 85 29q58 0 79 -29q12 -18 13 -47z" />
<glyph unicode="&#x20f;" d="M421 270q-16 -79 -64 -147q-47 -66 -133 -66q-80 0 -105 55t-7 139q18 87 67 148q50 62 131 62q90 0 113 -72q13 -45 -2 -119zM513 272q28 130 -28 198t-156 68q-112 0 -196 -78q-83 -78 -111 -210q-27 -123 21 -196t156 -73q129 0 208 82q81 84 106 209zM442 593h50 q5 49 -8 77q-26 59 -112 59q-142 0 -189 -136h49q14 33 32 48q34 29 86 29q58 0 79 -29q12 -18 13 -48z" />
<glyph unicode="&#x210;" horiz-adv-x="722" d="M432 389h-225l52 245h237q50 0 77 -15q50 -29 34 -104q-14 -69 -58 -97.5t-117 -28.5zM180 717l-152 -717h97l65 308h221q59 0 85 -14q43 -22 32 -94l-19 -119q-10 -65 -5 -81h120l3 16q-22 11 -23 44q0 23 7 61l17 96q11 60 -3 88.5t-55 47.5q111 50 137 171 q26 123 -65 169q-48 24 -130 24h-332zM427 770l-37 142h-105l80 -142h62zM589 770l-37 142h-105l81 -142h61z" />
<glyph unicode="&#x211;" horiz-adv-x="333" d="M118 523l-111 -523h88l63 301q12 54 56 98q44 43 111 43q18 0 29 -3l20 93q-19 3 -28 3q-51 0 -100 -38q-46 -36 -64 -64l19 90h-83zM219 604l-37 142h-105l80 -142h62zM381 604l-36 142h-106l81 -142h61z" />
<glyph unicode="&#x212;" horiz-adv-x="722" d="M432 389h-225l52 245h237q50 0 77 -15q50 -29 34 -104q-14 -69 -58 -97.5t-117 -28.5zM180 717l-152 -717h97l65 308h221q59 0 85 -14q43 -22 32 -94l-19 -119q-10 -65 -5 -81h120l3 16q-22 11 -23 44q0 23 7 61l17 96q11 60 -3 88.5t-55 47.5q111 50 137 171 q26 123 -65 169q-48 24 -130 24h-332zM552 759h50q6 46 -8 77q-25 58 -111 58q-144 0 -190 -135h49q14 31 33 48q31 28 85 28q58 0 79 -28q11 -16 13 -48z" />
<glyph unicode="&#x213;" horiz-adv-x="333" d="M118 523l-111 -523h88l63 301q12 54 56 98q44 43 111 43q18 0 29 -3l20 93q-19 3 -28 3q-51 0 -100 -38q-46 -36 -64 -64l19 90h-83zM362 590h50q6 46 -8 77q-24 58 -111 58q-144 0 -189 -135h48q14 32 33 48q32 29 85 29q58 0 79 -29q13 -16 13 -48z" />
<glyph unicode="&#x214;" horiz-adv-x="722" d="M274 717h-99l-86 -403q-28 -131 -7 -203q37 -130 218 -130q182 0 275 130q50 69 79 203l86 403h-99l-94 -443q-16 -77 -51 -124q-62 -84 -185 -84q-103 0 -130 78q-18 51 -1 130zM439 767l-36 142h-105l79 -142h62zM602 767l-37 142h-105l80 -142h62z" />
<glyph unicode="&#x215;" d="M203 523h-90l-76 -356q-14 -68 -1 -106q26 -75 138 -75q71 0 130 41q29 20 53 50l-17 -77h83l111 523h-87l-55 -257q-17 -79 -44 -120q-51 -83 -143 -83q-63 0 -77 47q-8 26 1 66zM309 591l-37 142h-104l79 -142h62zM472 591l-37 142h-106l81 -142h62z" />
<glyph unicode="&#x216;" horiz-adv-x="722" d="M274 717h-99l-86 -403q-28 -131 -7 -203q37 -130 218 -130q182 0 275 130q50 69 79 203l86 403h-99l-94 -443q-16 -77 -51 -124q-62 -84 -185 -84q-103 0 -130 78q-18 51 -1 130zM572 767h50q5 49 -8 77q-25 58 -112 58q-143 0 -189 -135h48q13 31 33 48q34 29 86 29 q56 0 79 -29q12 -18 13 -48z" />
<glyph unicode="&#x217;" d="M203 523h-90l-76 -356q-14 -68 -1 -106q26 -75 138 -75q71 0 130 41q29 20 53 50l-17 -77h83l111 523h-87l-55 -257q-17 -79 -44 -120q-51 -83 -143 -83q-63 0 -77 47q-8 26 1 66zM441 591h50q6 46 -8 77q-24 58 -111 58q-144 0 -189 -135h48q15 31 33 48q31 28 86 28 q57 0 79 -28q12 -17 12 -48z" />
<glyph unicode="&#x218;" horiz-adv-x="648" d="M538 505h90q19 113 -40.5 169.5t-174.5 56.5q-108 0 -194.5 -53.5t-109.5 -155.5q-11 -53 6.5 -90t54 -56t82.5 -31.5t93 -22.5t84 -23.5t56.5 -39.5t11.5 -66q-8 -37 -29.5 -63.5t-52 -40.5t-61.5 -20t-66 -6q-88 0 -138.5 43.5t-33.5 128.5h-90q-26 -123 44 -187.5 t198 -64.5q70 0 135 20.5t119.5 70.5t69.5 122q11 50 -1 88t-39.5 58.5t-65.5 36.5t-79 23.5t-79.5 18t-68.5 22t-45 33.5t-8 53q13 64 65.5 93t120.5 29q161 0 146 -146zM199 -50l-19 -88h52q-1 -8 -3.5 -13t-13.5 -12t-31 -12l-7 -35q98 0 117 83l16 77h-111z" />
<glyph unicode="&#x219;" horiz-adv-x="500" d="M90 163h-85q-15 -91 36 -133t146 -42q91 0 164 39t91 124q8 35 -0.5 61.5t-31.5 42.5t-47 25.5t-59 17.5q-10 2 -32 7.5t-33 8.5t-29 8.5t-26.5 11t-18 13.5t-12 18.5t0.5 22.5q14 66 124 66q48 0 78 -20.5t24 -66.5h85q13 89 -35 125.5t-143 36.5q-77 0 -143 -37.5 t-81 -109.5q-9 -40 3.5 -68.5t39 -43.5t60.5 -25t68.5 -17t62 -16.5t42.5 -27t10 -44.5q-17 -77 -141 -77q-59 0 -93 23.5t-25 76.5zM126 -50l-19 -88h52q-1 -8 -3.5 -13t-13.5 -12t-31 -12l-7 -35q98 0 117 83l16 77h-111z" />
<glyph unicode="&#x21a;" horiz-adv-x="574" d="M314 634l-134 -634h95l134 634h238l17 80h-571l-17 -80h238zM160 -50l-19 -88h52q-1 -8 -3.5 -13t-13.5 -12t-31 -12l-7 -35q98 0 117 83l16 77h-111z" />
<glyph unicode="&#x21b;" horiz-adv-x="315" d="M231 517l33 155h-85l-33 -155h-88l-16 -75h88l-69 -329q-15 -68 7 -90.5t92 -22.5h65l15 75h-39q-40 0 -50 8t-4 38l68 321h103l16 75h-103zM59 -50l-19 -88h52q-1 -8 -3.5 -13t-13.5 -12t-31 -12l-7 -35q98 0 117 83l16 77h-111z" />
<glyph unicode="&#x21c;" horiz-adv-x="664" d="M286 54q-80 0 -171 52l-80 -53q113 -77 246 -77q115 0 207 69q89 68 108 161q14 66 -1 104q-17 46 -75 74q103 61 123 148q19 94 -33 153q-54 59 -170 59q-125 0 -274 -119l54 -63q124 104 197 104q72 0 106.5 -33.5t21.5 -92.5q-15 -72 -74 -96q-44 -21 -147 -23 l-17 -79q42 2 44 2q89 0 126 -33t23 -100q-15 -71 -69 -110q-59 -47 -145 -47z" />
<glyph unicode="&#x21d;" horiz-adv-x="664" d="M242 -155q-80 0 -171 52l-81 -53q112 -76 247 -76q115 0 207 68q88 68 108 162q14 65 -1 104q-16 44 -75 73q104 62 122 149q21 94 -32 152q-56 60 -171 60q-125 0 -273 -119l54 -63q124 104 197 104q72 0 106 -34t22 -92q-15 -73 -74 -96q-47 -22 -147 -24l-17 -79 q40 2 43 2q89 0 126.5 -33t23.5 -100q-15 -69 -69 -110q-59 -47 -145 -47z" />
<glyph unicode="&#x21e;" horiz-adv-x="722" d="M171 717l-152 -717h98l71 335h373l-71 -335h98l152 717h-98l-63 -296h-373l63 296h-98zM515 746l129 141h-80l-86 -94l-46 94h-79l69 -141h93z" />
<glyph unicode="&#x21f;" d="M157 720l-153 -720h88l58 277q22 104 75 142t108 38q67 0 80 -43q9 -27 -3 -84l-70 -330h91l71 335q16 78 3 121q-24 80 -138 80q-63 0 -112 -28q-28 -17 -67 -56l57 268h-88zM435 750l130 142h-81l-85 -94l-46 94h-80l69 -142h93z" />
<glyph unicode="&#x220;" horiz-adv-x="722" d="M175 717l-152 -717h99l94 443q17 79 50 124q62 84 186 84q104 0 129 -78q18 -53 2 -130l-136 -637h99l127 597q28 131 7 203q-37 130 -218 130q-116 0 -196 -53l7 34h-98z" />
<glyph unicode="&#x226;" horiz-adv-x="667" d="M446 294h-224l182 317zM377 717l-422 -717h99l123 215h284l27 -215h107l-108 717h-110zM418 868l-21 -101h91l21 101h-91z" />
<glyph unicode="&#x227;" d="M178 57q-40 0 -62.5 22.5t-14.5 59.5q11 50 56 73q28 14 76 20l54 7q61 7 98 27l-15 -71q-17 -82 -99 -116q-45 -22 -93 -22zM352 317l-144 -18q-79 -9 -131.5 -50t-67.5 -112q-14 -67 23 -111t109 -44q58 0 114 25t92 62q-2 -33 5 -48q14 -32 59 -32q30 0 63 9l14 64 q-26 -2 -30 -2q-17 0 -21 7t-1 23l64 301q15 74 -35 109q-49 36 -142 36q-79 0 -149 -38q-68 -38 -90 -135h82q14 43 34 61q36 37 105 37q61 0 88 -20.5t17 -64.5q-5 -23 -13 -34q-13 -20 -45 -25zM324 724l-21 -102h92l21 102h-92z" />
<glyph unicode="&#x228;" horiz-adv-x="667" d="M177 717l-152 -717h531l18 85h-436l51 244h396l18 83h-396l46 217h428l19 88h-523zM297 0l-82 -87l13 -20q27 8 41 8q21 0 32 -11.5t7 -26.5q-4 -26 -32 -37q-16 -6 -34 -6q-16 0 -34 6q-7 2 -28 9l-25 -39q13 -5 39 -14q25 -7 53 -7q58 0 93.5 26t44.5 65 q8 35 -9.5 55.5t-52.5 20.5q-21 0 -38 -5l60 63h-48z" />
<glyph unicode="&#x229;" d="M503 441q-19 41 -65.5 67.5t-102.5 26.5q-110 0 -195 -79t-112 -205q-27 -128 25 -199q53 -71 151 -71q38 0 73 8q61 13 110 53q30 24 56 57q27 36 36 65h-86q-17 -35 -46 -61q-49 -45 -119 -45q-72 0 -98.5 46.5t-11.5 128.5h384q17 82 17 116q2 53 -16 92zM426 303 h-290q16 67 66 111q52 44 112 44q84 0 106 -63q14 -35 6 -92zM218 -13l-83 -87l13 -20q27 8 42 8q20 0 31 -11t8 -27q-6 -28 -33 -38q-17 -5 -33 -5q-14 0 -34 5q-13 4 -27 10l-26 -39q17 -7 39 -14q24 -7 52 -7q58 0 93.5 25.5t44.5 65.5q8 35 -9.5 55.5t-52.5 20.5 q-21 0 -38 -5l60 63h-47z" />
<glyph unicode="&#x22a;" horiz-adv-x="778" d="M737 615q-65 122 -255 122q-182 0 -303 -133q-93 -102 -125 -249q-34 -159 28 -267q70 -109 237 -109q177 0 300 125q102 105 137 267q32 150 -19 244zM657 370q-26 -121 -102 -212q-77 -92 -205 -92q-136 0 -179 81t-17 202q32 149 117 225q86 76 199 76q114 0 164 -77 t23 -203zM553 890l-22 -101h91l22 101h-91zM392 890l-22 -101h91l22 101h-91zM406 1064l-13 -58h313l13 58h-313z" />
<glyph unicode="&#x22b;" d="M421 270q-16 -79 -64 -147q-47 -66 -133 -66q-80 0 -105 55t-7 139q18 87 67 148q50 62 131 62q90 0 113 -72q13 -45 -2 -119zM513 272q28 130 -28 198t-156 68q-112 0 -196 -78q-83 -78 -111 -210q-27 -123 21 -196t156 -73q129 0 208 82q81 84 106 209zM399 689 l-22 -102h92l22 102h-92zM238 689l-22 -102h92l22 102h-92zM235 805l-13 -57h313l13 57h-313z" />
<glyph unicode="&#x22c;" horiz-adv-x="778" d="M737 615q-65 122 -255 122q-182 0 -303 -133q-93 -102 -125 -249q-34 -159 28 -267q70 -109 237 -109q177 0 300 125q102 105 137 267q32 150 -19 244zM657 370q-26 -121 -102 -212q-77 -92 -205 -92q-136 0 -179 81t-17 202q32 149 117 225q86 76 199 76q114 0 164 -77 t23 -203zM533 856q-50 25 -85 25q-56 0 -93 -45q-19 -23 -34 -63h48q17 45 52 45q22 0 63 -16l23 -10q38 -12 54 -12q85 0 126 109h-51q-8 -21 -14 -28q-17 -17 -43 -17q-17 0 -46 12zM373 986l-12 -57h313l12 57h-313z" />
<glyph unicode="&#x22d;" d="M421 270q-16 -79 -64 -147q-47 -66 -133 -66q-80 0 -105 55t-7 139q18 87 67 148q50 62 131 62q90 0 113 -72q13 -45 -2 -119zM513 272q28 130 -28 198t-156 68q-112 0 -196 -78q-83 -78 -111 -210q-27 -123 21 -196t156 -73q129 0 208 82q81 84 106 209zM377 667 q-51 25 -85 25q-54 0 -92 -45q-21 -26 -34 -63h47q17 45 52 45q21 0 63 -16l24 -9q28 -13 53 -13q85 0 126 109h-51q-6 -19 -15 -28q-14 -17 -42 -17q-17 0 -46 12zM223 800l-13 -58h313l13 58h-313z" />
<glyph unicode="&#x22e;" horiz-adv-x="778" d="M737 615q-65 122 -255 122q-182 0 -303 -133q-93 -102 -125 -249q-34 -159 28 -267q70 -109 237 -109q177 0 300 125q102 105 137 267q32 150 -19 244zM657 370q-26 -121 -102 -212q-77 -92 -205 -92q-136 0 -179 81t-17 202q32 149 117 225q86 76 199 76q114 0 164 -77 t23 -203zM469 910l-22 -101h91l22 101h-91z" />
<glyph unicode="&#x22f;" d="M421 270q-16 -79 -64 -147q-47 -66 -133 -66q-80 0 -105 55t-7 139q18 87 67 148q50 62 131 62q90 0 113 -72q13 -45 -2 -119zM513 272q28 130 -28 198t-156 68q-112 0 -196 -78q-83 -78 -111 -210q-27 -123 21 -196t156 -73q129 0 208 82q81 84 106 209zM318 720 l-22 -101h91l22 101h-91z" />
<glyph unicode="&#x230;" horiz-adv-x="778" d="M737 615q-65 122 -255 122q-182 0 -303 -133q-93 -102 -125 -249q-34 -159 28 -267q70 -109 237 -109q177 0 300 125q102 105 137 267q32 150 -19 244zM657 370q-26 -121 -102 -212q-77 -92 -205 -92q-136 0 -179 81t-17 202q32 149 117 225q86 76 199 76q114 0 164 -77 t23 -203zM466 905l-22 -101h91l22 101h-91zM379 1003l-13 -58h312l13 58h-312z" />
<glyph unicode="&#x231;" d="M421 270q-16 -79 -64 -147q-47 -66 -133 -66q-80 0 -105 55t-7 139q18 87 67 148q50 62 131 62q90 0 113 -72q13 -45 -2 -119zM513 272q28 130 -28 198t-156 68q-112 0 -196 -78q-83 -78 -111 -210q-27 -123 21 -196t156 -73q129 0 208 82q81 84 106 209zM322 687 l-22 -102h92l22 102h-92zM229 779l-12 -58h313l12 58h-313z" />
<glyph unicode="&#x232;" horiz-adv-x="667" d="M113 717l180 -428l-61 -289h97l61 289l362 428h-114l-279 -344l-133 344h-113zM302 806l-12 -57h313l12 57h-313z" />
<glyph unicode="&#x233;" horiz-adv-x="500" d="M442 523l-232 -426l-49 426h-100l79 -538q-3 -5 -8 -13l-12.5 -20t-13.5 -21q-23 -37 -26 -40q-23 -28 -61 -28q-17 0 -48 10l-18 -81q29 -6 52 -6q76 0 117 44q39 42 159 244q2 4 49.5 85t77.5 134q89 157 131 230h-97zM178 648l-12 -57h312l12 57h-312z" />
<glyph unicode="&#x237;" horiz-adv-x="222" d="M79 -66l124 583h-85l-121 -569q-8 -40 -21.5 -55.5t-40.5 -15.5h-18q-2 0 -16 2l-16 -73q17 -4 43 -4q124 0 151 132z" />
<glyph unicode="&#x238;" horiz-adv-x="931" d="M417 507q-34 25 -94 25q-109 0 -186 -84q-76 -82 -100 -198q-26 -123 22 -196t136 -73q56 0 101 22q43 19 84 65l-14 -68h82l13 65q19 -35 40 -53q35 -29 95 -29q107 0 183 82q79 83 104 206q27 129 -17 197.5t-145 68.5q-98 0 -173 -78l56 261h-88l-57 -264 q-21 36 -42 51zM792 267q-21 -96 -68.5 -151t-117.5 -55q-93 0 -110 86q-7 34 0 82l16 73q22 74 66 112q56 44 116 44q70 0 92 -54q24 -54 6 -137zM239 58q-79 0 -103 56q-23 58 -5 141q21 97 72 149t119 52q60 0 90 -48q26 -41 15 -118l-12 -57q-23 -79 -65 -123 q-49 -52 -111 -52z" />
<glyph unicode="&#x239;" horiz-adv-x="902" d="M458 521l-14 -66q-13 30 -33 47q-37 33 -103 33q-98 0 -177 -81q-78 -79 -105 -206q-29 -134 24 -200q53 -65 135 -65q110 0 174 77l-57 -268h89l57 267q21 -35 41 -51q35 -26 94 -26q75 0 142 47q105 73 142 244q26 127 -22 194q-46 69 -136 69q-60 0 -111 -30 q-35 -20 -67 -53l15 70h-83l-1 -2h-4zM775 265q-21 -99 -72.5 -152.5t-114.5 -53.5q-92 0 -108 81q-4 27 -3 60l20 95q13 38 32 72q52 91 144 91q90 0 107 -86q8 -48 -5 -107zM114 141q-10 44 4 113q22 100 72.5 151.5t110.5 51.5q89 0 109 -78q8 -29 3 -69l-20 -94 q-13 -43 -31 -71q-53 -86 -145 -86q-87 0 -103 82z" />
<glyph unicode="&#x23a;" horiz-adv-x="667" d="M446 294h-224l182 317zM377 717l-422 -717h99l123 215h284l27 -215h107l-108 717h-110zM536 815l-435 -913h74l435 913h-74z" />
<glyph unicode="&#x23b;" horiz-adv-x="722" d="M537 820l-39 -84q-7 1 -24 1q-159 0 -273 -111q-105 -99 -140 -260q-44 -209 47 -309q26 -29 57 -45l-52 -115h75l41 92q35 -8 72 -8q145 0 250 93q88 77 125 190h-95q-29 -72 -69 -115q-73 -82 -181 -82q-36 0 -63 7l261 569q35 -10 55 -31q40 -41 41 -110h94 q12 91 -48 163q-38 44 -103 61l43 94h-74zM270 578q82 74 187 74h2l-252 -549q-22 17 -35 42q-42 79 -15 205q31 152 113 228z" />
<glyph unicode="&#x23c;" horiz-adv-x="500" d="M421 620l-46 -87q-28 5 -55 5q-102 0 -187 -77q-84 -78 -112 -214q-24 -112 21 -187q21 -34 54 -54l-55 -104h74l45 85q18 -2 29 -2q196 0 267 200h-86q-54 -125 -158 -125q-9 0 -13 1l191 360q17 -31 14 -74h86q11 105 -35 148q-12 10 -18 14l58 111h-74zM303 459 q12 0 32 -2l-197 -372q-12 12 -18 29q-22 51 -5 132q17 79 51 131q52 82 137 82z" />
<glyph unicode="&#x23d;" d="M0 340l88 -1l-72 -339h461l18 85h-364l53 253h158l17 77h-158l64 302h-97l-64 -302h-88z" />
<glyph unicode="&#x23e;" horiz-adv-x="611" d="M561 820l-58 -103h-395l-18 -85h242l-75 -350l-217 -385h74l99 175l-15 -72h98l74 352l159 280h143l18 85h-113l58 103h-74zM415 562l15 70h25z" />
<glyph unicode="&#x241;" d="M393 727q-103 0 -177 -65t-96 -169h87q16 61 41 97q44 60 126 60q62 0 85.5 -33t12.5 -85q-7 -33 -34 -66q-13 -17 -36 -34l-47 -39q-71 -58 -94 -98q-26 -44 -78 -295h87q50 242 71 275q21 31 78 78q75 59 105 94q28 31 39 84q19 85 -27 141q-46 55 -143 55z" />
<glyph unicode="&#x242;" d="M353 538q-104 0 -177 -64q-74 -65 -96 -170h87q16 63 41 97q43 61 126 61q62 0 85.5 -33t12.5 -85q-7 -33 -34 -66q-14 -19 -36 -35l-47 -38q-69 -57 -94 -99q-24 -40 -38 -106h87q10 53 31 87q21 32 77 77q77 61 106 95q28 31 39 84q18 85 -28 140q-45 55 -142 55z" />
<glyph unicode="&#x243;" horiz-adv-x="724" d="M-1 173h113l-36 -173h303q141 0 224 84q55 55 70 125q18 83 -20 130q-23 26 -73 47q42 20 66 42q48 44 62 112q14 58 -9 102q-37 75 -163 75h-308l-101 -474h-113zM397 83h-209l19 90h105l15 70h-105l20 92h193q61 0 95 -15q63 -28 47 -106q-11 -49 -41 -79 q-49 -52 -139 -52zM435 414h-177l48 222h173q66 0 93 -13q52 -25 37 -95t-75 -97q-39 -17 -99 -17z" />
<glyph unicode="&#x244;" horiz-adv-x="847" d="M40 369h122l-12 -55q-28 -131 -7 -203q37 -130 218 -130q182 0 275 130q50 69 79 203l12 55h114l15 69h-114l59 279h-99l-59 -279h-367l59 279h-99l-59 -279h-122zM242 144q-18 51 -1 130l20 95h367l-20 -95q-16 -77 -51 -124q-61 -84 -185 -84q-103 0 -130 78z" />
<glyph unicode="&#x245;" horiz-adv-x="667" d="M-35 0h108l335 611l74 -611h109l-109 717h-103z" />
<glyph unicode="&#x246;" horiz-adv-x="667" d="M177 717l-152 -717h136l-48 -103h75l47 103h321l18 85h-300l111 244h200l18 83h-180l100 217h158l19 88h-136l47 103h-74l-48 -103h-312zM207 412l46 217h196l-100 -217h-142zM138 85l51 244h122l-111 -244h-62z" />
<glyph unicode="&#x247;" d="M421 620l-48 -89q-16 4 -38 4q-110 0 -195 -79t-112 -205q-27 -127 26 -199q18 -25 44 -42l-57 -108h74l45 84q22 -5 44 -5q38 0 73 8q61 13 110 53q30 24 56 57q27 36 36 65h-86q-17 -35 -46 -61q-49 -45 -119 -45q-12 0 -30 2l92 173h212q17 82 17 116q2 53 -16 92 q-20 42 -66 67v1l58 111h-74zM314 458q14 0 21 -1l-82 -154h-117q16 67 66 111q52 44 112 44zM129 105q-25 48 -11 128h98l-77 -144q-2 2 -10 16zM426 303h-99l68 129q18 -17 25 -37q14 -35 6 -92z" />
<glyph unicode="&#x248;" horiz-adv-x="542" d="M413 214l50 237h74l15 70h-74l42 196h-96l-42 -196h-78l-15 -70h78l-45 -212q-20 -93 -41 -123q-35 -54 -112 -54q-109 0 -83 118l11 51h-91l-11 -51q-24 -112 23 -156q47 -43 129 -43q140 0 209 92q38 49 57 141z" />
<glyph unicode="&#x249;" horiz-adv-x="222" d="M150 276l52 245h-88l-52 -245h-72l-15 -69h72l-58 -275q-11 -46 -23 -53q-14 -10 -73 -11l-16 -76q21 -3 36 -3q85 0 126 48q24 29 36 85l60 285h87l15 69h-87zM222 616l22 101h-88l-22 -101h88z" />
<glyph unicode="&#x24a;" horiz-adv-x="860" d="M723 -224q1 5 3 13.5t3 15t2 11.5q3 10 4.5 20.5t1.5 15t-1 5.5q-77 0 -89 54q-9 30 11 123l145 683h-96l-16 -77q-70 97 -226 97q-190 0 -307 -122q-91 -94 -123 -244q-34 -159 25 -267q69 -125 246 -125q151 0 263 91l-13 -61q-20 -91 -3 -141q30 -92 170 -92zM134 370 q27 126 110 203t197 77q112 0 166 -76q49 -69 26 -203l-9 -46q-29 -104 -98 -178q-76 -81 -213 -81q-128 0 -166 92q-38 93 -13 212z" />
<glyph unicode="&#x24b;" horiz-adv-x="614" d="M479 -208l16 76q-58 1 -69 11q-11 8 0 53l125 589h-87l-8 -38q-51 55 -146 55q-100 0 -185 -68q-83 -67 -112 -198q-26 -128 17 -209q43 -82 173 -82q86 0 156 47l-22 -106q-12 -57 0 -85q21 -48 107 -48q15 0 35 3zM104 270q15 73 49 119q53 72 143 72q80 0 104 -62 q24 -61 6 -148q-18 -85 -67 -139q-48 -55 -127 -55q-88 0 -107 66q-18 65 -1 147z" />
<glyph unicode="&#x24c;" horiz-adv-x="781" d="M28 308h126l-65 -308h98l65 308h221q58 0 84 -14q44 -23 32 -94l-19 -119q-11 -65 -4 -81h119l3 16q-21 11 -22 44q-2 20 6 61l18 96q9 60 -4.5 88.5t-53.5 47.5q111 50 137 171q26 123 -65 169q-49 24 -131 24h-332l-70 -328h-126zM493 389h-224l52 245h237q50 0 76 -15 q50 -29 34 -104q-14 -69 -58 -97.5t-117 -28.5z" />
<glyph unicode="&#x24d;" horiz-adv-x="390" d="M-11 173h105l-36 -173h88l36 173h119l15 70h-119l12 58q12 54 56 98q44 43 112 43q18 0 29 -3l20 93q-20 3 -29 3q-51 0 -100 -38q-47 -37 -63 -64l19 90h-84l-60 -280h-105z" />
<glyph unicode="&#x24e;" horiz-adv-x="772" d="M61 515h187l95 -226l-61 -289h97l61 289l192 226h176l15 69h-133l112 133h-113l-108 -133h-253l-51 133h-114l56 -133h-143zM410 373l-56 142h171z" />
<glyph unicode="&#x24f;" horiz-adv-x="614" d="M32 320h122l48 -335q-3 -5 -8 -13l-12.5 -20t-13.5 -21l-25 -40q-23 -28 -62 -28q-17 0 -48 10l-18 -81q30 -6 52 -6q76 0 117 44q39 42 159 244q2 4 49.5 85t77.5 134q2 5 8 14t8 13h127l14 69h-103q62 108 78 134h-97l-74 -134h-193l-15 134h-99l19 -134h-97zM272 97 l-25 223h147z" />
<glyph unicode="&#x250;" d="M386 460q40 0 62 -22t14 -60q-11 -50 -56 -73q-22 -12 -76 -20l-54 -7q-66 -8 -97 -27l15 71q16 81 98 117q46 21 94 21zM211 201l145 17q78 10 130.5 51t67.5 111q15 67 -22 111t-110 44q-58 0 -114.5 -25t-91.5 -62q2 33 -5 49q-14 32 -59 32q-31 0 -62 -9l-14 -65 q12 3 29 3q30 0 23 -30l-64 -302q-15 -75 34 -109q50 -35 143 -35q79 0 147 38q68 37 91 134h-82q-13 -40 -34 -61q-37 -37 -105 -37q-61 0 -88 21t-17 65q5 23 13 33q13 21 45 26z" />
<glyph unicode="&#x251;" horiz-adv-x="587" d="M385 75q-2 -42 13.5 -61t62.5 -19q32 0 42 5l13 63q-41 5 -46 8q-6 5 3 45l87 409h-80l-16 -78q-46 88 -156 88q-105 0 -183 -78q-76 -76 -102 -197t19 -198t149 -77q115 0 194 90zM304 460q72 0 102 -50.5t10 -149.5q-21 -100 -73 -150t-124 -50t-102 50.5t-9 149.5 q21 100 72.5 150t123.5 50z" />
<glyph unicode="&#x252;" horiz-adv-x="587" d="M195 444q2 42 -13.5 61t-62.5 19q-32 0 -41 -4l-13 -63q41 -5 45 -9q6 -4 -3 -45l-87 -408h80l17 78q47 -89 155 -89q106 0 182 78q79 79 104 198q25 118 -20 197q-45 78 -149 78q-111 0 -194 -91zM276 60q-72 0 -102 50.5t-9 149.5q20 99 72 149t124 50t102 -50t10 -149 q-21 -100 -73 -150t-124 -50z" />
<glyph unicode="&#x253;" d="M307 659l16 76q-21 3 -36 3q-87 0 -127 -48q-24 -29 -36 -86l-47 -222h2l-81 -382h81l14 67q20 -38 40 -55q35 -29 95 -29q107 0 183 82q79 83 104 206q28 129 -19 198q-47 68 -143 68q-97 0 -172 -77l29 135q11 46 23 53q14 10 74 11zM424 267q-21 -96 -69 -151 t-117 -55q-95 0 -110 86q-9 47 6 120q23 104 77 146q55 45 115 45q68 0 92 -54t6 -137z" />
<glyph unicode="&#x254;" horiz-adv-x="500" d="M5 175q-11 -101 33 -146t137 -45q103 0 186 77q84 77 113 214q24 113 -21 188t-148 75q-195 0 -266 -201h86q52 125 158 125q71 0 92 -54q22 -51 5 -132q-17 -79 -51 -131q-52 -82 -137 -82q-108 0 -101 112h-86z" />
<glyph unicode="&#x256;" horiz-adv-x="607" d="M467 -208l16 76q-58 1 -69 11q-11 8 0 53l15 68h2l153 720h-85l-57 -264q-22 36 -42 51q-34 25 -95 25q-109 0 -185 -84q-76 -82 -100 -198q-26 -123 22 -196t136 -73q56 0 101 22q41 19 74 55l-29 -136q-12 -57 1 -85q21 -48 107 -48q15 0 35 3zM222 58q-79 0 -103 56 q-23 58 -5 141q21 97 72 149t119 52q63 0 91.5 -50t8.5 -145q-21 -96 -71 -149.5t-112 -53.5z" />
<glyph unicode="&#x257;" horiz-adv-x="592" d="M653 657l16 76q-19 3 -35 3q-86 0 -127 -48q-24 -29 -36 -85l-31 -144q-21 35 -40 48q-34 25 -95 25q-109 0 -185 -84q-76 -82 -100 -198q-26 -123 22 -196t136 -73q111 0 189 92l-15 -73h79l126 593q9 45 23 53q14 9 73 11zM222 58q-79 0 -103 56q-23 58 -5 141 q21 97 72 149t119 52q63 0 91.5 -50t8.5 -145q-21 -96 -71 -149.5t-112 -53.5z" />
<glyph unicode="&#x258;" d="M111 441q-35 -41 -54 -92q-17 -38 -33 -116h383q-42 -175 -183 -175q-70 0 -101 45q-17 26 -20 61h-87q-2 -29 9.5 -64.5t30.5 -57.5q32 -39 89 -53q30 -8 69 -8q98 0 181 71q84 72 111 199q27 126 -25 205t-162 79q-55 0 -114 -27q-56 -25 -94 -67zM420 303h-291 q18 57 44 92q51 63 135 63q61 0 92.5 -43.5t19.5 -111.5z" />
<glyph unicode="&#x259;" horiz-adv-x="555" d="M236 -11q109 0 187.5 94t78.5 239q0 37 -10.5 71t-34 66t-68.5 51t-106 19q-87 0 -150.5 -44.5t-83.5 -128.5h85q37 99 149 99q55 0 94.5 -34t39.5 -91q0 -22 -3 -45h-389q-8 -40 -8 -67q0 -229 219 -229zM223 64q-65 0 -95 42.5t-26 103.5h300q-20 -66 -64 -106 t-115 -40z" />
<glyph unicode="&#x25a;" horiz-adv-x="825" d="M681 242q-22 7 -22.5 29t9.5 58.5t9 58.5q-72 -21 -122 -35q-26 -8 -39 -11q-11 112 -78 158q-74 51 -174 26q-44 -11 -72 -26q-60 -29 -99 -77q-22 -27 -40 -67t-20 -67l88 22q7 33 31 67q40 55 109 73q73 18 112.5 -17.5t46.5 -114.5l-391 -99q5 -81 14 -110 q12 -48 41 -80q30 -33 85 -44.5t111 2.5q113 29 179 122q53 77 59 174q19 7 34 11q22 7 45 12q-14 -61 9 -95.5t78 -28.5q88 6 129 75q-5 8 -18 16.5t-19 17.5q-18 -26 -44.5 -41.5t-50.5 -8.5zM125 175l297 75q2 -65 -39 -118t-101 -69q-87 -21 -127 31q-23 28 -30 81z" />
<glyph unicode="&#x25b;" horiz-adv-x="521" d="M452 161h-83q-43 -102 -169 -102q-46 0 -78 21t-23 64q20 97 143 97h58l15 70h-51q-56 0 -78 20t-13 60q14 70 122 70q49 0 74.5 -21t24.5 -66h83q11 54 -23 107q-34 54 -147 54q-81 0 -142 -36q-60 -34 -74 -95q-9 -49 6 -77t56 -49q-57 -15 -94.5 -50.5t-49.5 -86.5 q-14 -69 36 -110q52 -41 136 -41q110 0 182 48q72 49 89 123z" />
<glyph unicode="&#x25c;" horiz-adv-x="521" d="M98 161h-83q-16 -73 35 -123q53 -48 161 -48q84 0 154 41q69 41 83 110q12 50 -11 86t-73 51q51 21 78 49.5t36 76.5q14 60 -33 95q-47 36 -127 36q-114 0 -171 -54q-57 -55 -67 -107h83q34 87 135 87q56 0 78.5 -18t15.5 -52q-18 -80 -125 -80h-52l-15 -70h59 q58 0 85 -23t16 -74q-9 -43 -51 -64q-41 -21 -86 -21q-65 0 -95 25t-30 77z" />
<glyph unicode="&#x25d;" horiz-adv-x="792" d="M675 379q-22 7 -23 28.5t9 59t10 57.5q-25 -7 -124 -35q-56 -16 -85 -24q-8 18 -27 35q-47 35 -128 35q-113 0 -170 -54t-68 -107h83q36 87 135 87q56 0 78.5 -18t15.5 -52q-18 -80 -125 -80h-51l-15 -70h58q58 0 85 -23t16 -74q-9 -43 -50 -64t-87 -21q-65 0 -94.5 25 t-30.5 77h-83q-16 -76 36.5 -123.5t160.5 -47.5q85 0 153 41q69 41 83 110q12 50 -11 86t-73 51q51 21 78 49.5t36 76.5l1 3q6 1 17 5t16 5q57 20 89 26q-14 -58 9.5 -94t77.5 -30q88 6 130 76q-5 6 -18 15.5t-19 18.5q-49 -65 -95 -50z" />
<glyph unicode="&#x25e;" horiz-adv-x="499" d="M139 481q-90 -108 -117 -234q-21 -101 5 -151q25 -49 55 -71q29 -20 101 -34q6 -1 20 -1q85 0 153 41q69 41 83 110q12 50 -11 86t-73 51q51 21 78 49.5t36 76.5q13 60 -33 96q-47 35 -126 35l-62 -5q-69 -11 -109 -49zM294 459v2q54 -2 73 -19q23 -19 16 -51 q-18 -80 -125 -80l-8 -70q58 0 85 -23t16 -74q-9 -43 -50 -64t-67 -21h-31q-39 6 -60 15q-21 13 -32 40q-22 51 -5 132q17 79 51 131q52 82 137 82z" />
<glyph unicode="&#x25f;" horiz-adv-x="278" d="M73 -166q23 26 36 81l18 82h73l15 69h-73l95 451h-87l-95 -451h-88l-15 -69h87q-18 -86 -31 -106q-12 -21 -52 -21q-3 0 -11.5 0.5t-18.5 1.5l-17 -80q30 -2 36 -2q87 0 128 44z" />
<glyph unicode="&#x260;" horiz-adv-x="605" d="M627 549l16 76q-19 3 -35 3q-86 0 -127 -48q-24 -29 -36 -85l-8 -34q-18 28 -35 41q-38 30 -100 30q-91 0 -171 -74t-108 -205q-28 -139 21 -199q51 -60 136 -60q109 0 179 79q-23 -109 -49 -150q-47 -71 -148 -71q-64 0 -87 29q-15 20 -14 54h-89q-10 -81 39 -118 q50 -38 134 -38q153 0 229 106q41 60 62 157l98 461q9 28 20 36q15 9 73 10zM301 455q65 0 93.5 -48.5t8.5 -142.5q-14 -65 -45 -113q-59 -86 -153 -86q-61 0 -86 47.5t-7 133.5q17 78 44 122q52 87 145 87z" />
<glyph unicode="&#x261;" d="M402 502q-38 30 -100 30q-91 0 -171 -74t-108 -205q-28 -139 21 -199q51 -60 136 -60q109 0 179 79q-23 -109 -49 -150q-47 -71 -148 -71q-64 0 -87 29q-15 20 -14 54h-89q-10 -81 39 -118q50 -38 134 -38q153 0 229 106q41 60 62 157l102 476h-81l-14 -66q-21 35 -41 50 zM301 455q65 0 93.5 -48.5t8.5 -142.5q-14 -65 -45 -113q-59 -86 -153 -86q-61 0 -86 47.5t-7 133.5q17 78 44 122q52 87 145 87z" />
<glyph unicode="&#x265;" d="M385 -208l153 719h-88l-59 -277q-23 -106 -75 -143t-106 -37q-66 0 -81 43q-9 27 3 85l70 329h-90l-71 -335q-16 -76 -4 -121q22 -79 137 -79q64 0 112 27q28 17 68 56l-57 -267h88z" />
<glyph unicode="&#x266;" d="M317 674l16 76q-20 3 -34 3q-86 0 -128 -48q-25 -28 -37 -85l-47 -223h1l-84 -397h88l58 277q22 104 75 142t108 38q67 0 80 -43q9 -27 -3 -84l-70 -330h91l71 335q16 78 3 121q-24 80 -138 80q-63 0 -112 -28q-28 -17 -67 -56l23 111h-1l10 47q11 46 23 53q14 10 74 11z " />
<glyph unicode="&#x267;" horiz-adv-x="605" d="M467 -208l16 76q-58 1 -69 11q-11 8 0 53l15 68h2l71 335q16 78 3 121q-24 80 -138 80q-63 0 -112 -28q-28 -17 -67 -56l23 111h-1l10 47q11 46 23 53q14 10 74 11l16 76q-20 3 -34 3q-86 0 -128 -48q-25 -28 -37 -85l-47 -223h1l-84 -397h88l58 277q22 104 75 142 t108 38q67 0 80 -43q9 -27 -3 -84l-70 -330h1l-17 -78q-12 -57 1 -85q21 -48 107 -48q15 0 35 3z" />
<glyph unicode="&#x268;" horiz-adv-x="341" d="M35 371l-12 -58h116l-66 -313h89l66 313h108l12 58h-108l32 150h-89l-32 -150h-116zM225 717l-21 -99h89l21 99h-89z" />
<glyph unicode="&#x269;" horiz-adv-x="251" d="M167 0l14 66h-20q-37 0 -47 11q-9 14 -4 39l87 409h-80l-92 -432q-9 -44 10.5 -71.5t62.5 -27.5q1 0 5 0.5t12.5 1t16.5 0.5q27 1 35 4z" />
<glyph unicode="&#x26a;" horiz-adv-x="282" d="M-24 90l-19 -90h245l19 90h-79l72 339h79l19 91h-79v1h-89v-1h-77l-19 -91h77l-72 -339h-77z" />
<glyph unicode="&#x26b;" horiz-adv-x="369" d="M232 717l-58 -274q-13 3 -23 3q-55 0 -92 -45q-21 -27 -35 -63h48q17 45 53 45q15 0 27 -4q3 -1 7 -3l-79 -376h88l73 348q13 -3 24 -3q85 0 126 109h-51q-7 -19 -15 -28q-17 -17 -43 -17q-12 0 -22 3l-5 2l65 303h-88z" />
<glyph unicode="&#x26d;" horiz-adv-x="267" d="M131 -208l16 76q-58 1 -69 11q-11 8 0 53l15 68h2l152 717h-88l-122 -572h-2l-47 -223q-12 -57 1 -85q21 -48 107 -48q15 0 35 3z" />
<glyph unicode="&#x26f;" horiz-adv-x="833" d="M710 11l111 523h-88l-59 -277q-21 -101 -71 -140q-50 -38 -99 -38q-54 0 -66 36q-8 26 4 78l72 341h-89l-65 -304q-16 -77 -59 -113.5t-99 -36.5q-91 0 -71 91l77 363h-91l-74 -348q-15 -69 -3 -110q22 -76 128 -76q99 0 175 82q11 -34 28 -52q31 -30 94 -30q55 0 105 29 q27 17 69 56l-16 -74h87z" />
<glyph unicode="&#x270;" horiz-adv-x="833" d="M663 -208l158 742h-88l-59 -277q-21 -101 -71 -140q-50 -38 -99 -38q-54 0 -66 36q-8 26 4 78l72 341h-89l-65 -304q-16 -77 -59 -113.5t-99 -36.5q-91 0 -71 91l77 363h-91l-74 -348q-15 -69 -3 -110q22 -76 128 -76q99 0 175 82q11 -34 28 -52q31 -30 94 -30 q55 0 105 29q27 17 69 56l-63 -293h87z" />
<glyph unicode="&#x271;" horiz-adv-x="833" d="M508 -132l-16 -76q20 -3 36 -3q86 0 127 48q24 29 36 85l90 426q15 68 4 110q-23 77 -128 77q-98 0 -175 -83q-11 34 -28 52q-31 31 -94 31q-56 0 -105 -30q-27 -17 -69 -56l16 74h-87l-111 -523h88l58 277q23 102 71 140q49 39 99 39q54 0 67 -37q7 -22 -4 -78l-72 -341 h89l64 304q16 77 59.5 114t99.5 37q90 0 71 -92l-77 -363h3l-15 -68q-11 -46 -24 -53q-14 -10 -73 -11z" />
<glyph unicode="&#x272;" d="M-109 -132l-16 -76q21 -3 36 -3q85 0 126 48q24 29 36 85l17 78h2l58 274q12 53 24.5 79.5t38.5 52.5q36 33 73 43q20 7 52 7q62 0 75 -49q8 -32 -2 -77l-70 -330h90l71 335q17 82 4 122q-23 78 -134 78q-50 0 -96 -20q-45 -19 -90 -63l14 69h-2l1 2h-84l-1 -2h-2 l-125 -589q-11 -46 -23 -53q-14 -10 -73 -11z" />
<glyph unicode="&#x273;" horiz-adv-x="603" d="M467 -208l16 76q-58 1 -69 11q-11 8 0 53l15 68h2l71 335q17 82 4 122q-23 78 -134 78q-100 0 -189 -86l16 74h-84l-111 -523h88l58 274q12 53 24.5 79.5t38.5 52.5q36 33 73 43q20 7 52 7q62 0 75 -49q8 -32 -2 -77l-87 -408q-12 -57 1 -85q21 -48 107 -48q15 0 35 3z " />
<glyph unicode="&#x274;" horiz-adv-x="546" d="M92 523l-111 -523h93l82 386l180 -386h109l111 523h-92l-83 -387l-174 387h-115z" />
<glyph unicode="&#x275;" d="M513 272q28 130 -28 198t-156 68q-112 0 -196 -78q-83 -78 -111 -210q-27 -123 21 -196t156 -73q129 0 208 82q81 84 106 209zM423 389q12 -40 1 -103h-303q19 64 60 114q48 61 129 61q90 0 113 -72zM119 112q-20 49 -11 116h302q-18 -58 -52 -105q-46 -66 -134 -66 q-80 0 -105 55z" />
<glyph unicode="&#x276;" horiz-adv-x="944" d="M336 537q-118 0 -200 -81q-81 -78 -107 -201q-28 -136 25 -206q56 -69 156 -69q130 0 214 105q49 -106 177 -106q84 0 157 49q72 49 112 136h-88q-22 -40 -49 -65q-49 -45 -115 -45q-94 0 -115 75q-12 40 0 104h387q16 78 17 110q2 56 -19 99q-45 94 -165 94 q-127 0 -215 -102q-20 42 -44 63q-44 40 -128 40zM813 301h-295q28 90 95 131q44 26 87 26q86 0 109 -65q12 -35 4 -92zM428 268q-26 -122 -83 -167q-58 -46 -113 -46q-70 0 -101.5 53t-12.5 142q23 108 77 158q55 52 121 52q69 0 100.5 -49.5t11.5 -142.5z" />
<glyph unicode="&#x278;" horiz-adv-x="722" d="M362 78l83 388q176 -17 139 -196q-18 -85 -75 -137q-58 -52 -147 -55zM256 0l-44 -204h90l44 204q118 1 211 72q92 68 121 188q26 128 -30 205q-55 77 -187 79l35 162h-90l-35 -162q-131 -2 -220 -79q-90 -76 -117 -205q-24 -119 42 -188q63 -70 180 -72zM355 466 l-83 -388q-87 3 -121 55q-37 52 -19 137q37 179 223 196z" />
<glyph unicode="&#x279;" horiz-adv-x="333" d="M263 11l111 523h-88l-64 -301q-12 -54 -57 -98q-43 -43 -111 -43q-19 0 -28 3l-20 -93q13 -2 29 -2q53 0 99 37q46 36 64 65l-19 -91h84z" />
<glyph unicode="&#x27a;" horiz-adv-x="333" d="M263 11l150 706h-88l-103 -484q-12 -54 -57 -98q-43 -43 -111 -43q-19 0 -28 3l-20 -93q13 -2 29 -2q53 0 99 37q46 36 64 65l-19 -91h84z" />
<glyph unicode="&#x27b;" horiz-adv-x="441" d="M299 -208l16 76q-58 1 -69 11q-11 8 0 53l45 213l83 389h-88l-64 -301q-12 -54 -57 -98q-43 -43 -111 -43q-19 0 -28 3l-20 -93q13 -2 29 -2q53 0 99 37q42 33 58 56l-36 -171q-12 -57 1 -85q21 -48 107 -48q15 0 35 3z" />
<glyph unicode="&#x27c;" horiz-adv-x="333" d="M118 523l-143 -673h88l95 451q12 54 56 98q44 43 111 43q18 0 29 -3l20 93q-19 3 -28 3q-51 0 -100 -38q-46 -36 -64 -64l19 90h-83z" />
<glyph unicode="&#x27d;" horiz-adv-x="333" d="M131 -208l16 76q-58 1 -69 11q-11 8 0 53l15 68h2l63 301q12 54 56 98q44 43 111 43q18 0 29 -3l20 93q-19 3 -28 3q-51 0 -100 -38q-46 -36 -64 -64l19 90h-83l-81 -378h-2l-47 -223q-12 -57 1 -85q21 -48 107 -48q15 0 35 3z" />
<glyph unicode="&#x27e;" horiz-adv-x="222" d="M241 427l16 76q-19 3 -35 3q-102 15 -143 -33q-24 -28 -36 -86l-82 -387h87l80 378q9 45 23 53q14 9 90 -4z" />
<glyph unicode="&#x27f;" horiz-adv-x="222" d="M67 503l-16 -76q80 13 91 4q10 -7 1 -53l-80 -378h88l82 387q12 58 -1 86q-20 48 -129 33q-15 0 -36 -3z" />
<glyph unicode="&#x280;" horiz-adv-x="526" d="M271 283h-109l32 152h119q36 0 56 -11q35 -20 29 -49q-20 -92 -127 -92zM115 523l-111 -523h98l44 210h107q43 0 62 -9q32 -17 27 -55l-15 -87q-8 -43 -3 -59h115l2 12q-15 7 -16 32q-1 11 4 44l12 70q5 31 -4.5 51t-37.5 48q83 39 101 125q20 90 -48 123q-34 18 -95 18 h-242z" />
<glyph unicode="&#x281;" horiz-adv-x="526" d="M153 240h109q53 0 76 -21t12 -71q-6 -29 -50 -49q-27 -11 -61 -11h-119zM115 523l-111 -523h242q60 0 102 18q80 33 100 123q18 86 -47 125q40 28 57.5 48t26.5 51l18 70q9 34 14 44q11 24 30 32l3 12h-115q-9 -12 -22 -59l-22 -87q-11 -38 -50 -55q-21 -10 -66 -10h-107 l45 211h-98z" />
<glyph unicode="&#x283;" horiz-adv-x="403" d="M280 661q-33 -54 -69 -182l-116 -431q-29 -101 -56 -137q-28 -37 -70 -37q-24 0 -47 14l-24 -81q27 -12 59 -12q99 0 155 86q57 90 103 265l86 333q31 112 55 155q26 44 70 44q18 0 53 -16l24 79q-20 8 -29 9q-17 4 -40 4q-97 0 -154 -93z" />
<glyph unicode="&#x284;" horiz-adv-x="403" d="M-16 58l-12 -58h108q-21 -61 -41 -89q-28 -37 -70 -37q-24 0 -47 14l-24 -81q27 -12 59 -12q99 0 155 86q28 44 58 119h114l12 58h-107q8 24 26 88l86 333q31 112 55 155q26 44 70 44q18 0 53 -16l24 79q-20 8 -29 9q-17 4 -40 4q-97 0 -154 -93q-33 -54 -69 -182 l-114 -421h-113z" />
<glyph unicode="&#x285;" horiz-adv-x="426" d="M255 471q-29 51 -125 51q-14 0 -40 -2q-23 -3 -33 -5l-1 -44q36 9 58 9q44 0 54 -24q12 -23 4 -85l-23 -184q-10 -97 15 -145q29 -47 128 -47q24 0 64 6l2 44q-33 -7 -51 -7q-43 0 -59 21q-16 19 -10 75l25 237q7 69 -8 100z" />
<glyph unicode="&#x287;" horiz-adv-x="278" d="M122 -9l31 146h70l15 72h-70l73 346q11 51 -5 81q-15 32 -77 32q-44 0 -68 -8l-15 -69q13 1 31 1q23 0 33 -5q17 -9 11 -37l-72 -341h-84l-15 -72h84l-31 -146h89z" />
<glyph unicode="&#x288;" horiz-adv-x="278" d="M164 669l-31 -146h-71l-16 -72h71l-118 -555q-11 -55 6.5 -84t74.5 -29q42 0 69 9l15 69q-24 -2 -30 -2q-24 0 -34 6q-16 9 -11 36l117 550h83l16 72h-83l31 146h-89z" />
<glyph unicode="&#x289;" horiz-adv-x="645" d="M27 305h83l-29 -138q-14 -68 -1 -106q26 -75 138 -75q71 0 130 41q29 20 53 50l-17 -77h83l64 305h96l15 69h-96l32 149h-88l-32 -149h-243l32 149h-90l-32 -149h-83zM172 110q-8 26 1 66l27 129h243l-8 -39q-17 -78 -43 -120q-51 -83 -143 -83q-63 0 -77 47z" />
<glyph unicode="&#x28a;" horiz-adv-x="550" d="M434 244q-17 -81 -69.5 -124.5t-136.5 -43.5q-81 0 -115 43.5t-17 124.5q30 137 169 210l15 69h-200l-15 -69h133q-47 -16 -104 -70q-55 -52 -74 -140q-23 -109 26 -176q50 -68 168 -68q119 0 196 68q78 68 100 176q19 88 -15 140q-34 54 -73 70h133l15 69h-200l-15 -69 q109 -75 79 -210z" />
<glyph unicode="&#x28c;" horiz-adv-x="500" d="M327 0h102l-83 522h-94l-307 -522h96l236 425z" />
<glyph unicode="&#x28d;" horiz-adv-x="722" d="M547 0h96l-41 522h-91l-188 -404l-22 404h-91l-262 -522h88l193 409l17 -409h98l189 412z" />
<glyph unicode="&#x28e;" horiz-adv-x="500" d="M47 0l231 426l50 -426h100l-80 538q3 5 8 13l12.5 20t13.5 21q10 16 26 40q23 28 61 28q17 0 49 -10l17 80q-24 7 -52 7q-76 0 -117 -44q-39 -42 -159 -244q-110 -190 -127 -220q-38 -67 -80.5 -142t-49.5 -87h97z" />
<glyph unicode="&#x28f;" horiz-adv-x="496" d="M66 523l117 -312l-44 -211h97l44 211l252 312h-114l-173 -252l-66 252h-113z" />
<glyph unicode="&#x292;" horiz-adv-x="500" d="M61 209h113l49 5q84 0 99 -68t-1 -146q-30 -137 -192 -137q-55 0 -71 39q-16 36 -16 96h-85q-17 -210 163 -210q103 0 187 51q84 49 108 162q29 139 -22 215q-37 58 -109 72l208 152l17 81h-436l-17 -81h323z" />
<glyph unicode="&#x294;" d="M393 727q-103 0 -177 -65t-96 -169h87q16 61 41 97q44 60 126 60q62 0 85.5 -33t12.5 -85q-7 -33 -34 -66q-13 -17 -36 -34l-47 -39q-71 -58 -94 -98q-26 -44 -78 -295h87q50 242 71 275q21 31 78 78q75 59 105 94q28 31 39 84q19 85 -27 141q-46 55 -143 55z" />
<glyph unicode="&#x295;" d="M383 727q-98 0 -166 -55t-88 -141q-11 -53 3 -84q17 -35 67 -94q35 -46 43 -78q7 -30 -44 -275h87q52 252 45 295q-7 42 -51 98l-31 39q-14 17 -21 34q-13 30 -5 66q11 52 48.5 85t99.5 33q82 0 100 -60q10 -32 -1 -97h87q23 106 -23 169q-47 65 -150 65z" />
<glyph unicode="&#x296;" d="M239 0q98 0 166 55q69 56 87 140q10 53 -3 84q-14 34 -66 95q-36 44 -44 76t45 277h-87q-54 -254 -47 -296q7 -41 52 -98l31 -38q15 -16 21 -35q14 -32 6 -66q-11 -52 -48.5 -85t-99.5 -33q-82 0 -100 61q-10 33 0 97h-87q-22 -107 24.5 -170.5t149.5 -63.5z" />
<glyph unicode="&#x297;" horiz-adv-x="502" d="M489 347q22 191 -169 191q-104 0 -193 -104t-129 -289q-34 -160 7 -256q40 -94 144 -94q194 0 265 200h-85q-54 -125 -157 -125q-71 0 -85 98q-12 95 5 176q15 73 61 175q66 140 150 140q108 0 101 -112h85z" />
<glyph unicode="&#x298;" horiz-adv-x="778" d="M737 615q-65 122 -255 122q-182 0 -303 -133q-93 -102 -125 -249q-34 -159 28 -267q70 -109 237 -109q177 0 300 125q102 105 137 267q32 150 -19 244zM657 370q-26 -121 -102 -212q-77 -92 -205 -92q-136 0 -179 81t-17 202q32 149 117 225q86 76 199 76q114 0 164 -77 t23 -203zM362 414l-22 -107h102l22 107h-102z" />
<glyph unicode="&#x29a;" horiz-adv-x="499" d="M444 481q-24 39 -88 49l-61 5q-79 0 -140 -35q-60 -35 -74 -96q-9 -49 6 -77t56 -49q-57 -15 -94.5 -50.5t-49.5 -86.5q-14 -69 36 -110q52 -41 136 -41q14 0 21 1q78 14 114 34q38 20 87 71q48 49 69 151q27 126 -18 234zM279 461v-2q84 0 103 -82q12 -54 -4 -131 q-16 -78 -61 -132q-22 -26 -51 -40q-23 -9 -66 -15h-31q-25 0 -57 21t-23 64q20 97 143 97l22 70q-56 0 -78 20t-13 60q8 34 35 51q28 17 81 19z" />
<glyph unicode="&#x29c;" horiz-adv-x="596" d="M130 523l-111 -523h98l52 245h236l-52 -245h98l111 523h-98l-43 -201h-236l43 201h-98z" />
<glyph unicode="&#x29e;" horiz-adv-x="500" d="M394 -194l153 717h-84l-42 -196l-88 -68l-107 264h-113l142 -327l-241 -196h112l273 222l-89 -416h84z" />
<glyph unicode="&#x29f;" horiz-adv-x="492" d="M127 523l-111 -523h363l18 85h-266l93 438h-97z" />
<glyph unicode="&#x2a0;" horiz-adv-x="603" d="M637 587l16 76q-19 3 -35 3q-86 0 -127 -48q-24 -28 -36 -86l-16 -74q-13 27 -33 44q-38 33 -102 33q-98 0 -177 -81q-79 -79 -106 -206q-29 -134 24 -200q53 -65 136 -65q109 0 173 77l-57 -268h89l156 731h-1q9 45 23 53q14 9 73 11zM109 141q-9 45 5 113 q22 100 72.5 151.5t110.5 51.5q90 0 108 -78q11 -45 -3 -113q-17 -75 -45 -121q-53 -86 -144 -86q-88 0 -104 82z" />
<glyph unicode="&#x2a1;" d="M110 179l-13 -58h112q-14 -63 -26 -121h87q10 50 26 121h114l13 58h-112q19 79 30 96q21 31 78 78q75 59 105 94q28 31 39 84q19 85 -27 141q-46 55 -143 55q-103 0 -177 -65t-96 -169h87q16 61 41 97q44 60 126 60q62 0 85.5 -33t12.5 -85q-7 -33 -34 -66 q-13 -17 -36 -34l-47 -39q-71 -58 -94 -98q-15 -27 -37 -116h-114z" />
<glyph unicode="&#x2a2;" d="M420 121l13 58h-113q15 90 10 116q-7 43 -52 98l-31 39q-12 15 -20 34q-13 32 -6 66q10 52 48 85t101 33q81 0 99 -60q11 -35 -1 -97h87q23 106 -23 169q-47 65 -150 65q-96 0 -166 -55q-68 -55 -88 -141q-11 -53 4 -84q16 -34 66 -94q36 -45 44 -78q3 -17 -9 -96h-112 l-13 -58h114q-15 -75 -24 -121h87q5 24 13 64.5t11 56.5h111z" />
<glyph unicode="&#x2a3;" horiz-adv-x="931" d="M400 507q-34 25 -95 25q-109 0 -185 -84q-76 -82 -100 -198q-26 -123 22 -196t136 -73q111 0 189 92l-15 -73h485l16 79h-317l387 372l16 72h-397l42 197h-85l-57 -264q-22 36 -42 51zM222 58q-79 0 -103 56q-23 58 -5 141q21 97 72 149t119 52q63 0 91.5 -50t8.5 -145 q-21 -96 -71 -149.5t-112 -53.5zM804 444l-351 -337l72 337h279z" />
<glyph unicode="&#x2a4;" horiz-adv-x="933" d="M500 209h113l49 5q84 0 99 -68q16 -67 0 -146q-30 -137 -192 -137q-55 0 -71 39q-15 35 -17 96h-85q-14 -210 164 -210q102 0 186 51q85 49 109 162q29 139 -22 215q-39 59 -109 72l207 152l17 81h-423l43 199h-85l-57 -264q-22 36 -42 51q-34 25 -95 25q-109 0 -185 -84 q-76 -82 -100 -198q-26 -123 22 -196t136 -73q111 0 189 92l-15 -73h79l93 440h310zM206 58q-79 0 -103 56q-23 58 -5 141q21 97 72 149t119 52q62 0 91 -50t9 -145q-21 -96 -71 -149.5t-112 -53.5z" />
<glyph unicode="&#x2a6;" horiz-adv-x="672" d="M164 669l-31 -146h-71l-16 -72h71l-73 -346q-25 -113 81 -113q35 0 69 8l8 39q0 -1 1.5 -3t2.5 -3q38 -53 154 -53q108 0 172 51t79 120q15 73 -29 106q-27 23 -117 45l-55 14q-36 9 -54 21q-28 21 -21 55q6 32 36 50.5t79 18.5q74 0 98 -34q13 -25 10 -54h83 q11 50 -12 94q-37 70 -156 70q-90 0 -154 -46q-4 -4 -12.5 -11.5t-13.5 -10.5l12 54h-83l31 146h-89zM266 164h-84q-9 -54 6 -96h-10q-22 0 -34 5q-16 10 -10 37l72 341h71q-26 -33 -37 -80q-14 -63 36 -99q27 -20 90 -37l67 -18q50 -13 69 -25q27 -16 19 -51 q-9 -42 -49 -64.5t-92 -22.5q-82 0 -106 43q-13 21 -8 67z" />
<glyph unicode="&#x2a7;" horiz-adv-x="528" d="M381 661q-28 -45 -56 -138h-103l31 146h-89l-31 -146h-71l-16 -72h71l-73 -346q-25 -113 81 -113q14 0 36 2q12 2 19 3q-19 -57 -40 -86q-28 -37 -70 -37q-25 0 -48 14l-24 -81q27 -12 60 -12q99 0 155 86q57 90 103 265l86 333q31 112 55 155q26 44 70 44q18 0 53 -16 l24 79q-20 8 -29 9q-16 4 -39 4q-98 0 -155 -93zM134 110l72 341h98l-103 -383h-10h-13q-22 0 -34 5q-16 10 -10 37z" />
<glyph unicode="&#x2a9;" horiz-adv-x="726" d="M421 -132l-16 -76q20 -3 35 -3q86 0 127 48q25 28 37 85l88 413q17 82 4 122q-22 78 -134 78q-100 0 -189 -86l16 74h-84l-1 -2h-80q18 84 30 105q14 21 53 21q2 0 11.5 -0.5t19.5 -0.5l17 80q-30 2 -37 2q-88 0 -128 -45q-22 -25 -36 -80l-18 -82h-72l-15 -70h72 l-95 -451h87l95 451h81l-95 -451h88l58 274q12 53 24 80t39 52q36 33 73 43q20 7 52 7q62 0 75 -49q8 -32 -2 -77l-70 -330h2l-15 -68q-11 -46 -24 -53q-14 -10 -73 -11z" />
<glyph unicode="&#x2aa;" horiz-adv-x="595" d="M159 717l-152 -717h88l14 66q6 -17 17 -33q38 -53 154 -53q108 0 172 51t79 120q15 73 -29 106q-27 23 -117 45l-55 14q-36 9 -54 21q-29 22 -22 55q6 32 36.5 50.5t79.5 18.5q75 0 97 -34q14 -27 10 -54h84q11 50 -12 94q-37 70 -156 70q-90 0 -154 -46q-34 -26 -52 -55 l60 281h-88zM186 164h-57l33 153q7 -25 34 -45q26 -20 90 -37l67 -18q50 -13 69 -25q27 -16 19 -51q-9 -42 -49 -64.5t-92 -22.5q-82 0 -106 43q-13 21 -8 67z" />
<glyph unicode="&#x2ab;" horiz-adv-x="590" d="M159 717l-152 -717h486l16 79h-317l387 372l16 72h-389l41 194h-88zM460 444l-341 -327l70 327h271z" />
<glyph unicode="&#x2ac;" horiz-adv-x="429" d="M68 311h-57l24 -311h54l112 241l13 -241h54l156 311h-52l-116 -244l-8 244h-59l-113 -245zM154 717h-57l24 -311h54l112 241l13 -241h54l156 311h-52l-116 -243l-8 243h-59l-113 -245z" />
<glyph unicode="&#x2ad;" horiz-adv-x="665" d="M611 294h-558l-62 -294h54l49 232h450l-49 -232h54zM697 697h-558l-63 -295h54l49 233h450l-49 -233h54z" />
<glyph unicode="&#x2ae;" horiz-adv-x="590" d="M101 647l-16 -76q57 -1 68 -11q11 -8 1 -53l-45 -213h1l-25 -118q-16 -76 -4 -121q22 -79 137 -79q64 0 112 27q28 17 68 56l-57 -267h88l153 719h-88l-59 -277q-23 -106 -75 -143t-106 -37q-66 0 -81 43q-9 27 3 85l70 329h-3l1 5q12 57 0 86q-21 47 -107 47 q-4 0 -15 -1t-21 -1z" />
<glyph unicode="&#x2af;" horiz-adv-x="646" d="M511 -208l16 76q-56 1 -68 10q-11 8 -3 45h1l125 588h-88l-59 -277q-23 -106 -75 -143t-106 -37q-66 0 -81 43q-9 27 3 85l70 329h-3l1 5q12 57 0 86q-21 47 -107 47q-4 0 -15 -1t-21 -1l-16 -76q57 -1 68 -11q11 -8 1 -53l-45 -213h1l-25 -118q-16 -76 -4 -121 q22 -79 137 -79q64 0 112 27q32 18 67 55l-29 -136q-12 -57 1 -85q21 -48 107 -48q15 0 35 3z" />
<glyph unicode="&#x2b0;" horiz-adv-x="278" d="M124 716l-77 -360h44l30 139q20 90 91 90q33 0 40 -22q4 -13 -2 -42l-35 -165h46l36 168q8 41 1 60q-12 41 -69 41q-32 0 -56 -15q-12 -7 -34 -27l29 133h-44z" />
<glyph unicode="&#x2b1;" horiz-adv-x="278" d="M204 694l8 38q-5 0 -10.5 0.5t-6.5 0.5q-43 0 -64 -24q-12 -13 -18 -42l-24 -112l-42 -199h44l30 139q20 90 91 90q33 0 40 -22q4 -13 -2 -42l-35 -165h46l36 168q8 41 1 60q-12 41 -69 41q-32 0 -56 -15q-12 -7 -34 -27l12 55l5 24q5 22 12 26.5t36 5.5z" />
<glyph unicode="&#x2b2;" horiz-adv-x="111" d="M157 665l10 50h-44l-10 -50h44zM-8 290l-8 -38q9 -1 18 -1q44 0 63 24q12 13 18 42l64 300h-44l-63 -295q-4 -22 -12 -27q-5 -3 -36 -5z" />
<glyph unicode="&#x2b3;" horiz-adv-x="167" d="M105 618l-56 -262h44l32 151q6 29 28.5 50t54.5 21q5 0 15 -2l10 47q-9 1 -15 1q-26 0 -49 -19q-25 -21 -33 -32l10 45h-41z" />
<glyph unicode="&#x2b4;" horiz-adv-x="167" d="M177 362l56 262h-44l-32 -151q-6 -29 -29 -49.5t-55 -20.5q-10 0 -15 1l-10 -47q5 0 8 -0.5t4 -0.5h2q28 0 51 19q26 21 32 32l-10 -45h42z" />
<glyph unicode="&#x2b5;" horiz-adv-x="221" d="M195 252l8 38q-29 1 -34 5.5t0 26.5l23 107l41 195h-44l-32 -151q-6 -29 -29 -49.5t-55 -20.5q-10 0 -15 1l-10 -47q5 0 8 -0.5t4 -0.5h2q28 0 51 19q22 19 29 28l-18 -86q-6 -29 0 -42q10 -24 54 -24q8 0 17 1z" />
<glyph unicode="&#x2b6;" horiz-adv-x="374" d="M164 517h78q78 0 63 -66q-5 -21 -36 -34q-19 -8 -44 -8h-84zM137 717l-79 -371h172q44 0 74 13q56 22 70 87q13 61 -33 89q28 21 41 35.5t19 34.5l12 50q4 20 11 32q8 18 20 22l2 8h-81q-9 -15 -16 -41l-16 -62q-7 -27 -35 -39q-15 -7 -47 -7h-76l32 149h-70z" />
<glyph unicode="&#x2b7;" horiz-adv-x="361" d="M124 618h-49l20 -262h45l95 203l10 -203h46l132 262h-44l-98 -205l-7 205h-49l-95 -206z" />
<glyph unicode="&#x2b8;" horiz-adv-x="250" d="M267 618l-116 -213l-25 213h-50l40 -269q-3 -6 -17 -27q-3 -5 -6.5 -10t-4.5 -8l-2 -2q-14 -14 -30 -14q-5 0 -25 4l-9 -40q9 -3 26 -3q39 0 58 22q22 24 80 123q29 47 63 109q55 95 66 115h-48z" />
<glyph unicode="&#x2b9;" horiz-adv-x="167" d="M237 715h-54l-104 -282h34z" />
<glyph unicode="&#x2ba;" horiz-adv-x="310" d="M237 715h-54l-104 -282h34zM359 715h-54l-104 -282h34z" />
<glyph unicode="&#x2bb;" horiz-adv-x="222" d="M253 678l9 46q-54 -6 -89 -49.5t-49 -106.5l-21 -98h105l23 106h-53v12q9 36 28.5 61t46.5 29z" />
<glyph unicode="&#x2bc;" horiz-adv-x="222" d="M131 509l-10 -46q52 6 88 48.5t49 107.5l21 98h-104l-23 -106h53v-12q-7 -35 -27 -60.5t-47 -29.5z" />
<glyph unicode="&#x2bd;" horiz-adv-x="222" d="M225 463l10 46q-24 4 -33 29.5t-2 60.5q0 2 1.5 6t1.5 6h53l23 106h-104l-21 -98q-13 -65 4.5 -107.5t66.5 -48.5z" />
<glyph unicode="&#x2be;" horiz-adv-x="208" d="M132 590q42 0 78 30q37 30 46 72t-15 72t-66 30l-8 -41q26 0 40 -18t9 -43q-6 -25 -28 -43.5t-48 -18.5z" />
<glyph unicode="&#x2bf;" horiz-adv-x="208" d="M234 590l8 40q-25 0 -39 18.5t-8 43.5q5 25 27 43t47 18l8 41q-42 0 -78 -30t-45 -72t14.5 -72t65.5 -30z" />
<glyph unicode="&#x2c0;" horiz-adv-x="278" d="M243 720q-52 0 -89 -32t-48 -85h44q8 33 20 48q21 31 62 31q31 0 43 -17t6 -42q-5 -19 -16 -33q-7 -9 -18 -18l-24 -19q-33 -27 -47 -49q-12 -21 -39 -148h43q26 123 36 138q10 16 39 39q43 36 52 47q15 16 21 42q9 43 -14 70.5t-71 27.5z" />
<glyph unicode="&#x2c1;" horiz-adv-x="278" d="M238 720q-48 0 -83 -27.5t-44 -70.5q-6 -26 1 -42q6 -14 33 -47q18 -23 21 -39q4 -13 -22 -138h44q27 128 23 148q-5 22 -26 49l-16 19q-4 6 -10 18q-7 15 -3 33q6 26 24.5 42.5t49.5 16.5q41 0 51 -31q4 -14 -1 -48h44q11 53 -12 85t-74 32z" />
<glyph unicode="&#x2c2;" horiz-adv-x="292" d="M54 504l-9 -40l261 -112l10 44l-215 88l252 88l9 44z" />
<glyph unicode="&#x2c3;" horiz-adv-x="292" d="M330 463l9 41l-262 112l-9 -44l214 -88l-251 -88l-10 -44z" />
<glyph unicode="&#x2c4;" horiz-adv-x="292" d="M243 627h-40l-173 -286h44l138 234l38 -234h44z" />
<glyph unicode="&#x2c5;" horiz-adv-x="292" d="M141 341h41l173 286h-44l-138 -233l-38 233h-44z" />
<glyph unicode="&#x2c6;" horiz-adv-x="222" d="M163 731h86l75 -143h-74l-51 93l-87 -93h-82z" />
<glyph unicode="&#x2c7;" horiz-adv-x="222" d="M228 588h-86l-77 143h76l51 -93l93 93h78z" />
<glyph unicode="&#x2c8;" horiz-adv-x="191" d="M150 712l-32 -152h49l32 152h-49z" />
<glyph unicode="&#x2c9;" horiz-adv-x="222" d="M25 682l-11 -55h341l11 55h-341z" />
<glyph unicode="&#x2ca;" horiz-adv-x="333" d="M387 733h-108l-120 -141h68z" />
<glyph unicode="&#x2cb;" horiz-adv-x="333" d="M291 592l-59 141h-109l101 -141h67z" />
<glyph unicode="&#x2cc;" horiz-adv-x="191" d="M-16 -69l-32 -152h49l32 152h-49z" />
<glyph unicode="&#x2cd;" horiz-adv-x="333" d="M-76 -98l-12 -57h311l12 57h-311z" />
<glyph unicode="&#x2ce;" horiz-adv-x="333" d="M125 -189l-59 141h-109l101 -141h67z" />
<glyph unicode="&#x2cf;" horiz-adv-x="333" d="M221 -48h-108l-120 -141h68z" />
<glyph unicode="&#x2d0;" horiz-adv-x="208" d="M-46 -8h76h30h75l6 29l-43 152h-30l-108 -152zM236 466h-76h-30h-75l-7 -29l43 -152h30l108 152z" />
<glyph unicode="&#x2d1;" horiz-adv-x="208" d="M205 320h-76h-30h-75l-7 -29l43 -153h30l108 153z" />
<glyph unicode="&#x2d2;" horiz-adv-x="208" d="M49 199q42 0 78 30q37 30 45 72q9 42 -14.5 72t-65.5 30l-8 -40q26 0 40 -18t8 -44q-5 -25 -26.5 -43t-47.5 -18z" />
<glyph unicode="&#x2d3;" horiz-adv-x="208" d="M151 199l9 41q-25 0 -39.5 18t-9.5 43q6 26 28 44t47 18l8 40q-42 0 -79 -30q-36 -30 -45 -72q-8 -42 15.5 -72t65.5 -30z" />
<glyph unicode="&#x2d4;" horiz-adv-x="292" d="M-38 0h107h41h107l8 41h-107l46 214h-41l-46 -214h-107z" />
<glyph unicode="&#x2d5;" horiz-adv-x="292" d="M271 255h-107h-41h-107l-9 -41h107l-45 -214h41l45 214h107z" />
<glyph unicode="&#x2d6;" horiz-adv-x="292" d="M-16 107h107l-22 -107h41l22 107h107l9 41h-107l23 107h-41l-23 -107h-107z" />
<glyph unicode="&#x2d7;" horiz-adv-x="333" d="M37 260l-10 -46h245l10 46h-245z" />
<glyph unicode="&#x2d8;" horiz-adv-x="222" d="M99 731q1 -84 94 -84q49 0 76 19.5t41 64.5h45q-9 -66 -54 -102.5t-112 -36.5t-102 35.5t-33 103.5h45z" />
<glyph unicode="&#x2d9;" horiz-adv-x="222" d="M158 696h89l-21 -104h-89z" />
<glyph unicode="&#x2da;" horiz-adv-x="222" d="M86 662q0 46 33.5 79.5t79.5 33.5t79.5 -33.5t33.5 -79.5t-33.5 -79.5t-79.5 -33.5t-79.5 33.5t-33.5 79.5zM131 662q0 -29 19.5 -48.5t48.5 -19.5t48.5 19.5t19.5 48.5t-19.5 48.5t-48.5 19.5t-48.5 -19.5t-19.5 -48.5z" />
<glyph unicode="&#x2db;" horiz-adv-x="222" d="M167 2q-30 -15 -78 -56t-48 -68q0 -37 37 -37q40 0 72 24l37 -12q-29 -35 -57 -48.5t-68 -13.5q-88 0 -88 71q0 65 126 140h67z" />
<glyph unicode="&#x2dc;" horiz-adv-x="222" d="M23 597q10 30 20 50.5t31 39.5t48 19q25 0 77 -25q5 -2 14.5 -6.5t14 -6.5t13 -5t11.5 -3h11q15 0 25 6.5t14 12.5t12 22h51q-15 -49 -38 -79t-64 -30q-23 0 -75 24t-66 22q-33 0 -47 -41h-52z" />
<glyph unicode="&#x2dd;" horiz-adv-x="222" d="M272 731h113l-136 -143h-70zM106 731h113l-136 -143h-70z" />
<glyph unicode="&#x2de;" horiz-adv-x="414" d="M266 247q-22 7 -22.5 29t9.5 58.5t9 58.5q-40 -12 -122.5 -35.5t-122.5 -35.5l-13 -59q32 4 93.5 24t84.5 25q-14 -61 9 -95t78 -30q87 6 129 76q-5 8 -18 16.5t-19 17.5q-18 -26 -44.5 -41.5t-50.5 -8.5z" />
<glyph unicode="&#x2df;" horiz-adv-x="292" d="M90 577l73 -93l-112 -92l22 -30l112 93l73 -93l37 30l-74 92l113 93l-24 29l-112 -93l-73 93z" />
<glyph unicode="&#x2e0;" horiz-adv-x="278" d="M141 374l-25 -116h45l25 116l153 243h-47l-118 -192l-31 151q-1 10 -5 21q-4 10 -7 13q-9 12 -35 12q-15 -2 -21 -5l-8 -36l15 2q9 0 13 -7q3 -9 6 -29z" />
<glyph unicode="&#x2e1;" horiz-adv-x="111" d="M124 715l-76 -359h44l76 359h-44z" />
<glyph unicode="&#x2e2;" horiz-adv-x="250" d="M92 438h-43q-16 -92 89 -92q52 0 85 24.5t40 61.5q8 37 -13 53q-17 12 -60 22l-27 7q-17 4 -27 11q-15 11 -11 27q7 35 58 35q37 0 49 -17q7 -11 5 -28h41q6 25 -5 48q-20 35 -79 35q-45 0 -76.5 -23t-39.5 -60q-8 -32 18 -50q14 -10 45 -18l33 -9q27 -7 36 -12 q13 -9 8 -26q-4 -21 -24 -32.5t-46 -11.5q-41 0 -53 22q-6 12 -3 33z" />
<glyph unicode="&#x2e3;" horiz-adv-x="250" d="M78 618l61 -128l-121 -134h56l84 99l44 -99h56l-64 134l116 127l-54 1l-80 -92l-41 92h-57z" />
<glyph unicode="&#x2e4;" horiz-adv-x="278" d="M238 720q-48 0 -83 -27.5t-44 -70.5q-6 -26 1 -42q6 -14 33 -47q18 -23 21 -39q4 -13 -22 -138h44q27 128 23 148q-5 22 -26 49l-16 19q-4 6 -10 18q-7 15 -3 33q6 26 24.5 42.5t49.5 16.5q41 0 51 -31q4 -14 -1 -48h44q11 53 -12 85t-74 32z" />
<glyph unicode="&#x2e5;" horiz-adv-x="412" d="M239 0h84l152 717h-383l-15 -71h299z" />
<glyph unicode="&#x2e6;" horiz-adv-x="412" d="M239 0h84l152 717h-84l-34 -161h-299l-16 -72h299z" />
<glyph unicode="&#x2e7;" horiz-adv-x="412" d="M239 0h84l152 717h-84l-69 -322h-299l-15 -72h299z" />
<glyph unicode="&#x2e8;" horiz-adv-x="412" d="M475 717h-84l-103 -484h-299l-15 -72h299l-34 -161h84z" />
<glyph unicode="&#x2e9;" horiz-adv-x="412" d="M475 717h-84l-137 -645h-299l-15 -72h383z" />
<glyph unicode="&#x2ea;" horiz-adv-x="308" d="M80 523l-111 -523h279l7 36h-238l104 487h-41z" />
<glyph unicode="&#x2eb;" horiz-adv-x="308" d="M80 523l-111 -523h41l51 243h238l8 36h-238l52 244h-41z" />
<glyph unicode="&#x2ec;" horiz-adv-x="333" d="M106 -189l129 141h-80l-86 -94l-46 94h-79l69 -141h93z" />
<glyph unicode="&#x2ed;" horiz-adv-x="333" d="M81 684l-12 -58h343l12 58h-343zM57 571l-12 -57h343l12 57h-343z" />
<glyph unicode="&#x2ee;" horiz-adv-x="333" d="M250 509l-10 -46q55 6 90 49.5t48 106.5l21 98h-105l-23 -106h53q-1 -20 -15 -49q-20 -45 -59 -53zM86 509l-10 -46q58 7 91 53q34 44 46 103l21 98h-104l-23 -106h53q-2 -23 -14 -49q-22 -45 -60 -53z" />
<glyph unicode="&#x2ef;" horiz-adv-x="292" d="M16 -245h41l173 286h-44l-137 -233l-39 233h-44z" />
<glyph unicode="&#x2f0;" horiz-adv-x="292" d="M118 41h-40l-172 -286h43l138 234l38 -234h44z" />
<glyph unicode="&#x2f1;" horiz-adv-x="292" d="M-70 -82l-8 -40l260 -112l9 44l-214 88l252 88l9 44z" />
<glyph unicode="&#x2f2;" horiz-adv-x="292" d="M205 -123l9 41l-261 112l-9 -44l214 -88l-251 -88l-9 -44z" />
<glyph unicode="&#x2f3;" horiz-adv-x="333" d="M67 -151q-25 0 -39 18t-8 44q5 25 27 43t47 18q26 0 40 -18t9 -43q-6 -26 -28 -44t-48 -18zM102 13q-42 0 -77.5 -30t-44.5 -72t14 -72t65 -30t78 30q37 30 46 72t-15 72t-66 30z" />
<glyph unicode="&#x2f4;" horiz-adv-x="333" d="M227 290l-59 141h-109l101 -141h67z" />
<glyph unicode="&#x2f5;" horiz-adv-x="333" d="M197 289l-37 142h-104l79 -142h62zM360 289l-37 142h-105l80 -142h62z" />
<glyph unicode="&#x2f6;" horiz-adv-x="333" d="M285 431l-97 -142h63l139 142h-105zM123 431l-97 -142h61l141 142h-105z" />
<glyph unicode="&#x2f7;" horiz-adv-x="333" d="M141 83q-54 25 -87 25q-53 0 -91 -45q-21 -26 -34 -63h48q16 45 52 45q20 0 62 -16l24 -9q30 -13 54 -13q84 0 126 109h-52q-5 -18 -14 -28q-15 -17 -43 -17q-18 0 -45 12z" />
<glyph unicode="&#x2f8;" horiz-adv-x="278" d="M203 717l-23 -106h102l23 106h-102zM116 308l-23 -107h102l23 107h-102z" />
<glyph unicode="&#x2f9;" horiz-adv-x="333" d="M185 717l-58 -274h41l50 238h106l8 36h-147z" />
<glyph unicode="&#x2fa;" horiz-adv-x="333" d="M274 443l58 274h-147l-8 -36h106l-50 -238h41z" />
<glyph unicode="&#x2fb;" horiz-adv-x="333" d="M91 274l-58 -274h147l7 36h-106l51 238h-41z" />
<glyph unicode="&#x2fc;" horiz-adv-x="333" d="M180 0l58 274h-41l-51 -238h-106l-7 -36h147z" />
<glyph unicode="&#x2fd;" horiz-adv-x="333" d="M-33 -8h275l31 147h-36l-22 -106h-203l22 106h-36z" />
<glyph unicode="&#x2fe;" horiz-adv-x="333" d="M-33 -8h275l9 41h-36h-203l22 106h-36z" />
<glyph unicode="&#x2ff;" horiz-adv-x="566" d="M-27 113l-1 -1l262 -112l17 83h268l12 58h-268l18 84z" />
<glyph unicode="&#x300;" horiz-adv-x="0" d="M-44 588h67l-67 143h-101z" />
<glyph unicode="&#x301;" horiz-adv-x="0" d="M122 731h-113l-93 -143h70z" />
<glyph unicode="&#x302;" horiz-adv-x="0" d="M28 731h-86l-133 -143h82l87 93l51 -93h74z" />
<glyph unicode="&#x303;" horiz-adv-x="0" d="M-198 597h52q14 41 47 41q14 2 66 -22t75 -24q41 0 64 30t38 79h-51q-8 -16 -12 -22t-14 -12.5t-25 -6.5h-11t-11.5 3t-13 5t-14 6.5t-14.5 6.5q-52 25 -77 25q-27 0 -48 -19t-31 -39.5t-20 -50.5z" />
<glyph unicode="&#x304;" horiz-adv-x="0" d="M113 675h-269l-12 -55h270z" />
<glyph unicode="&#x305;" horiz-adv-x="0" d="M-364 684l-12 -58h343l12 58h-343z" />
<glyph unicode="&#x306;" horiz-adv-x="0" d="M-122 731h-45q-2 -68 33 -103.5t102 -35.5t112 36.5t54 102.5h-45q-14 -45 -41 -64.5t-76 -19.5q-93 0 -94 84z" />
<glyph unicode="&#x307;" horiz-adv-x="0" d="M26 696h-89l-21 -104h89z" />
<glyph unicode="&#x308;" horiz-adv-x="0" d="M-54 696h-89l-21 -104h89zM109 696h-89l-21 -104h89z" />
<glyph unicode="&#x309;" horiz-adv-x="0" d="M-180 743q19 -14 14 -32q-4 -17 -23.5 -31t-48.5 -17l-7 -37h43l6 21q66 14 78 66q6 22 -3 39q-19 39 -74 39q-6 0 -13 -0.5t-16 -1.5t-14 -1l-6 -39q19 3 32 3q20 0 32 -9z" />
<glyph unicode="&#x30a;" horiz-adv-x="0" d="M-135 662q0 -46 33.5 -79.5t79.5 -33.5t79.5 33.5t33.5 79.5t-33.5 79.5t-79.5 33.5t-79.5 -33.5t-33.5 -79.5zM-90 662q0 29 19.5 48.5t48.5 19.5t48.5 -19.5t19.5 -48.5t-19.5 -48.5t-48.5 -19.5t-48.5 19.5t-19.5 48.5z" />
<glyph unicode="&#x30b;" horiz-adv-x="0" d="M164 731h-113l-93 -143h70zM-2 731h-113l-93 -143h70z" />
<glyph unicode="&#x30c;" horiz-adv-x="0" d="M-79 588h86l135 143h-78l-93 -93l-51 93h-76z" />
<glyph unicode="&#x30d;" horiz-adv-x="0" d="M-211 712l-32 -152h50l32 152h-50z" />
<glyph unicode="&#x30e;" horiz-adv-x="0" d="M-262 712l-32 -152h49l32 152h-49zM-160 712l-32 -152h50l32 152h-50z" />
<glyph unicode="&#x30f;" horiz-adv-x="0" d="M-208 591l-37 142h-104l79 -142h62zM-46 591l-36 142h-106l81 -142h61z" />
<glyph unicode="&#x310;" horiz-adv-x="0" d="M-287 732h-50q-5 -48 8 -77q25 -58 111 -58q142 0 189 135h-47q-13 -30 -33 -47q-34 -29 -86 -29q-58 0 -79 29q-12 18 -13 47zM-209 818l-21 -102h92l21 102h-92z" />
<glyph unicode="&#x311;" horiz-adv-x="0" d="M-107 597h49q6 47 -6 77q-25 58 -112 58q-143 0 -190 -135h49q15 32 34 48q31 28 85 28q58 0 79 -28q11 -17 12 -48z" />
<glyph unicode="&#x312;" horiz-adv-x="0" d="M-141 678l9 46q-54 -6 -89 -49.5t-49 -106.5l-21 -98h105l23 106h-53v12q9 36 28.5 61t46.5 29z" />
<glyph unicode="&#x313;" horiz-adv-x="0" d="M-282 509l-10 -46q52 6 88.5 48.5t49.5 107.5l21 98h-105l-23 -106h54q1 -3 0 -7t-1 -5q-7 -35 -27 -60.5t-47 -29.5z" />
<glyph unicode="&#x314;" horiz-adv-x="0" d="M-187 463l10 46q-25 4 -34 29t-2 61q0 2 2 6t2 6h53l23 106h-105l-21 -98q-13 -65 4.5 -107.5t67.5 -48.5z" />
<glyph unicode="&#x315;" horiz-adv-x="0" d="M-282 509l-10 -46q52 6 88.5 48.5t49.5 107.5l21 98h-105l-23 -106h54q1 -3 0 -7t-1 -5q-7 -35 -27 -60.5t-47 -29.5z" />
<glyph unicode="&#x316;" horiz-adv-x="0" d="M-279 -189l-59 141h-109l101 -141h67z" />
<glyph unicode="&#x317;" horiz-adv-x="0" d="M-249 -48h-109l-119 -141h67z" />
<glyph unicode="&#x318;" horiz-adv-x="0" d="M-291 -187l-23 -106h41l54 254h-41l-22 -106h-213l-9 -42h213z" />
<glyph unicode="&#x319;" horiz-adv-x="0" d="M-486 -293l23 106h213l9 42h-213l22 106h-41l-54 -254h41z" />
<glyph unicode="&#x31a;" horiz-adv-x="0" d="M-65 684h-254l-9 -41h213l-22 -105h41z" />
<glyph unicode="&#x31b;" horiz-adv-x="0" d="M-326 553l-30 -48q4 -19 54 -22q51 -2 106 20l99 38l-19 97l-107 -41l10 -49q-4 -4 -11 -6q-24 -9 -45 -10q-45 -8 -57 21z" />
<glyph unicode="&#x31c;" horiz-adv-x="0" d="M-327 -191l8 40q-25 0 -39.5 18t-8.5 44q5 25 27.5 43t47.5 18l8 41q-42 0 -78 -30t-45 -72t14.5 -72t65.5 -30z" />
<glyph unicode="&#x31d;" horiz-adv-x="0" d="M-412 -252h-107l-9 -41h255l9 41h-106l45 213h-42z" />
<glyph unicode="&#x31e;" horiz-adv-x="0" d="M-483 -80h107l-45 -213h42l45 213h106l9 41h-255z" />
<glyph unicode="&#x31f;" horiz-adv-x="0" d="M-505 -186h107l-23 -107h42l23 107h106l9 41h-106l22 107h-42l-22 -107h-107z" />
<glyph unicode="&#x320;" horiz-adv-x="0" d="M-515 -98l-12 -57h313l12 57h-313z" />
<glyph unicode="&#x321;" horiz-adv-x="0" d="M-424 -203l-8 -38q11 -1 18 -1q44 0 63 24q13 13 19 43l39 181h-44l-38 -177q-5 -22 -12 -26.5t-37 -5.5z" />
<glyph unicode="&#x322;" horiz-adv-x="0" d="M-346 -241l8 38q-29 1 -34.5 5.5t-0.5 26.5l38 177h-44l-39 -181q-6 -29 0 -43q10 -24 54 -24q7 0 18 1z" />
<glyph unicode="&#x323;" horiz-adv-x="0" d="M-400 -76l-21 -101h92l21 101h-92z" />
<glyph unicode="&#x324;" horiz-adv-x="0" d="M-319 -76l-21 -101h91l21 101h-91zM-480 -76l-21 -101h91l21 101h-91z" />
<glyph unicode="&#x325;" horiz-adv-x="0" d="M-370 -151q-25 0 -39 18t-8 44q5 25 27 43t47 18t39 -18t9 -43q-6 -26 -28 -44t-47 -18zM-335 13q-42 0 -78 -30t-45 -72t14.5 -72t65.5 -30q41 0 79 30q36 30 45 72t-15 72t-66 30z" />
<glyph unicode="&#x326;" horiz-adv-x="0" d="M-448 -272l-10 -46q53 6 89 48.5t49 107.5l21 98h-105l-23 -106h54q1 -3 0 -7t-1 -6q-7 -35 -27 -60t-47 -29z" />
<glyph unicode="&#x327;" horiz-adv-x="0" d="M-243 -144l-18 -43q45 -22 97 -22q46 0 82.5 22.5t36.5 64.5q0 37 -26.5 55.5t-64.5 18.5q-17 0 -26 -4h-2l58 65h-47l-73 -89l18 -30q15 8 42 8q46 0 46 -31q0 -30 -60 -30q-18 0 -63 15z" />
<glyph unicode="&#x328;" horiz-adv-x="0" d="M-54 2h-67q-126 -75 -126 -140q0 -71 88 -71q40 0 68 13.5t57 48.5l-37 12q-32 -24 -72 -24q-37 0 -37 37q0 27 48 68t78 56z" />
<glyph unicode="&#x329;" horiz-adv-x="0" d="M-377 -69l-32 -152h50l32 152h-50z" />
<glyph unicode="&#x32a;" horiz-adv-x="0" d="M-153 -7h-372l-31 -148h36l22 106h300l-22 -106h36z" />
<glyph unicode="&#x32b;" horiz-adv-x="0" d="M-588 -49h-49q-6 -46 8 -77q24 -58 111 -58q68 0 117 32q17 10 30 27v-1q25 -58 111 -58q144 0 190 135h-48q-15 -31 -33 -48q-32 -28 -86 -28q-57 0 -79 28q-11 16 -13 48h-50q2 -2 0 -4q-12 -25 -31 -44q-31 -28 -86 -28q-57 0 -79 28q-11 16 -13 48z" />
<glyph unicode="&#x32c;" horiz-adv-x="0" d="M-332 -189l130 141h-80l-86 -94l-46 94h-80l69 -141h93z" />
<glyph unicode="&#x32d;" horiz-adv-x="0" d="M-302 -48h-93l-129 -141h80l86 94l46 -94h80z" />
<glyph unicode="&#x32e;" horiz-adv-x="0" d="M-453 -49h-50q-5 -49 8 -77q25 -58 111 -58q144 0 190 135h-48q-15 -31 -33 -48q-32 -28 -86 -28q-58 0 -79 28q-11 16 -13 48z" />
<glyph unicode="&#x32f;" horiz-adv-x="0" d="M-273 -185h50q6 47 -7 78q-25 58 -112 58q-143 0 -190 -136h49q15 31 33 48q34 29 86 29q58 0 78 -29q11 -16 13 -48z" />
<glyph unicode="&#x330;" horiz-adv-x="0" d="M-334 -96q-54 24 -87 24q-53 0 -91 -45q-20 -25 -35 -63h48q18 46 53 46q18 0 61 -17l24 -9q30 -13 55 -13q84 0 126 109h-52q-5 -18 -14 -28q-17 -17 -44 -17q-18 0 -44 13z" />
<glyph unicode="&#x331;" horiz-adv-x="0" d="M-515 -98l-12 -57h313l12 57h-313z" />
<glyph unicode="&#x332;" horiz-adv-x="0" d="M-530 -98l-12 -57h344l12 57h-344z" />
<glyph unicode="&#x333;" horiz-adv-x="0" d="M-530 -98l-12 -57h344l12 57h-344zM-554 -210l-12 -58h344l12 58h-344z" />
<glyph unicode="&#x334;" horiz-adv-x="0" d="M-251 294q-54 25 -87 25q-54 0 -91 -45q-20 -25 -35 -63h48q17 45 53 45q20 0 62 -16l23 -10q41 -12 55 -12q84 0 126 109h-52q-5 -18 -14 -28q-17 -17 -44 -17q-17 0 -44 12z" />
<glyph unicode="&#x335;" horiz-adv-x="0" d="M-432 293l-13 -58h313l13 58h-313z" />
<glyph unicode="&#x336;" horiz-adv-x="0" d="M-447 293l-13 -58h344l13 58h-344z" />
<glyph unicode="&#x337;" horiz-adv-x="0" d="M-149 530l-303 -359h74l304 359h-75z" />
<glyph unicode="&#x338;" horiz-adv-x="0" d="M19 731h-73l-295 -747h72z" />
<glyph unicode="&#x339;" horiz-adv-x="0" d="M-429 -191q41 0 79 30q36 30 45 72t-15 72t-66 30l-8 -41q25 0 39 -18t9 -43q-6 -26 -28 -44t-47 -18z" />
<glyph unicode="&#x33a;" horiz-adv-x="0" d="M-556 -155h372l31 148h-36l-23 -106h-300l23 106h-36z" />
<glyph unicode="&#x33b;" horiz-adv-x="0" d="M-469 -15l-54 -255h255l54 255h-255zM-301 -234h-172l39 183h172z" />
<glyph unicode="&#x33c;" horiz-adv-x="0" d="M-410 -184h52q9 28 32 48q35 29 91 29q53 0 74 -29q-1 87 -72 87q-85 0 -134 -55q-25 55 -110 55q-69 0 -107 -87q32 29 85 29q58 0 79 -29q11 -16 10 -48z" />
<glyph unicode="&#x33d;" horiz-adv-x="0" d="M-295 772l72 -92l-112 -93l23 -29l112 92l73 -92l36 29l-73 93l112 92l-23 29l-113 -93l-72 93z" />
<glyph unicode="&#x33e;" horiz-adv-x="0" d="M-229 635q8 -28 3 -48q-4 -26 -25 -39q-12 -7 -30 -8l-11 -52q114 20 131 103q5 24 -1 57l-3 26q-6 50 -3 65q6 35 55 43l10 48q-39 -6 -68 -21q-50 -29 -62 -82q-7 -31 4 -92z" />
<glyph unicode="&#x33f;" horiz-adv-x="0" d="M-364 684l-12 -58h343l12 58h-343zM-388 571l-12 -57h343l12 57h-343z" />
<glyph unicode="&#x340;" horiz-adv-x="0" d="M-113 592l-59 141h-109l101 -141h67z" />
<glyph unicode="&#x341;" horiz-adv-x="0" d="M-83 733h-109l-119 -141h67z" />
<glyph unicode="&#x342;" horiz-adv-x="0" d="M-107 597h49q6 47 -6 77q-25 58 -112 58q-143 0 -190 -135h49q15 32 34 48q31 28 85 28q58 0 79 -28q11 -17 12 -48z" />
<glyph unicode="&#x343;" horiz-adv-x="0" d="M-282 509l-10 -46q52 6 88.5 48.5t49.5 107.5l21 98h-105l-23 -106h54q1 -3 0 -7t-1 -5q-7 -35 -27 -60.5t-47 -29.5z" />
<glyph unicode="&#x344;" horiz-adv-x="0" d="M-357 627h60l13 61h-60zM-98 688l-13 -61h59l13 61h-59zM-228 589l114 126h-87l-76 -126h49z" />
<glyph unicode="&#x345;" horiz-adv-x="0" d="M-423 0l-38 -181q-3 -11 -1 -22q2 -12 9 -19q7 -6 27 -11t49 -5q43 0 73 2l8 35q-22 -2 -43 -2q-19 -1 -27 5t-5 19l38 179h-90z" />
<glyph unicode="&#x346;" horiz-adv-x="0" d="M12 774h-371l-31 -148h36l22 106h299l-22 -106h36z" />
<glyph unicode="&#x347;" horiz-adv-x="0" d="M-515 -98l-12 -57h313l12 57h-313zM-540 -215l-12 -57h313l12 57h-313z" />
<glyph unicode="&#x348;" horiz-adv-x="0" d="M-428 -69l-32 -152h49l32 152h-49zM-326 -69l-32 -152h50l32 152h-50z" />
<glyph unicode="&#x349;" horiz-adv-x="0" d="M-267 -7h-145l-9 -42h109l-22 -106h36z" />
<glyph unicode="&#x34a;" horiz-adv-x="0" d="M-168 685q-52 24 -87 24q-53 0 -91 -44q-21 -27 -35 -63h48q17 45 53 45q21 0 61 -17l24 -9q30 -13 55 -13q83 0 125 109h-51q-5 -16 -14 -28q-17 -17 -44 -17q-18 0 -44 13zM-123 777q24 0 45.5 18t27.5 43q5 26 -8.5 44t-38.5 18t-47.5 -18t-27.5 -44q-6 -25 9 -43 t40 -18zM-294 435q25 0 47 18t27 44q5 25 -9 43t-39 18t-47 -18t-27 -43q-5 -26 9 -44t39 -18z" />
<glyph unicode="&#x34b;" horiz-adv-x="0" d="M-152 758q-54 25 -87 25q-55 0 -92 -45q-21 -28 -34 -63h48q17 45 53 45q20 0 61 -16l24 -10q27 -12 54 -12q83 0 126 109h-52q-6 -20 -13 -28q-17 -17 -44 -17q-22 0 -44 12zM-183 612q-54 24 -87 24q-54 0 -92 -45q-21 -26 -34 -63h48q18 46 53 46q18 0 61 -17l24 -9 q30 -13 54 -13q83 0 125 109h-51q-5 -18 -14 -28q-15 -17 -43 -17q-20 0 -44 13z" />
<glyph unicode="&#x34c;" horiz-adv-x="0" d="M-305 749l-10 -45q18 15 32 24q20 11 41 11q13 0 24 -4q15 -6 23 -10q32 -16 35 -17q18 -5 33 -5q20 0 45 11q12 6 26 16l10 47q-9 -9 -24 -19q-25 -16 -50 -16q-17 0 -53 18q-37 18 -60 18q-35 0 -72 -29zM-327 646l-10 -45q21 18 31 24q20 11 42 11q13 0 24 -4 q15 -6 23 -10q32 -16 35 -17q2 0 14.5 -2.5t18.5 -2.5q32 0 72 27l10 47q-39 -35 -75 -35q-17 0 -53 18q-37 18 -60 18q-35 0 -72 -29z" />
<glyph unicode="&#x34d;" horiz-adv-x="0" d="M-789 -131l-1 -1l263 -112l17 83h275l-17 -83l308 112l-261 112l-17 -83h-275l17 83z" />
<glyph unicode="&#x34e;" horiz-adv-x="0" d="M-348 -50l-143 -139h84l-26 -122h57l26 122h84z" />
<glyph unicode="&#x34f;" horiz-adv-x="0" />
<glyph unicode="&#x350;" horiz-adv-x="0" d="M-96 463l9 41l-263 112l-9 -44l214 -88l-251 -88l-10 -44z" />
<glyph unicode="&#x351;" horiz-adv-x="0" d="M-161 590l8 40q-25 0 -39.5 18.5t-8.5 43.5q5 25 27.5 43t47.5 18l8 41q-42 0 -78 -30t-45 -72t14.5 -72t65.5 -30z" />
<glyph unicode="&#x352;" horiz-adv-x="0" d="M-347 683h50q13 30 33 47q34 29 91 29q53 0 74 -29q12 -18 13 -47h47q5 70 -28 102.5t-104 32.5q-87 0 -136 -58q-28 -34 -40 -77zM-234 699l-22 -102h92l22 102h-92z" />
<glyph unicode="&#x353;" horiz-adv-x="0" d="M-461 -9l72 -93l-112 -92l23 -30l112 93l73 -93l36 30l-73 92l113 93l-24 29l-113 -93l-72 93z" />
<glyph unicode="&#x354;" horiz-adv-x="0" d="M-498 -82l-8 -40l262 -112l9 44l-215 88l253 88l9 44z" />
<glyph unicode="&#x355;" horiz-adv-x="0" d="M-221 -123l9 41l-262 112l-9 -44l214 -88l-252 -88l-9 -44z" />
<glyph unicode="&#x356;" horiz-adv-x="0" d="M-348 -123l9 41l-262 112l-9 -44l215 -88l-253 -88l-9 -44zM-172 41h-40l-173 -286h44l138 234l38 -234h44z" />
<glyph unicode="&#x357;" horiz-adv-x="0" d="M-263 590q41 0 79 30q36 30 45 72t-15 72t-66 30l-8 -41q25 0 39 -18t9 -43q-6 -25 -28 -43.5t-47 -18.5z" />
<glyph unicode="&#x358;" horiz-adv-x="0" d="M-86 706l-22 -102h90l22 102h-90z" />
<glyph unicode="&#x359;" horiz-adv-x="0" d="M-312 -15h-57l-23 -110l-97 38l-31 -54l100 -35l-86 -92l42 -34l85 95l43 -95l56 34l-46 92l114 35l-9 54l-114 -37z" />
<glyph unicode="&#x35a;" horiz-adv-x="0" d="M-255 13q-42 0 -78 -30l-10 -10q-6 9 -7 10q-16 24 -46.5 28.5t-59.5 -7t-53 -37t-29 -56.5q-9 -42 14 -72t65 -30t78 30q8 6 11 10q1 -1 3 -4.5t3 -5.5q24 -30 66 -30t79 30q36 30 45 72t-15 72t-66 30zM-290 -151q-26 0 -39 18q-11 14 -9 31q2 8 3 13q1 2 1 6t1 6 q8 18 23 31q22 18 47 18q26 0 40 -18t9 -43q-6 -26 -28 -44t-48 -18zM-451 -151q-25 0 -39 18t-8 44q5 25 27 43t47 18q26 0 40 -18q10 -13 10 -30q-1 -5 -3 -13q-2 -10 -2 -13q-7 -17 -24 -31q-23 -18 -48 -18z" />
<glyph unicode="&#x35b;" horiz-adv-x="0" d="M-331 707l19 -24l193 -4l-124 -102l22 -28l174 144l-20 26l-191 3l136 112l-22 28z" />
<glyph unicode="&#x35c;" horiz-adv-x="0" d="M-809 -21l-13 -61q125 -92 190 -119q102 -46 248 -46q122 0 244 43q59 22 84 35q30 15 167 91l12 59q-149 -72 -227 -96q-123 -40 -266 -40t-239 34q-57 20 -200 100z" />
<glyph unicode="&#x35d;" horiz-adv-x="0" d="M-643 761l-13 -61q124 -92 190 -120q102 -46 248 -46q122 0 243 44q55 19 84 34q51 27 168 91l12 59q-150 -72 -228 -96q-123 -40 -265 -40q-140 0 -239 35q-64 22 -200 100z" />
<glyph unicode="&#x35e;" horiz-adv-x="0" d="M-661 684l-12 -58h936l12 58h-936z" />
<glyph unicode="&#x35f;" horiz-adv-x="0" d="M-827 -98l-12 -57h936l12 57h-936z" />
<glyph unicode="&#x360;" horiz-adv-x="0" d="M-388 790q-40 2 -59 2q-120 0 -209 -48q-55 -35 -82 -65q-26 -29 -51 -69h114q37 44 70 63q53 32 134 32q61 0 139 -15l191 -38q45 -9 100 -19q62 -8 102 -8q146 0 230 57t123 126h-114q-25 -42 -82 -69.5t-126 -27.5q-42 0 -90 7q-32 4 -78 15l-208 42q-48 10 -104 15z " />
<glyph unicode="&#x361;" horiz-adv-x="0" d="M241 536l13 61q-124 92 -188 119q-102 46 -248 46q-122 0 -244 -43q-63 -23 -85 -35q-56 -29 -167 -91l-13 -59q151 72 228 96q126 40 268 40t238 -34q60 -21 198 -100z" />
<glyph unicode="&#x362;" horiz-adv-x="0" d="M347 112l-261 113l-18 -84h-1049l-12 -58h1049l-17 -83z" />
<glyph unicode="&#x363;" horiz-adv-x="0" d="M-259 517q-19 0 -30.5 11.5t-7.5 29.5q4 25 29 37q12 8 37 9l28 4q30 2 48 14l-8 -36q-9 -42 -48 -58q-27 -11 -48 -11zM-172 647l-71 -9q-84 -12 -100 -81q-7 -33 11.5 -55.5t54.5 -22.5q60 0 104 44q-2 -18 2 -24q6 -17 29 -17q12 0 32 5l7 33q-14 -2 -15 -2 q-17 0 -12 15l32 151q7 37 -16 55q-26 17 -72 17q-99 0 -119 -86h41q6 20 17 31q18 18 52 18q31 0 44.5 -10t8.5 -33q-1 -10 -6 -16q-8 -12 -24 -13z" />
<glyph unicode="&#x364;" horiz-adv-x="0" d="M-89 709q-10 20 -33.5 33.5t-50.5 13.5q-55 0 -97.5 -39.5t-55.5 -102.5q-14 -62 11.5 -98.5t75.5 -36.5q22 0 37 4q34 8 56 26q34 29 46 61h-44q-7 -16 -23 -30q-26 -23 -60 -23q-69 0 -54 88h191q9 42 8 58q2 27 -7 46zM-127 640h-145q8 34 33 55.5t56 21.5 q43 0 53 -31q4 -18 3 -46z" />
<glyph unicode="&#x365;" horiz-adv-x="0" d="M-201 749l-56 -261h45l56 261h-45zM-180 847l-11 -50h45l11 50h-45z" />
<glyph unicode="&#x366;" horiz-adv-x="0" d="M-129 624q-9 -40 -32 -74q-24 -33 -67 -33q-38 0 -51.5 26.5t-4.5 70.5q9 47 35 76t64 29q47 0 57 -36q7 -21 -1 -59zM-83 625q14 63 -13 97.5t-80 34.5q-56 0 -97.5 -39t-55.5 -105q-13 -61 11 -97.5t77 -36.5q63 0 104 40t54 106z" />
<glyph unicode="&#x367;" horiz-adv-x="0" d="M-238 750h-45l-38 -178q-8 -33 0 -53q12 -38 68 -38q37 0 65 21q16 11 27 25l-9 -39h41l56 262h-44l-27 -128q-9 -40 -22 -61q-26 -41 -71 -41q-31 0 -39 23q-3 15 1 33z" />
<glyph unicode="&#x368;" horiz-adv-x="0" d="M-86 662q11 95 -84 95q-53 0 -94 -38.5t-55 -106.5q-12 -57 11 -94.5t73 -37.5q97 0 132 101h-42q-25 -62 -78 -62q-34 0 -46.5 25.5t-3.5 66.5q9 40 25 66q29 41 70 41q52 0 50 -56h42z" />
<glyph unicode="&#x369;" horiz-adv-x="0" d="M-221 518q-38 0 -51.5 26.5t-4.5 71.5q11 49 37 74.5t60 25.5q31 0 44.5 -25t4.5 -72q-10 -48 -34.5 -74.5t-55.5 -26.5zM-133 742q-17 12 -47 12q-55 0 -92 -42q-39 -40 -51 -98q-13 -60 10.5 -97.5t68.5 -37.5q56 0 94 46l-8 -37h40l76 360h-42l-28 -132q-11 19 -21 26 z" />
<glyph unicode="&#x36a;" horiz-adv-x="0" d="M-264 848l-77 -360h44l30 139q20 90 91 90q33 0 40 -22q4 -13 -2 -42l-35 -165h46l36 168q8 41 1 60q-12 40 -69 40q-31 0 -56 -14q-10 -5 -34 -28l29 134h-44z" />
<glyph unicode="&#x36b;" horiz-adv-x="0" d="M-354 750l-56 -262h44l30 139q20 89 85 89q27 0 33 -18q3 -11 -2 -39l-37 -171h45l33 153q16 75 79 75q44 0 35 -46l-39 -182h45l37 175q8 35 2 55q-11 38 -63 38q-51 0 -88 -42q-5 16 -14 26q-16 16 -47 16q-26 0 -52 -15q-18 -11 -35 -28l8 37h-43z" />
<glyph unicode="&#x36c;" horiz-adv-x="0" d="M-242 750l-56 -262h44l32 151q6 29 29 49.5t55 20.5q9 0 14 -1l10 46l-12 2h-2q-27 0 -50 -19q-26 -21 -32 -32l10 45h-42z" />
<glyph unicode="&#x36d;" horiz-adv-x="0" d="M-189 823l-15 -73h-35l-8 -36h35l-37 -173q-12 -57 41 -57q20 0 35 4l8 35q-8 -1 -17 -1q-12 0 -16 3q-8 5 -5 18l36 171h42l8 36h-42l15 73h-45z" />
<glyph unicode="&#x36e;" horiz-adv-x="0" d="M-248 750h-51l40 -262h47l154 262h-47l-118 -213z" />
<glyph unicode="&#x36f;" horiz-adv-x="0" d="M-294 750l61 -127l-121 -135h56l84 98l44 -98h56l-63 135l115 127h-54l-80 -92l-40 92h-58z" />
<glyph unicode="&#x374;" horiz-adv-x="222" d="M174 561l113 171h-106l-74 -171h67z" />
<glyph unicode="&#x375;" horiz-adv-x="222" d="M34 -32l-113 -171h105l75 171h-67z" />
<glyph unicode="&#x37a;" horiz-adv-x="150" d="M9 -313l7 33h-12q-20 0 -27 5.5t-5 19.5l44 204h-47l-45 -216q-5 -22 6.5 -35.5t37.5 -13.5q9 0 21 1z" />
<glyph unicode="&#x37b;" horiz-adv-x="500" d="M42 347h85q43 112 149 112q84 0 103 -82q12 -54 -4 -131q-16 -78 -62 -133q-45 -53 -116 -53q-106 0 -104 125h-85q-8 -101 39 -150.5t141 -49.5q102 0 179 75q78 75 102 187q29 138 -22 214q-50 77 -154 77q-190 0 -251 -191z" />
<glyph unicode="&#x37c;" horiz-adv-x="500" d="M490 347q11 101 -33.5 146t-136.5 45q-102 0 -187 -77q-84 -78 -112 -214q-24 -112 21 -187t147 -75q196 0 267 200h-86q-54 -125 -158 -125q-70 0 -93 53q-21 53 -4 133q17 79 51 131q52 82 137 82q108 0 101 -112h86zM228 314l-21 -102h90l21 102h-90z" />
<glyph unicode="&#x37d;" horiz-adv-x="500" d="M42 347h85q43 112 149 112q84 0 103 -82q12 -54 -4 -131q-16 -78 -62 -133q-45 -53 -116 -53q-106 0 -104 125h-85q-8 -101 39 -150.5t141 -49.5q102 0 179 75q78 75 102 187q29 138 -22 214q-50 77 -154 77q-190 0 -251 -191zM269 212l21 102h-90l-21 -102h90z" />
<glyph unicode="&#x37e;" horiz-adv-x="278" d="M220 406l23 111h-111l-23 -111h111zM46 111l-23 -111h59q-4 -28 -25.5 -57t-53.5 -40l-11 -50q118 33 144 157l21 101h-111z" />
<glyph unicode="&#x384;" horiz-adv-x="241" d="M216 732l-63 -143h68l105 143h-110z" />
<glyph unicode="&#x385;" horiz-adv-x="332" d="M242 732l-67 -143h62l93 143h-88zM404 602l23 104h-84l-23 -104h84zM146 602l23 104h-84l-23 -104h84z" />
<glyph unicode="&#x386;" horiz-adv-x="655" d="M370 714l-430 -714h98l125 215h302l33 -215h105l-128 714h-105zM452 295h-242l192 333h2zM168 714l-63 -143h68l105 143h-110z" />
<glyph unicode="&#x387;" horiz-adv-x="278" d="M220 406l23 111h-111l-23 -111h111z" />
<glyph unicode="&#x388;" horiz-adv-x="754" d="M135 714l-63 -143h68l105 143h-110zM312 714l-151 -714h496l17 80h-401l52 247h371l17 80h-371l48 227h398l17 80h-493z" />
<glyph unicode="&#x389;" horiz-adv-x="865" d="M135 714l-63 -143h68l105 143h-110zM312 714l-151 -714h95l69 327h376l-69 -327h95l151 714h-95l-65 -307h-376l65 307h-95z" />
<glyph unicode="&#x38a;" horiz-adv-x="394" d="M135 714l-63 -143h68l105 143h-110zM312 714l-151 -714h95l151 714h-95z" />
<glyph unicode="&#x38c;" horiz-adv-x="865" d="M135 714l-63 -143h68l105 143h-110zM158 357q-18 -73 -8 -140.5t39 -119.5t89 -83t143 -31q109 0 199.5 53.5t145.5 137t76 183.5q11 59 11 113.5t-19 102t-51 83t-84.5 55.5t-118.5 20q-82 0 -155 -31t-125.5 -83.5t-89 -119t-52.5 -140.5zM253 357q27 121 107.5 207.5 t202.5 86.5q50 0 88.5 -17t60 -45.5t34 -66t11 -79.5t-9.5 -86q-11 -56 -36.5 -107t-63 -93.5t-92 -68t-117.5 -25.5t-106.5 25.5t-62 67.5t-24 94.5t7.5 106.5z" />
<glyph unicode="&#x38e;" horiz-adv-x="842" d="M135 714l-63 -143h68l105 143h-110zM569 292l362 422h-108l-281 -340l-142 340h-113l187 -422l-62 -292h95z" />
<glyph unicode="&#x38f;" horiz-adv-x="868" d="M135 714l-63 -143h68l105 143h-110zM776 0l17 80h-175v4q189 116 232 317q29 139 -42 234.5t-222 95.5q-148 0 -264.5 -97t-146.5 -243q-42 -192 97 -307v-4h-171l-17 -80h283l15 72q-155 120 -112 320q24 117 106.5 188t192.5 71t159.5 -71t26.5 -178 q-45 -211 -246 -330l-15 -72h282z" />
<glyph unicode="&#x390;" horiz-adv-x="237" d="M203 517h-85l-90 -427q-22 -102 67 -102q36 0 69 13l14 66q-25 -5 -36 -5q-36 0 -25 50zM199 732l-67 -143h62l93 143h-88zM361 602l23 104h-84l-23 -104h84zM103 602l23 104h-84l-23 -104h84z" />
<glyph unicode="&#x391;" horiz-adv-x="648" d="M363 714l-430 -714h98l125 215h302l33 -215h105l-128 714h-105zM445 295h-242l192 333h2z" />
<glyph unicode="&#x392;" horiz-adv-x="685" d="M169 714l-151 -714h345q100 0 171.5 61t88.5 144q14 67 -11.5 112.5t-87.5 59.5v2q115 43 140 160q21 99 -52 149q-36 26 -184 26h-259zM389 407h-190l48 227h190q74 0 108.5 -22.5t19.5 -90.5q-12 -58 -54 -86t-122 -28zM368 80h-238l52 247h217q68 0 105.5 -27.5 t24.5 -91.5q-13 -60 -55.5 -94t-105.5 -34z" />
<glyph unicode="&#x393;" horiz-adv-x="552" d="M169 714l-151 -714h95l134 634h373l17 80h-468z" />
<glyph unicode="&#x394;" horiz-adv-x="648" d="M-64 0h657l-125 714h-105zM81 80l315 549h2l77 -549h-394z" />
<glyph unicode="&#x395;" horiz-adv-x="611" d="M169 714l-151 -714h496l17 80h-401l52 247h371l17 80h-371l48 227h398l17 80h-493z" />
<glyph unicode="&#x396;" horiz-adv-x="611" d="M-21 80l-17 -80h568l17 80h-455l560 554l17 80h-522l-17 -80h410z" />
<glyph unicode="&#x397;" horiz-adv-x="722" d="M169 714l-151 -714h95l69 327h376l-69 -327h95l151 714h-95l-65 -307h-376l65 307h-95z" />
<glyph unicode="&#x398;" horiz-adv-x="760" d="M53 357q-18 -73 -8 -140.5t39 -119.5t89 -83t143 -31q109 0 199.5 53.5t145.5 137t76 183.5q11 59 11 113.5t-19 102t-51 83t-84.5 55.5t-118.5 20q-82 0 -155 -31t-125.5 -83.5t-89 -119t-52.5 -140.5zM148 357q27 121 107.5 207.5t202.5 86.5q50 0 88.5 -17t60 -45.5 t34 -66t11 -79.5t-9.5 -86q-11 -56 -36.5 -107t-63 -93.5t-92 -68t-117.5 -25.5t-106.5 25.5t-62 67.5t-24 94.5t7.5 106.5zM254 408l-17 -80h300l17 80h-300z" />
<glyph unicode="&#x399;" horiz-adv-x="259" d="M173 714l-151 -714h95l151 714h-95z" />
<glyph unicode="&#x39a;" horiz-adv-x="667" d="M169 714l-151 -714h95l53 250l142 111l182 -361h120l-223 426l362 288h-123l-437 -356l75 356h-95z" />
<glyph unicode="&#x39b;" horiz-adv-x="613" d="M346 714l-413 -714h99l344 619h2l80 -619h103l-109 714h-106z" />
<glyph unicode="&#x39c;" horiz-adv-x="871" d="M171 714l-151 -714h90l126 594h2l97 -594h81l349 594h2l-126 -594h90l151 714h-130l-353 -600l-98 600h-130z" />
<glyph unicode="&#x39d;" horiz-adv-x="722" d="M168 714l-151 -714h90l121 573h2l252 -573h104l151 714h-90l-123 -579h-2l-253 579h-101z" />
<glyph unicode="&#x39e;" horiz-adv-x="570" d="M138 714l-17 -80h476l17 80h-476zM107 407l-17 -80h408l17 80h-408zM-6 80l-17 -80h496l17 80h-496z" />
<glyph unicode="&#x39f;" horiz-adv-x="760" d="M53 357q-18 -73 -8 -140.5t39 -119.5t89 -83t143 -31q109 0 199.5 53.5t145.5 137t76 183.5q11 59 11 113.5t-19 102t-51 83t-84.5 55.5t-118.5 20q-82 0 -155 -31t-125.5 -83.5t-89 -119t-52.5 -140.5zM148 357q27 121 107.5 207.5t202.5 86.5q50 0 88.5 -17t60 -45.5 t34 -66t11 -79.5t-9.5 -86q-11 -56 -36.5 -107t-63 -93.5t-92 -68t-117.5 -25.5t-106.5 25.5t-62 67.5t-24 94.5t7.5 106.5z" />
<glyph unicode="&#x3a0;" horiz-adv-x="715" d="M169 714l-151 -714h95l134 634h369l-134 -634h95l151 714h-559z" />
<glyph unicode="&#x3a1;" horiz-adv-x="648" d="M169 714l-151 -714h95l62 292h218q106 -1 174 54.5t89 156.5q22 101 -22.5 156t-151.5 55h-313zM192 372l55 262h186q157 0 128 -131q-30 -132 -183 -131h-186z" />
<glyph unicode="&#x3a3;" horiz-adv-x="610" d="M-18 0h534l17 80h-412l332 292v4l-201 258h381l17 80h-505l-16 -77l207 -266l-338 -294z" />
<glyph unicode="&#x3a4;" horiz-adv-x="574" d="M314 634l-134 -634h95l134 634h238l17 80h-571l-17 -80h238z" />
<glyph unicode="&#x3a5;" horiz-adv-x="648" d="M375 292l362 422h-108l-281 -340l-142 340h-113l187 -422l-62 -292h95z" />
<glyph unicode="&#x3a6;" horiz-adv-x="777" d="M534 744h-95l-15 -69q-139 -4 -237.5 -83.5t-130.5 -223.5q-31 -147 33.5 -218t206.5 -75l-15 -75h95l15 75q141 4 238.5 79t128.5 218q31 148 -33.5 223.5t-205.5 79.5zM407 155l94 440q206 -8 162 -223q-43 -209 -256 -217zM408 595l-94 -440q-101 4 -143.5 52.5 t-19.5 160.5q23 111 90 167t167 60z" />
<glyph unicode="&#x3a7;" horiz-adv-x="611" d="M266 367l-327 -367h107l260 295l130 -295h116l-173 367l309 347h-106l-245 -279l-119 279h-114z" />
<glyph unicode="&#x3a8;" horiz-adv-x="827" d="M457 714l-100 -474q-105 2 -143 47.5t-15 154.5l58 272h-95l-58 -275q-31 -142 23.5 -211t211.5 -71l-33 -157h95l33 157q152 5 239 75t116 207l58 275h-95l-58 -272q-23 -108 -81.5 -154.5t-160.5 -47.5l100 474h-95z" />
<glyph unicode="&#x3a9;" horiz-adv-x="752" d="M9 75l-16 -75h254l40 192q-63 8 -96 54t-33 112q0 115 78.5 200.5t193.5 85.5q90 0 142.5 -52t52.5 -142q0 -100 -59.5 -171t-158.5 -87l-40 -192h262l16 75h-192l14 63q115 20 183 107t68 206q0 122 -80.5 196t-203.5 74q-151 0 -260.5 -108t-109.5 -258 q0 -75 36.5 -133t104.5 -79l-15 -68h-181z" />
<glyph unicode="&#x3aa;" horiz-adv-x="259" d="M309 897l-22 -104h90l22 104h-90zM121 897l-22 -104h90l22 104h-90zM173 714l-151 -714h95l151 714h-95z" />
<glyph unicode="&#x3ab;" horiz-adv-x="648" d="M507 897l-22 -104h90l22 104h-90zM319 897l-22 -104h90l22 104h-90zM375 292l362 422h-108l-281 -340l-142 340h-113l187 -422l-62 -292h95z" />
<glyph unicode="&#x3ac;" horiz-adv-x="587" d="M473 113l85 404h-85l-14 -69h-2q-14 37 -49.5 59t-82.5 22q-115 0 -192.5 -78t-101.5 -191q-12 -72 -3 -132.5t53.5 -100t116.5 -39.5q117 0 182 88h2q-12 -88 70 -88q35 0 62 12l14 66q-15 -4 -34 -4q-32 0 -21 51zM119 254q17 82 65.5 141t130.5 59q71 0 97 -57t9 -139 q-18 -83 -66.5 -139t-128.5 -56q-73 0 -98 57t-9 134zM379 732l-63 -143h68l105 143h-110z" />
<glyph unicode="&#x3ad;" horiz-adv-x="485" d="M383 378h84q5 78 -37.5 114.5t-128.5 36.5q-85 0 -152.5 -41t-80.5 -111q-17 -83 52 -107l-1 -2q-43 -9 -74.5 -41t-42.5 -81q-9 -42 2 -73.5t36.5 -49.5t58.5 -26.5t72 -8.5q208 0 273 176h-87q-23 -58 -60.5 -80.5t-93.5 -22.5q-61 0 -90.5 22.5t-18.5 67.5 q17 82 116 82h79l16 73h-81q-83 0 -67 73q17 77 128 77q52 0 76 -18.5t22 -59.5zM335 732l-63 -143h68l105 143h-110z" />
<glyph unicode="&#x3ae;" horiz-adv-x="557" d="M113 517l-109 -517h85l62 292q15 73 63.5 117.5t123.5 44.5q49 0 71 -28t12 -76l-117 -548h85l115 538q41 189 -138 189q-113 0 -188 -94h-2l17 82h-80zM381 732l-63 -143h68l105 143h-110z" />
<glyph unicode="&#x3af;" horiz-adv-x="237" d="M203 517h-85l-90 -427q-22 -102 67 -102q36 0 69 13l14 66q-25 -5 -36 -5q-36 0 -25 50zM207 732l-63 -143h68l105 143h-110z" />
<glyph unicode="&#x3b0;" horiz-adv-x="527" d="M194 517h-85l-73 -347q-20 -95 20 -138.5t143 -43.5q112 0 187 76.5t103 211.5q13 55 13 123t-18 118h-92q19 -53 21 -124t-10 -119q-45 -211 -188 -211q-60 0 -82.5 28t-7.5 100zM340 732l-67 -143h62l93 143h-88zM502 602l23 104h-84l-23 -104h84zM244 602l23 104h-84 l-23 -104h84z" />
<glyph unicode="&#x3b1;" horiz-adv-x="587" d="M473 113l85 404h-85l-14 -69h-2q-14 37 -49.5 59t-82.5 22q-115 0 -192.5 -78t-101.5 -191q-12 -72 -3 -132.5t53.5 -100t116.5 -39.5q117 0 182 88h2q-12 -88 70 -88q35 0 62 12l14 66q-15 -4 -34 -4q-32 0 -21 51zM119 254q17 82 65.5 141t130.5 59q71 0 97 -57t9 -139 q-18 -83 -66.5 -139t-128.5 -56q-73 0 -98 57t-9 134z" />
<glyph unicode="&#x3b2;" horiz-adv-x="564" d="M116 517l-152 -715h85l57 266q12 -35 48 -57.5t93 -22.5q87 0 165 59.5t102 172.5q17 80 -5.5 133.5t-90.5 68.5l1 2q37 9 71.5 45.5t45.5 89.5q16 75 -24 123.5t-144 48.5t-166 -52t-86 -162zM146 258l53 246q17 83 53.5 118t99.5 35q56 0 80 -26t14 -72 q-12 -55 -49 -89.5t-90 -34.5h-27l-14 -68h60q66 0 89.5 -37.5t6.5 -120.5q-11 -53 -42 -87t-63.5 -46.5t-68.5 -12.5q-67 0 -94.5 49.5t-7.5 145.5z" />
<glyph unicode="&#x3b3;" horiz-adv-x="465" d="M502 517h-89q-90 -243 -210 -411h-4q8 87 -4 215t-38 196h-94q35 -110 49 -275t-9 -294l-31 -146h88l40 186q199 244 302 529z" />
<glyph unicode="&#x3b4;" horiz-adv-x="554" d="M28 249q-25 -114 24 -187.5t168 -73.5q116 0 191.5 73t98.5 186q4 35 5.5 60.5t-8.5 51t-20 44t-29 38t-35.5 33t-39.5 29.5l-30 22q-44 32 -62.5 50.5t-15.5 35.5q10 49 101 49q28 0 72 -10t74 -24l16 75q-56 30 -147 30q-90 0 -140.5 -34t-60.5 -77q-9 -35 7 -67 t67 -67q-95 -21 -155 -83t-81 -154zM118 249q18 85 66.5 134t133.5 63q69 -43 92 -91t10 -108q-19 -87 -68 -135.5t-116 -48.5q-72 0 -105 48t-13 138z" />
</font>
</defs>
</svg>
